<?xml version="1.0" standalone="no"?>
<!DOCTYPE svg PUBLIC "-//W3C//DTD SVG 1.1//EN" "http://www.w3.org/Graphics/SVG/1.1/DTD/svg11.dtd" >
<svg xmlns="http://www.w3.org/2000/svg">
<metadata>
This is a custom SVG webfont generated by Font Squirrel.
Copyright   :  19992001 WolfBainX  Apostrophic Labs All rights reserved Email infoapostrophiclabcom or visit wwwapostrophiclabcom for more information
Designer    : WolfBainX
Foundry URL : wwwapostrophiclabcom
</metadata>
<defs>
<font id="webfontPEKnw8EO" horiz-adv-x="1286" >
<font-face units-per-em="2048" ascent="1638" descent="-410" />
<missing-glyph horiz-adv-x="714" />
<glyph unicode=" "  horiz-adv-x="714" />
<glyph unicode="&#x09;" horiz-adv-x="714" />
<glyph unicode="&#xa0;" horiz-adv-x="714" />
<glyph unicode="!" horiz-adv-x="899" d="M-4 141q0 -25 14 -53q10 -29 36 -59.5t56 -51.5h15q45 -12 96 -12q29 0 50.5 1t37.5 3q4 0 8 1t8 1q31 6 62 24.5t56.5 43t44 52.5t24.5 52q2 10 4 23.5t2 26.5q0 72 -68 124l-200 121q16 -33 20 -47t0 -14q-23 -4 -52.5 -2t-51.5 2q-23 0 -28 -6t24 -25 q-98 -45 -136 -133q-22 -27 -22 -72zM184 563q0 -63 27 -98l12 -10l176 -76q33 12 65 37.5t56.5 54.5t39.5 58.5t20 50.5l-2 -7l17 49l38 105l51 143l58 163l59 163l53 144l40 107q15 42 19 50l-2 -6q20 27 21 57q0 25 -9.5 45.5t-23.5 34.5l-12 8q-45 47 -89 63.5t-87 16.5 q-14 0 -31.5 -2t-38.5 -6q-59 -12 -96 -39t-59.5 -63.5t-36 -80.5t-25.5 -89q-31 -125 -65.5 -244t-73.5 -238l-37 -114l-35 -115q-2 -10 -7 -27.5t-9 -41.5l-9 -48q-4 -25 -4 -45z" />
<glyph unicode="&#x22;" horiz-adv-x="688" d="M37 995q0 -41 18.5 -73.5t71.5 -40.5h18q57 0 111.5 56t77.5 140v-2l84 244q0 2 1 6t1 8q0 2 2 6q4 16 6 35t2 41q0 45 -22.5 77t-94.5 32q-84 0 -128 -54.5t-60 -126.5l4 7q-8 -16 -8 -27v-4l-58 -213q-10 -20 -12 -26.5l-6 -20.5q-4 -12 -6 -29t-2 -35zM362 981 q0 -43 20.5 -69.5t74.5 -30.5h10q72 0 124 66.5t77 162.5l-2 2l59 201l8 28v-2q2 4 3 11.5t3 9.5q2 6 2 8q0 4 2 8q8 31 9 56q0 41 -23.5 66.5t-91.5 25.5q-53 0 -86 -17.5t-53.5 -46t-32.5 -64.5t-21 -73h2l-67 -240l-2 -18l2 4q-17 -55 -17 -88z" />
<glyph unicode="#" horiz-adv-x="1181" d="M-25 926q0 -33 11.5 -61.5t31.5 -57.5h-2q16 -29 58.5 -51.5t85.5 -34.5q-31 -2 -86 -29v2q-4 -4 -8.5 -5t-8.5 -5l-38 -21q-19 -11 -42 -26h41q-16 -31 -16 -72q0 -31 11.5 -60.5t35.5 -55.5q47 -55 111 -66q23 -2 45 -3t43 -1q6 -35 12 -62l6 -38q6 -29 19.5 -54.5 t36.5 -48.5q55 -55 108 -55q94 0 135 129h-2q14 43 15 90q0 10 -1.5 18.5t-3.5 16.5q27 4 65 6t89 2q-2 -4 -2 -12v-23q0 -20 2 -41.5t10 -50.5v2q4 -23 11.5 -40l13.5 -30l8 -16l-4 6q8 -12 26.5 -27.5t40 -30t42 -24.5t30.5 -10q23 0 49.5 15.5t48 39t36 50t14.5 51.5v151 h37q31 6 56 22.5t54 45.5q31 39 49.5 72.5t18.5 70.5q0 20 -10.5 45t-29 46.5t-41 35.5t-46.5 14h-119v3q29 6 52.5 8t45.5 6q10 2 21 2q10 0 20 2q31 6 54.5 20.5t46.5 49.5l-2 -2q41 57 40 100q0 47 -40 110q-49 74 -119 74h-97l3.5 17.5t-3.5 -0.5q4 23 5.5 44t1.5 31 q0 176 -162 176q-78 0 -117 -59q-37 -59 -39 -164q-2 -45 -6 -71h-12h-115v79q0 33 -1 53.5t-1 30.5v15q-27 150 -149 149q-125 0 -144 -139q-2 -10 -3 -20.5t-1 -24.5q-2 -8 -2 -29v-24q-4 -39 -6 -69t-2 -54h-6q-10 0 -28.5 2t-45.5 6q-35 8 -86 8q-150 1 -150 -149z M596 723v12q27 6 78 6q23 0 33 -2q0 -4 -1 -8t-1 -8h-109z" />
<glyph unicode="$" horiz-adv-x="1030" d="M-25 623q0 -111 99 -181q27 -20 61.5 -37.5t87.5 -39.5q18 -10 31.5 -16.5l21.5 -10.5v-16h11v-166q0 -45 47 -109q49 -68 110 -67q61 0 115 77q16 29 25.5 52.5t9.5 48.5v172q20 2 49 14l48 16l30 11q12 4 22.5 7t24.5 9q252 154 256 354h-2q0 6 2 11h2q4 18 4 20 q0 4 2 8l2 8q0 4 -1 8.5t-1 8.5l4 20q2 10 4 23l-10 -10q-12 61 -49 135l4 2q-6 10 -10 18l-8 17h20q-10 10 -22.5 18t-22.5 19q-2 4 -4 5t-4 3l-6 12v-6l-4 4l-2 -4q-66 51 -139.5 84t-151.5 49q-41 2 -88 4t-88 6q-16 0 -27.5 -1t-19.5 -3q4 4 9 7t11 10q23 23 39 24 q190 31 235 31h15q63 0 100 12q37 14 72 86q12 27 17 47.5t5 34.5q0 35 -16 61.5t-41 45t-55.5 27.5t-61.5 9h-20q-10 0 -18.5 -1t-18.5 -5l6 4q-8 -2 -12 -2q-6 -2 -21 -2h-51q0 4 1 7t1 8q0 35 -4 75.5t-19.5 75.5t-48 58.5t-88.5 23.5q-35 0 -76.5 -26.5t-58.5 -61.5 q-10 -23 -11 -61.5t-1 -79.5v-47q0 -45 -8 -62l-30 -18q-13 -8 -23 -19q-14 -10 -25.5 -19t-22.5 -16q-166 -154 -165 -272q0 -111 75 -186v2q66 -74 262 -103h-2q33 -6 66 -10l65 -8q2 0 6.5 -1t8.5 -1q31 -4 62.5 -9t68.5 -10q86 -23 86 -36q0 2 -8 -9q-35 -49 -70 -63 q-61 -31 -100 -31q-25 0 -47.5 2t-40.5 6q-14 2 -24.5 3t-24.5 1q-4 0 -5.5 -1t-3.5 -1h-18q-23 0 -54.5 18.5t-66.5 41.5l-47 27q-23 13 -45 24l2 -2q-16 8 -31 8q-29 0 -55.5 -22.5t-52.5 -51.5q-54 -69 -54 -120z" />
<glyph unicode="%" horiz-adv-x="1990" d="M2 1022q0 -72 33 -138.5t86 -109.5l-2 2q55 -47 124.5 -66.5t147.5 -19.5q57 0 111 6q92 16 156 45l124 58l9 4q-10 -10 -20 -23l-19 -26v2l-136 -165l-105 -133l-92 -122l-95 -129l-34 -45l-36 -45q-43 -61 -43 -115q0 -63 43 -99t111 -36q45 0 95 23.5t91 70.5l233 288 l234 281q-20 -29 -36.5 -59.5t-29.5 -64.5q-10 -43 -17 -77t-9 -91q0 -96 53 -174t164 -111h-2q51 -18 104 -26.5t107 -8.5q141 0 262 50t203 128q33 31 66.5 69t60 84t43 99t16.5 115q0 43 -6 81t-23 70q-23 51 -57.5 85t-79.5 54.5t-99.5 29t-113.5 8.5q-66 0 -125 -6.5 t-115 -14.5q-78 -10 -151.5 -49t-136.5 -98l204 231l213 231q12 14 30 28l34 26q4 4 4 2l4 4l-4 -2q31 23 61.5 48.5t56 58t41 74.5t15.5 95v21q0 18 -2 26q-8 61 -53 88t-105 27q-35 0 -70.5 -9t-64.5 -30l2 2q-94 -63 -157.5 -137t-122.5 -152l-17 -21l-16 -22 q-4 -8 -16.5 -22t-8.5 -10l-45 -60q-23 -31 -51 -61q-8 -8 -16 -17.5t-19 -19.5q12 51 13 106q0 72 -15 129l-4 3q-16 59 -51 98t-80 65.5t-96 42.5l-96 31q-43 12 -75 15.5t-61 3.5q-94 0 -170.5 -33t-137 -86.5t-106.5 -119t-81 -128.5q-31 -66 -31 -127zM385 1049 q0 55 35 84.5t69 48.5q4 4 12.5 7t12.5 7h10q16 0 37 -6t39 -15.5t30.5 -23.5t12.5 -29q-14 -27 -42 -44t-61.5 -28.5t-67.5 -16.5t-58 -5q-25 0 -27 8q0 4 -1 6.5t-1 6.5zM1018 530q4 4 4 7q0 -3 -4 -7zM1124 1180q0 2 4 6l-2 -2q-2 -2 -2 -4zM1280 340q0 45 33 85t73 54 q16 6 49 8t68 2h78q18 0 29 -34q4 -16 4 -21q0 -47 -25.5 -90t-70.5 -61q-23 -10 -53.5 -19.5t-71.5 -9.5q-10 0 -24 2l-28 4q-14 2 -24 5t-10 7q-16 20 -21.5 37t-5.5 31z" />
<glyph unicode="&#x26;" horiz-adv-x="1564" d="M-14 434q0 -190 118 -315q127 -133 330 -133q332 0 514 170q29 25 57.5 55.5l63.5 71.5q25 31 44 57l34 47q6 10 13 19.5t11 17.5l14 30q7 15 11 27v-2l41 104q18 46 29 79q0 2 -1 5t-1 5q0 -6 32 -6q12 0 22.5 1t20.5 3h2q135 0 198 50t63 136q0 117 -42 170t-133 53 q-29 0 -48 -2t-42 -6q-10 -2 -24.5 -4t-26.5 -4q-8 0 -14 -2h-6q-18 -2 -35 -3t-31 -1h-47q-12 0 -25.5 1t-27.5 1q-133 0 -178 -103q-10 -29 -16.5 -51t-10.5 -39l2 4q-2 -4 -4 -11t-4 -11q0 -8 -6 -33v2q-59 -160 -80 -194v2l-7 -11q-7 -10 -12 -14l-45 -61 q-20 -29 -41 -50l2 7q-90 -129 -278 -129q-25 0 -41 9t-16 25q0 35 26 95q57 92 90 125l26 25l23 22q23 20 37.5 34.5t24.5 26.5q29 27 90 62q10 0 18 8q8 4 24.5 13t37.5 19q43 23 74 37q41 29 56 57.5t15 61.5q0 217 -200 217q-18 0 -54.5 -11t-87.5 -36l-18 -7 q-8 -3 -15 -5q-2 10 -3 21.5t-1 19.5q0 25 14.5 51.5t61.5 48.5q45 20 87 25.5t77 5.5h53q18 0 60 -47q104 -104 170 -105q53 0 98 34t45 99q0 104 -92 209q-61 55 -111.5 85t-89.5 38q-10 2 -22 5l-29 7l-57 13q-29 6 -56 6q-61 0 -118.5 -17.5t-109.5 -45t-99.5 -62.5 t-87.5 -70q-154 -135 -154 -340q0 -61 7 -111t34 -104q-4 -14 -20 -28l-31 -31l-40 -37q-17 -16 -22 -41q-110 -170 -110 -340z" />
<glyph unicode="'" horiz-adv-x="382" d="M37 995q0 -41 18.5 -73.5t71.5 -40.5h18q57 0 111.5 56t77.5 140v-2l84 244q0 2 1 6t1 8q0 2 2 6q4 16 6 35t2 41q0 45 -22.5 77t-94.5 32q-84 0 -128 -54.5t-60 -126.5l4 7q-8 -16 -8 -27v-4l-58 -213q-10 -20 -12 -26.5l-6 -20.5q-4 -12 -6 -29t-2 -35z" />
<glyph unicode="(" horiz-adv-x="784" d="M-12 719q12 -172 60 -320.5t165 -283.5l12 -13q4 -4 7.5 -6t7.5 -6v2q31 -35 51 -47h-2q68 -49 143 -49q147 0 148 145q0 74 -76 170q-10 16 -20.5 30.5l-20.5 27.5q-49 63 -62 88q-25 49 -38 101t-13 112q0 164 78 432q8 12 10 22q8 14 13.5 29.5t9.5 30.5v4v-8l19 42 q9 19 20 33q35 59 106.5 142.5t184.5 185.5h-27q29 57 29 119q0 168 -170 168q-39 0 -80 -20.5t-80 -50.5t-70 -64.5t-47 -63.5q-86 -84 -151 -207q-76 -135 -97 -241v2q-4 -10 -4 -21q0 -8 -4 -16q-10 -25 -12 -43l-29.5 -103.5t-28 -115t-21.5 -112.5t-11 -95z" />
<glyph unicode=")" horiz-adv-x="798" d="M-12 168q0 -86 37.5 -126t128.5 -40q31 0 57.5 9t46.5 22q8 6 17 16l20 23v-2l20 21l21 22h-2l28 25l27 24l62 82l47 59q25 31 40 52.5t31 50.5q10 16 15.5 26t9.5 25l16 42q8 22 21 42q35 63 61.5 145t45 176t29.5 197.5t17 208.5l-59 196q-16 35 -50 87.5t-72 105.5 t-76 100t-62 72h2q-29 29 -59.5 38t-63.5 9q-145 0 -145 -147q0 -66 28.5 -110t61.5 -81q2 -2 3 -4t3 -4l-4 6q6 -12 16 -23q2 -4 7 -12t10 -12l22 -37l27 -45l-4 6q14 -57 32 -98q8 -20 13.5 -36.5t5.5 -37.5q4 -18 5 -32.5t1 -32.5q0 -39 -13.5 -109t-35.5 -174 q-10 -18 -12.5 -40l-4.5 -40q-2 -10 -2 -20q0 -8 -4 -13q-25 -66 -42 -106l-29 -68q-12 -27 -21.5 -42l-17.5 -27q-2 -2 -3 -5.5t-3 -5.5q-4 -20 -31 -52t-62 -68q-29 -31 -56.5 -64t-50 -63.5t-36.5 -59t-14 -51.5z" />
<glyph unicode="*" horiz-adv-x="921" d="M-31 1225q0 -80 62 -135q66 -57 141 -58q8 0 16.5 1t18.5 3t19.5 3t13.5 1q23 0 28 -8q6 -10 6 -45q0 -10 -1 -20.5t-1 -20.5v-39q0 -111 95 -174q16 -14 67 -14q84 0 103 112q4 35 9 63t11 44q12 -4 28 -11l36 -18q82 -39 92 -39q47 0 76.5 37t29.5 78q0 57 -69 109 q-12 8 -20.5 15l-16.5 13q4 2 10 2t12 2q20 4 43 9.5t43 11.5q104 31 105 143q0 143 -150 144q-10 0 -32 -2l-44 -5q-23 -4 -45 -5t-32 -1q-41 0 -56 15q-10 31 -12 108q-2 51 -7 83t-13 52q-33 82 -127 82q-57 -6 -92 -48t-35 -97v-17v-22q0 -10 2 -21q-16 14 -35 39 q-63 53 -125 54q-43 0 -75 -32t-32 -77q0 -47 62 -129l21 -29l22 -26l-2 4q4 -8 8 -14.5t8 -10.5q-6 -2 -18 -2h-4q-39 0 -50 -4q-39 -8 -66.5 -37.5t-27.5 -66.5z" />
<glyph unicode="+" horiz-adv-x="1093" d="M-31 838q0 -29 5.5 -51.5t15.5 -43.5q51 -90 186 -90q6 0 18.5 1t22.5 1q12 2 23 2h20q45 0 45 -26q0 -33 -6 -94q-6 -66 -6 -99q0 -213 156 -213q66 0 100 39q6 10 18.5 40t28.5 83q10 39 19.5 70.5t13.5 54.5q12 70 45 111q37 49 86 49h184q74 0 123 61q39 47 39 123 q0 119 -115 148q-61 8 -110.5 12t-81.5 6q-82 6 -74 -2q-31 25 -31 70q0 10 2 33.5t6.5 50t7.5 59.5l3 33q0 180 -158 180q-111 0 -143 -123q-4 -23 -8.5 -64.5t-8.5 -103.5q-2 -14 -2 -29q0 -12 -2 -22l-7 -47q-3 -20 -3 -37q-4 -31 -125 -31q-117 0 -172 -12 q-115 -30 -115 -139z" />
<glyph unicode="," horiz-adv-x="460" d="M-86 -16q0 -61 41 -99.5t104 -38.5q20 0 48 9.5t53 31.5l2 -2q8 8 22 28l33 45l40 54l40 56l15 19q7 9 14 19h18q8 43 9 57.5t1 31.5q0 37 -19.5 65.5t-51.5 54.5q-35 10 -50.5 13.5t-25.5 3.5h-10q-16 0 -33 -2t-58 -19v-10q-23 -25 -55.5 -74t-63 -101t-52 -93 t-21.5 -49z" />
<glyph unicode="-" horiz-adv-x="1099" d="M27 563q0 -12 2 -18v-8q0 -6 1 -11.5t5 -15.5l-2 6q6 -18 13 -42.5t24 -43.5l-2 4q23 -33 69.5 -44t112.5 -11h49q14 0 28.5 1t30.5 1q8 0 17.5 1t17.5 1q18 2 37 3t37 1h4q12 0 65.5 1t117 3t119.5 5t73 7h35q53 0 81.5 3.5t53.5 19.5q31 14 39 29.5t8 48.5l-10 20h2 q-10 23 -19.5 40.5t-25.5 27.5h2q-59 55 -146.5 69.5t-185.5 14.5h-88q-10 0 -23.5 -1t-23.5 -1q-10 -2 -21 -2h-16q-47 0 -104.5 -1t-110.5 -3t-95 -5.5t-61 -5.5v2q-53 -10 -81.5 -23t-28.5 -65v-8z" />
<glyph unicode="." horiz-adv-x="323" d="M-63 131q0 -29 9 -51.5t23 -40.5q47 -35 89 -48.5t65 -13.5q33 0 63.5 8.5t53.5 20.5q45 25 75.5 64t32.5 86q0 94 -94 131l2 -2q-23 12 -49.5 20t-52.5 8q-29 0 -39 -2h2q-4 -2 -13 -2q-66 -12 -112.5 -55t-54.5 -102v-21z" />
<glyph unicode="/" horiz-adv-x="1499" d="M-92 131q0 -23 8 -39l18 -37q55 -80 166 -80q55 0 99 25q41 29 66 56l46 50v-2q10 10 17.5 18.5t13.5 14.5q4 6 8 10l8 9h2l1035 1085l26 27l4 4l39 39q29 27 47.5 51t18.5 65q0 10 -2 21.5t-17 38.5h2q-4 4 -6 8l-20 35l-29 49v-39q-25 12 -67 23h-31q-4 0 -5 1t-5 1 q-59 0 -113.5 -22.5t-104 -57.5t-92.5 -77t-77 -81l-897 -954v2l-46 -46q-27 -28 -51 -62t-42.5 -68.5t-18.5 -67.5z" />
<glyph unicode="0" horiz-adv-x="1058" d="M-27 422q0 -109 33 -194t119 -152q53 -53 115.5 -76t140.5 -23q154 0 324 101h-3q135 76 216 178t135 250h2q29 74 44 136.5t15 117.5q0 63 -31 147q-14 35 -29.5 58.5t-32.5 41t-35.5 31t-41.5 27.5v2h-4q0 2 -4 2l-4 4v-2q-2 0 -3 1l-7 7q-74 47 -147 74t-150 27 q-141 0 -285 -86q-160 -96 -243 -225.5t-111 -311.5v2q-13 -65 -13 -137zM254 524q0 29 8 63t23 72v-2q45 102 131 157.5t178 55.5q6 0 18.5 -1t22.5 -3q84 -10 140 -68.5t56 -142.5q0 -43 -20 -94v-4q-18 -49 -49 -81t-78 -70q-55 -47 -103.5 -70t-107.5 -23h-20 q-53 4 -83 17.5t-61 48.5q-55 61 -55 145z" />
<glyph unicode="1" horiz-adv-x="471" d="M-23 844q0 -49 26 -93t54 -61q10 -10 21.5 -11t27.5 -1q27 0 52 10q-4 -10 -6 -20l-5 -21q0 -4 -1 -8t-1 -8v4q-4 -12 -6 -25.5t-4 -23.5q-10 -72 -24 -128l-29 -110q-2 -6 -3 -11t-3 -11h2l-32 -120q-15 -60 -28 -138v-19q0 -74 36 -92t91 -18h54q45 20 70.5 38.5 t37.5 42t17.5 55t9.5 81.5q2 16 10 57l18 94l13 55l-2 -2q6 16 7 26.5t3 19.5v-3q8 45 15 79l14 61l12 51q6 25 14 53h-2l24 93l34 139h-2q4 10 7 22t7 25v6q16 53 16 84q0 72 -43 115t-96 43q-47 0 -94 -33q-29 -27 -53 -43l-48 -31h2q-10 -4 -12 -6l-4 -4q-2 -2 -4 -2 t-4 -2l6 2l-18 -13q-41 -27 -78 -54t-80 -73q-10 -20 -14.5 -37.5t-4.5 -33.5z" />
<glyph unicode="2" horiz-adv-x="1077" d="M-18 166q23 -74 59.5 -130t99.5 -56q16 0 24.5 1t14.5 3q80 23 136.5 29.5t105.5 6.5q45 0 100 -6h-4q6 -2 14 -2h19q4 0 9 -1t11 -1q10 -2 35 -2q8 0 14.5 -1t14.5 -1t18.5 -1t22.5 -3h10h2q10 -2 39 -7t74 -15q6 -2 18 -3q14 0 21 3l-66 65l-33 -51q31 -10 60 -14 l24 -8l29 -7l-14 15q55 6 98 63q23 31 38 71t15 74q0 35 -16.5 63t-54.5 44q-92 33 -180.5 44t-172.5 11h-41q-18 0 -37 -2q53 35 111.5 62.5t116.5 50.5l135 62q66 32 122 77t101 110.5t76 161.5h-2q2 10 3 22.5t1 23.5q0 59 -31.5 112t-91.5 94l2 2q-6 4 -11 6.5t-11 4.5 l-13 8l-12 8v-8q-4 2 -10 2q-4 0 -8 2h-4q-31 12 -76 12q-47 0 -106.5 -11t-118 -27.5t-107.5 -33t-74 -28.5l2 -2q-53 -16 -118.5 -55t-122 -87.5t-95 -97.5t-38.5 -86q0 -16 10 -37.5t26.5 -42t37 -37t42.5 -18.5q12 -4 23 -4h20q47 0 70.5 23.5t46.5 56.5v-4q10 12 21 18 q4 2 9 5t9 5l6 7q14 10 30.5 19t24.5 13l9 8q2 2 7 6.5t7 6.5h-2q41 27 83 46t91 23q4 2 8 2t7 1t7 1h7q2 0 5 1.5t5 1.5q20 4 39.5 6t32.5 2h16q8 0 8 2v-2q0 -16 -35 -32.5t-73 -31.5q-4 -2 -9.5 -4t-9.5 -4t-7 -3t-7 -3l2 2l-24 -9q-13 -5 -21 -9l-24.5 -13.5t-16.5 -7.5 q-16 -8 -25 -10q-12 -4 -24.5 -11.5t-22.5 -11.5l-12 -6l2 2l-88 -43q-41 -20 -101 -61l3 2q-4 -2 -7.5 -3t-7.5 -3q-8 -4 -16 -11l-23 -16q-29 -18 -53.5 -35.5t-48 -37t-47.5 -45.5l-56 -58q-78 -94 -77 -182q0 -20 2 -31h-6zM379 664l6 6z" />
<glyph unicode="3" horiz-adv-x="1026" d="M-14 207q0 -8 1 -15.5t9 -17.5l-4 4q25 -57 51.5 -93t60 -60.5t73.5 -43t89 -36.5q51 -16 99.5 -22.5t97.5 -6.5q86 0 173 22.5t160.5 63.5t130 97.5t83.5 125.5q59 129 59 236q0 35 -8 71.5t-25 75.5q-2 2 -3 5t-3 5l4 -8l-19 35q-9 16 -20 31q39 41 74 102.5t35 139.5 q0 20 -3 39.5t-14 48.5v-2q-23 78 -67.5 118.5t-126.5 51.5q-33 6 -66.5 8t-70.5 2q-68 0 -139.5 -12.5t-142.5 -42t-136.5 -79t-118.5 -122.5q6 -33 19.5 -65t32 -56.5t44 -39.5t58.5 -15h8q29 8 34 9t13 5q10 8 12 9l6 3l17 8q2 2 10 7q57 37 121.5 71.5t124.5 34.5 q16 0 59 -16q-6 -10 -15 -20l-20 -19l5 2q-35 -25 -63 -34t-56 -13q-4 -2 -12.5 -3t-12.5 -3l2 2l-24 -7h2q-66 -12 -126.5 -31.5t-107.5 -62.5q-10 -33 -12 -54.5t-2 -37.5q0 -70 33.5 -111.5t93.5 -46.5v-14q59 23 115.5 37t93.5 14q31 0 55.5 -8t32.5 -31q4 -10 6 -21 t2 -22q0 -25 -10 -48t-33 -40q-55 -39 -104.5 -58.5t-108.5 -19.5q-25 0 -49.5 2.5t-52.5 10.5q-27 6 -50.5 30.5t-44.5 49.5q-33 39 -61.5 66.5t-71.5 27.5q-20 0 -31.5 -2t-21.5 -12l-6 -7l4 2l-43 -32q-25 -18 -46.5 -41t-36.5 -50.5t-15 -58.5v-12z" />
<glyph unicode="4" horiz-adv-x="1036" d="M-37 424h23q8 -51 36.5 -108.5t51.5 -88.5q23 -14 40 -21t38 -7q10 0 23 3l32 7q-12 -8 -2 -5t20 7h-4q4 0 6 1t4 1l40 10l46 13h-4q55 4 127 6t125 2q-4 -16 -9 -33.5t-9 -36.5q-4 -10 -10 -34l-11 -40q0 -2 -2 -2v-2v-8l4 14q0 -2 -2 -2q0 -2 -2 -2v-2q0 -4 -1 -6 t-1 -6h43l-28 41l-5 -12q-2 -4 -4 -6.5t-2 -6.5q0 -2 -1 -3l-1 -1q-2 -6 -2 -12v2q-4 -8 -4 -20q0 2 -1 1l-1 -10q-6 -23 -10 -45t-4 -43q0 -47 18.5 -73.5t77.5 -26.5h37q2 0 3 -1t3 -1h16q25 0 44.5 4t36 15.5t32.5 31t33 51.5q23 49 32 100.5t15 100.5h2q6 66 16 106 q6 2 21 3h29q2 0 3 -1.5t3 -1.5q20 0 43.5 4.5t52.5 26.5q29 16 51.5 31.5t37.5 38t23.5 55.5t8.5 82v8q0 76 -31 100.5t-84 24.5q-18 0 -28.5 -1t-20.5 -3v-2h-23q-4 -2 -8 -2t-8 -2q4 27 9 45t9 37q0 8 2 12v2q2 10 4.5 19.5t4.5 19.5q4 12 6 28.5t6 37.5q2 4 2 6v2 q20 29 34.5 55.5t14.5 56.5v25q-12 55 -50 83t-91 28q-27 0 -74 -22.5t-106 -55.5l10 -43q-8 -18 -11 -34.5l-6 -33.5q-2 -10 -3 -17t-1 -9v2q-16 -41 -24 -73t-12 -60q0 -8 -2.5 -12.5t-2.5 -12.5q-2 -4 -2 -10q-4 -8 -4 -11q-2 -6 -3 -13t-3 -17l2 6q-8 -23 -8 -29 q0 -4 -2 -10l-4 -19.5t-6 -19.5q-61 -12 -144.5 -21.5t-154.5 -11.5q16 29 32 51v-2q10 16 24.5 37l25.5 37q18 39 34 60v-2l10 13q5 7 11 17q2 2 3 5t5 8q27 39 48.5 77.5t35.5 75.5q10 20 16.5 40t6.5 36q0 51 -27 87t-70 54v2q-12 4 -24 4h-25q-106 0 -168 -157 q-12 -39 -22.5 -59.5t-22.5 -39.5q2 2 -2 -6l-2 2l4 4q4 8 0 4q-2 -2 -6 -9t-8 -17q-2 -2 -2 -4q-4 -4 -4 -6l-4 6l-41 -73q-18 -32 -37 -54q-23 -33 -42.5 -66t-39 -71.5t-38 -87t-36.5 -109.5zM479 1139l4 22l4 -4zM520 76l2 8v-4q0 -2 -2 -2v-2zM530 106l7 13 q-4 -4 -5 -6z" />
<glyph unicode="5" horiz-adv-x="942" d="M-20 199q0 -37 13 -77l25 -75q37 -72 123 -103.5t195 -31.5q33 0 68.5 3t70.5 11q55 8 103.5 19.5t93.5 33t88 55.5t84 85v-2q43 43 71.5 86t51.5 106h4q31 106 30 168q0 88 -33.5 160t-88.5 119q-70 57 -146 77.5t-153 20.5h-31q14 2 26.5 4t28.5 6h-2q4 0 7 1t7 1h13 q6 0 16 4l-6 -2h2l39 6q2 0 3 1.5t3 1.5l6 2h101q39 0 70.5 4t66.5 20q45 20 72.5 71.5t27.5 98.5q0 29 -8 47.5t-25 34.5q-47 63 -133 64q-29 0 -52 -5l-46 -8l-18 -6v2l-81 -20q-40 -10 -77 -17h2q-4 0 -7 -1t-5 -1q-12 -2 -21 -2h-18q-4 0 -8.5 -1t-8.5 -1h-16 q-63 -4 -124.5 -17.5t-145.5 -56.5q-8 -41 -16.5 -70.5t-17.5 -51t-19 -37.5l-17 -31l-10 -21v3q-23 -37 -43.5 -83t-30.5 -135q20 -55 36.5 -89.5t33 -55t34 -29t41.5 -8.5q16 0 30.5 1t31.5 9q47 14 108.5 25.5t126.5 17.5h19q68 0 119 -23.5t51 -66.5q0 -10 -4 -21 l-9 -26q-10 -29 -32 -47l-52 -41q-14 -4 -24 -18q-47 -35 -93 -48.5t-93 -13.5q-20 0 -45 4t-54 11q-10 2 -15 13t-9 26h-2q-14 39 -37 65.5t-86 26.5h-21q-8 0 -18 -2q-82 -16 -111.5 -61.5t-29.5 -108.5zM287 485h2q0 2 2 2z" />
<glyph unicode="6" horiz-adv-x="1030" d="M2 326q0 -45 5 -78t13 -66q35 -121 116 -189.5t231 -68.5q84 0 165 21q88 20 160 49t134.5 74t117.5 109.5t109 160.5q49 100 49 188q0 76 -33 140q-41 78 -95 107.5t-140 33.5h-21q-86 0 -169 -19.5t-163 -52.5q51 45 102.5 68.5t110.5 38.5h-2q43 10 89 40.5t73 71.5 l70 -57q0 2 -6 22l-14 40l-13 41q-6 19 -6 22l-2 2v2v6q0 10 -10 39l-15 47l-10 -10q-41 59 -107 59q-16 0 -34.5 -2t-40.5 -10l-77 -22q-34 -10 -62.5 -22.5t-59.5 -29t-68 -41.5q-147 -102 -235 -223t-133 -295h2q-16 -55 -23.5 -102t-7.5 -94zM332 262q0 10 12 31 q53 45 115.5 88t148.5 59q6 0 13 2q2 0 5 1t5 1q41 10 80 15.5t73 5.5h35v-6q-2 -12 -17.5 -30.5t-39 -38t-52 -40t-57.5 -37.5q-61 -37 -121.5 -53t-93.5 -16q-14 0 -32.5 1t-35 2t-27.5 5t-11 10z" />
<glyph unicode="7" horiz-adv-x="878" d="M18 31q27 -61 74 -95t92 -34q20 0 43 7t43 25q35 47 71 103.5t71 118.5h2l59 104l102 151l100 133q50 65 107 128l127 137v-2q35 35 66 85t31 99q0 23 -9 45q-10 29 -21 49.5t-26.5 32.5t-38 17.5t-55.5 5.5h-18q-10 0 -17 -2v2q-143 -20 -249.5 -30.5t-198.5 -10.5h-33 q-12 0 -23 2v-2q-16 4 -28.5 6t-24.5 2q-39 0 -74.5 -13.5t-63.5 -39t-44 -62.5t-16 -84v-24q0 -4 1 -8.5t1 -8.5q10 -49 32.5 -78.5t92.5 -29.5q14 0 31.5 1t39.5 7q43 12 87 15t87 3q16 0 35 -1t37 -3l-53 -79q-25 -38 -54 -72l-36 -49l2 4q-4 -4 -3 -5t-4 -6l-63 -87 l-68 -97v10q-49 -80 -76.5 -112.5t-45.5 -48.5l-11 -11q-35 -35 -57.5 -69.5t-22.5 -102.5v-26z" />
<glyph unicode="8" horiz-adv-x="1112" d="M-51 231q0 -29 10 -67.5t35 -89.5h-4q6 -10 11 -20.5t11 -20.5l17 -29l18 -31v21q53 -49 124 -66.5t155 -27.5q8 -2 20 -2l4 -2h10h2q2 0 5 -2h-2l60.5 -7.5t63.5 -3.5q164 0 314.5 63.5t279.5 200.5v-2q25 25 41.5 54.5t26.5 59.5t16.5 54.5t8.5 38.5q6 25 6 62 q0 78 -33 117.5t-80 74.5q49 57 91 130t42 157q0 59 -24 113q-51 113 -143.5 152.5t-217.5 39.5h-61q-74 -4 -143.5 -18.5t-133 -46t-120 -83t-105.5 -128.5q-66 -106 -66 -213q0 -51 13 -91q-76 -41 -125 -87t-88 -134v2q-23 -43 -31 -85t-8 -83zM262 317q4 29 32 42.5 t62 25.5q6 0 11 2q10 0 22 8q4 0 6 2v-55l76 76q6 0 8 2q4 0 9.5 1t9.5 1q23 0 30 2h-6q35 4 72 6t74 2q29 0 59.5 -4t65.5 -14l16 -4q27 -6 48.5 -13.5t21.5 -11.5v-2q-2 -33 -23.5 -59.5t-54.5 -42.5q-68 -37 -131.5 -51.5t-126.5 -14.5q-53 0 -100.5 8t-92.5 25 q-35 14 -59.5 30t-28.5 39zM483 772q10 31 41 49.5t74 30.5t91 19.5t93 11.5h11q2 0 3 1t3 1q37 0 68.5 -12.5t35.5 -26.5q-4 -20 -23.5 -35.5t-47 -27t-58.5 -18.5t-57 -11l-54.5 -10.5t-33.5 -4.5q-53 0 -92.5 9.5t-53.5 23.5z" />
<glyph unicode="9" horiz-adv-x="1071" d="M-23 133q0 -66 20.5 -105.5t53.5 -61t74 -29t82 -9.5q-2 2 -4 3t-4 3l10 29l-2 -35q12 -2 20.5 -3t18.5 -1q25 -6 53.5 -8t56.5 -2q43 0 85 5t91 22v-2q47 12 86 25t76 31.5t75 45.5t81 63q66 57 114 111.5t82.5 115t59 131t45.5 161.5h2q10 39 14 78.5t4 80.5 q0 47 -8 90t-30 91q-27 63 -56.5 103t-91.5 85q-49 31 -98 43t-103 12q-72 0 -143.5 -18.5t-122.5 -34.5q-141 -47 -235.5 -132t-153.5 -218q-20 -41 -28.5 -82t-8.5 -80q0 -55 17.5 -98t58.5 -84v2q33 -37 63.5 -57.5t62.5 -31t65.5 -15.5t74.5 -7q8 -4 14.5 -3t12.5 1h10 q14 -2 30.5 -3t37.5 -1q84 0 155 14q-80 -63 -161.5 -84.5t-176.5 -21.5q-16 0 -47 20q2 -2 2 -6l-18 13q6 0 8 -3l-4 5h-8q-29 16 -56.5 28.5t-56.5 12.5q-55 0 -113.5 -48.5t-85.5 -123.5v-17zM301 276q2 -2 4 -2t4 -2q-4 4 -8 4zM391 719q0 8 13.5 20.5t31.5 26.5 q27 23 63 41t75.5 31.5t81.5 20.5t81 7q23 0 47 -6q39 -10 60.5 -42t29.5 -77q-45 -35 -117.5 -49t-148.5 -14q-63 0 -116.5 11t-85.5 30q-15 6 -15 0z" />
<glyph unicode=":" horiz-adv-x="325" d="M12 174q0 -92 51.5 -148.5t122.5 -56.5q47 0 88 25.5t71 65.5t46.5 91.5t16.5 104.5q0 109 -51.5 163t-135.5 54q-55 0 -95 -27.5t-64.5 -70.5t-37 -96.5t-12.5 -104.5zM53 801q0 -92 52.5 -147.5t123.5 -55.5q47 0 87 24.5t70 65.5t46.5 92t16.5 107q0 109 -50.5 162 t-134.5 53q-57 0 -97 -27.5t-65.5 -72t-37 -97.5t-11.5 -104z" />
<glyph unicode=";" horiz-adv-x="483" d="M-14 -74q0 -57 17 -91t43 -51t57.5 -22.5t62.5 -5.5q117 0 180 125l50 109q26 55 45.5 113.5t31.5 121t12 131.5q0 39 -17 78t-45 70t-62.5 50t-67.5 19q-31 0 -62.5 -18t-57.5 -48t-43 -67t-17 -75q0 -53 -2 -98.5t-19 -84.5l2 4l-6 -12l-4 -8q-2 -4 -2 -6t-2 -6 q-14 -8 -21 -23q-4 -6 -4 -20q-4 -8 -8 -9l-23 -27q-11 -13 -19.5 -32.5t-13.5 -47.5t-5 -69zM92 823q0 -96 54.5 -153.5t129.5 -57.5q51 0 94.5 26t74 66.5t47 95t16.5 109.5q0 111 -52.5 166t-138.5 55q-59 0 -102 -28.5t-70.5 -72.5t-40 -99.5t-12.5 -106.5z" />
<glyph unicode="&#x3c;" horiz-adv-x="854" d="M-25 952q0 -80 31 -143q16 -29 43 -69l70 -99l44 -61l36 -50l12 -18l-2 2q6 -12 9 -16l7 -9l-4 7q2 -4 8 -11q39 -70 82 -133t95 -121l28 -28l7 -7q3 -3 16 -14l73 -94q80 -84 148 -84q139 0 139 176q0 53 -49 127l2 2q-10 18 -19.5 29.5t-19.5 21.5q-8 6 -13 13l-5 6 l-24 28q-11 13 -15 17q-16 16 -31.5 33.5l-32.5 38.5l-71 85q-31 38 -52 72h23l-11 12l-20 20l-19 21l-11 11q-2 2 -6.5 7t-8.5 9l-2 -2q-90 133 -90 141q0 16 162 160l27 25q13 12 30 24q2 2 4 3t6 6v-3q6 6 20 19l29 26l29 25q14 12 21 19q16 16 33 30l36 31 q117 117 117 207q0 37 -14.5 70.5t-39 58t-55 40t-61.5 15.5q-72 0 -219 -151v2l-20 -20q-9 -9 -17 -19h2q-8 -10 -17 -19.5t-30 -27.5l-23 -24l-20 -21l-39 -39h2q-80 -66 -129 -99l-12 -9q-4 -3 -25 -17q-164 -123 -164 -232zM453 705q-4 8 2 2z" />
<glyph unicode="=" horiz-adv-x="915" d="M-29 973h29q-10 -27 -10 -51q6 -59 39.5 -113.5t68.5 -77.5q33 -18 115 -18h23q18 0 26 2l252 12h-10h4q-10 0 -19.5 -1t-17.5 -1q-16 -2 -29.5 -3t-27.5 -1q-6 0 -13.5 -1t-15.5 -1q-23 -2 -52 -4l-30 -2l-100 -13q-23 -4 -41.5 -6t-34.5 -6q-4 -2 -8 -3t-8 -3h-2 q-41 -16 -66 -57t-25 -82q0 -102 86 -166q72 -57 166 -58q10 0 107 7q92 4 171 10t144 12q12 2 19 2h14q6 0 9 1t7 1h19q51 8 84 70q10 25 17 49.5t7 48.5q0 70 -23.5 111t-70.5 69q-35 14 -78 22.5t-94 10.5l37 2q8 2 31 6h-2q4 0 8 1t6 1q6 2 10 2t13 3h-3q43 6 56 6 q82 0 109.5 28.5t27.5 112.5v41l-2 2q0 98 -115 152q-66 29 -149 28q-88 0 -194.5 -9t-235.5 -30q-23 -4 -37 -6q-20 -2 -28.5 -4t-20.5 -8h2q-25 -10 -60 -31q-6 -4 -11 -7t-9 -7l-30 -21z" />
<glyph unicode="&#x3e;" horiz-adv-x="854" d="M-2 1376q0 -59 47 -129l-2 2q2 -4 5 -7t5 -7l34 -39q19 -23 40 -44l38 -41q17 -19 28 -30q59 -63 103 -104t73 -64v2q29 -25 45 -34q8 -6 17 -14.5t20 -14.5q37 -37 41 -33q-2 -6 -25 -39l-64 -92l-2 -2l-25 -32q-11 -13 -18 -27q-16 -35 -45.5 -76t-70.5 -88l-87 -95 q-34 -38 -51 -59v2q-8 -8 -16 -24l2 6q-63 -78 -63 -137q0 -29 7 -55.5t23 -49.5q23 -37 49.5 -52t61.5 -15q68 0 145 84v-2q6 6 17 19l20 28h2l2 2q0 2 2 4q10 10 24 27l23 30q12 18 27 38l29 38l24 31l-2 -4q4 4 5 8t6 8q14 18 25 35.5t21.5 32t18.5 24.5t12 14 q6 10 12.5 17.5t12.5 15.5l55 74l49 63q6 8 13.5 19.5t17.5 23.5q4 6 7 12.5t7 12.5v-6l19 31q14 20 20 31.5l19 35.5h-4q51 102 51 168q0 125 -158 221q-35 23 -75 52.5t-87 74.5l-24 25l-25 26q-6 6 -20 23l-32 35l-32 35q-14 16 -20 22v-6q-147 147 -209 147 q-33 0 -63.5 -15t-53 -40.5t-37 -57.5t-14.5 -65z" />
<glyph unicode="?" horiz-adv-x="1507" d="M125 135q0 -143 149 -143q84 0 168 63q43 29 69 64t40 76q6 14 7 23t1 26q0 57 -49 104q-53 47 -129 47q-135 0 -191 -82l3 6q-16 -16 -28.5 -30.5t-17.5 -28.5h-2q-10 -35 -15 -64.5t-5 -60.5zM125 1325q0 -18 1 -45t8 -51.5t20.5 -43t38.5 -22.5q29 -29 71 -28 q35 0 75 19.5l93 47.5q27 16 48.5 31.5t33.5 26.5q10 4 6 8q59 20 94 39l42 18q19 8 57 12q70 10 121 15.5t86 5.5h4q236 0 235 -62l-4 -16l2 2q-35 -109 -289 -190q-27 -10 -47 -16.5t-45 -10.5l-85 -14q-48 -8 -109 -23q6 2 4 2t-8.5 -1t-13.5 -4t-11 -3l-25 -6h2 q-20 -4 -28 -6q-12 -4 -27.5 -7.5t-25.5 -7.5q-4 -2 -11.5 -3t-15.5 -3h-4q-57 -14 -98 -60t-58 -95v2q-6 -12 -9 -33t-5 -62v-2v-2q-2 -12 -3 -23.5t-1 -23.5v-43q0 -18 -1 -36.5t-3 -37.5q-2 -16 -3 -29.5t-1 -27.5q0 -43 16 -69.5t70 -30.5q16 -2 32 -2h29q45 0 72.5 6 t43 21.5t20.5 40t5 59.5q0 18 2 42.5t6 55.5l11 20l2 3h-2q8 4 15 8t17 8l-4 -2l34 5t26 5h-2q74 10 156.5 36t177.5 66q201 86 311 175q68 59 123 137l-2 -4q2 2 6 8t6 8v2q2 6 8 14.5t10.5 15.5t5.5 10t-4 -3l33 53.5t25 55.5l-2 2q10 25 12 45t2 39q0 94 -63 178 q-92 113 -215 137q-41 8 -99.5 12t-136.5 4q-127 0 -197 -14q-203 -27 -270 -51h2q-340 -96 -389 -258q0 -2 -1 -3t-1 -3l2 10q-4 -10 -4 -17v-16z" />
<glyph unicode="@" horiz-adv-x="1914" d="M0 659q0 -92 12.5 -163.5t46.5 -130.5l21 -34q10 -17 26 -36q10 -12 24 -31l26 -35q4 -4 7 -8t7 -8q29 -35 52.5 -58.5t45.5 -39.5q223 -135 563 -135q51 0 93.5 19t72 53t45 79t15.5 94q0 78 -70 123q-43 23 -84 29q47 6 113 24l73.5 19.5t38.5 7.5l25 -8q2 0 2 -2l-4 2 l8 -4q31 -16 60.5 -25.5t62.5 -9.5h18q102 0 160 16.5t105 44.5q160 98 256 285q43 86 62.5 178t21.5 191v90q0 23 -2 33q-2 102 -58 196l-4 4v2q-29 59 -47 82l2 -2q-98 160 -315 256q-184 82 -391 82q-156 0 -334 -55q-205 -57 -314 -152v2q-43 -35 -87 -83t-91 -113 q-264 -367 -264 -779zM360 723q0 18 2.5 37.5t10.5 42.5q135 643 667 649h80q35 0 66 -4t53 -10q123 -25 160 -52q90 -51 114 -81v2q23 -29 35 -78q14 -45 15 -113q0 -25 -13 -100q-4 -43 -23.5 -89t-53.5 -93l2 2q-37 -45 -71 -69t-69 -24q-23 0 -22 84q0 90 18 189 q2 12 6 32.5t15 47.5v-2q18 43 22 68.5t4 37.5q0 102 -123 156q-37 18 -74.5 25.5t-84.5 7.5q-39 0 -89.5 -10.5t-109.5 -32.5q-74 -23 -158 -80v4l-36 -25q-17 -12 -33 -28l-4 -5q-31 -33 -59.5 -70.5t-51.5 -84.5v2q-43 -72 -69.5 -142.5t-26.5 -138.5v-22q0 -10 2 -21 q16 -111 56 -179.5t91 -107t105.5 -54t99.5 -19.5h-12q-16 -2 -33.5 -3t-28.5 -1q-76 0 -198 37q-90 27 -144 147q-37 88 -37 168zM813 809q0 59 82 133q63 57 109 72l-8.5 -50.5t-8.5 -66.5v2q-4 -27 -7 -49.5t-7 -38.5l-4 -19.5t-4 -15.5q-4 -2 -7 -2q-2 0 -6 -2 q-29 -10 -53.5 -17t-40.5 -12q-20 4 -32.5 23.5t-12.5 42.5z" />
<glyph unicode="A" d="M-20 12q0 -31 14 -55.5t36.5 -41.5t49 -26.5t53.5 -9.5q63 0 112.5 25.5t84.5 99.5q10 25 20 46l19 40q20 47 36.5 79t40.5 58h21h2q0 2 4 2q25 2 53.5 3t59.5 4l173 8q87 4 138 4h14l7 -4h2l8 -54l20 -104q10 -53 24.5 -83t36 -46t50 -23.5t67.5 -13.5q18 0 38 4t46 17 h-2q47 16 66.5 57t19.5 84q0 33 -14 65l-2 7l4 -11q-172 1235 -266 1272h-4h4q-14 4 -25 6l-20 4v9q-117 -18 -184.5 -43t-108.5 -59t-65 -78l-50 -97l-46 -90q-26 -49 -56 -96l-113 -184l-123 -207l-117 -211q-56 -104 -98 -193q-16 -37 -23 -66.5t-7 -70.5v-27zM569 504 l246 407l49 -403l-4 -4h-291z" />
<glyph unicode="B" horiz-adv-x="1380" d="M25 141q0 -23 2 -30v-2q2 -47 12 -84t37 -52l26 -28l13 -2q59 -45 115.5 -58.5t111.5 -13.5h20q98 0 229.5 22.5t261.5 67.5t245.5 113.5t187.5 161.5q47 63 47 124q0 31 -12 64t-39 61l2 -2q-82 115 -207 168q72 29 139.5 65t122.5 89q35 33 55.5 69.5t26.5 69.5 q6 25 6 60q0 70 -42 129t-109.5 104t-152.5 74.5t-173 40.5q-66 10 -145.5 16t-167.5 6q-35 0 -70 -2t-65 -6q-119 -4 -189 -123v2q-25 -41 -35 -66.5t-12 -41.5v2l-100 -388l-68 -267l-42 -170q-15 -62 -22 -97t-8 -49.5t-1 -26.5zM375 104l6 46v-5l80 308q150 37 276 36 q154 0 244 -57q6 -4 9 -10t7 -12q-12 -47 -70.5 -92.5t-134 -84t-156.5 -68.5t-140 -48q-12 -4 -36 -8.5t-59 -4.5h-26zM539 741l33 136q13 51 24.5 83.5t23 53t27.5 45.5l-2 -6l19 18q104 29 229 29q117 -10 166 -34t49 -54q0 -43 -53.5 -91.5t-136 -88t-182 -67.5 t-191.5 -28zM997 412v8v-2q2 0 2 -2v-2q0 -2 -2 -2z" />
<glyph unicode="C" horiz-adv-x="1249" d="M-23 350q0 -18 3 -26q4 -57 14 -98.5t33 -82.5l47 -55l-2 2q39 -53 89 -89t105.5 -59.5t115.5 -39t120 -23.5l66 -8q34 -4 75 -4q80 0 149.5 13.5t134 40t127 65.5t128.5 88q39 33 55 53t29 43l-41 10h45q0 131 -117 131h-8q-4 0 -55.5 -18.5t-116.5 -54.5v4 q-53 -29 -116.5 -57.5t-168.5 -57.5q-6 -2 -21.5 -3t-43.5 -1q-29 0 -76 9t-133 44q-35 35 -62.5 74t-38.5 90v18q0 20 2 27q12 117 62 215q55 109 121.5 212t144.5 175q53 57 113.5 96t126.5 41l176 -127q39 -23 61.5 -34l33.5 -16t17.5 -6t12.5 -1q59 27 93 68t34 73 q0 8 -2 17v18q-16 61 -65.5 105.5t-125.5 83.5q-57 31 -100 50t-77 30.5t-63.5 16.5t-60.5 5q-33 0 -81 -8t-113 -29q-129 -80 -240 -185.5t-196 -232.5t-139 -271t-71 -300v-31z" />
<glyph unicode="D" horiz-adv-x="1363" d="M-6 59l4 -4q8 -57 59 -96l207 -70q47 0 86 4.5t68 10.5l12 -13l29 23q131 10 253 54t228.5 111.5t195.5 153.5t151.5 182.5t97 199t34.5 200.5q0 100 -38 192.5t-119.5 167t-211.5 128t-313 75.5q-53 14 -126.5 17.5t-166.5 3.5l-149 -25q-84 -217 -94 -272v-15 q-39 -139 -70 -260.5t-56.5 -238.5t-45 -233.5t-35.5 -248.5v-47zM344 145q6 61 22.5 144.5t37 174.5t46.5 185l50 180l47 160l37 121q174 0 277.5 -14.5t152.5 -48.5h-2q74 -55 100.5 -101.5t30.5 -83.5l2 -14q-4 -78 -56.5 -167t-139.5 -177t-201.5 -168t-243.5 -139 q-12 -8 -56.5 -24.5t-97.5 -33.5zM346 141l2 -2z" />
<glyph unicode="E" horiz-adv-x="1329" d="M-12 31l82 -53q18 -11 16 -10l-12 6q-10 5 -4 1q41 -33 79.5 -58.5t71.5 -25.5q49 0 87 5.5t83 13.5q10 2 22.5 4t26.5 4h4l633 90q49 4 71.5 12.5t31.5 16.5q16 16 23 32.5t7 47.5q0 8 -1 20.5t-5 48.5h-26q-25 16 -60 24.5t-69 12.5q-10 0 -19 2q-31 0 -56.5 -2 t-47.5 -6q-25 -4 -48.5 -6t-46.5 -2h-14q-4 0 -7 1t-7 1h-15q-10 0 -24 -2h2q-29 -2 -63.5 -5t-57.5 -3q-18 -2 -39 -2q-18 0 -39 -2q-55 -4 -110.5 -7.5t-106.5 -9.5l-4 2q4 29 13.5 78t21.5 102l23 101q11 47 20 72h29q14 -2 26 -3h25h43q33 0 67.5 1.5t78.5 4.5t103.5 8 t145.5 13q10 0 31.5 1t44.5 3q20 2 36.5 3t22.5 1q37 4 58.5 16.5t32 30t13.5 37t3 37.5v47q-6 29 -25.5 45.5t-46.5 24.5t-59.5 10t-67.5 2h-229h-144q-72 0 -120 6l-3 2q4 18 14 54l20 76l24 84l22 75q14 2 23 2q10 0 18 2q14 2 26.5 3t35.5 1h82l387 17h76q16 0 24 1 t16 7h-6q61 16 83 43t22 55v27q-12 27 -27.5 43t-37 25.5t-54.5 14.5t-80 9q-29 2 -61.5 3t-67.5 3q-51 2 -105.5 5t-105.5 5t-97 3t-79 1h-160h-39q-20 0 -43 2q-66 0 -103.5 -7t-60 -30.5t-35 -66.5t-28.5 -115z" />
<glyph unicode="F" horiz-adv-x="1128" d="M-61 14q6 -29 18 -53t61 -59q20 -12 45 -18.5t82 -6.5q35 10 59.5 43t43 77t32.5 97l25 105q12 59 26.5 109t33.5 73v2l2 2l2 2h376q12 0 23.5 -1t22.5 -1h36q51 0 91 13.5t71 58.5l27 104v6q0 2 1 4t1 4q0 31 -16.5 47.5t-53.5 25.5t-98.5 11.5t-149.5 2.5h-268 q12 63 29 137l31 137l24 106q10 43 14 45l13 13q43 10 111.5 16t187.5 6h90q49 0 106 -2h13q29 -2 54 -3t44 -1q68 0 99.5 20.5t31.5 84.5l-4 88v20q-29 29 -71 37t-91 8q-14 0 -27.5 -1t-27.5 -1h-53h-256h-148q-51 0 -73.5 -1t-41.5 -1q-18 0 -43.5 -1t-85.5 -1 q-8 2 -18 2h-18q-43 0 -71 -16.5t-44.5 -44t-26.5 -64.5t-18 -76q-2 -10 -4 -17t-4 -15l-91 -444l-60 -301l-37 -187q-13 -68 -19 -102.5t-7 -45t-1 -16.5v-27z" />
<glyph unicode="G" horiz-adv-x="1361" d="M-37 332q0 -31 3 -54.5t7 -41.5l27 -86q12 -35 28.5 -63t42 -50.5t60.5 -43t84 -40.5q8 -4 21 -8h2q12 -4 20 -6h2v43l-53 -23q4 -4 8 -6t9 -4t12 -4h2q4 -4 10 -5t12 -6v5l27 -10q14 -5 18 -7h2q61 -16 118.5 -24.5t109.5 -8.5q109 0 202.5 24t153.5 52q74 27 158 82 t156.5 120.5t119.5 134.5t47 126l-2 8v-4q-2 10 -2 17v16q0 35 -11 68.5t-59 62.5q-37 20 -96 23.5t-123 3.5h-75q-106 0 -219 -10.5t-191 -24.5l6 20q-90 -39 -132 -81t-42 -74q0 -31 16.5 -53.5t55.5 -24.5q35 -20 80 -27.5t98 -7.5q178 37 260 37q76 0 76 -15 q0 -20 -31 -47.5t-79 -54.5t-108.5 -49.5t-119.5 -34.5q-47 -16 -102.5 -23.5t-98.5 -7.5q-29 0 -31 -8l-22 23h-17l-8 6l-50 38q-28 22 -32 52q-20 6 -27 31.5t-7 60.5q0 47 8 92t24 68q82 180 154 301t143.5 192.5t146 102.5t165.5 33h6q41 0 84 -36t84 -75h-2 q35 -35 67.5 -61.5t67.5 -26.5h14l109 66l-19 110q-6 31 -43 84t-93 105.5t-126 92.5t-143 44h-49q-43 0 -92.5 -5t-71.5 -16l2 2q-2 0 -2 -2q-2 0 -3 -1t-3 -1l6 2q-123 -35 -225.5 -107.5t-185.5 -167.5t-146.5 -205t-106.5 -219.5t-64.5 -210.5t-21.5 -177z" />
<glyph unicode="H" horiz-adv-x="1423" d="M-2 -2q0 -35 9 -51.5t22 -26.5q31 -27 69.5 -39t81.5 -12h10q2 0 3 2h2q2 0 6 1t8 1q16 2 34.5 7t36 17.5t30 37t16.5 65.5v-2q8 37 15 74t17 75l17 77q8 38 18 77l-2 -2l8 25q2 6 2 12t5 14l4 2q49 2 112 4l128 4l124 5q59 2 103 2l4 -5q-6 -35 -7.5 -52l-3.5 -40 q0 -4 -1 -17t-3 -30l-14 -219q25 -37 69 -66.5t85 -29.5q31 0 53 14q37 2 62.5 22.5t44 48t28.5 60.5t16 64l9 30v23l170 911q8 20 15 42t14 51.5t14.5 71.5t13.5 106q-12 115 -154 118h-14q-150 0 -162 -90q-29 -78 -62.5 -213t-74.5 -321l-27.5 -116.5l-29.5 -125.5l-7 -2 l-473 -8q8 47 24.5 113.5t38 136t46 135t49.5 111.5l-2 -5q35 51 35 89q0 39 -25.5 76.5t-72.5 52.5h4q-35 14 -107 14q-6 0 -12 -1t-14 -1l-5 16l-43 -24q-41 -8 -66.5 -27.5t-40.5 -47.5t-23.5 -63.5t-16.5 -76.5l-105 -499l-65 -321q-25 -123 -34 -184t-9 -90z" />
<glyph unicode="I" horiz-adv-x="569" d="M-23 61q10 -51 41 -81l2 -3l19 43v-51q-4 0 4 -4h-8l164 -51h43l12 17.5t12 15.5v-2q12 16 18.5 27.5t10.5 21.5t7 22.5t7 34.5q0 2 8.5 42t23.5 105l34 148l40 174l42 179l39 165q8 43 16 71t16 52q6 20 14.5 41t12.5 39l-2 -2q16 43 22.5 79t16.5 75q2 10 4 18t4 18 q0 35 -15.5 66t-40 54.5t-58 37.5t-70.5 14h-17q-20 14 -43 15q-49 0 -93 -92.5t-88 -268.5t-92 -433z" />
<glyph unicode="J" horiz-adv-x="1122" d="M-49 195q0 -59 43 -113.5t110 -71.5q225 -121 418 -121q94 0 176 31t143.5 92.5t100.5 155.5t51 221v-4q10 55 21 104l18 93l11 63q5 29 12 57q14 92 30 168l35 154q14 57 27.5 119.5l28.5 138.5q0 78 -33 98q-39 23 -77 35t-73 12q-20 0 -27.5 -1t-15.5 -3h-10l-37 -8 q-29 -6 -49 -22.5t-38.5 -57.5t-37 -112.5t-40 -183t-47.5 -271.5l-62 -377v-16q0 -31 -13.5 -70t-37 -72.5t-54 -57t-67.5 -23.5q-35 0 -76 32l-41 29q-18 12 -31 23q-51 41 -106.5 78.5t-110.5 37.5q-47 0 -84 -32.5t-57 -112.5v-12z" />
<glyph unicode="K" horiz-adv-x="1292" d="M-51 14q8 -53 35 -80q43 -25 71.5 -31.5t55.5 -6.5h30q39 6 64.5 20t50.5 63.5t53.5 148.5t75.5 278q18 -12 51 -39t76 -68l45 -37q16 -16 33 -30l33 -27q14 -12 26.5 -25.5t24.5 -23.5q74 -61 123 -111q57 -57 110.5 -97t136.5 -61q113 49 113 133q0 39 -27.5 86.5 t-75.5 101.5t-116 117l-147 134l-38 35q-19 18 -40 34l-50 43q-28 25 -65 62q14 16 51 43l82 57l89 60l75 47l28 18q15 10 19 14l20 20q9 9 15 13l393 285l-2 -2q2 2 0 2l4 2q41 29 66.5 55.5t25.5 71.5q-4 29 -19 51.5t-39 38.5t-51.5 24.5t-51.5 8.5q-41 0 -75 -21.5 t-93 -68.5l-43 -35l-31 -25l-69 -51l-41 -29l-25 -17q-10 -7 -25 -15l-21.5 -12.5t-27.5 -16.5l-344 -240q4 16 5 27.5t3 15.5q2 27 9 56.5t18 62.5l23 86q11 43 12 88v10q0 29 -16.5 55.5t-42 46t-57.5 32t-63 12.5q-4 0 -6 -1t-4 -1h-20q-78 0 -127 -48t-49 -134v-15 l-69 -305l-50 -235l-45 -205l-52 -234q-4 -23 -6 -39t-6 -28q-6 -25 -9 -46.5t-7 -72.5v-25z" />
<glyph unicode="L" horiz-adv-x="1021" d="M-23 51q4 -41 11.5 -67.5t27.5 -46.5v-13q55 -31 91 -39t73 -8q102 16 185 26l153 17q27 4 51.5 5t48.5 5q98 10 196.5 25.5t215.5 46.5q16 27 21.5 44t5.5 40q0 55 -35 88t-76 33q-12 0 -20 -2q-53 -4 -86 -6l-88 -6.5t-78 -10.5h4q-10 -2 -21 -2q-10 0 -20 -2l-71 -7 l-60 -6q-31 -3 -72 -6t-104 -5l-6 2v8l8 37v8l209 698l10 11l15 43l18 45q23 57 41 115.5t18 107.5q0 59 -34 98t-126 39q-37 0 -75 -6h2q-86 -6 -129 -31.5t-58 -95.5v-2q-16 -25 -20 -52.5t-4 -58.5l-36 -144l-28 -119l-24 -114l-27 -131l-32 -148l-40 -196l-4 -21 q-2 -11 -6 -26l-16 -85q-9 -44 -9 -85z" />
<glyph unicode="M" horiz-adv-x="1705" d="M-63 8q2 -70 40.5 -105.5t92.5 -35.5h47q47 0 71 16l88 146v6l232 627q0 -35 1 -65t1 -54v-191q-2 -20 -3 -46.5t-1 -55.5q0 -47 5 -95.5t21.5 -88t44 -64.5t74.5 -25h8q29 0 72 19h-2q41 16 70.5 34.5t31.5 20.5q23 35 59 104l81 154l65 129q35 66 69 123t63.5 100.5 t50.5 59.5q-16 -70 -27.5 -127t-19 -107.5t-11.5 -98.5t-4 -101q-2 -6 -3 -35t-1 -64v-41q0 -20 4 -36v4q6 -47 18.5 -81t41.5 -61h-3l17 -16q35 -20 68.5 -28.5t68.5 -8.5q23 0 47 6h-6q39 2 59.5 11.5t30.5 21.5t12 29.5t2 38.5v45q0 150 19.5 290t57.5 278t93.5 280.5 t124.5 298.5v18q0 43 -25.5 80t-65.5 65.5t-90 47t-97 24.5q-51 0 -92 -24.5t-76 -59.5q-4 -4 -6 -5t-4 -5q-12 -12 -22.5 -24.5t-20.5 -22.5l2 -2l-11 -15l-4 -6l9 23q-10 -10 -11 -15q-4 -8 -4 -10q-41 -43 -94 -109.5t-115 -152.5l-130 -190q-69 -104 -138 -224 q2 88 5 148.5t6 109t8.5 88t13.5 89.5q6 14 13 39.5t12.5 52t9.5 51t4 41.5q-8 39 -36 61.5t-64.5 34.5t-75.5 17.5t-70 7.5h-27q-18 0 -26 -2q-90 -6 -136.5 -45t-80.5 -103q-16 -37 -25.5 -61.5l-19.5 -48.5l-23 -56l-20 -55v2l-58 -139l-64 -166l-82 -221l-110 -305h2 l-21 -68q-11 -37 -11 -66v-10z" />
<glyph unicode="N" horiz-adv-x="1368" d="M-31 10q0 -35 16.5 -64.5t41 -51t56.5 -33t62 -11.5q53 0 93.5 28t48.5 97v11q12 37 37.5 124l54.5 194l57 223q29 116 45 208q39 -133 80 -244.5t81 -198.5t74 -145.5t58 -80.5q53 -68 104.5 -98.5t98.5 -30.5q57 0 99 36.5t65 98.5l46 145l32 100l22 71l13.5 43.5 t9.5 32.5l10 40q4 27 13 63l20 75q10 38 20 72l16 54v-4q6 12 17.5 46t25 82t25.5 103.5t19 108.5q16 39 28 85t12 91q0 31 -9 58.5t-31 50.5l-170 24q-43 -8 -73 -30.5t-50.5 -54.5t-32.5 -68.5t-19 -73.5l-7 -36q-7 -36 -20 -95l-32 -135l-39 -157l-42 -161 q-22 -80 -42 -145q-61 147 -98 275t-60 269q-6 12 -7 33t-1 45v33q0 39 -3 81t-16 78t-40 58.5t-72 26.5q-119 -6 -187.5 -27.5t-106.5 -57.5t-54 -86t-29 -114v2q-8 -29 -13 -56.5t-13 -53.5l-27 -93l-55 -220l-45 -175l-59 -229l-32 -128q-11 -44 -13.5 -61.5t-2.5 -29.5 v-17z" />
<glyph unicode="O" horiz-adv-x="1507" d="M-29 414q0 -23 2 -33v2q4 -41 20.5 -91t63.5 -126h-2l21 -32l20 -30q4 -6 8.5 -11t8.5 -11v4q70 -80 168 -124t239 -66h-4q45 -10 88 -13.5t94 -3.5q141 0 256 30t201 95q96 84 166 181.5t116 202t68.5 209.5t22.5 206v45q0 14 -1 26.5t-3 22.5q-4 41 -14.5 83t-30.5 83 q-45 84 -96.5 141.5t-105.5 93t-106.5 54t-97.5 24.5h-141q-143 -16 -246.5 -40.5t-169.5 -61.5l-83 -49l-52 -31q-2 -2 -4 -3t-4 -3l4 2q-92 -68 -168 -157t-128 -187t-81 -201.5t-29 -200.5v-30zM330 348q2 63 22.5 140t57 158t87 159t114 143.5t137 113.5t155.5 66 q20 6 44 10.5t52 4.5q55 0 103 -33l-2 2q45 -33 68.5 -97.5t33.5 -129.5v2q2 -16 3 -32.5t1 -33.5q0 -72 -15 -151.5t-48 -158.5t-82 -151.5t-115.5 -129t-151.5 -91.5t-188 -39q-20 0 -54 13.5t-69 29.5q-72 23 -109.5 78t-41.5 127h-2z" />
<glyph unicode="P" horiz-adv-x="1245" d="M-45 18q0 -20 20.5 -43.5t51 -45t66.5 -36t65 -14.5q10 0 18 1t21 7l-7 -4q37 8 58.5 17.5t34 25t18.5 39t10 60.5q0 51 13 100l53 268h2q154 20 256 48t192 71q207 92 324 199.5t117 261.5q-12 115 -69.5 190.5t-184.5 134.5q-47 20 -116 40t-146.5 35.5t-159.5 24.5 t-154 11h-6q-55 0 -94 -17.5t-70 -45.5q-53 -55 -73.5 -112.5t-34.5 -127.5v2q-2 -6 -2 -8l-2 -6q-8 -47 -20 -106l-21 -109l-31 -156q-14 -76 -30.5 -151.5t-30.5 -150.5l-31 -155q-12 -53 -22.5 -114.5t-14.5 -118.5v-15zM426 657q4 23 7 42.5t7 39.5q2 10 4 23l5 24 q29 160 50 260.5t44 100.5q37 0 83 -4t95 -12.5t96 -22.5t82 -33q6 -10 16 -12q8 -4 13 -4q45 -49 45 -84q0 -41 -40 -81t-108.5 -79t-157.5 -77t-188 -74l4 2l-53 -13z" />
<glyph unicode="Q" horiz-adv-x="1490" d="M-10 393q0 -6 1 -12t1 -12v-25q4 -45 15 -91t37 -91t71 -88t116 -82q113 -59 202 -82t173 -23q45 0 78 1t57.5 4.5t47 8.5t47.5 13l71 25q18 -8 36 -22l38 -28h-2l18 -14l19 -14q2 0 4 -2l42 -33q26 -20 56.5 -38.5t62 -32t62.5 -13.5q47 0 90 45q6 14 14.5 40t8.5 58v2 q2 0 2 2v-8q2 6 2 15v16q0 33 -15.5 55.5t-40 40t-54.5 28.5l-58 21q-10 2 -18 6l-17 9q29 18 68 54l96 93h-10q98 117 145 266.5t47 290.5q0 10 -2 45t-9 82t-23.5 102.5t-47.5 106.5q-63 106 -147 166.5t-223 87.5l-33 4q-16 2 -29 4h2q-23 4 -46 7t-54 3 q-98 0 -202.5 -32.5t-202 -88t-179.5 -130t-135 -160.5q-98 -154 -140 -303.5t-42 -276.5zM291 444q0 98 44 195.5t114.5 185.5t159.5 164t179 133l-6 -2q33 12 82 23.5t105 11.5q25 0 55 -6l-2 2q70 -23 103.5 -89.5t39.5 -143.5q2 -16 3 -35t1 -37q0 -68 -13 -142.5 t-37.5 -145.5t-60.5 -133.5t-83 -109.5h2l-76 -69q-14 4 -31.5 12t-40.5 21q-2 14 -18 16l-47 47v-29q-37 16 -74 29.5t-72 15.5q-6 2 -18 2q-23 0 -47.5 -12t-46 -32.5t-35.5 -45t-14 -49.5q0 -47 43 -74q4 -4 6 -5t12 -5q29 -16 49 -22l13 -6h-54q-61 0 -105 37.5t-74 90 t-43 109.5t-13 98z" />
<glyph unicode="R" horiz-adv-x="1292" d="M-31 10q2 -61 80 -112l-2 2q14 -10 48 -28.5t57 -18.5h4q45 0 73.5 33.5t30.5 84.5q10 23 26 65l38 99l43 118l43 109q18 -16 35.5 -29.5t33.5 -27.5l43 -40q20 -19 43 -36l17 -16l-2 4h2q4 -6 11 -13t23 -18l-4 2q100 -98 199.5 -171.5t232.5 -131.5q45 16 78 32.5 t41 59.5q43 18 43 56q0 41 -60.5 90t-146.5 113l-169 124q-87 66 -146 138l4 4q102 29 207.5 72.5t195 101t152 126t80.5 144.5l-10 101q-4 33 -15.5 58t-33 49t-51 47.5t-70.5 51.5q-164 76 -305.5 98.5t-274.5 22.5q-10 0 -22.5 -1t-22.5 -1q-49 -4 -98 -9t-90 -30v21 q-10 -12 -19 -24l-16 -21q-8 -8 -21 -25l5 -2q-35 -53 -53 -95l-21 -52l-34 -160q-15 -74 -32 -141l-69 -314l-47 -216l-30 -137q-11 -50 -16.5 -78t-6.5 -40t-1 -20v-19zM463 723q2 0 2 25q0 35 10 84t24.5 102t30 102l27.5 84q4 10 5 17.5t3 13.5q41 0 89 -3t96.5 -9 t92.5 -18.5t77 -30.5l10 -11q4 -4 13 -12l9 -8l34 -34q17 -17 22 -30q-2 -6 -8.5 -21.5t-16.5 -33.5l-72 -82h-2q-51 -31 -97 -49t-93 -30.5t-99.5 -18.5t-115.5 -10q-33 -27 -41 -27z" />
<glyph unicode="S" horiz-adv-x="1329" d="M-49 274q0 -49 32.5 -96t88 -91t128 -81t152.5 -64.5t160 -43t152 -15.5q18 0 35.5 1t33.5 3q47 0 85 9.5t73 19.5q10 4 20.5 6t20.5 6q84 31 145.5 72t108.5 94q43 49 61.5 98.5t18.5 55.5q0 2 -1 8t-1 10q-4 33 -11 56q-33 72 -107.5 133t-201.5 86l4 -2l-59 20l-62 21 h2l-72 23q-36 11 -87 34q-8 4 -15.5 5t-13.5 1q-43 2 -67.5 40t-24.5 85q0 43 22 78q41 68 112 126t157 87h6q29 0 64.5 -3t71.5 -11.5t69.5 -23.5t60.5 -42q51 -41 85 -62.5t56 -25.5h17q72 0 98.5 36t26.5 91q0 16 -2 34.5t-9 32.5v-2q-16 45 -50 69t-105 62 q-82 43 -157 76t-173 43q-20 0 -29 -2q-51 -2 -101 -13t-97 -30l-41 -20l2 2q-123 -57 -216 -136t-134 -157q-35 -66 -57.5 -120t-22.5 -107q2 -55 27.5 -106.5t65.5 -97.5t89 -82t98 -61q16 -8 28.5 -13t20.5 -11q37 -18 72 -27.5t72 -17.5q59 -14 114.5 -29.5t67.5 -32.5 q29 -14 38 -22t11 -14v-9q0 -14 -10 -26.5t-24.5 -21.5t-30 -15t-25.5 -8q-6 -4 -30.5 -7.5t-53.5 -4.5l-56 -2q-28 -1 -40 -1q-23 0 -44.5 2t-46 6.5t-54.5 11.5l-72 17l6 -4q-53 29 -99 64.5t-81 87.5q-14 23 -30.5 43t-45.5 39v24q-23 -4 -42 -8t-22 -4q-29 -2 -57.5 -7 t-50.5 -26q-47 -60 -47 -113z" />
<glyph unicode="T" horiz-adv-x="1193" d="M-63 1264q0 -35 14 -76t33 -76q47 -12 84.5 -16t89.5 -4h215v-2l-86 -430l-59 -290l-37 -181q-13 -65 -20 -96.5t-10 -40.5t-5 -13q0 -16 3 -29.5t13 -32t30.5 -46t57.5 -70.5v39q23 -8 57 -9q27 0 54.5 6.5t49 19.5t35 35.5t13.5 55.5v8l98 445l64 289l33 158 q12 58 22 92t19.5 54.5t25.5 45.5l522 28q47 16 70 50t23 71q0 55 -46.5 104.5t-128.5 49.5q-29 0 -55 -6h6q-14 0 -29.5 1t-33.5 1q-27 2 -58 2h-59h-33h-20q-10 0 -19 -2q-14 0 -58 -2t-95 -4l-100 -4q-48 -2 -68 -5h-158q-39 0 -65.5 1t-46.5 1h-72h-29q-12 0 -31 -2 q-23 -2 -54.5 -4t-74.5 -4q-47 -6 -64 -38.5t-17 -73.5z" />
<glyph unicode="U" horiz-adv-x="1298" d="M-16 344q0 -86 27.5 -166t105.5 -145l14 -6q96 -76 173 -107t165 -31q10 2 25 2h38q10 0 22.5 -1t23.5 -1h30v2h2q147 0 247.5 77t169.5 198t114 269.5t80 289.5h-2q35 125 64.5 262t43.5 260q0 45 -2 75t-12 71q-12 18 -35 33.5t-48.5 26.5t-52 16.5t-44.5 5.5 q-16 0 -33 -8.5t-31 -18.5t-25.5 -20.5t-15.5 -14.5l-72 -346q-2 -8 -2 -16t-2 -17l-21 -122q-11 -67 -40 -175q-16 -68 -35.5 -138.5t-40 -135t-41 -115.5t-39.5 -78l-76 -100l-4 -6q-23 -14 -50 -22.5t-53 -12.5t-47.5 -5t-31.5 -1h-10q-12 0 -34.5 7t-46.5 20.5t-40 35 t-16 52.5q0 4 2 12q0 53 12 114.5t35 137.5l64 215l47 151l32 100q12 38 21 60l13 36q5 13 7 23.5t3 22.5t3 31q2 14 2 30q0 18 4 48v8q0 29 -20.5 55.5t-50 48t-63.5 37.5t-60 23q-35 0 -64.5 -13.5t-62.5 -50.5v14q-8 -12 -14.5 -24l-12.5 -23q-16 -18 -30 -43l-5 -20h2 q-14 -33 -22 -63l-16 -62h2q-10 -39 -20.5 -72t-20.5 -61q-31 -98 -48.5 -158.5t-28.5 -108t-19.5 -92.5t-18.5 -114q-6 -37 -10 -76t-4 -80z" />
<glyph unicode="V" horiz-adv-x="1351" d="M39 860q0 -88 5 -189.5t17 -224.5l48 -329q6 -25 15 -55.5t24.5 -61.5t37 -57.5t54.5 -44.5q51 -10 116 -11q61 0 124 11.5t113 35t83 60.5t33 90l191 363l140 250l101 167l73 115l29 43q8 16 27 40l41 52q37 47 71.5 99.5t49.5 95.5q0 20 -8.5 44.5t-24 46t-37 37 t-45.5 17.5q-18 6 -45 6q-29 0 -60.5 -5t-44.5 -17l4 2q-59 -43 -128.5 -133t-143.5 -203t-146 -237l-139 -236l-93 -162q-42 -74 -72 -121q-4 23 -10.5 46.5t-10.5 47.5q-4 41 -7 80t-3 74v139q0 96 8 159.5t18 111.5q10 51 13.5 103t3.5 91q-10 68 -67.5 99.5t-117.5 31.5 h-43h-16q-6 0 -16 -4l4 2q-78 -16 -110 -77.5t-46 -159.5q-4 -37 -7 -96.5t-3 -135.5z" />
<glyph unicode="W" horiz-adv-x="1796" d="M27 524q2 -104 5 -219t13 -231q6 -35 19.5 -67t48.5 -54l55 -55v26q29 -14 63 -14q29 0 64 10q16 -4 31 -4q35 0 62.5 21.5t52 62.5t48.5 100l54 136v-3l24 65q12 34 27 69v-2l43 101l32 72q13 30 23 48t21 32q4 -41 6 -64.5t4 -35.5t3 -17t1 -9v2q2 -8 4 -20.5t6 -47.5 q2 -8 2 -14t2 -15v2l16 -83q7 -40 15 -74v4q6 -41 19.5 -91.5t35 -99.5t53 -91t74.5 -62q35 -12 69 -16.5t58 -4.5q39 0 64.5 1t56.5 12q29 10 46.5 19t29.5 21.5t20.5 30t18.5 43.5l45 110l43 107l51 132l75 181l115 257l171 362v4q16 29 24 50.5t14 41.5h35 q-53 82 -99 115t-93 33q-23 0 -41.5 -3t-36.5 -7q-49 -4 -96 -53.5t-95.5 -134.5t-99.5 -201l-108 -252l-58 -134l-57 -129q-8 -16 -14 -34l-10.5 106t-6.5 79t-2 62v62v123v73q0 29 -1 41.5t-1 18.5q-2 27 -10 48t-33 38q-25 14 -52.5 24.5t-54 16.5t-49 9t-34.5 3 q-86 -12 -150.5 -74.5t-116.5 -140.5h2l-41 -64l-35 -59l-35 -61l-40 -72l-19 -31q8 125 18.5 197t20.5 123h2q2 6 3.5 17.5t3.5 15.5q2 18 5 35.5t4 39t3 50t6 69.5q-4 33 -21.5 57.5t-43 40t-56.5 22.5t-61 7q-41 0 -64 -10q-49 -4 -77.5 -18.5t-43 -39t-21.5 -60.5 t-13 -85v-4q-18 -117 -29.5 -267.5t-11.5 -320.5z" />
<glyph unicode="X" horiz-adv-x="1292" d="M-119 -10q6 -76 115 -99q4 0 10 -1t10 -1t6.5 -1t6.5 -1h22q61 0 129 37l112 127l87 103l29 33l24 30q10 14 22.5 27.5t22.5 25.5v-2q14 14 26.5 29.5t22.5 32.5q27 -43 69 -104.5t88 -120t92 -107.5t83 -68v-8l50 -7q22 -3 40 -3q47 0 82 14q49 8 70.5 32t21.5 52 q-4 47 -35.5 87t-68.5 81q-27 29 -48.5 56.5t-31.5 56.5l-39 59q-18 29 -36.5 66t-37 83t-39.5 109v2l34 37q15 16 22 25q37 41 59 68l37 44v-2l18 19q10 4 13 18q10 14 27 32l48 48l36 37l48 49l78 80l58 56l43 40l36 33l74 68q16 20 17 45q0 25 -20.5 50t-50.5 44.5 t-63.5 32t-60.5 12.5h-8q-25 0 -51.5 -9.5t-58 -32t-70.5 -64.5t-86 -105l2 2l-316 -324l-2 -2l-4 2q-35 53 -59 108l-47 103q-27 59 -50.5 105.5t-58.5 81.5l-22 8h-19q-18 0 -47 -3t-59.5 -7t-59 -12.5t-47.5 -16.5l2 2q-35 -16 -47 -45t-12 -59q0 -51 20 -93l11 -8 l32 -66l51 -109l62 -137q33 -75 61 -155l-2 -6l-31 -39l-30 -37l-129 -160l-93 -120l-85 -114zM958 807q2 2 3 4v-2z" />
<glyph unicode="Y" horiz-adv-x="1179" d="M-45 1221q0 -37 14.5 -74t32.5 -72q29 -43 58.5 -113.5t57 -147.5t48 -150.5t31.5 -122.5l-84 -488q2 -63 67 -106l21 -21q104 -39 157 -39q39 0 62.5 14.5t39 45t26 79t22.5 115.5l29 147q16 83 45 189q6 31 11 53.5t13 42t20.5 40t32.5 46.5q74 109 190 240t298 301 q8 4 11 7l7 7l-4 -2q23 18 53.5 47t30.5 66v39q-2 0 -2 -18l-18 34q-16 31 -57.5 48.5t-86.5 17.5q-72 0 -123 -55l-247 -273q-121 -135 -232 -278q-16 29 -30 66l-31 83q-43 109 -93.5 209t-115.5 152q-23 6 -45.5 9t-38.5 3q-35 0 -70 -5t-57 -24h2q-29 -18 -37 -43.5 t-8 -58.5v-10z" />
<glyph unicode="Z" horiz-adv-x="1495" d="M-18 2q0 -20 22 -61q31 -33 83 -46.5t124 -13.5q123 4 222 9.5t175 11.5l95 7q42 3 71 3h25q41 -2 103.5 -3t119.5 -1h65q16 0 27.5 1t22.5 3q106 4 148 32.5t42 71.5q0 16 -8 37t-19 39q-14 119 -198 119h-146q-27 0 -49 1t-61 5q-18 0 -43 -1t-65 -3l-97 -5 q-57 -3 -141 -9l762 716l89 82q48 45 89 91.5t68.5 93.5t27.5 88q0 51 -45 87t-158 46q-45 0 -106 -6h2q-10 0 -45 -1t-74 -3t-70.5 -3t-42.5 -1h-114q-27 0 -68 -2.5t-121 -10.5q-197 -12 -316.5 -26.5t-186 -32t-89 -40t-22.5 -50.5q0 -10 1 -19.5t5 -17.5v-12 q0 -33 7 -70t44 -53q35 -27 62.5 -35t62.5 -8q18 0 44 2t54 6q18 0 63.5 4t102 10t119 14.5t115.5 16.5l-4 -4q4 0 23.5 3t42 7t42 7t23.5 3q33 6 59 6q10 0 27 -4l-821 -751q-29 -27 -56.5 -56.5t-51.5 -62.5t-38 -67.5t-14 -71.5v-4q-4 -16 -7 -30.5t-3 -37.5z" />
<glyph unicode="[" horiz-adv-x="763" d="M-16 1614q0 -29 6 -61.5t24 -79.5l11.5 -36t11.5 -34v2l12 -33l12 -33q8 -20 13.5 -37.5t11.5 -31.5q16 -35 18 -45l-2 6q10 -66 16 -117l9 -92q2 -10 2 -21q0 -10 2 -18v4q4 -47 6 -73.5t2 -36.5t-1 -24.5t-1 -37.5t-1 -49.5t-1 -60.5q-2 -8 -2 -23v-61q-2 -12 -4 -33 t-6 -51v2l-9 -62l-12 -78q-20 -131 -24 -223v-14q0 -88 84 -129q33 -12 71.5 -22.5t88.5 -18.5q20 -4 39.5 -5t39.5 -3l36 -4.5t42 -4.5q35 -4 57.5 -5t28.5 -1q72 0 131 60h-2q63 59 64 127q0 39 -17 65q-39 51 -86 64l4 -2q-14 4 -46.5 10t-82.5 10q-41 4 -66.5 8t-39.5 8 l2 -2q-6 4 -13 14.5t-7 16.5q0 10 2 34t6 50q4 23 6 42.5t2 31.5q12 197 12 416q0 51 -1 88t-3 57q-10 92 -19 162l-16 114l-5 14.5t-7 24.5q-4 10 -7 22l-7 26q-18 51 -19 67q0 2 8 8l54 7q23 3 43 4q14 4 25.5 5t21.5 3q12 2 25.5 3t25.5 3q68 6 106 31h-2q102 53 103 131 q0 66 -51 104l4 -2q-20 20 -107 21h-291q-6 -2 -12 -3h-82q-237 1 -237 -198z" />
<glyph unicode="\" horiz-adv-x="1220" d="M-100 1638q0 -59 28 -110l76 -114l59 -85l185 -260l133 -184q78 -111 123 -187l65 -110l105 -198q47 -87 94 -159q66 -104 74 -120q80 -143 135 -144q57 0 124.5 74t67.5 129q0 74 -487 877l-43 62q-18 28 -35 48l-18 25l-30 42q-13 19 -28 38l-76 104l-59 78l-27 44 l-47 73v-2q-6 10 -12 22t-14 25q-31 51 -58.5 91t-56.5 68q-51 57 -80 58q-198 -1 -198 -185z" />
<glyph unicode="]" horiz-adv-x="763" d="M2 180q0 -78 53 -147q57 -63 142 -64v62q61 0 117.5 -2t91 -6.5t37.5 -10.5t-44 -14l97 12q113 18 137 43q51 51 51 90q0 35 -4 45q-8 63 -13 118.5t-12 105.5q-8 63 -14 116.5t-12 94.5q-2 4 -2 14v53q-6 135 -6 187q0 96 10 181t26 171v-2q6 23 22.5 72t45.5 122v-2 q29 66 41 115t12 80q0 55 -10 91t-34.5 56.5t-64.5 27.5t-98 7q-35 0 -94 4t-147 12h2l-152 19q-16 0 -30.5 1t-22.5 1h-8q-33 0 -109 -57q0 -98 34 -159t112 -81l-2 2q16 -6 49 -9t86 -7q76 -4 106 -15q14 -8 15 -10q0 -16 -19 -67q-23 -68 -26 -95l-23 -176q0 -8 -1 -16 t-1 -15q-4 -49 -8 -81.5t-4 -57.5q0 -225 5 -371.5t17 -222.5q4 -25 5 -36l1 -11q0 -25 -34 -31l-122 -20q-50 -8 -87 -12q-16 -4 -36 -16.5t-36 -27t-27.5 -31t-11.5 -30.5zM360 -8l39 6q-10 -2 -19.5 -3t-19.5 -3z" />
<glyph unicode="^" horiz-adv-x="880" d="M14 1243q0 -45 21 -84q23 -45 55.5 -64.5t75.5 -19.5q51 0 100 37l45 39l35 31q6 6 14.5 11t14.5 11l6 6q8 6 15 13.5t18 15.5q53 -6 91 -22.5t91 -51.5l29 -16q23 -12 45 -21.5t47 -9.5q23 0 43 7.5t43 19.5q33 23 49 58.5t16 78.5q0 61 -34 127h-3q-14 23 -28.5 33 t-30.5 20l2 -2q-10 6 -12 8t-12 7l4 -2q-31 25 -48.5 31.5l-41.5 15.5q-10 4 -21.5 7t-36.5 17l2 4l-18 6q-35 23 -81 45.5t-89 26.5q-8 2 -17 2h-14q-53 0 -87 -26.5t-50 -90.5q-2 -2 -4 -2v-2q4 4 -7.5 -5t-19.5 -13q-12 -10 -22.5 -16.5t-20.5 -10.5q-4 -4 -6 -4h-4 q-14 -6 -29.5 -16t-42.5 -33l2 2q-35 -25 -59.5 -70t-24.5 -98zM246 1507q2 -2 2 0h-2zM250 1503v4v-4zM252 1511l2 2h4q-2 0 -3 -1t-3 -1z" />
<glyph unicode="_" horiz-adv-x="1083" d="M-4 -88q0 -115 65.5 -179.5t180.5 -64.5h157h31q18 0 39 2q4 0 10 1t13 1q258 14 417 31q53 4 72 10l-6 -4q55 12 86 84q12 27 17 53.5t5 55.5q0 133 -165 155q-10 2 -21 2h-31l-319 -26q-41 -4 -62.5 -5t-37 -2t-27.5 -2t-33 -1h-285q-31 0 -61 -31q-45 -55 -45 -80z " />
<glyph unicode="`" horiz-adv-x="555" d="M57 1579q0 -23 2 -33t7 -22q12 -37 25 -61.5t31.5 -46t42.5 -41.5l58 -46v-2h2q33 -23 54.5 -40t29.5 -27q37 -47 69 -58.5t42 -11.5h8q53 18 76.5 37.5t23.5 60.5q0 14 -7 32.5t-19 47.5q-16 35 -42 75t-55.5 76.5t-60.5 68.5t-57 50q-35 23 -68 35.5t-61 12.5 q-47 0 -74 -24t-27 -83z" />
<glyph unicode="a" horiz-adv-x="1028" d="M-43 31q0 -31 13.5 -55.5t35 -42t48 -26.5t52.5 -9q59 0 102.5 23.5t78.5 88.5l18 38q8 17 14 34q12 33 22.5 55.5t25.5 38.5h22q2 2 0 2q12 0 27.5 1t32.5 3h18q10 0 20.5 1t20.5 1h22q12 0 23 2h-2q47 4 89 5.5t71 1.5l4 -25l16 -84q8 -49 21.5 -76.5t33 -43t46 -21.5 t63.5 -13q18 0 36.5 3.5t47.5 17.5q43 16 63.5 54t20.5 81q0 14 -5 30.5t-9 33.5l2 -7q-72 500 -128.5 758t-107.5 279h-2v-2v2h-10v2q8 0 10 -2q-2 2 -4 2t-6 2v16q-104 -16 -167 -37.5t-99.5 -49.5t-57 -60.5t-41.5 -73.5l-6 -10q-16 -35 -37.5 -75t-50.5 -83l-89 -145 l-96 -163l-92 -164q-44 -81 -75 -149q-16 -45 -25.5 -75.5t-9.5 -63.5v-20zM504 451l131 217l27 -217h-158z" />
<glyph unicode="b" horiz-adv-x="1103" d="M-6 106q2 -41 11 -74.5t36 -49.5h-2l29 -29l12 -2q49 -39 98 -49.5t96 -10.5h17q80 0 187.5 18.5t215 55.5t202.5 93.5t155 134.5q20 29 31.5 57.5t11.5 58.5q0 29 -12.5 59.5t-34.5 57.5l2 -2q-55 74 -125 115q47 20 89 45.5t77 60.5q23 18 38 50t27 73l4 -2 q6 14 8 28.5t2 28.5v13q0 10 5 30l-9 -8q-10 55 -47 100.5t-91 79t-120.5 56t-134.5 32.5v2q-109 18 -262 19q-61 0 -111 -6q-55 -4 -98 -33t-74 -78q-23 -35 -31 -55.5t-10 -36.5v2l-80 -310l-54 -215l-34 -139q-12 -51 -17 -79.5t-6 -41t-1 -22.5v-27zM332 131l59 229 q113 25 199 25q113 0 180 -39q-12 -31 -55 -62.5t-97.5 -58t-113 -48t-101.5 -34.5q-22 -12 -71 -12zM465 637l23 90q9 35 17.5 57.5t15.5 37t18 30.5l-2 -6l8 8q74 20 168 20q80 -8 113.5 -19t33.5 -26q0 -29 -37 -60.5t-93 -59t-126.5 -48t-138.5 -24.5z" />
<glyph unicode="c" horiz-adv-x="999" d="M-45 301q0 -16 2 -27q4 -47 13.5 -82.5t29.5 -74.5l47 -56q4 -6 9 -11t10 -11l26 -29v6q66 -55 145.5 -80.5t159.5 -37.5q29 -4 57.5 -7.5t59.5 -3.5q131 0 234.5 44t212.5 126q37 31 51 49.5t26 40.5l4 13q0 137 -120 137h-7q-2 0 -32.5 -9t-71.5 -30v4 q-59 -33 -120.5 -60.5t-141.5 -51.5q-20 -4 -51 -5q-23 0 -56.5 6.5t-93.5 28.5q-23 25 -44 53.5t-28 63.5v10q0 10 3 15q10 98 47 167q41 86 94 166t112 136q39 41 81 69.5t85 32.5l140 -100l51 -27.5t28.5 -13.5t17.5 -5.5t17 -1.5q57 25 90 67t33 73q0 10 -2 20v15 q-10 53 -52 90t-101 69v2q-51 27 -89 44.5t-69 28.5t-56.5 15.5t-52.5 4.5q-61 0 -166 -29q-106 -66 -197 -153t-161 -191.5t-115 -224t-59 -248.5v-27z" />
<glyph unicode="d" horiz-adv-x="1091" d="M-31 70q10 -61 66 -109l172 -55l164 20h-2q109 8 209 44t188 92.5t160.5 128t125 151.5t81 164t28.5 166q0 86 -31.5 163.5t-100 141t-176.5 108.5t-261 64q-53 12 -110.5 14t-129.5 2l-135 -20q-41 -104 -60.5 -160.5t-23.5 -75.5v-16q0 -2 -2 -6q-31 -109 -55.5 -204 t-44 -187.5t-34.5 -186.5t-28 -200v-39zM305 166q10 80 32.5 180t49.5 202l52 190q26 89 44 145q127 -2 201 -12.5t109 -34.5q53 -41 71.5 -76t22.5 -66v-4q-6 -59 -47 -125.5t-108.5 -133t-157 -127t-187.5 -105.5q-6 -4 -28.5 -13.5t-53.5 -19.5z" />
<glyph unicode="e" horiz-adv-x="1062" d="M-39 33q8 -4 25.5 -15.5t27.5 -19.5q8 -6 16.5 -11t12.5 -10q33 -27 68.5 -48t64.5 -21q45 0 77 4t69 10q4 2 12 3t12 3h12l506 72q45 4 64.5 10t27.5 15q20 25 29.5 42t9.5 48q0 8 -1 23.5t-7 58.5h-37q-23 14 -52.5 19t-57.5 9q-4 0 -7.5 1t-7.5 1h-10q-68 -4 -114 -7 t-80 -7q-45 -4 -67 -5t-36 -1q-6 0 -13 -1t-13 -1h-25l-81 -4q-40 -2 -79 -6q4 25 10.5 55.5l13.5 61.5l13 61q6 29 12 49l82 -2q27 0 54.5 1t63.5 3t84 6l116 10q10 0 26.5 1t34.5 3q4 0 7 1t7 1q10 2 19 3h14q37 6 59.5 18t33 29.5t13.5 37t3 37.5v41q-8 33 -25.5 50.5 t-42 25.5t-55.5 10t-62 2h-184h-96q-47 0 -84 2q8 35 22 90l27 97h8l432 16h60q10 0 16 1t17 5h-2h6q4 4 8 6.5l10 6.5l-8 -9q53 18 72.5 46t19.5 55v26q-16 29 -30.5 45.5t-35 26.5t-49 15.5t-69.5 9.5q-29 2 -66 3t-78 3q-20 2 -41 2q-20 0 -43 2q-53 4 -103 5t-85 1h-127 h-29q-14 0 -32 2q-61 0 -97.5 -6t-56.5 -26.5t-32.5 -60.5t-26.5 -106zM1006 911q10 0 14 4q-2 0 -10 -4h-4z" />
<glyph unicode="f" horiz-adv-x="903" d="M-76 29q4 -29 16.5 -51.5t57.5 -55.5q23 -16 45.5 -21t75.5 -5q33 12 56.5 37.5t40.5 61.5t28.5 77t21.5 82l-2 -2q2 4 4 14t4 14q8 37 17.5 69t19.5 54h287q4 0 9 -1t9 -1h48q47 0 84.5 13.5t68.5 58.5l25 90q2 4 2 18q0 35 -14.5 53.5t-47 27.5t-87 11t-132.5 2h-184 q8 45 19 93l22 89l18 73q8 32 15 44q35 8 88 12.5t135 4.5h153q25 -2 50.5 -3t42.5 -1q68 0 99.5 22.5t31.5 87.5l-4 72v27q-33 33 -72 42t-84 9q-6 0 -12.5 -1t-10.5 -1h-63h-205h-119q-41 0 -59.5 -1t-32.5 -1h-22q-12 0 -30 -1t-42 -1q-6 2 -16 2h-21q-43 0 -69.5 -15.5 t-43 -40t-25.5 -56.5l-18 -66q-4 -12 -4 -17q-2 -6 -2 -12l-72 -357l-49 -243l-28 -150l-16 -81q-5 -28 -6 -36t-1 -12v-28zM307 528q0 8 6 15l33 -15h-39z" />
<glyph unicode="g" horiz-adv-x="1089" d="M-55 287q0 -25 2 -45.5t8 -40.5l18 -70q20 -66 67.5 -104.5t143.5 -75.5q6 -6 12.5 -7t16.5 -1q4 -4 10 -5t10 -6l5 -2q6 0 14 -4q16 -4 22 -4q39 -10 78 -13t76 -3q92 0 173 20.5t136 48.5q51 23 109.5 60t111 81t93.5 92t59 93l33 -31q-8 43 -13.5 66.5t-7.5 35 t-2 15.5v6q0 33 -10 67t-57 60q-35 18 -85 21.5t-104 3.5h-61q-92 0 -190.5 -9.5t-161.5 -23.5q-68 -18 -103 -56t-35 -73t17.5 -60.5t56.5 -29.5q29 -16 69 -21.5t91 -5.5q72 14 122 21.5t81 7.5q25 0 30 8q-6 -12 -29.5 -28.5t-56 -33t-73.5 -29.5t-80 -22 q-41 -16 -83 -21t-75 -5v10h-49l-6 6h-11q-12 10 -24 23.5t-17 42.5q-14 4 -20 19.5t-6 33.5q0 35 6 68.5t18 52.5q61 139 116.5 231t110 147.5t111 79t123.5 25.5h6q23 0 53.5 -26.5t59.5 -55.5q33 -33 62.5 -55.5t64.5 -22.5h20l107 66l-16 115v-6q-6 27 -38 71.5 t-80 89.5t-108.5 80t-124.5 39h-41q-29 0 -63.5 -3t-58.5 -9v2q-102 -29 -189.5 -89.5t-158 -139t-124 -170t-89 -182.5t-54 -174t-18.5 -146z" />
<glyph unicode="h" horiz-adv-x="1138" d="M-29 18q0 -39 8.5 -54t20.5 -27q29 -25 65.5 -36.5t77.5 -11.5h47v7q31 8 60 29.5t37 92.5q2 6 2 11q0 6 2 10q4 25 10 47.5t12 48.5q6 31 15 64l16 63h-2l2 4q0 2 2 6v4q37 2 80 3.5t86 3.5t85 3t75 1v-29q0 -4 -1 -8t-1 -8q0 -8 -2 -19q0 -4 -1 -12t-1 -12v2l-11 -185 q23 -37 66 -66.5t84 -29.5q31 0 51 14q37 4 61.5 25t41 49.5t24.5 59t12 57.5v-2l146 768q10 33 21.5 75t21.5 136q-16 121 -150 121h-12q-143 0 -158 -107l56 -16l6 12l-56 25q-25 -72 -51 -179l-61 -251l-19 -80l-24 -99l-330 -6q10 39 25.5 91.5t34 106.5t40 107.5 t43.5 96.5h-2q6 18 6 34q0 35 -21.5 70t-57.5 51l2 4q-23 10 -49.5 13.5t-59.5 3.5q-23 0 -33 -2l-34 -8q-39 -6 -62.5 -23.5t-37 -42.5t-21.5 -56.5l-17 -68.5l-84 -399l-52 -256q-19 -98 -26.5 -149.5t-7.5 -76.5z" />
<glyph unicode="i" horiz-adv-x="454" d="M-45 68q6 -25 16.5 -46.5t24.5 -35.5l4 -4l6 -5q8 -8 21 -12l125 -41h55q12 16 29 41v-2q20 27 27 41t11 55l8 32l18 83l27 117l31 137l34 142l32 132q4 37 10 54.5t10 34.5l7 18q4 12 7 23.5t7 21.5v4h2q10 35 21.5 80t17.5 80q0 35 -14.5 65.5t-38 54t-55 38 t-66.5 14.5h-6q-18 10 -41 10q-45 0 -85 -75.5t-79 -221t-79 -355.5zM29 25l2 6h4z" />
<glyph unicode="j" horiz-adv-x="897" d="M-66 176q0 -55 39 -106.5t101 -67.5q182 -96 344 -96q160 0 269.5 100t131.5 311h2l13 70q6 35 12 64l24 129q10 68 23 126l25 113l-3 -2q2 4 3 8q0 4 2 9q2 6 4 14t4 14q10 39 19 83l20 95q0 43 -9.5 69t-27.5 40q-35 18 -69 29.5t-66 11.5q-23 0 -32 -1t-15 -3l-31 -6 q-41 -8 -66.5 -40t-49 -121t-52.5 -251t-72 -430v-19q0 -20 -9 -46.5t-24.5 -49t-36 -39t-42.5 -16.5q-20 0 -41 18q-27 16 -31 20.5t-14 12.5q-6 4 -15 12h2q-41 35 -90 67t-102 32q-49 0 -85 -31t-55 -106v-17z" />
<glyph unicode="k" horiz-adv-x="1034" d="M-68 27q4 -23 15.5 -44.5t25.5 -39.5q39 -20 63.5 -26.5t51.5 -6.5h31q39 8 62.5 20.5t44 51t42 112.5t56.5 207q16 -12 32 -27l37 -32l57 -51l33 -30q12 -11 19 -18l12 -12l44 -37q19 -16 42 -39l18 -18q51 -47 96.5 -82t121.5 -53q117 49 116 135q0 72 -85 162 t-218 207l-7 6q-7 6 -15 16q-12 10 -23.5 21.5t-23.5 21.5q-14 10 -31 24.5t-33 30.5q20 16 49 37t61 41l60 39l49 31l8 4q10 8 18 11l7 3q20 27 29 31l315 227l-14 15l16 -15q2 2 3 4l1 2q35 23 57.5 47.5t22.5 71.5q-2 29 -17.5 52.5t-39 40t-49 24.5t-50.5 8 q-37 0 -68.5 -19.5t-84.5 -62.5q-10 -10 -24.5 -21.5t-30.5 -21.5h2l-396 -270q4 16 9.5 34.5l11.5 37.5q0 2 2 6q0 4 2 6q2 4 4 14t4 15q6 23 11 46t5 54v8q0 27 -16 53.5t-40.5 46t-54.5 31.5t-59 12q-2 0 -2 -2h-2h-20q-74 0 -121 -46t-47 -126v-6l-54 -244l-40 -188 l-11 -54q-5 -26 -12 -52l-25 -113l-30 -129q-2 -10 -3 -20.5t-3 -18.5q0 -4 -1 -8t-3 -10q-4 -16 -7.5 -35t-5.5 -66v-24z" />
<glyph unicode="l" horiz-adv-x="817" d="M-45 59q6 -37 11 -58t20 -40v-16q57 -31 92 -40t69 -9q61 10 116.5 16t103.5 10q8 2 14 2t14 2q27 4 52.5 6t50.5 7h-2q92 10 176 22t170 33q16 33 23 52.5t7 43.5q0 55 -36.5 89t-77.5 34q-14 0 -25 -2q-8 0 -15 -1t-13 -1q-29 0 -39 -2h4q-53 -4 -92 -8t-70 -9l-61 -7 q-26 -3 -49 -5l-49 -4q-26 -2 -58 -4l2 10l164 551l6 6q4 14 12 35l14 37l7 20q16 43 30.5 88.5t14.5 86.5q0 59 -32 98t-122 39q-31 0 -68 -6q-78 -4 -115.5 -30t-51.5 -89q-14 -23 -16.5 -47.5t-2.5 -46.5l-32 -125l-24 -103l-23 -102q-11 -53 -25 -129l-21 -98l-24 -123 l-4 -13q-4 -16 -5 -28v-4q-2 -8 -3 -16.5t-3 -14.5q-4 -27 -9 -50.5t-5 -56.5z" />
<glyph unicode="m" horiz-adv-x="1363" d="M-78 27q2 -68 41 -104t92 -36h39q39 0 78 21l76 127v10l133 361v-101q-2 -16 -2 -37v-47q0 -43 5 -87t20.5 -79t43 -57.5t72.5 -22.5h8q12 0 24.5 4.5l29.5 10.5q4 2 8 3t8 3l-2 -2q35 14 61.5 31.5t28.5 19.5l43 79l55 103l1 3q1 3 6 8q2 4 2 2l2 4l63 125q33 63 64 114 q-12 -63 -17.5 -118.5t-5.5 -120.5q-4 -16 -4 -35v-37v-33q0 -27 6 -45q6 -35 16.5 -63.5t36.5 -50.5h-2l17 -17q33 -18 62.5 -25.5t62.5 -7.5h20q10 0 23 4q37 4 57 13.5t29.5 23t11.5 30.5t2 38v39q0 119 16.5 229.5t46 220t73.5 223t100 238.5v21q0 41 -23 74.5t-58.5 60 t-78.5 43t-86 22.5q-68 0 -121 -45t-100 -98l2 -2q-59 -63 -144.5 -179t-183.5 -270q2 39 3 70t4 57l6 53q3 26 7 54q10 29 22.5 80t12.5 80q-10 39 -35.5 62.5t-59.5 35.5t-68.5 15t-61.5 5h-21q-16 0 -26 -2q-82 -6 -120 -38.5t-67 -81.5q-20 -53 -34 -86 q-10 -20 -17.5 -40l-19.5 -51q-25 -55 -50 -119l-58 -150l-70 -193l-90 -252h2l-12 -43q-5 -20 -5 -37v-8zM1133 -41l8 -18l-4 -4z" />
<glyph unicode="n" horiz-adv-x="1093" d="M-51 29q0 -35 15.5 -63.5t39 -48t53 -31t60.5 -11.5q51 0 91 26.5t48 96.5v10l25 84q16 55 34 124l38 143l36 145q59 -180 118.5 -300t98.5 -159q88 -102 176 -102q55 0 95.5 34.5t58.5 92.5l19 64l18 54v-2q8 23 14 42.5t10 35.5q6 20 12.5 35.5t10.5 28.5l-2 -2l18 57 q6 18 11 41q6 41 21 96l26 90h2q4 10 14 40t21.5 71t21.5 87t14 89q12 31 23.5 70t11.5 77q0 29 -11 59t-36 54l-145 21q-41 -6 -71 -28t-49.5 -49.5t-30.5 -61t-17 -64.5l-12 -50l-28 -125l-39 -164q-22 -89 -44 -169q-35 92 -57.5 177t-38.5 183q-4 10 -5.5 24.5 t-1.5 33.5v24q0 37 -3 75t-15 69.5t-39 53t-74 26.5q-104 -6 -163.5 -26t-92 -50.5t-47 -73.5t-24.5 -100q-10 -39 -21.5 -77t-19.5 -73l-45 -176l-37 -143l-48 -188l-25.5 -105.5t-10.5 -52t-2 -27.5v-12z" />
<glyph unicode="o" horiz-adv-x="1206" d="M-49 334q6 -41 18.5 -85t50.5 -110v2q10 -18 17.5 -29.5t15.5 -21.5q2 -6 8 -12q59 -72 143.5 -110t207.5 -58h-2q35 -8 70.5 -10t78.5 -2q117 0 213 24.5t168 79.5q80 70 138.5 150.5t96 167t56 174.5t18.5 170v34q0 16 -1 25.5t-3 19.5q-4 31 -12 65t-27 73 q-37 72 -81 121t-90 79.5t-90 46t-81 21.5h-121q-119 -14 -204.5 -33.5t-139.5 -52.5l-71 -42q-29 -17 -43 -28q-76 -55 -137.5 -128.5t-105.5 -155.5t-67.5 -167t-23.5 -165v-25q0 -12 2 -18h-2zM291 309q6 74 40 166t91 178t135 153.5t170 90.5q37 10 72 10q39 0 65 -18 q29 -23 45.5 -71t26.5 -97v-27q0 -4 1 -8t1 -8q0 -82 -26.5 -177t-83 -177t-141.5 -137.5t-202 -59.5q-14 0 -37.5 9t-50.5 24q-47 12 -73.5 54t-32.5 95z" />
<glyph unicode="p" horiz-adv-x="995" d="M-63 35q0 -16 13 -34.5t33.5 -37t46 -34t52.5 -23.5l-29 -29l43 11l37 10q8 0 31 6l-2 4q66 23 86 50.5t28 78.5q0 39 9 72l39 202q117 16 196.5 38t151.5 57q174 76 271 168t97 227q-10 100 -59 167.5t-160 114.5q-37 16 -93 31.5t-120.5 28t-132 20.5t-125.5 11h-4 q-51 0 -85 -15.5t-62 -40.5q-29 -41 -57.5 -132t-55.5 -200.5t-51 -224.5l-43 -203l-15 -66q-6 -30 -10 -52v2q-10 -41 -18 -92.5t-12 -98.5v-16zM373 578q0 6 1 11t3 11v6q0 6 2 12l6 27l33 192q12 75 16 74q53 0 128 -11t130 -36q10 -20 35 -22q25 -25 25 -41 q0 -27 -30 -54.5t-79 -55t-115.5 -56.5t-140.5 -55v2z" />
<glyph unicode="q" horiz-adv-x="1191" d="M-35 336q0 -4 1 -6t1 -6v-31q2 -39 11.5 -79t32 -79t61.5 -75.5t100 -69.5q96 -51 169 -68.5t144 -17.5q37 0 63.5 1t47 4t39 7t41.5 12l41 15l86 -58l31 52q-129 63 -181.5 84.5t-53.5 14.5t35 -34l83 -59l4 2q18 -12 35 -25l-4 2q4 -4 6 -5t6 -5q-2 2 5 -3t17 -11 q4 -4 8.5 -6.5t8.5 -6.5q4 -2 7 -4t7 -6h-4q14 -12 33.5 -26.5t42 -29t50.5 -23.5t56 -9q51 0 88 39q8 16 18.5 44t10.5 58v17q0 2 1 3t1 3q0 59 -44 88t-93 47l38 37q22 20 46 49q84 98 126 224t42 245q0 8 -1 38t-8.5 68.5t-20.5 85t-38 89.5q-53 92 -126.5 144t-196.5 75 q-10 2 -19 2q-8 0 -16 2v2q-16 4 -35.5 6t-54.5 2q-82 0 -169 -26.5t-167 -73.5t-148.5 -109.5t-111.5 -132.5q-82 -127 -117 -250t-35 -227zM260 377q0 76 34 149.5t88 141t122.5 126t138.5 101.5l-6 -2q23 8 59.5 16.5t77.5 8.5q4 0 12.5 -1.5t16.5 -1.5q49 -18 72.5 -65 t29.5 -100q2 -14 3 -27.5t1 -26.5q0 -53 -10 -109.5t-28.5 -110.5t-46 -102t-62.5 -85l2 2l-49 -43q-6 4 -14.5 7t-18.5 9q-8 14 -31 19l-24 10l2 -2q-33 16 -66 28.5t-65 14.5q-6 2 -19 2q-20 0 -44.5 -12.5t-46 -33t-36 -45t-14.5 -48.5q0 -20 4 -31q-23 20 -38 47 t-24.5 56.5t-14.5 57t-5 50.5zM715 -51q2 0 6 -4l14 4h-20z" />
<glyph unicode="r" horiz-adv-x="1034" d="M-51 27q2 -31 21.5 -57.5t52.5 -51.5h-3q10 -10 43 -26.5t58 -16.5h4q47 0 76.5 34t34.5 85q6 10 13 30.5l17 47.5v-2q4 10 7 21t8 24q2 4 3 7t3 7l25 71l26 68q8 -6 14 -12t15 -12l48 -42q17 -15 27 -26h-2q10 -10 35 -29l-4 3q82 -78 165 -138.5t200 -111.5 q41 12 73.5 27.5t42.5 56.5q39 20 39 63q0 41 -52 86t-124 98l-116 82q-58 43 -103 90q80 25 162 62t149.5 85t115.5 104.5t62 119.5l-8 86q-10 61 -44 99t-101 85q-139 66 -255 84.5t-226 18.5q-4 0 -10.5 -1t-10.5 -1h-18q-4 0 -11.5 -1t-11.5 -1q-37 -4 -76 -7t-71 -20 q-4 -6 -17 -18q-4 -4 -5 -7.5t-5 -7.5t-9 -11t-9 -17q-27 -39 -41.5 -73t-16.5 -44l-79 -351l-52 -241l-33 -151q-12 -55 -18 -86t-7 -43.5t-1 -22.5v-16zM399 645q4 29 12.5 64.5t19.5 72.5l22 72q10 35 20 61q31 0 65.5 -3t69.5 -8t67 -15t56 -27l-6 2l4 -4q2 -2 4 -3 t4 -3l22 -20q11 -10 17 -21q-4 -10 -10 -20q-59 -45 -106.5 -73t-88.5 -43t-80.5 -21.5t-87.5 -8.5z" />
<glyph unicode="s" horiz-adv-x="1062" d="M-66 240q0 -61 59.5 -123t149.5 -110t193.5 -77.5t193.5 -29.5q18 0 34 1t28 3q41 2 68.5 7t56.5 15q6 4 10 4q6 0 12 2q80 29 134.5 66t93.5 80q18 20 32.5 43.5t22.5 44t12 35t4 18.5q0 12 -2 30.5t-4 29.5q-33 68 -100.5 124t-179.5 78q-4 2 2 3t4 3t-21.5 7.5 t-74.5 17.5q-25 6 -52.5 15.5t-52.5 19.5q-16 14 -41 14q-23 2 -37 23.5t-14 50.5q0 31 12 49q29 47 82 90t119 68q43 0 98 -11.5t96 -48.5q86 -70 125 -75h19q72 0 99.5 35.5t27.5 93.5q0 10 -2 26.5t-8 32.5l-5 8l-4 8v2q-16 35 -45.5 54.5t-83.5 48.5q-66 35 -126 61.5 t-146 36.5q-23 0 -31 -2q-86 -4 -157 -33l-41 -20l2 2q-102 -47 -180 -113.5t-113 -132.5q-29 -53 -48.5 -99t-19.5 -98q2 -47 24.5 -92t56.5 -84t76 -70.5t85 -52.5q16 -6 25.5 -10t13.5 -8q35 -16 62.5 -25.5t56.5 -15.5q43 -10 83.5 -21.5t51.5 -23.5q25 -12 28 -8v-4 q0 -10 -21.5 -18.5t-35.5 -12.5q-4 -4 -21.5 -6t-38.5 -3l-42 -2q-20 -1 -29 -1q-39 0 -71.5 5t-86.5 19q-41 20 -76.5 47t-58.5 64l-32 42q-15 19 -38 36q-12 8 -24 9t-23 1h-20q-25 -2 -54.5 -9t-64.5 -42v-8q-27 -41 -27 -84z" />
<glyph unicode="t" horiz-adv-x="954" d="M-78 1032q0 -33 13.5 -72.5t31.5 -68.5q53 -14 87 -19.5t73 -5.5h137q-4 -16 -6 -30.5t-6 -28.5q-4 -18 -6 -34.5t-6 -33.5l-56 -276l-38 -187l-23 -115q-8 -42 -13.5 -63.5t-7.5 -28t-4 -10.5q0 -29 6.5 -48t34.5 -56q4 -8 7 -11l8 -7l39 -19q41 -10 61 -10q27 0 52.5 5 t47 19.5t34.5 37t13 57.5v2l81 359q32 142 50 233q4 16 6.5 27t6.5 24q12 51 19 85t13.5 55.5t11.5 35.5t13 26l402 23q53 16 76.5 51t23.5 72q0 27 -11.5 53.5t-33 48t-52 34.5t-69.5 13h-20q-10 0 -27 -4h-47q-59 0 -120.5 -1t-117 -2t-99.5 -3t-69 -4h-125h-96 q-39 0 -67.5 -1t-49 -2t-39.5 -1q-12 0 -27.5 -1t-27.5 -1q-47 -10 -65.5 -41t-18.5 -76z" />
<glyph unicode="u" horiz-adv-x="1038" d="M-39 295q0 -72 22.5 -142.5t88.5 -123.5l16 -6q82 -66 149.5 -91.5t145.5 -25.5q8 2 12 2h29q4 0 9 -1t9 -1h72v4q117 6 198 71.5t136 163t91 216t65 233.5h-3q29 100 52.5 210.5t33.5 211.5q0 39 -1 64.5t-11 66.5q-12 18 -33.5 33.5t-46 26t-49 15.5t-41.5 5 q-16 0 -33.5 -8.5t-32 -18.5t-25.5 -20.5l-15 -14.5l-60 -286q-4 -12 -4 -19q-2 -8 -2 -16q-2 -4 -2 -13q-6 -39 -16 -89t-29 -126q-12 -53 -27.5 -109t-31 -106.5t-30.5 -90.5t-30 -58l-61 -80l4 2q-14 -10 -33.5 -15t-39 -8.5t-35 -4.5t-23.5 -1h-8q-8 0 -22.5 4.5 t-28 12.5t-23.5 20.5t-10 28.5q0 6 2 12q0 37 10 84t27 107l50 169l37 119l25 80l17 49q2 4 3 8.5t3 8.5q10 33 12 44t4 36q2 10 3 26.5t3 44.5q0 27 -18.5 53.5t-45 48t-57 37t-55.5 21.5q-25 0 -48 -7t-47 -28.5t-50.5 -58.5t-59.5 -94h15l-28 -84q-9 -27 -13 -43 q-2 -6 -4 -14.5t2 1.5l-42 -144l-25.5 -94t-17.5 -77l-18 -92q-4 -31 -7 -62.5t-3 -66.5zM504 172h2l2 4z" />
<glyph unicode="v" horiz-adv-x="1081" d="M4 709q0 -72 4 -154t15 -180l36 -262q4 -23 12.5 -49.5t23 -54t36 -53.5t51.5 -44q18 -4 44 -6t59 -2q51 0 104 10t98 31.5t74 54.5t33 80l157 301l111.5 201t78.5 129l56 86q-2 0 9.5 14t17.5 25q4 6 17 23l30 40q31 39 60.5 81t39.5 75q0 25 -19 54.5t-54 53.5l4 4 q-18 35 -40 41t-44 6q-14 0 -27.5 -1t-25.5 -3h-15l4 -4q-20 -2 -32 -12q-51 -37 -109.5 -110.5t-119 -167l-120.5 -195.5l-110 -195l-11.5 -20l-11.5 -21q-18 -35 -34 -62l-33 -54q-4 16 -4 14q-4 31 -6.5 60.5t-2.5 54.5v110q0 72 6.5 121t16.5 88q8 41 10 86t2 80 q-10 59 -56 91t-99 36l22 23q-47 -10 -76 -21q-8 0 -14 -1t-20 -5l4 -8q-72 -33 -102.5 -84t-41.5 -117q-4 -29 -6 -78t-2 -110zM997 797q2 0 9 6l2 6q-2 -4 -5.5 -8t-1.5 0z" />
<glyph unicode="w" horiz-adv-x="1437" d="M-6 12l35 -20l32 -21q4 -8 19 -14l12 -4v2q61 -33 92 -33q27 0 52 6q4 0 10 -1t14 -1q35 0 60.5 17.5t47 51.5t42 82t43.5 109q2 4 4 9.5t4 9.5v-2q10 23 19 47l20 51l28 71q12 30 23 52q0 -2 1 -5l1 -3q4 -8 5 -19.5t5 -38.5q0 -4 1 -5t1 -3q0 -10 2 -16q4 -35 10.5 -71 t16.5 -64q6 -35 17.5 -76t29.5 -81t45 -72.5t62 -49.5q35 -14 64.5 -17t51.5 -3q35 0 57.5 1t47.5 9q29 8 46 16t27.5 19.5t18.5 29t18 45.5q18 41 32 76l28 70v-2q4 8 5 14t5 15l42 108l60 145l92 206l136 288l-2 -2q12 25 19 46l15 46q-25 76 -65.5 106.5t-87.5 30.5 q-41 0 -64 -8q-47 -4 -88 -45t-82 -110.5t-83 -164.5l-89 -208l-31 -74l-32 -72q-4 41 -4 70v57v19v100v62q0 23 -1 33t-1 14v-2q-4 23 -12.5 45t-30.5 41q-43 25 -96.5 37t-77.5 12q-72 -10 -129.5 -63.5t-100.5 -121.5l-40 -63l-36 -57q4 43 10.5 73.5l12.5 57.5q0 4 1 11 t1 11t2 8q4 25 7 54.5t7 99.5q-4 33 -20 57.5t-41 40t-54.5 22.5t-56.5 7q-25 0 -49 -6q-49 -4 -76.5 -17.5t-42 -36t-20.5 -55.5l-14 -77v-5q-14 -94 -23.5 -214.5t-9.5 -258.5l4 -178q2 -92 12 -186q2 -16 5 -32.5t12 -31.5h-33z" />
<glyph unicode="x" horiz-adv-x="1034" d="M-121 23q0 -92 113 -115h8q8 -4 23 -4h18q55 0 117 35l58 66l48 54l61 69l39 45l24 29l18 21l-3 -4q10 10 15 17l54 -77q30 -42 62.5 -82t64.5 -74t60 -52v-12q47 -10 65.5 -12.5t33.5 -2.5q20 0 37.5 2t35.5 11q49 10 71 35.5t22 56.5q-4 41 -29 75.5t-51 65.5 q-4 4 -5 7t-5 7v-2q-18 20 -34 40t-20 36q-37 51 -64.5 103.5t-58.5 140.5l15.5 16l15.5 17l25 27l16 18q23 25 37 43l25 30q18 23 30 35l33 33q12 12 28.5 30.5t39.5 41.5q51 57 85 88l62 55q4 4 11 9t12 9h-2l31 27q17 14 34 31q6 10 12.5 24.5t6.5 28.5q0 25 -19.5 50.5 t-47.5 45t-59.5 31.5t-56.5 12h-6q-23 0 -47.5 -8t-53 -27.5t-62.5 -54.5t-72 -90l-226 -233q-23 39 -37 68.5t-26 58.5l-6 14l2 -2q-23 49 -44.5 89t-54.5 73l-24 10h-23q-14 0 -38.5 -2t-50 -6t-50.5 -9.5t-41 -13.5q-37 -18 -50 -48t-13 -60q0 -20 6 -48t16 -47l6 -6 l-4 8l27 -52l41 -84l48 -105q26 -57 48 -115l-20 -27l-19 -22l-107 -133l-77 -100l-70 -93z" />
<glyph unicode="y" horiz-adv-x="944" d="M-63 997q0 -35 10 -64.5t24 -53.5q23 -37 47.5 -93.5t46 -118t39 -120t25.5 -96.5l-66 -385q2 -63 60 -105l20 -20q100 -37 144 -37q39 0 63.5 12t40 40t24.5 71t19 104l23 116q12 65 35 150q8 45 16 70t33 55q59 90 153 196.5t240 242.5q8 2 16 10l-4 -2q20 16 48 44.5 t28 67.5v23l-25 47l-4 -2q-20 27 -55 41t-74 14q-70 0 -116 -53v2q-8 -8 -14.5 -17.5t-14.5 -17.5l-175 -190q-85 -92 -157 -185q-12 31 -25 68l-4 -2l2 2v2v4q-37 92 -78.5 178t-101.5 131q-35 10 -80 11q-33 0 -64.5 -6.5t-53.5 -22.5h2q-27 -16 -37 -43t-10 -59v-9z" />
<glyph unicode="z" horiz-adv-x="1196" d="M-41 23q0 -14 3 -30t13 -30q35 -37 82 -50t111 -13q100 2 182 7t142 9q10 0 18 1t18 1q29 2 50.5 4t39.5 2h21q33 -2 83 -3t95 -1h53q16 0 26.5 1t18.5 3q94 4 133 35t39 74q0 14 -6 31.5t-14 33.5q-16 117 -186 117h-86q-31 0 -51.5 1t-35 2t-28.5 3q-23 0 -70 -2 t-135 -8l553 522q2 2 5 3t7 5l-6 -4q4 4 8.5 7.5t8.5 7.5h-2l69 66q37 36 68 73t50 73.5t19 71.5q0 51 -39.5 87t-144.5 46h-27q-14 0 -30 -2q-8 0 -16.5 -1t-16.5 -1q-35 -2 -62.5 -3t-54.5 -1q-74 -2 -121 -3t-80.5 -3t-58 -3t-51.5 -3q-164 -10 -265.5 -23.5t-156.5 -31 t-74.5 -40t-19.5 -53.5q0 -14 6 -32v-6q0 -31 6 -67t45 -56q31 -23 57.5 -30t57.5 -7q35 0 82 6q20 0 70.5 5t110.5 12.5t117.5 15.5t92.5 14h25l-605 -551q-47 -45 -90 -100t-45 -121q-4 -14 -6 -26t-2 -35z" />
<glyph unicode="{" horiz-adv-x="946" d="M96 723q0 -55 35 -98t107 -43q63 0 84.5 -16.5t21.5 -55.5v-21q0 -8 -2 -22q0 -4 -1 -11t-1 -12q-4 -47 -10 -88l-13 -82q-4 -16 -5 -30.5t-3 -30.5h-2q-8 -41 -12 -81l-8 -79q-2 -16 -3 -33.5t-1 -35.5q0 -135 55 -205t186 -70q14 0 28.5 1t31.5 3q-10 -14 -4 -17t22 2 t39 15l47 23q6 2 14 6h5q55 20 98 54t49 91v17q0 49 -31.5 92t-87.5 43q-16 0 -27 -4l-28 -10q-49 -25 -72 -25q-18 0 -18 31v6q0 4 2 8v-2v2v2v-2q4 27 7 52l7 61q8 53 16.5 122.5t16.5 157.5q2 16 2 31v35q0 59 -14.5 110.5t-48.5 102.5q78 80 105.5 195.5t43.5 279.5 q2 35 8 73t16.5 70.5t27 53t40.5 20.5h41q23 0 44.5 3t39 16.5t28.5 40t15 71.5v21q0 41 -9 66.5t-26.5 38.5t-41 18.5t-52.5 5.5q-98 0 -174 -42t-129 -112t-85 -157t-42 -179l-4 -59q-6 -59 -11 -103.5t-19.5 -74t-41 -45t-73.5 -15.5q-43 0 -77 -16.5t-57.5 -42t-36 -58 t-12.5 -63.5z" />
<glyph unicode="|" horiz-adv-x="391" d="M55 -143v-21q0 -47 15.5 -76.5t38 -46t49 -23.5t49.5 -7q78 0 119 131l12 -13l6 101v-2q2 10 3 24.5t1 30.5l117 1341q0 4 1 10.5t1 14.5q2 8 2 18v21q4 27 6 55.5t2 63.5q0 68 -22.5 117t-87.5 49h-9q-4 0 -5 -1.5t-5 -1.5q-53 -14 -81.5 -32.5t-44 -47t-20.5 -70.5 l-12 -103q-2 -10 -2 -21v-16q0 -6 -1 -12.5t-1 -12.5v2l-127 -1440q-4 -20 -4 -32z" />
<glyph unicode="}" horiz-adv-x="946" d="M98 -121v-20q0 -43 13.5 -72t35 -45t47 -23.5t52.5 -7.5q76 0 146.5 38t125.5 101.5t91 143.5t42 164l17 194q2 20 8 53t21.5 64t41 52.5t68.5 21.5t75.5 14t55.5 37.5t34 51.5t11 56q0 49 -36 90.5t-107 43.5h2l-43 4q-4 0 -4 2q-4 2 -7 2l-4 2l-20 -29l16 29 q-10 2 -19 14t-9 74q0 86 18 215t53 287l-14 -15q-2 55 -19.5 106.5t-51 90.5t-85 62.5t-121.5 23.5q-61 0 -103 -3t-95 -18v-2q-53 -14 -79 -58t-26 -91q0 -53 31 -95t109 -42v61q2 0 25.5 -3t53 -9t44 -13.5t-2 -15.5t-83.5 -16q6 0 12 1t10 1l55 6q4 0 7.5 -1t7.5 -1v-2 q4 -2 6 -2h2q0 -10 -2 -19q-25 -121 -39 -239.5t-14 -220.5q0 -143 53 -222q-66 -61 -97.5 -148t-37.5 -192l-17 -196q-2 -16 -4 -37t-8 -38t-17.5 -29.5t-29.5 -14.5q-90 -10 -138.5 -58.5t-56.5 -107.5z" />
<glyph unicode="~" horiz-adv-x="892" d="M78 1071q0 -47 39 -82t102 -35q41 0 69.5 21.5t57.5 50.5v-2l26 26q11 11 15 11l12 -23q29 -33 74 -64.5t129 -31.5q68 0 122 12.5t94 43t63.5 83t29.5 131.5v9q0 18 -12 37.5t-31.5 35t-44 25.5t-49.5 10q-39 0 -72.5 -20.5t-58.5 -63.5q-6 -25 -8 -28q0 -2 -1 -5.5 t-1 -7.5v6q-4 -10 -6 -19t0 -11q-4 0 -14 11l-21 28l2 -5q-27 35 -64.5 68t-115.5 33q-45 0 -102.5 -20.5t-108.5 -54.5t-87 -76t-38 -85v-8z" />
<glyph unicode="&#xa1;" horiz-adv-x="454" d="M-129 627q0 -80 90 -109q10 -6 21.5 -7t25.5 -1q25 0 54.5 2t61.5 6t61.5 7t52.5 7q12 0 28 5q2 0 5 1t5 1q8 4 11 4h16q51 23 66.5 46t15.5 52v18q-10 31 -28.5 48.5t-41.5 27.5l160 416l6 6l-18 25l18 -19q2 4 4 9.5t4 9.5v-2l30 65q15 35 16 64v10q0 29 -21 49l2 -4 q-29 41 -61.5 48t-87.5 7q-2 0 -35 -1t-76 -6t-86 -17.5t-64 -34.5v2q-16 -16 -22 -37.5t-6 -38.5q0 -10 2 -22.5t6 -22.5q12 -29 35.5 -39t50.5 -14l-158 -440q-14 -2 -24 -4.5l-27 -6.5l4 -8q-55 -23 -75.5 -51t-20.5 -51zM268 537h6h-6z" />
<glyph unicode="&#xa2;" horiz-adv-x="714" d="M-80 614q8 -82 39 -142t109 -93v-19q-18 -51 -26.5 -90t-8.5 -61v-19q16 -41 39.5 -67.5t74.5 -40.5h29q59 0 94 24.5t52 61.5l-3 -2q8 14 13.5 28.5t9.5 36t7 51t7 74.5q49 16 94.5 38t75.5 38q10 4 20.5 10.5l16.5 10.5q6 6 15 12q106 80 106 147v19q-20 41 -41.5 58.5 t-44.5 31.5h-8q-8 4 -15 4h-8h-12q-29 0 -53.5 -10t-65.5 -37q-23 -16 -46 -27.5t-68 -23.5q-27 -12 -43.5 -18.5t-28.5 -6.5v6v8q0 29 10 71t28.5 86t43 82t53.5 56q10 -4 29 -10q12 -6 19 -9l18 -7q23 -12 41 -18.5t49 -6.5q29 0 63 12q43 23 61.5 42.5t18.5 58.5 q0 37 -25 78q-45 57 -112 100q0 2 2 4l2 6l1 2q1 2 11 8l8 19v-2l40 75t22 76q0 4 -1 7.5t-1 7.5v12q-23 55 -58.5 72.5t-80.5 17.5q-59 0 -100.5 -26.5t-57.5 -69.5l-18 -32q-7 -13 -12 -27.5l-11 -33.5l-17 -50q-4 -8 -6 -14.5t-4 -16.5q-100 -41 -166.5 -111.5 t-106.5 -149.5t-56.5 -156t-16.5 -132v-23z" />
<glyph unicode="&#xa3;" horiz-adv-x="1044" d="M-25 143q0 -27 6.5 -41t28.5 -36v2q53 -55 108.5 -75t143.5 -20h72q8 0 15 1t18 1q63 4 105 7.5t72.5 5.5t52 3t44.5 1q16 0 33.5 1t40.5 3q39 2 86 9t93 21.5t84 34t60 45.5q23 2 27 20.5t4 82.5q-2 0 -2 -14q-2 41 -29 69q-47 33 -92 33h-14q-4 0 -12.5 -1t-14.5 -1 q-6 -2 -24 -2q-35 0 -45 -2h6q-4 0 -12.5 -1t-18.5 -1q-49 -6 -121 -12.5t-141 -10.5q12 16 21.5 38t21.5 56q8 18 8 31q23 0 41 1t35 3q4 0 10 1t10 1h13q33 0 53 1t33.5 4.5t23.5 8.5t23 13l16 8q27 23 31 35t4 33q0 10 -2 23.5t-10 29.5q2 2 4 2q37 8 58.5 16.5t36.5 31 t27.5 65.5t30.5 120l31 99v-2q4 10 4 14v10v4q10 23 14.5 39.5t4.5 51.5q0 41 -19.5 82.5t-64.5 78.5q-16 12 -64.5 38t-106 51.5t-113.5 45t-93 19.5h-21q-86 -12 -162.5 -61.5t-138 -112t-105.5 -127t-63 -109.5v-8q-14 -41 -14 -76v-14q0 -10 2 -18q4 -43 16.5 -82 t28.5 -74q-76 -14 -76 -102l2 -13q4 -10 8.5 -30.5t4.5 -28.5q14 -47 48 -65.5t81 -22.5q-18 -18 -41 -33.5l-46.5 -30t-44.5 -23.5l-36 -16l-24 -15l-32 -21q-43 -44 -43 -93zM467 758v10v4h2q10 47 41 90t69.5 78t80.5 60.5t77 37.5h8h7q0 -6 -2 -12l-5 -12l3 2 q-2 -4 -3.5 -9.5t-3.5 -9.5q-10 -27 -10 -53l-31 -80q-6 -16 -6 -33l-4 -12q-8 -23 -12 -45t-4 -51q0 -18 2 -34.5t8 -33.5q-14 2 -27 2h-26h-31q-8 0 -15 -1t-18 -1h-49q-6 6 -8 13q-16 23 -29.5 45t-13.5 45zM1040 111q6 6 9 10l-5 -8q-2 -2 -4 -2z" />
<glyph unicode="&#xa4;" horiz-adv-x="727" d="M-70 614q0 -12 2 -25.5t13 -23.5q37 -76 125 -76q4 0 14 1.5t31 7.5l66 13q26 5 48.5 8t48 5t64.5 6q10 0 20.5 1t20.5 1q37 6 67.5 8.5t59.5 2.5h90q92 23 102 92q2 10 3 27q0 35 -21.5 59t-46.5 35h2q-18 10 -47 14l-60 8l51 49l54 58q33 37 62.5 84t53 95t38 93 t14.5 80v16q-8 109 -117 125q-8 0 -20 4q-14 0 -23 4l4 -2q-6 6 -8 13q-6 2 -10 12q-6 8 -13.5 15.5t-23.5 15.5l-2 4q-51 23 -96 22q-51 0 -115 -27.5t-137 -86.5h2q-31 -23 -79 -72t-93 -103.5t-77 -104.5t-32 -77v-14q12 -33 33.5 -56.5t75.5 -43.5l-2 -4q4 -2 8 -3 q6 0 12 -2q16 -4 35.5 -10t44.5 -10l-25 25q18 4 36 13t32 25q66 92 100.5 130t49.5 51l-5 -4q20 12 27 26q29 29 61.5 53.5t61.5 28.5q-6 -25 -13.5 -41t-17.5 -34.5t-26.5 -41l-42.5 -55.5q-51 -66 -112.5 -125t-160.5 -131q-14 -6 -26.5 -12t-38.5 -12v-3h-2l-4 -2v-49 l-9 47q-4 -2 -8 -2t-8 -2h2q-25 -6 -48.5 -14t-45.5 -41v-4l-12 -25q-6 -12 -7 -28v-11z" />
<glyph unicode="&#xa5;" horiz-adv-x="1179" d="M-74 602q8 -47 42 -90t71 -59q8 -4 18.5 -6.5t24.5 -4.5l-15 -3q-5 -1 -10 -1v-2q-43 -10 -72.5 -44t-29.5 -70q0 -84 90 -132h-2q18 -12 40.5 -20t45.5 -14l-16 -103q2 -63 67 -106l21 -21q104 -39 157 -39q37 0 60.5 14.5t39 45t27 79t23.5 115.5q0 4 1 9.5t1 11.5h20 q10 0 21 2q20 2 39.5 3t38.5 3q23 2 33 2h16h18q55 12 88 64h-2q23 41 23 69q0 55 -22.5 86t-67.5 53q-20 6 -42 11.5t-44 9.5h10q23 4 35 4h20q82 0 109.5 23.5t27.5 89.5v34h-2q-2 76 -118 117q72 98 178 212t258 255q8 4 11 7l7 7l-4 -2q23 18 53.5 47t30.5 66v39 q-2 0 -2 -4v-25v11l-18 34q-16 31 -57.5 48.5t-86.5 17.5q-72 0 -123 -55l-250 -278q-122 -136 -229 -271q-29 57 -61 147q-43 109 -93.5 209t-115.5 152q-23 6 -45.5 9t-38.5 3q-35 0 -70 -5t-57 -24h2q-29 -18 -37 -43.5t-8 -58.5v-10q0 -35 16.5 -77t38.5 -83 q35 -53 71 -146.5t66 -187.5q-4 -2 -5 -1t-3 1q-4 0 -9 -1t-7 -1q-10 -2 -21 -2q-18 -2 -28.5 -4t-20.5 -6l-45 -15.5t-26 -9.5v-2q-56 -29 -56 -84z" />
<glyph unicode="&#xa6;" horiz-adv-x="389" d="M57 -203q0 -45 15.5 -74.5t38 -47t49 -24.5t49.5 -7q80 0 121 133l16 -17v101q2 12 3 25.5t3 27.5l29 338v22q0 12 2 29q0 8 2 12q4 27 6 55.5t2 61.5q0 68 -22.5 117t-89.5 49h-7q-4 0 -10 -1t-8 -1q-51 -12 -78.5 -30.5t-42 -48.5t-19.5 -75t-10 -108v6q-2 -6 -2 -14 v-19q0 -6 -1 -12t-1 -12v2l-39 -439v-16l54 -16l6 14l-55 25q-11 -29 -11 -56zM141 844q0 -47 15.5 -77t38 -46t49 -23.5t49.5 -7.5q47 0 83 46t52 138v5l2 28q0 10 2 17q2 10 2 18t2 19l29 337v23q0 12 2 29q0 8 2 12q4 25 5 55.5t1 61.5q0 68 -21.5 117t-88.5 49h-7 q-4 0 -10 -1.5t-8 -1.5q-49 -12 -78 -30.5t-43 -49t-19 -75.5l-12 -111v-22q0 -12 -2 -25l-39 -442q-4 -14 -5 -24.5t-1 -18.5z" />
<glyph unicode="&#xa7;" horiz-adv-x="866" d="M-10 942q4 -43 27.5 -96t45.5 -78q25 -18 60 -18q23 0 52.5 8t47.5 12l-2 -2q14 0 19 4q35 2 80 4t83 4q-4 -16 -4 -20l2 2l-20 -76t-12 -46t-5.5 -26.5t-1.5 -17.5q0 -41 16.5 -63.5t70.5 -22.5h20q33 0 54.5 3t36.5 12.5t26.5 25.5t21.5 43q6 12 12.5 32.5t11.5 44 t9 47t8 42.5v-2q2 6 2 22q0 14 2 21q39 2 58.5 6t44.5 20h-2q23 12 41 25.5t30.5 30t19.5 42t7 62.5v6q0 63 -25.5 84t-70.5 21q-14 0 -24.5 -1t-20.5 -3q14 59 24 92t20.5 55.5t14.5 39.5t4 48q-12 47 -44 68.5t-75 21.5q-55 -6 -91 -50t-58.5 -101.5t-33.5 -115.5t-15 -89 v-2q-37 -6 -84 -11.5t-90 -9.5q4 8 9 15.5t11 17.5l47 74q25 39 44 74l33 60q13 26 13 36v2q0 2 1 3t1 3l-2 -12q8 16 9 39q0 43 -21.5 71.5t-58.5 42.5q-8 2 -15.5 4.5t-23.5 2.5q-96 0 -137 -123l-43 -82q-16 -31 -28 -49l-18 -29q-6 -10 -10 -16q-37 -53 -62.5 -103.5 t-41.5 -128.5z" />
<glyph unicode="&#xa8;" horiz-adv-x="839" d="M12 1294q14 -59 66.5 -97t138.5 -40q82 0 138.5 26.5t70.5 73.5q18 -45 67.5 -71.5t124.5 -28.5q92 0 154 36t62 97v4q-6 59 -62.5 100.5t-144.5 41.5h-11q-78 0 -130 -28t-64 -75q-20 45 -70.5 74t-130.5 29h-4q-92 0 -148.5 -38t-56.5 -104z" />
<glyph unicode="&#xa9;" horiz-adv-x="1656" d="M86 449q0 -115 30.5 -209.5t93 -164t158 -107.5t222.5 -38q53 0 102 7.5t96 19.5q168 45 308.5 104.5t252 148.5t197.5 215t146 304q39 119 39 221q0 141 -60.5 259t-157.5 231q-41 47 -101 81.5t-130 58.5t-142.5 36t-135.5 12q-53 0 -105.5 -15.5t-101.5 -40t-96 -53.5 l-89 -59q-115 -80 -205 -185.5t-155.5 -225t-106.5 -250.5t-55 -262q-2 -23 -3 -44t-1 -44zM328 535v36q0 20 4 43q8 96 53 201t110.5 198t146.5 166.5t161 108.5q20 -10 51 -10q29 0 54.5 10t54.5 25q35 16 74.5 31.5t82.5 15.5q74 0 134.5 -32t103.5 -86t67.5 -128 t24.5 -158v-28q0 -12 -2 -29v2q-16 -135 -66.5 -238.5t-140.5 -195.5q-59 -59 -130 -105.5t-147.5 -78t-154.5 -49t-147 -17.5q-160 0 -247 75t-87 243zM434 580q2 -53 17.5 -105.5t47 -95.5t82 -69.5t124.5 -26.5q16 0 29.5 1t27.5 3q115 20 205 55t186 100q14 8 29.5 31 t30 47.5t23.5 49t9 38.5v8q0 20 -9 43t-23.5 42.5t-33 33t-36.5 13.5q-27 0 -50.5 -15.5t-43.5 -32.5h2q-14 -10 -17.5 -12t-5.5 -4l6 4q-55 -35 -123.5 -69.5t-128.5 -34.5q-51 0 -92 5t-41 32v2q4 51 34 86.5t69 72.5l23 23q13 12 24 24q14 16 43.5 42t62.5 49.5t64.5 42 t52.5 20.5q8 -57 43 -78.5t76 -21.5q37 0 63.5 22.5t43 54t25.5 67.5t11 60v-2q2 10 2 37q0 88 -52 133t-144 45q-80 0 -173.5 -51t-179.5 -125.5t-152.5 -158.5t-90.5 -152v2q-23 -51 -41.5 -104.5t-18.5 -110.5v-20z" />
<glyph unicode="&#xaa;" horiz-adv-x="700" d="M-12 512q0 -43 41 -81t121 -38l4 -2q2 0 5 -1t7 -1q10 -2 21.5 -3t27.5 -1q29 0 49 10l240 2l131 2q72 0 109.5 33t37.5 78q0 43 -44 80t-136 37h-12q-4 0 -8 1t-9 1h-18q-4 0 -9 1t-9 1q-27 0 -48 -6h-180q55 10 103.5 26.5t89.5 32.5q10 -23 34.5 -36t77.5 -13 q72 0 101.5 36t29.5 111l29 404v16q0 61 -17.5 99t-46 60.5t-63.5 31t-69 8.5q-72 0 -164 -22.5t-197 -78.5v5l-16 -9q-14 -6 -27.5 -14t-23.5 -22l-19 -13h10q-4 -10 -8 -24.5t-6 -30.5v-10q0 -43 15.5 -64.5t43.5 -27.5q-61 -37 -101 -90.5t-50 -125.5q0 -4 -1 -8t-1 -8 v-10q0 -31 12 -65.5t32.5 -65.5t49.5 -55.5t61 -36.5q-10 0 -18 -1t-16 -1q-10 -2 -17 -2q-76 0 -112.5 -34t-36.5 -75zM264 860v2q2 14 24.5 29.5t58.5 29t82 24.5t93 20v-29l-36 -22q-26 -15 -59.5 -30.5t-71.5 -27.5t-68 -12h-13q-8 2 -9 4t-1 12zM309 1171l41 -16 q-8 -2 -15 -4t-13 -4zM338 1122q4 2 10 2t10 2q-2 -4 -20 -4z" />
<glyph unicode="&#xab;" horiz-adv-x="874" d="M8 612q0 -39 13.5 -57t31.5 -31h2l193 -231l10 -12l2 -2q18 -27 41 -41l8 -7v2q8 -4 31 -8h25q31 0 57.5 20.5t50.5 80.5h-2q4 6 6 13t4 11q0 2 1 5t1 5v13q0 25 -12 51.5t-47 56.5l4 -2l-106 127l127 84h-3q55 29 79 69t26 62q0 2 1 5t1 8q0 18 -8 28q-12 47 -30.5 64.5 t-59.5 21.5h-11q-39 0 -84 -28v2l-243 -160q-37 -16 -68 -48t-39 -75q0 -6 -1 -14.5t-1 -12.5zM418 575q0 -39 13 -57t32 -31h2l192 -231l11 -10q18 -33 43 -45l8 -6v2q8 -4 31 -9h24q31 0 57.5 20.5t51.5 80.5h-2q4 6 6 13t4 11q0 2 1 5.5t1 5.5v12q0 25 -12.5 51.5 t-46.5 56.5l4 -2l-107 127l127 84h-2q55 29 78.5 69t26.5 62q0 2 1 5.5t1 7.5q0 18 -9 28q-12 47 -30.5 64.5t-59.5 21.5h-10q-39 0 -84 -28v2l-244 -160q-37 -16 -67.5 -48t-38.5 -75q0 -6 -1 -14.5t-1 -12.5z" />
<glyph unicode="&#xac;" horiz-adv-x="1943" d="M0 88q0 -29 8 -47t25 -35q6 -4 12 -9t14 -13q12 -10 24.5 -18.5t25.5 -18.5q12 -8 27.5 -16.5t41.5 -8.5q27 0 55 10l-4 -2l126 26l132 26q10 4 19.5 5t15.5 3q16 -12 25 -21l-4 2l5 -5q3 -3 13 -7l25 -12q18 -10 25 -13.5t10 -3.5h2q23 -8 39 -8q23 0 34 11.5t25 39.5 l5 11l5 10l-2 -2l22 46q11 24 27 52q43 10 103 19l120 16q2 -8 3 -16q0 -6 2 -13q4 -23 6 -44l4 -40q8 -37 22.5 -52t48.5 -26h-2q29 -10 53.5 -12t53.5 -2q45 0 57.5 14.5t12.5 49.5q-2 10 -2 20q0 12 -3 25l5 -4l8 -9q27 -23 50 -39t58 -30q20 -12 36 -18.5t38 -6.5 q16 0 31.5 3l34.5 7q35 8 75.5 22.5t80.5 33t77 41t66 49.5q33 29 52 58.5t19 70.5q0 10 -1 18t-3 17v-2q-4 31 -22.5 60.5t-44.5 51.5q18 10 32 22l27 21h-2q39 33 66.5 72t27.5 86q0 23 -8 45l2 -2q-12 47 -39 84t-61 68q-43 33 -103 45q6 0 10 2q59 14 60 53q0 8 -10 33 l2 -4q-4 16 -11.5 32.5t-19.5 38.5q-16 25 -34.5 37t-47.5 12h-20q-35 -4 -68 -6t-64 -6l3 6q0 2 2 6q2 10 3 18.5t3 16.5q43 10 88 16.5t90 14.5l37 6q31 8 46 18.5t15 34.5q0 8 -10 33l2 -4q-12 43 -33 78q-14 23 -33.5 32t-48.5 9h-12h-39q-16 0 -33 -2q2 2 2 4t2 6 q8 25 14.5 47.5t14.5 44.5l73 8l70 8l34 5l34 4q35 6 49.5 15t14.5 38q0 10 -2 20q-4 23 -11.5 40.5t-19.5 39.5q-27 51 -94 51q-111 -4 -216.5 -21t-181.5 -36l-22 -24l-111 -592l2 4q-4 -10 -4 -17v-10q0 -29 10.5 -49t26.5 -37q18 -18 49 -39q4 -4 12.5 -11t-0.5 3 q6 -6 23 -14q-29 -10 -52.5 -19.5t-45.5 -19.5q-4 -78 -16.5 -170t-28.5 -185l-9 -52l-8 -50q-4 78 -6 152.5t-2 140.5v57q0 27 2 49q0 31 -9 51.5t-38 32.5q29 10 31 48q14 82 34 174l42 181l43 171l38 145h2q2 8 2 27q0 20 -9 34.5t-35.5 31t-57.5 29.5t-61 20 q-10 2 -17.5 3t-17.5 1q-45 0 -60 -54q-14 -47 -28 -105l-29 -122l-20 -88l-41 -4l-43 -4l11 39q5 18 9 37v-2l23 88q10 41 16 57q0 4 1 10t1 10q0 41 -47 70q-27 16 -59 28l-62 21h2q-23 8 -41 8q-53 0 -61 -57q-2 -8 -3 -15t-3 -18l-21 36q-10 17 -22 34q-16 16 -34 23.5 t-57 7.5q-51 -2 -116.5 -7.5l-135 -11.5t-136 -14t-117.5 -16q-47 -6 -47 -50l1 -8q1 -8 3 -14l16 -33l22 -36q11 -19 27.5 -35.5t29.5 -23.5t36 -7q12 0 18 1t14 3q16 4 39 6h2q-14 -57 -27 -124l-26 -131q-12 -65 -21.5 -124t-13.5 -104l2 8q-4 -10 -4 -17v-12 q0 -29 11.5 -46t33.5 -30q-8 2 -20 2q-43 0 -64 -49q-23 -63 -45 -148t-41.5 -173t-35 -170t-23.5 -140v-16zM276 172l67 247q34 126 67 220q2 6 4 13t2 16q0 37 -49 65q-4 2 -7.5 3t-7.5 3h19q23 0 38 10.5t19 38.5q12 70 30 148l36 157l37 155l38 149q23 4 45.5 5t44.5 3 q12 2 25 2q12 0 23 2q10 0 26 4l-8 -45l-8 -45l-42 -230q-22 -116 -46 -208q-2 -8 -2 -29q0 -27 13 -43t38 -31h-2q20 -14 43.5 -21t48.5 -11l-4 2q4 -2 9 -3t9 -4q8 -2 9.5 -3t19.5 -1q29 0 40 11.5t15 38.5q4 20 9.5 42.5t9.5 47.5l12 66q6 32 12 59q16 2 29.5 3t30.5 5 l37 4q-14 -76 -19 -141q-2 -8 -2 -23q0 -47 47 -74q-25 2 -65 6h-15q-45 0 -69.5 -16t-40.5 -43q-37 -59 -80 -138l-86 -165l-82 -170l-68 -152q-2 10 -20 37q-25 27 -40 36t-44 9h-14q-35 -4 -67 -6t-65 -6zM403 461q0 -47 56 -55q2 0 6 -1.5t8 -1.5h-2q8 -2 18 -2h21 q16 0 25 2q25 0 43 10.5t38 26.5l2 2q27 29 60 83.5t51 99.5v8q0 6 2 10v-2q2 6 2 12v13q0 10 -3 23t-13 24q-16 16 -35.5 30.5t-38.5 24.5l2 -2q-29 18 -47 18q-39 0 -57 -41q-16 -37 -44 -89l-53 -99q-10 -18 -19 -37l-15 -31q-7 -16 -7 -26zM899 332q4 4 5 8t5 8l37 69 l35 64l6 -141l-44 -4zM1479 160q8 23 14 53l-2 -2q2 8 4 15t4 16q45 14 82 14q18 0 28.5 -2t14.5 -4q-4 -18 -41.5 -42.5t-103.5 -47.5zM1556 467q6 27 14 50l13 42q35 16 63.5 22.5t51.5 6.5q8 0 13 -1t9 -1q-6 -23 -49 -56.5t-115 -62.5zM1720 598q0 -2 1 -3t1 -3v-2z" />
<glyph unicode="&#xad;" horiz-adv-x="1099" d="M27 563q0 -12 2 -18v-8q0 -6 1 -11.5t5 -15.5l-2 6q6 -18 13 -42.5t24 -43.5l-2 4q23 -33 69.5 -44t112.5 -11h49q14 0 28.5 1t30.5 1q8 0 17.5 1t17.5 1q18 2 37 3t37 1h4q12 0 65.5 1t117 3t119.5 5t73 7h35q53 0 81.5 3.5t53.5 19.5q31 14 39 29.5t8 48.5l-10 20h2 q-10 23 -19.5 40.5t-25.5 27.5h2q-59 55 -146.5 69.5t-185.5 14.5h-88q-10 0 -23.5 -1t-23.5 -1q-10 -2 -21 -2h-16q-47 0 -104.5 -1t-110.5 -3t-95 -5.5t-61 -5.5v2q-53 -10 -81.5 -23t-28.5 -65v-8z" />
<glyph unicode="&#xae;" horiz-adv-x="1818" d="M160 680q0 -164 45 -279q63 -164 225 -284q186 -133 401 -133q213 0 488 143q109 59 188.5 120.5t132.5 127.5h-2q59 72 102.5 157.5t74.5 198.5h2l28 119q12 53 17 100q2 16 3 32.5t1 35.5q0 78 -19.5 145.5t-54.5 128.5q-80 135 -258 234q-250 133 -465 133 q-219 0 -430 -123q-440 -258 -475 -762v-4q-2 -23 -3 -45t-1 -45zM424 721q0 16 1 32.5t3 32.5v-2q12 88 43 177q61 176 223 282q164 113 350 113q211 0 377 -148q158 -137 158 -315v-21q0 -8 -2 -20q-12 -106 -84 -223q-33 -53 -66.5 -96.5t-70.5 -77.5q12 18 12 41v2 q0 29 -43 90l-44 42l-36 36q84 43 127 96l-2 -2q35 41 57.5 87t26.5 95v27q0 74 -31 135l-2 2q-82 162 -362 162q-150 0 -316 -45q-96 -27 -108 -133v-19q0 -45 27 -72q-2 -47 -12.5 -142t-33.5 -243q-2 -16 -5 -25l-7 -22q-8 -25 -15 -50t-7 -30v-16q0 -41 20 -76 q70 -51 117 -51q41 0 82 21q61 29 71 133v20q0 10 2 23q0 4 1.5 8t1.5 8v18h4q35 0 59 -12q39 -20 96 -90q37 -41 69 -66.5t56 -39.5q10 -4 19 -5h22h19q-137 -72 -301 -71h-25q-12 0 -27 2q-207 16 -323 127q-121 115 -121 301zM903 848q2 31 6 67.5t11 79.5 q41 10 73.5 13.5t61.5 3.5t57.5 -4t61.5 -13l-3 2q33 -8 33 -26v-6q-4 -27 -63 -60l2 2q-51 -27 -105 -39q-41 -10 -73.5 -15t-61.5 -5z" />
<glyph unicode="&#xaf;" horiz-adv-x="499" d="M-172 678q8 -72 92 -98q18 -6 28.5 -7.5t26.5 -1.5q20 0 53 3.5l68 7.5l69 8q34 4 60 8h-2q4 0 7 1t6 1q10 2 18 2q12 0 19.5 1t13.5 3q55 18 72.5 42t17.5 59q0 4 -1 6t-1 4v12q-18 35 -39 53.5t-47 28.5l151 471q0 4 2 8v-6q2 6 3 16.5t6 14.5q4 8 6 16t6 17 q10 27 18 52t8 48q0 16 -6 29.5t-12 23.5q-39 43 -71.5 53.5t-90.5 10.5q-4 0 -27.5 -1t-57.5 -4.5t-72.5 -10.5t-69.5 -19v41q-43 -53 -62.5 -88t-19.5 -53q0 -43 29 -64q18 -31 41.5 -39t46.5 -10l-137 -502h-7q-10 -2 -14 -2h-8q-14 0 -23.5 -1t-19.5 -3v-2 q-80 -29 -80 -102v-27z" />
<glyph unicode="&#xb0;" horiz-adv-x="440" d="M35 1137q0 -74 42 -130.5t144 -56.5q55 0 107.5 22.5t94.5 61.5t67.5 90.5t29.5 108.5v16q0 4 1 6t1 7q0 76 -44 133t-136 57q-70 0 -126 -29.5t-95 -74.5t-61.5 -98.5t-24.5 -102.5v-10zM283 1184q6 16 20 26q-8 -18 -20 -26z" />
<glyph unicode="&#xb1;" horiz-adv-x="944" d="M0 217q0 -25 5 -44t13 -38q45 -78 158 -78q4 0 13.5 1t19.5 1q10 2 20 2h17l567 13q61 0 105 49q35 41 34 108q0 102 -92 125q-10 2 -24.5 3t-24.5 3l-59 8q-27 3 -50 3h-14q-72 -4 -128 -8.5l-103 -8.5q-59 -4 -108.5 -7t-104.5 -3t-87 -2t-46 -4q-111 -31 -111 -123z M49 938q0 -25 5 -44.5t14 -37.5q45 -78 157 -78q4 0 13.5 1t19.5 1q10 2 21 2h16q33 0 33 -16v-27q0 -12 -2 -30q0 -6 -1 -11.5t-1 -9.5q-6 -49 -7 -84q0 -182 134 -182q55 0 84 33v-2q18 18 45 108q4 12 5 23.5t5 21.5q4 18 9 35.5l7 24.5q12 55 35 88q31 41 68 41h153 q61 0 105 49q35 41 34 108q0 106 -94 127q-51 6 -94 10l-72 5q-35 4 -51 5l-16 1h2q-14 8 -14 45q0 10 1 27.5t5 40t6 42t2 35.5q0 156 -135 156q-92 0 -123 -105q-10 -31 -9 -55t-3 -63q0 -6 -1.5 -12.5t-1.5 -14.5v4q-2 -12 -2 -22q0 -8 -2 -19q-2 -20 -3 -31.5t-7 -35.5 q-4 -25 -96 -25q-55 0 -87 -2t-46 -4q-111 -31 -111 -123z" />
<glyph unicode="&#xb2;" horiz-adv-x="1077" d="M-18 166q23 -74 59.5 -130t99.5 -56q16 0 24.5 1t14.5 3q80 23 136.5 29.5t105.5 6.5q45 0 100 -6h-4q6 -2 14 -2h19q4 0 9 -1t11 -1q10 -2 35 -2q8 0 14.5 -1t14.5 -1t18.5 -1t22.5 -3h10h2q10 -2 39 -7t74 -15q6 -2 18 -3q14 0 21 3l-66 65l-33 -51q31 -10 60 -14 l24 -8l29 -7l-14 15q55 6 98 63q23 31 38 71t15 74q0 35 -16.5 63t-54.5 44q-92 33 -180.5 44t-172.5 11h-41q-18 0 -37 -2q53 35 111.5 62.5t116.5 50.5l135 62q66 32 122 77t101 110.5t76 161.5h-2q2 10 3 22.5t1 23.5q0 59 -31.5 112t-91.5 94l2 2q-6 4 -11 6.5t-11 4.5 l-13 8l-12 8v-8q-4 2 -10 2q-4 0 -8 2h-4q-31 12 -76 12q-47 0 -106.5 -11t-118 -27.5t-107.5 -33t-74 -28.5l2 -2q-53 -16 -118.5 -55t-122 -87.5t-95 -97.5t-38.5 -86q0 -16 10 -37.5t26.5 -42t37 -37t42.5 -18.5q12 -4 23 -4h20q47 0 70.5 23.5t46.5 56.5v-4q10 12 21 18 q4 2 9 5t9 5l6 7q14 10 30.5 19t24.5 13l9 8q2 2 7 6.5t7 6.5h-2q41 27 83 46t91 23q4 2 8 2t7 1t7 1h7q2 0 5 1.5t5 1.5q20 4 39.5 6t32.5 2h16q8 0 8 2v-2q0 -16 -35 -32.5t-73 -31.5q-4 -2 -9.5 -4t-9.5 -4t-7 -3t-7 -3l2 2l-24 -9q-13 -5 -21 -9l-24.5 -13.5t-16.5 -7.5 q-16 -8 -25 -10q-12 -4 -24.5 -11.5t-22.5 -11.5l-12 -6l2 2l-88 -43q-41 -20 -101 -61l3 2q-4 -2 -7.5 -3t-7.5 -3q-8 -4 -16 -11l-23 -16q-29 -18 -53.5 -35.5t-48 -37t-47.5 -45.5l-56 -58q-78 -94 -77 -182q0 -20 2 -31h-6zM379 664l6 6z" />
<glyph unicode="&#xb3;" horiz-adv-x="858" d="M-4 741q0 -25 6 -32q37 -78 86 -109t123 -55q39 -12 77 -17.5t72 -5.5q66 0 131.5 17.5t123 48t100.5 74t63 96.5q20 41 31.5 85t11.5 91q0 90 -49 164q29 31 51.5 75t22.5 101v10q0 51 -18.5 89t-51.5 63.5t-75 38t-87 12.5h-22q-10 0 -21 -2h4q-51 0 -105 -10.5 t-106.5 -34t-102.5 -61.5t-91 -95q12 -55 39 -99t86 -46q-8 -4 -14.5 -10.5t-14.5 -12.5q-10 -29 -11 -45t-1 -29q0 -59 31.5 -95t85.5 -36q16 0 25.5 2t21.5 7q23 8 47 13t49 5q4 0 7 1t7 1q20 0 31.5 -13.5t11.5 -33.5v6q-14 -53 -66 -89t-110 -36q-37 0 -63 14 q-16 6 -34 23l-34 33l-4 6l2 -4q-25 31 -48.5 52.5t-61.5 21.5q-20 -2 -46 -17v4q-16 -10 -35.5 -26.5t-36 -37t-27.5 -46t-11 -56.5zM393 1182q37 25 78 45t78 20q12 0 20 -2q-6 -8 -24 -26q-23 -10 -50.5 -16.5t-56.5 -10.5h4q-2 0 -3 -1t-3 -1h-10q-8 -2 -16.5 -3 t-16.5 -5z" />
<glyph unicode="&#xb4;" horiz-adv-x="507" d="M80 1282q0 -41 23.5 -59.5t74.5 -38.5h15q20 0 42.5 9t63.5 60q8 10 29.5 27.5t54.5 40.5l2 2l57 46q25 19 43.5 41t32.5 48.5t27 65.5q0 2 1 5t1 7v-6q2 6 3 14t1 29q0 59 -26.5 82.5t-73.5 23.5q-53 0 -132 -49q-29 -18 -59.5 -51t-60 -69.5t-54 -75.5t-41.5 -72 q-24 -49 -24 -80z" />
<glyph unicode="&#xb5;" horiz-adv-x="974" d="M80 -219v-27q0 -59 23.5 -97t103.5 -48h22q49 0 78 17.5t44.5 45t21.5 63.5l12 75v4l6 112q37 2 64.5 5t56.5 10.5t63.5 19.5t86.5 33q16 -33 48.5 -44t73.5 -11q70 0 122 31.5t52 109.5q0 27 -8 53l45 635q12 57 13 96q0 72 -33 100.5t-88 28.5h-17q-78 -8 -116.5 -50 t-59.5 -140l-35 -496q-43 -31 -106.5 -57.5t-114.5 -30.5h-4q-29 0 -28 57v9l40 469h3q2 10 2 26v35q0 63 -32 106.5t-100 45.5h-10q-43 0 -73.5 -15.5t-52 -40t-32 -55.5t-10.5 -61q0 -16 2 -25l-20 -297l-13 -181q-5 -67 -6.5 -96.5t-1.5 -39.5v-6l-18 -326q0 -4 -1 -5 t-1 -5v-7q-2 -12 -2 -26z" />
<glyph unicode="&#x3bc;" horiz-adv-x="974" d="M80 -219v-27q0 -59 23.5 -97t103.5 -48h22q49 0 78 17.5t44.5 45t21.5 63.5l12 75v4l6 112q37 2 64.5 5t56.5 10.5t63.5 19.5t86.5 33q16 -33 48.5 -44t73.5 -11q70 0 122 31.5t52 109.5q0 27 -8 53l45 635q12 57 13 96q0 72 -33 100.5t-88 28.5h-17q-78 -8 -116.5 -50 t-59.5 -140l-35 -496q-43 -31 -106.5 -57.5t-114.5 -30.5h-4q-29 0 -28 57v9l40 469h3q2 10 2 26v35q0 63 -32 106.5t-100 45.5h-10q-43 0 -73.5 -15.5t-52 -40t-32 -55.5t-10.5 -61q0 -16 2 -25l-20 -297l-13 -181q-5 -67 -6.5 -96.5t-1.5 -39.5v-6l-18 -326q0 -4 -1 -5 t-1 -5v-7q-2 -12 -2 -26z" />
<glyph unicode="&#xb6;" horiz-adv-x="958" d="M63 594q0 -162 77 -254t225 -92h34l-26 -430v-15q0 -59 21.5 -96t56.5 -51l-35 -35q25 6 46 13l40 14q10 0 33 6l-5 6q57 27 88 63.5t48 94.5q0 -59 22.5 -95t56.5 -51l-32 -32q51 14 84 24q8 0 30 6l-4 6q82 37 114 100.5t42 180.5l74 1159v8q0 51 -31 82t-75 47.5 t-92 22.5t-81 6q-113 0 -232.5 -42t-221 -123t-172 -198.5t-82.5 -267.5q-2 -12 -3 -28v-29z" />
<glyph unicode="&#xb7;" horiz-adv-x="741" d="M18 -301q0 -51 60.5 -74.5t148.5 -23.5q70 0 150 13t147.5 37.5t111.5 59.5t44 76v23q0 49 -35 88t-82 71q-39 18 -76 31l136 109h-328l-211 -158l4 2q-4 -2 -5 -3t-5 -3q-27 -14 -36 -24.5t-9 -45.5q0 -25 22.5 -29t59.5 -4h22q-66 -39 -92.5 -80.5t-26.5 -64.5z" />
<glyph unicode="&#xb9;" horiz-adv-x="471" d="M-23 844q0 -49 26 -93t54 -61q10 -10 21.5 -11t27.5 -1q27 0 52 10q-4 -10 -6 -20l-5 -21q0 -4 -1 -8t-1 -8v4q-4 -12 -6 -25.5t-4 -23.5q-10 -72 -24 -128l-29 -110q-2 -6 -3 -11t-3 -11h2l-32 -120q-15 -60 -28 -138v-19q0 -74 36 -92t91 -18h54q45 20 70.5 38.5 t37.5 42t17.5 55t9.5 81.5q2 16 10 57l18 94l13 55l-2 -2q6 16 7 26.5t3 19.5v-3q8 45 15 79l14 61l12 51q6 25 14 53h-2l24 93l34 139h-2q4 10 7 22t7 25v6q16 53 16 84q0 72 -43 115t-96 43q-47 0 -94 -33q-29 -27 -53 -43l-48 -31h2q-10 -4 -12 -6l-4 -4q-2 -2 -4 -2 t-4 -2l6 2l-18 -13q-41 -27 -78 -54t-80 -73q-10 -20 -14.5 -37.5t-4.5 -33.5z" />
<glyph unicode="&#xba;" horiz-adv-x="919" d="M2 903q0 -72 33 -138.5t86 -109.5l-2 2q55 -47 124.5 -66.5t147.5 -19.5q57 0 111 7q92 16 156 45l124 57l13 6q10 4 21 9l30 14q92 45 126 127t34 174q0 72 -15 129l-4 2q-16 59 -51 98t-80 65.5t-96 43.5l-96 30q-43 12 -75 15.5t-61 3.5q-94 0 -170.5 -33t-137 -86 t-106.5 -118.5t-81 -129.5q-31 -66 -31 -127zM18 438q0 -12 2 -18v-8q0 -6 1.5 -11.5t5.5 -15.5l-2 6q6 -18 13 -42.5t23 -43.5l-2 4q23 -33 70 -44t113 -11h49q14 0 28.5 1t30.5 1h6q33 0 85.5 1t105.5 3t97 5t58 7h33q53 0 82 3.5t53 19.5q31 14 39.5 29.5t8.5 48.5 l-11 20h2q-10 23 -19 40.5t-26 27.5h2q-59 55 -146 69.5t-185 14.5h-89q-10 0 -23 -1t-24 -1q-10 -2 -20 -2h-17q-98 0 -151 -1t-82 -5q-53 -10 -82 -23.5t-29 -65.5v-8zM385 930q0 55 35 84.5t69 48.5q4 4 12.5 7t12.5 7h10q16 0 37 -6t39 -15t30.5 -23.5t12.5 -28.5 q-14 -27 -42 -44.5t-61.5 -28.5t-67.5 -16.5t-58 -5.5q-25 0 -27 9q0 4 -1 6t-1 6z" />
<glyph unicode="&#xbb;" horiz-adv-x="874" d="M8 342q0 -16 6 -31q12 -47 32 -63.5t60 -20.5h11q41 0 84 29v-2l241 158q39 16 70 48t39 77q0 6 1 14t1 12q0 37 -13.5 55.5t-33.5 30.5l-193 234l-10 10q-10 14 -20.5 24.5t-24.5 18.5l-6 8v-4q-8 4 -15.5 5t-15.5 5h-24q-31 0 -57.5 -20.5t-51.5 -79.5q-8 -20 -8 -25 q0 -2 -1 -5t-1 -5v-12q0 -25 12 -51.5t47 -57.5l-4 2l107 -129l-127 -82h2q-55 -29 -79 -68.5t-26 -62.5q0 -2 -1 -5t-1 -7zM418 305q0 -16 6 -31q12 -47 31.5 -63t60.5 -21h10q41 0 84 29v-2l242 158q39 16 69.5 48t39.5 77q0 6 1 14t1 12q0 37 -13.5 55.5t-34.5 30.5 l-192 234l-10 8q-18 33 -45 45l-6 8v-4q-8 4 -15.5 5t-15.5 5h-25q-31 0 -57.5 -20.5t-50.5 -79.5q-8 -20 -9 -25q0 -2 -1 -5t-1 -5v-12q0 -25 12.5 -51.5t47.5 -57.5l-4 2l106 -129l-127 -81h2q-55 -29 -78.5 -69t-25.5 -63q0 -2 -1 -5t-1 -7z" />
<glyph unicode="&#xbc;" horiz-adv-x="1452" d="M-53 692q0 -80 90 -108q10 -6 21.5 -7.5t25.5 -1.5q25 0 54.5 2.5t61 6.5t61.5 7t52 7q12 0 29 4q2 0 5 1t5 1q8 4 10 4h17q27 12 43 25l-114 -219q-52 -100 -77 -160l2 2q-45 -92 -45 -154q0 -61 32 -90.5t106 -29.5q33 0 58.5 14t43.5 35.5t32 46.5l23 45l-2 -2 q4 6 7.5 12t3.5 10l-3 -4l16 37q7 16 9 21q18 41 50 101l72 130l86 146l91 153q10 16 17.5 29.5t17.5 29.5l-40 -74l-26 -45l-15 -26l-9 -14q-37 -53 -62.5 -103.5t-42.5 -128.5q4 -43 28 -96t46 -78q25 -18 59 -18q23 0 52.5 8t48.5 12l-2 -2q14 0 18 4q35 2 80 4t84 4 q-4 -16 -4 -20l2 2q-12 -47 -20.5 -75.5t-12.5 -46t-5 -27t-1 -17.5q0 -41 16.5 -63.5t69.5 -22.5h21q33 0 54 3t36.5 12.5t27 25.5t21.5 43q6 12 12 32.5t11 44t9.5 47.5t8.5 42v-2q2 6 2 22q0 14 2 21q39 2 58.5 6t43.5 21h-2q23 12 41.5 25t30.5 29.5t19.5 42t7.5 62.5v6 q0 63 -26 84t-71 21q-14 0 -24.5 -1t-20.5 -3q14 59 24.5 92t21 55.5t14.5 40t4 47.5q-12 47 -44 68.5t-75 21.5q-55 -6 -91 -50t-58.5 -101t-34 -115.5t-15.5 -89.5v-2q-37 -6 -84 -11t-90 -9q4 8 9.5 15t11.5 17l47 74q25 39 44 74l33 60q13 26 13 36v2q0 2 1 3t1 3 l-2 -12q8 16 8 39q0 43 -21.5 71.5t-58.5 43.5q-8 2 -15 4t-24 2q-49 0 -80 -29l75 131q34 59 54 105v6l4.5 13l4.5 13l-2 -2q16 45 16 80q0 51 -27.5 87t-93.5 36q-43 0 -72.5 -9t-49 -24.5t-32 -35t-18.5 -40.5q-23 -35 -56 -94l-76 -133l-88 -158l-91 -167v2v18 q-10 31 -28.5 48.5t-41.5 27.5l160 416l6 6l-18 24l18 -18q2 4 4 9t4 9v-2l30 66q15 35 15 63v10q0 29 -20 50l2 -4q-29 41 -61.5 48t-88.5 7q-2 0 -34.5 -1t-75.5 -6t-86 -17.5t-64 -35.5v2q-16 -16 -22 -37.5t-6 -37.5q0 -10 2 -22.5t6 -22.5q12 -29 35.5 -39.5 t50.5 -14.5l-158 -440q-14 -2 -24.5 -4t-26.5 -6l4 -8q-55 -23 -75.5 -51.5t-20.5 -51.5zM344 602h6h-6z" />
<glyph unicode="&#xbd;" horiz-adv-x="1452" d="M-53 692q0 -80 90 -108q10 -6 21.5 -7.5t25.5 -1.5q25 0 54.5 2.5t61 6.5t61.5 7t52 7q10 0 31 4q2 0 4 1t4 1q8 4 10 4h17q27 12 43 25l-114 -219q-52 -100 -77 -160l2 2q-45 -92 -45 -154q0 -61 32 -90.5t106 -29.5q33 0 58.5 14t43.5 35.5t32 46.5l23 45l-2 -2 q4 6 7.5 12t3.5 10l-3 -4l16 37q7 16 9 21q18 43 52 106.5t77 136.5v-14q10 -33 32.5 -56.5t76.5 -43.5l-2 -4q4 -2 8 -3q6 0 12 -2q16 -4 35.5 -10t44.5 -10l-25 25q18 4 36 13t32 25q66 92 100.5 130t48.5 51l-4 -4q20 12 27 26q29 29 61.5 53.5t61.5 28.5 q-6 -25 -13.5 -41t-17.5 -34.5t-26.5 -41t-43.5 -55.5q-51 -66 -112.5 -125t-159.5 -131q-14 -6 -26.5 -12t-38.5 -12v-3h-2l-5 -2v-49l-8 47q-4 -2 -8 -2t-8 -2h2q-25 -6 -48.5 -14t-45.5 -41v-4q-8 -12 -13.5 -24.5t-5.5 -28.5v-11q0 -12 2 -26.5t15 -26.5q37 -72 123 -72 q4 0 14 1.5t31 9.5l66 13q26 5 48.5 8t48 4t64.5 5q10 0 20.5 1t20.5 1q37 6 67.5 8.5t59.5 2.5h90q92 23 102 92q2 10 2 26q0 35 -21.5 59.5t-45.5 35.5h2q-18 10 -47 14l-60 8l51 49l54 58q33 37 62.5 84t53 95t38 93t14.5 80v16q-8 109 -117 125q-8 0 -20 4q-14 0 -23 4 l4 -2q-6 6 -8 13q-6 2 -10 12q-6 8 -13.5 15.5t-23.5 15.5l-2 4q-51 23 -96 22q-51 0 -115 -27.5t-137 -86.5h2q-35 -25 -83 -76l-96 -107l34 57l34 56l33 56l33 55l96 166q43 76 67 129v6l4.5 13l4.5 13l-2 -2q16 45 16 80q0 51 -27.5 87t-93.5 36q-43 0 -72.5 -9 t-49 -24.5t-32 -35t-18.5 -40.5q-23 -35 -56 -94l-76 -133l-88 -158l-91 -167v2v18q-10 31 -28.5 48.5t-41.5 27.5l160 416l6 6l-18 24l18 -18q2 4 4 9t4 9v-2l30 66q15 35 15 63v10q0 29 -20 50l2 -4q-29 41 -61.5 48t-88.5 7q-2 0 -34.5 -1t-75.5 -6t-86 -17.5t-64 -35.5 v2q-16 -16 -22 -37.5t-6 -37.5q0 -10 2 -22.5t6 -22.5q12 -29 35.5 -39.5t50.5 -14.5l-158 -440q-14 -2 -24.5 -4t-26.5 -6l4 -8q-55 -23 -75.5 -51.5t-20.5 -51.5zM344 602h6h-6z" />
<glyph unicode="&#xbe;" horiz-adv-x="1683" d="M-61 750q0 -14 1 -20.5t7 -12.5q35 -78 84 -108.5t123 -55.5q39 -12 76.5 -17.5t72.5 -5.5q66 0 131.5 17.5t122.5 48.5t100 74t64 96q20 41 31.5 85t11.5 91q0 90 -49 164q29 31 51 75t22 101v10q0 51 -18 89t-51 63.5t-75 38t-87 12.5h-22q-10 0 -21 -2 q-102 -2 -210.5 -45t-190.5 -156q12 -55 38.5 -99t86.5 -46q-8 -4 -14.5 -10.5t-14.5 -12.5q-10 -29 -11 -45t-1 -28q0 -59 31.5 -95t84.5 -36q16 0 25.5 2t21.5 6q23 8 47.5 13t49.5 5q4 0 7 1t7 1q18 0 29.5 -12t13.5 -29q-14 -53 -66.5 -89t-109.5 -36q-37 0 -64 15 q-16 6 -33 22l-34 33l-4 6l2 -4q-25 31 -48.5 52.5t-62.5 21.5q-20 -2 -45 -17v4q-16 -10 -35.5 -26.5t-36 -37t-27.5 -45.5t-11 -56zM336 1190q37 25 78 45t78 20q12 0 20 -2q-6 -8 -25 -26q-23 -10 -50 -16.5t-56 -10.5h4q-2 0 -3 -1t-3 -1h-10q-8 -2 -16.5 -3t-16.5 -5z M420 102q0 -61 31.5 -90.5t105.5 -29.5q33 0 58.5 14t44 35.5t31.5 46.5l24 45l-2 -2q4 6 7 12t3 10l-2 -4l15 37q7 16 9 21q18 41 51 101l71 130l86 146l91 153q10 16 17.5 29.5t17.5 29.5l-40 -74l-25 -45l-16 -26l-9 -14q-37 -53 -62.5 -103.5t-41.5 -128.5 q4 -43 27.5 -96t45.5 -78q25 -18 60 -18q23 0 52.5 8t47.5 12l-2 -2q14 0 19 4q35 2 80 4t83 4q-4 -16 -4 -20l2 2q-12 -47 -20 -75.5t-12 -46t-5.5 -27t-1.5 -17.5q0 -41 16.5 -63.5t69.5 -22.5h21q33 0 54.5 3t36.5 12.5t26.5 25.5t21.5 43q6 12 12.5 32.5t11.5 44t9 47.5 t8 42v-2q2 6 2 22q0 14 2 21q39 2 58.5 6t44.5 21h-2q23 12 41 25t30.5 29.5t19.5 42t7 62.5v6q0 63 -25.5 84t-70.5 21q-14 0 -24.5 -1t-20.5 -3q14 59 24 92t20.5 55.5t14.5 40t4 47.5q-12 47 -44 68.5t-75 21.5q-55 -6 -91 -50t-58.5 -101t-33.5 -115.5t-15 -89.5v-2 q-37 -6 -84 -11t-90 -9q4 8 9 15t11 17l47 74q25 39 44 74l33 60q13 26 13 36v2q0 2 1 3t1 3l-2 -12q8 16 8 39q0 43 -21.5 71.5t-57.5 43.5l-15.5 4t-23.5 2q-49 0 -80 -29l75 131q34 59 54 105v6q2 6 4 13t4 13l-2 -2q16 45 16 80q0 51 -27.5 87t-92.5 36q-43 0 -73 -9 t-49.5 -24.5t-31.5 -35t-18 -40.5l-71 -119l-96 -171l-110 -199l-109 -202l-92 -179q-41 -82 -63 -133l2 2q-45 -93 -45 -154z" />
<glyph unicode="&#xbf;" horiz-adv-x="1382" d="M0 -117q0 -94 63 -178q92 -113 216 -137q41 -8 99 -12.5t136 -4.5q125 0 197 15q203 27 270 51h-2q340 96 389 258q0 2 1 3t1 3l-2 -10q4 10 4 16v17q0 18 -2 44.5t-8 51.5t-19.5 43t-37.5 23q-35 29 -72 28q-35 0 -76 -19.5t-94 -47.5q-27 -16 -47.5 -31.5t-32.5 -26.5 q-12 -4 -8 -8q-31 -10 -53.5 -20.5l-38.5 -18.5l-42 -18q-19 -8 -57 -13q-70 -10 -121 -15t-85 -5h-5q-236 0 -235 61l4 17l-2 -2q33 106 289 190q25 10 45 16.5t47 10.5l85 14q48 8 109 23q-6 -4 -4 -3t8.5 2t13.5 4t11 3l25 6h-2q20 4 28 6q12 4 27.5 7t26.5 7q4 2 26 7h4 q57 14 98.5 60t57.5 95v-2q6 12 9 32.5t5 59.5v7q2 10 3 21t1 26v43q0 18 1 36.5t3 36.5q2 16 3.5 29.5t1.5 28.5q0 43 -16.5 69.5t-69.5 30.5q-16 2 -33 2h-29q-90 0 -115.5 -28.5t-25.5 -98.5q0 -20 -3 -45t-7 -53l-11 -23l-2 -4q-6 -4 -12 -7t-16 -5l4 2l-34 -5t-26 -5h2 q-74 -10 -156.5 -36t-176.5 -67q-102 -41 -179 -85t-135 -91q-63 -57 -121 -135l2 4q-8 -8 -11 -13t-3 -18l8 23q-2 -2 -3 -5t-3 -5l-9 -15l-9 -15q-4 -7 -5 -10t3 3l-32.5 -53.5t-25.5 -55.5v-2q-8 -27 -10 -46.5t-2 -37.5zM938 985q0 -59 49 -104q53 -47 129 -47 q135 0 191 81l-2 -6q37 37 47 66q10 35 15 63.5t5 55.5q0 143 -149 143q-84 0 -168 -63q-43 -29 -70 -65t-39 -75q-6 -14 -7 -23.5t-1 -25.5zM952 565v2l6 2q-4 -4 -6 -4z" />
<glyph unicode="&#xc0;" d="M-20 12q0 -31 14 -55.5t36.5 -41.5t49 -26.5t53.5 -9.5q63 0 112.5 25.5t84.5 99.5q10 25 20 46l19 40q20 47 36.5 79t40.5 58h21h2q0 2 4 2q25 2 53.5 3t59.5 4l173 8q87 4 138 4h14l7 -4h2l8 -54l20 -104q10 -53 24.5 -83t36 -46t50 -23.5t67.5 -13.5q18 0 38 4t46 17 h-2q47 16 66.5 57t19.5 84q0 33 -14 65l-2 7l4 -11q-172 1235 -266 1272h-4h4q-14 4 -25 6l-20 4v7q16 -8 26.5 -9.5t16.5 -1.5h8q53 18 76.5 38t23.5 61q0 14 -7 32.5t-19 46.5q-16 35 -42 75t-55.5 77t-60.5 68.5t-57 50.5q-35 23 -68 35t-61 12q-47 0 -74 -23.5 t-27 -83.5q0 -23 2 -33t6 -22q12 -37 25.5 -61.5t32 -46t42.5 -40.5l58 -46v-2h2q33 -23 54.5 -40.5t29.5 -27.5q16 -23 32.5 -36t33.5 -21q-115 -18 -182.5 -43t-108.5 -59t-65 -78l-50 -97l-46 -90q-26 -49 -56 -96l-113 -184l-123 -207l-117 -211q-56 -104 -98 -193 q-16 -37 -23 -66.5t-7 -70.5v-27zM569 504l246 407l49 -403l-4 -4h-291z" />
<glyph unicode="&#xc1;" d="M-20 12q0 -31 14 -55.5t36.5 -41.5t49 -26.5t53.5 -9.5q63 0 112.5 25.5t84.5 99.5q10 25 20 46l19 40q20 47 36.5 79t40.5 58h21h2q0 2 4 2q25 2 53.5 3t59.5 4l173 8q87 4 138 4h14l7 -4h2l8 -54l20 -104q10 -53 24.5 -83t36 -46t50 -23.5t67.5 -13.5q18 0 38 4t46 17 h-2q47 16 66.5 57t19.5 84q0 33 -14 65l-2 7l4 -11q-172 1235 -266 1272h-4h4q-14 4 -25 6l-20 4v9q-117 -18 -184.5 -43t-108.5 -59t-65 -78l-50 -97l-46 -90q-26 -49 -56 -96l-113 -184l-123 -207l-117 -211q-56 -104 -98 -193q-16 -37 -23 -66.5t-7 -70.5v-27zM569 504 l246 409l49 -405l-4 -4h-291zM696 1507q0 -41 23.5 -59t75.5 -39h14q20 0 42.5 9t63.5 61q8 10 30 27.5t54 39.5l2 2l58 46q25 19 43 41t32.5 48.5t26.5 65.5q0 2 1 5t1 7v-6q2 6 3 14.5t1 28.5q0 59 -26.5 83t-73.5 24q-53 0 -131 -50q-29 -18 -59.5 -50.5t-60.5 -69.5 t-54.5 -76t-40.5 -72q-25 -49 -25 -80z" />
<glyph unicode="&#xc2;" d="M-20 12q0 -31 14 -55.5t36.5 -41.5t49 -26.5t53.5 -9.5q63 0 112.5 25.5t84.5 99.5q10 25 20 46l19 40q20 47 36.5 79t40.5 58h21h2q0 2 4 2q25 2 53.5 3t59.5 4l173 8q87 4 138 4h14l7 -4h2l8 -54l20 -104q10 -53 24.5 -83t36 -46t50 -23.5t67.5 -13.5q18 0 38 4t46 17 h-2q47 16 66.5 57t19.5 84q0 33 -14 65l-2 7l4 -11q-172 1235 -266 1272h-4h4q-14 4 -25 6l-20 4v9q-117 -18 -184.5 -43t-108.5 -59t-65 -78l-50 -97l-46 -90q-26 -49 -56 -96l-113 -184l-123 -207l-117 -211q-56 -104 -98 -193q-16 -37 -23 -66.5t-7 -70.5v-27zM559 1548 q0 -16 2 -33.5t12 -33.5q35 -70 97 -70q39 0 86 39l35 35q8 8 14 15t12 13l10 11q6 6 13 14q33 -6 60.5 -21.5t74.5 -50.5q14 -10 28.5 -16t36.5 -6q31 0 62 24q25 18 37 47t12 64q0 20 -7 41.5t-14 46.5h3q-12 25 -23.5 36t-28.5 21l-14 -53q-4 8 -24.5 39t-52.5 62.5 t-74 57t-89 25.5h-6q-41 0 -66.5 -23.5t-37.5 -80.5q0 -4 -12.5 -11l-28.5 -16l-35 -19q-16 -9 -27 -24q-23 -23 -39 -57.5t-16 -75.5zM569 504l246 409l49 -405l-4 -4h-291z" />
<glyph unicode="&#xc3;" d="M-20 12q0 -31 14 -55.5t36.5 -41.5t49 -26.5t53.5 -9.5q63 0 112.5 25.5t84.5 99.5q10 25 20 46l19 40q20 47 36.5 79t40.5 58h21h2q0 2 4 2q25 2 53.5 3t59.5 4l173 8q87 4 138 4h14l7 -4h2l8 -54l20 -104q10 -53 24.5 -83t36 -46t50 -23.5t67.5 -13.5q18 0 38 4t46 17 h-2q47 16 66.5 57t19.5 84q0 33 -14 65l-2 7l4 -11q-166 1190 -260 1266q74 12 116 58t52 147v6q0 37 -38 64.5t-79 27.5q-33 0 -61.5 -14.5t-44.5 -44.5q-8 -12 -9 -25q-2 -4 -2 -8v2q0 -2 -2 -2l-1 1q-1 1 -1 3h-2v2l-23 33l-30 41v-21q-16 10 -38.5 17.5t-51.5 7.5 q-37 0 -82 -16.5t-85 -42t-67.5 -59.5t-29.5 -66v-7q0 -41 32.5 -70.5t86.5 -29.5q37 0 59 16.5t45 38.5l14 15l4 -4q16 -16 37 -35t53 -29q-84 -18 -133 -42.5t-80.5 -56.5t-52.5 -72l-45 -87l-46 -90q-26 -49 -56 -96l-113 -184l-123 -207l-117 -211q-56 -104 -98 -193 q-16 -37 -23 -66.5t-7 -70.5v-27zM569 504l246 407l49 -403l-4 -4h-291z" />
<glyph unicode="&#xc4;" d="M-20 12q0 -31 14 -55.5t36.5 -41.5t49 -26.5t53.5 -9.5q63 0 112.5 25.5t84.5 99.5q10 25 20 46l19 40q20 47 36.5 79t40.5 58h21h2q0 2 4 2q25 2 53.5 3t59.5 4l173 8q87 4 138 4h14l7 -4h2l8 -54l20 -104q10 -53 24.5 -83t36 -46t50 -23.5t67.5 -13.5q18 0 38 4t46 17 h-2q47 16 66.5 57t19.5 84q0 33 -14 65l-2 7l4 -11q-170 1214 -264 1270q10 -2 18 -2h21q92 0 153.5 36t61.5 97v4q-6 59 -62.5 100.5t-144.5 41.5h-10q-78 0 -130.5 -28t-64.5 -75q-20 45 -70.5 74t-130.5 29h-4q-92 0 -148 -38t-56 -104q14 -59 66 -97t138 -40 q82 0 138.5 26.5t70.5 73.5q23 -55 88 -81q-109 -18 -173 -43t-104 -59t-63 -77l-49 -94l-46 -90q-26 -49 -56 -96l-113 -184l-123 -207l-117 -211q-56 -104 -98 -193q-16 -37 -23 -66.5t-7 -70.5v-27zM569 504l246 409l49 -405l-4 -4h-291z" />
<glyph unicode="&#xc5;" d="M-20 12q0 -31 14 -55.5t36.5 -41.5t49 -26.5t53.5 -9.5q63 0 112.5 25.5t84.5 99.5q10 25 20 46l19 40q20 47 36.5 79t40.5 58h21h2q0 2 4 2q25 2 53.5 3t59.5 4l173 8q87 4 138 4h14l7 -4h2l8 -54l20 -104q10 -53 24.5 -83t36 -46t50 -23.5t67.5 -13.5q18 0 38 4t46 17 h-2q47 16 66.5 57t19.5 84q0 33 -14 65l-2 7l4 -11q-172 1235 -266 1272h-4h4q-14 4 -25 6l-20 4v9q-10 -2 -19.5 -3t-19.5 -4q78 33 133 102.5t59 158.5v16q0 4 1 6t1 6q0 76 -44 133.5t-136 57.5q-70 0 -126 -30t-95 -75t-61.5 -98t-24.5 -102v-11q0 -74 42 -130t144 -56 h6q-68 -18 -109.5 -44t-69 -56.5t-47.5 -67.5l-42 -80l-46 -90q-26 -49 -56 -96l-113 -184l-123 -207l-117 -211q-56 -104 -98 -193q-16 -37 -23 -66.5t-7 -70.5v-27zM569 504l246 407l49 -403l-4 -4h-291zM887 1638q6 16 20 27q-8 -19 -20 -27z" />
<glyph unicode="&#xc6;" horiz-adv-x="2140" d="M-20 12q0 -31 14 -55.5t36.5 -41.5t49 -26.5t53.5 -9.5q63 0 112.5 25.5t84.5 99.5q10 25 20 46l19 40q20 47 36.5 79t40.5 58h21h2q0 2 4 2q25 2 53.5 3t59.5 4l173 8q87 4 138 4h14l7 -4h2l8 -54l20 -104q10 -53 24.5 -83t36 -46t50 -23.5t67.5 -13.5q12 0 30 3t36 11 q18 -6 33 -6q49 0 86 5.5t78 13.5l21 4q11 2 26 4h4l602 90q51 4 72.5 15.5t27.5 21.5v-2q14 25 15 45q0 16 -9 39l2 -4q-4 10 -9 25.5t-19 37.5h-19q-29 18 -65.5 25.5t-71.5 11.5q-6 0 -14 1t-15 1q-25 0 -48 -2t-45.5 -6t-46 -6t-46.5 -2h-16q-4 0 -7.5 1t-7.5 1h-14 q-10 0 -23 -2h3q-27 -2 -61 -5t-56 -3q-18 -2 -39 -2q-18 0 -37 -3q-53 -4 -108.5 -7t-106.5 -11l-8 6q-12 74 -19 141q-10 68 -18 130q0 6 -1 13t-1 15q-2 14 -3 27.5t-1 23.5h20q14 -2 27 -2h24h43q33 0 68 1t79 4.5l102.5 8.5t140.5 13q10 0 29.5 1t41.5 3q18 2 34.5 3 t25.5 1q49 8 66.5 30.5t17.5 51.5q0 10 -3 22l-8 25l-14 43q-31 53 -88 65.5t-125 12.5h-229h-146q-72 0 -123 6l-12 10q-2 20 -5 57.5t-5 78.5l-4 80q-2 40 -2 65l37 4q10 2 20 3t33 1h82l385 17h76q12 0 20 1t18 7h-8q6 0 15 4l6 6q0 -2 -1 -3t-1 -3q39 14 53 34.5 t14 45.5q0 8 -1 13t-5 15l2 -4l-8 23q-20 27 -38.5 42t-43.5 23.5t-57.5 12.5t-79.5 8q-47 0 -108.5 2t-129.5 6l-188 8q-96 4 -189 4q-86 0 -158.5 -5t-125.5 -19q-57 -18 -93 -42t-61.5 -53.5t-44.5 -65.5l-39 -79l-46 -90q-26 -49 -56 -96l-113 -184l-123 -207l-117 -211 q-56 -104 -98 -193q-16 -37 -23 -66.5t-7 -70.5v-27zM569 504l246 409l49 -405l-4 -4h-291zM1853 1184q6 0 11 4h-4q-5 -4 -7 -4z" />
<glyph unicode="&#xc7;" horiz-adv-x="1249" d="M-23 350q0 -18 3 -26q4 -57 14 -98.5t33 -82.5l47 -55l-2 2q63 -86 151 -129t187 -65l-91 -70q-2 0 -6 -4q-27 -14 -36 -24.5t-9 -45.5q0 -25 22.5 -29t59.5 -4h23q-66 -39 -92.5 -80.5t-26.5 -64.5q0 -51 60.5 -74.5t148.5 -23.5q70 0 149.5 13t147 37.5t111.5 59.5 t44 76v23q0 49 -34.5 88t-81.5 71l-32 16q-15 7 -32 11q125 16 230.5 66.5t216.5 136.5q39 33 56 55.5t32 48.5q-4 133 -117 133h-8q-4 0 -55.5 -18.5t-116.5 -54.5v4q-53 -29 -116.5 -57.5t-168.5 -57.5q-6 -2 -21.5 -3t-43.5 -1q-29 0 -76 9t-133 44q-35 35 -62.5 74 t-38.5 90v18q0 20 2 27q12 117 62 215q55 109 121.5 212t144.5 175q53 57 113.5 96t126.5 41l176 -127q39 -23 61.5 -34l33.5 -16t17.5 -6t12.5 -1q59 27 93 68t34 73q0 8 -2 17v18q-16 61 -65.5 105.5t-125.5 83.5q-57 31 -100 50t-77 30.5t-63.5 16.5t-60.5 5 q-33 0 -81 -8t-113 -29q-129 -80 -240 -185.5t-196 -232.5t-139 -271t-71 -300v-31z" />
<glyph unicode="&#xc8;" horiz-adv-x="1329" d="M-12 31l82 -53q18 -11 16 -10l-12 6q-10 5 -4 1q41 -33 79.5 -58.5t71.5 -25.5q49 0 87 5.5t83 13.5q10 2 23 4l24 4h6l633 90q49 4 71.5 12.5t31.5 16.5q16 16 23 32.5t7 47.5q0 8 -1 20.5t-5 48.5h-26q-25 16 -60 24.5t-69 12.5q-10 0 -19 2q-31 0 -56.5 -2t-47.5 -6 q-25 -4 -48.5 -6t-46.5 -2h-14q-4 0 -7 1t-7 1h-15q-10 0 -24 -2q-29 -2 -62.5 -5t-56.5 -3q-18 -2 -39 -2q-18 0 -39 -2q-55 -4 -110.5 -7.5t-106.5 -9.5l-4 2q4 29 13.5 78t21.5 102l23 101q11 47 20 72h29q14 -2 26 -3h25h43q33 0 67.5 1.5t78.5 4.5t103.5 8t145.5 13 q10 0 31.5 1t44.5 3q20 2 36.5 3t22.5 1q37 4 58.5 16.5t32 30t13.5 37t3 37.5v47q-6 29 -25.5 45.5t-46.5 24.5t-59.5 10t-67.5 2h-229h-144q-72 0 -120 6l-3 2q4 18 14 54l20 76l24 84l22 75q14 2 23 2q10 0 18 2q14 2 26.5 3t35.5 1h82l387 17h76q16 0 24 1t16 7h-6 q4 0 9 2l-3 -2l3 2q57 16 76.5 42t19.5 54v27q-12 27 -27.5 43t-37 25.5t-54.5 14.5t-80 9q-29 2 -61.5 3t-67.5 3q-51 2 -105.5 5t-105.5 5t-97 3t-79 1h-160h-39q-20 0 -43 2q-66 0 -103.5 -7t-60 -30.5t-35 -66.5t-28.5 -115zM528 1802q0 -23 2 -33t7 -22 q12 -37 25 -61.5t31.5 -46t42.5 -41.5l58 -46v-2h2q33 -23 54.5 -40t29.5 -27q37 -47 69 -58.5t42 -11.5h8q53 18 76.5 37.5t23.5 60.5q0 14 -7 33t-19 47q-16 35 -42 75t-55.5 77t-60.5 68.5t-57 50.5q-35 23 -68 35t-61 12q-47 0 -74 -24t-27 -83z" />
<glyph unicode="&#xc9;" horiz-adv-x="1329" d="M-12 31l82 -53q18 -11 16 -10l-12 6q-10 5 -4 1q41 -33 79.5 -58.5t71.5 -25.5q49 0 87 5.5t83 13.5q10 2 23 4l24 4h6l633 90q49 4 71.5 12.5t31.5 16.5q16 16 23 32.5t7 47.5q0 8 -1 20.5t-5 48.5h-26q-25 16 -60 24.5t-69 12.5q-10 0 -19 2q-31 0 -56.5 -2t-47.5 -6 q-25 -4 -48.5 -6t-46.5 -2h-14q-4 0 -7 1t-7 1h-15q-10 0 -24 -2h2q-29 -2 -63.5 -5t-57.5 -3q-18 -2 -39 -2q-18 0 -39 -2q-55 -4 -110.5 -7.5t-106.5 -9.5l-4 2q4 29 13.5 78t21.5 102l23 101q11 47 20 72h29q14 -2 26 -3h25h43q33 0 67.5 1.5t78.5 4.5t103.5 8t145.5 13 q10 0 31.5 1t44.5 3q20 2 36.5 3t22.5 1q37 4 58.5 16.5t32 30t13.5 37t3 37.5v47q-6 29 -25.5 45.5t-46.5 24.5t-59.5 10t-67.5 2h-229h-144q-72 0 -120 6l-3 2q4 18 14 54l20 76l24 84l22 75q14 2 23 2q10 0 18 2q14 2 26.5 3t35.5 1h82l387 17h76q16 0 24 1t16 7h-6 q4 0 9 2l-3 -2l3 2q57 16 76.5 42t19.5 54v27q-12 27 -27.5 43t-37 25.5t-54.5 14.5t-80 9q-29 2 -61.5 3t-67.5 3q-51 2 -105.5 5t-105.5 5t-97 3t-79 1h-160h-39q-20 0 -43 2q-66 0 -103.5 -7t-60 -30.5t-35 -66.5t-28.5 -115zM586 1495q0 -41 23.5 -59.5t74.5 -38.5h14 q20 0 43 9t64 60q8 10 29.5 27.5t54.5 40.5l2 2l57 46q25 19 43.5 41t32.5 48.5t27 65.5q0 2 1 5t1 7v-6q2 6 3 14t1 29q0 59 -26.5 82.5t-74.5 23.5q-53 0 -131 -49q-29 -18 -59.5 -51t-60 -69.5t-54 -75.5t-41.5 -72q-24 -49 -24 -80z" />
<glyph unicode="&#xca;" horiz-adv-x="1329" d="M-12 31l82 -53q18 -11 16 -10l-12 6q-10 5 -4 1q41 -33 79.5 -58.5t71.5 -25.5q49 0 87 5.5t83 13.5q10 2 23 4l24 4h6l633 90q49 4 71.5 12.5t31.5 16.5q16 16 23 32.5t7 47.5q0 8 -1 20.5t-5 48.5h-26q-25 16 -60 24.5t-69 12.5q-10 0 -19 2q-31 0 -56.5 -2t-47.5 -6 q-25 -4 -48.5 -6t-46.5 -2h-14q-4 0 -7 1t-7 1h-15q-10 0 -24 -2h2q-29 -2 -63.5 -5t-57.5 -3q-18 -2 -39 -2q-18 0 -39 -2q-55 -4 -110.5 -7.5t-106.5 -9.5l-4 2q4 29 13.5 78t21.5 102l23 101q11 47 20 72h29q14 -2 26 -3h25h43q33 0 67.5 1.5t78.5 4.5t103.5 8t145.5 13 q10 0 31.5 1t44.5 3q20 2 36.5 3t22.5 1q37 4 58.5 16.5t32 30t13.5 37t3 37.5v47q-6 29 -25.5 45.5t-46.5 24.5t-59.5 10t-67.5 2h-229h-144q-72 0 -120 6l-3 2q4 18 14 54l20 76l24 84l22 75q14 2 23 2q10 0 18 2q14 2 26.5 3t35.5 1h82l387 17h76q16 0 24 1t16 7h-6 q4 0 9 2l-3 -2l3 2q57 16 76.5 42t19.5 54v27q-12 27 -27.5 43t-37 25.5t-54.5 14.5t-80 9q-29 2 -61.5 3t-67.5 3q-51 2 -105.5 5t-105.5 5t-97 3t-79 1h-160h-39q-20 0 -43 2q-66 0 -103.5 -7t-60 -30.5t-35 -66.5t-28.5 -115zM489 1561q0 -16 2.5 -34t12.5 -34 q35 -70 96 -70q39 0 86 39l35 35q8 8 14 15.5t13 13.5l24 24q31 -6 58.5 -21.5t74.5 -49.5q14 -10 28.5 -16.5t37.5 -6.5q31 0 61 25q25 18 37 46.5t12 63.5q0 20 -7 42t-13 46h2q-12 25 -23.5 36t-27.5 22l-15 -54q-4 8 -24.5 39t-52 63t-73.5 57.5t-89 25.5h-6 q-41 0 -67 -23.5t-38 -81.5q0 -4 -12 -11t-29 -15l-35 -20q-16 -9 -26 -23q-23 -23 -39.5 -57.5t-16.5 -75.5z" />
<glyph unicode="&#xcb;" horiz-adv-x="1329" d="M-12 31l82 -53q18 -11 16 -10l-12 6q-10 5 -4 1q41 -33 79.5 -58.5t71.5 -25.5q49 0 87 5.5t83 13.5q10 2 22.5 4t26.5 4h4l633 90q49 4 71.5 12.5t31.5 16.5q16 16 23 32.5t7 47.5q0 8 -1 20.5t-5 48.5h-26q-25 16 -60 24.5t-69 12.5q-10 0 -19 2q-31 0 -56.5 -2 t-47.5 -6q-25 -4 -48.5 -6t-46.5 -2h-14q-4 0 -7 1t-7 1h-15q-10 0 -24 -2q-29 -2 -62.5 -5t-56.5 -3q-18 -2 -39 -2q-18 0 -39 -2q-55 -4 -110.5 -7.5t-106.5 -9.5l-4 2q4 29 13.5 78t21.5 102l23 101q11 47 20 72h29q14 -2 26 -3h25h43q33 0 67.5 1.5t78.5 4.5t103.5 8 t145.5 13q10 0 31.5 1t44.5 3q20 2 36.5 3t22.5 1q37 4 58.5 16.5t32 30t13.5 37t3 37.5v47q-6 29 -25.5 45.5t-46.5 24.5t-59.5 10t-67.5 2h-229h-144q-72 0 -120 6l-3 4q4 18 14 55l20 76l24 82l22 74q14 2 23 2q10 0 18 2q14 2 26.5 3t35.5 1h82l387 17h76q16 0 24 1 t16 7h-6q4 0 9 2l-3 -2l3 2q57 16 76.5 42t19.5 54v27q-12 27 -27.5 43t-37 25.5t-54.5 14.5t-80 9q-29 2 -61.5 3t-67.5 3q-51 2 -105.5 5t-105.5 5t-97 3t-79 1h-160h-39q-20 0 -43 2q-66 0 -103.5 -7t-60 -30.5t-35 -66.5t-28.5 -115zM403 1575q14 -59 66.5 -97 t138.5 -40q82 0 138.5 26.5t70.5 73.5q18 -45 67.5 -71.5t125.5 -28.5q92 0 153.5 35.5t61.5 97.5v4q-6 59 -62.5 100t-144.5 41h-10q-78 0 -130.5 -27.5t-64.5 -74.5q-20 45 -70.5 73.5t-130.5 28.5h-4q-92 0 -148.5 -37.5t-56.5 -103.5z" />
<glyph unicode="&#xcc;" horiz-adv-x="569" d="M-23 61q10 -51 41 -81l2 -3l19 43v-51q-4 0 4 -4h-8l164 -51h43l12 17.5t12 15.5v-2q12 16 18.5 27.5t10.5 21.5t7 22.5t7 34.5q0 2 8.5 42t23.5 105l34 148l40 174l42 179l39 165q8 43 16 71t16 52q6 20 14.5 41t12.5 39l-2 -2q16 43 22.5 79t16.5 75q2 10 4 18t4 18 q0 35 -15.5 66t-40 54.5t-58 37.5t-70.5 14h-17q-20 14 -43 15q-49 0 -93 -92.5t-88 -268.5t-92 -433zM199 1849q0 -23 2 -33t6 -22q12 -37 25.5 -61.5t32 -46t41.5 -40.5l59 -47v-2h2q33 -23 54 -40t30 -27q37 -47 68.5 -58.5t41.5 -11.5h8q53 18 77 38t24 61 q0 14 -7.5 32.5l-19.5 46.5q-16 35 -42 75t-55.5 77t-60 68.5t-57.5 50.5q-35 23 -67.5 35t-61.5 12q-47 0 -73.5 -24t-26.5 -83z" />
<glyph unicode="&#xcd;" horiz-adv-x="569" d="M-23 61q10 -51 41 -81l2 -3l19 43v-51q-4 0 4 -4h-8l164 -51h43l12 17.5t12 15.5v-2q12 16 18.5 27.5t10.5 21.5t7 22.5t7 34.5q0 2 8.5 42t23.5 105l34 148l40 174l42 179l39 165q8 43 16 71t16 52q6 20 14.5 41t12.5 39l-2 -2q16 43 22.5 79t16.5 75q2 10 4 18t4 18 q0 35 -15.5 66t-40 54.5t-58 37.5t-70.5 14h-17q-20 14 -43 15q-49 0 -93 -92.5t-88 -268.5t-92 -433zM256 1546q0 -41 23.5 -59.5t74.5 -38.5h15q20 0 42.5 9t63.5 61q8 10 29.5 27.5t54.5 39.5l2 2l57 46q25 19 43.5 41t33 48.5t26.5 65.5q0 2 1 5t1 7v-6q2 6 3 14.5 t1 28.5q0 59 -26.5 83t-73.5 24q-53 0 -131 -50q-29 -18 -59.5 -51t-60.5 -69.5t-54.5 -75.5t-40.5 -72q-25 -49 -25 -80z" />
<glyph unicode="&#xce;" horiz-adv-x="569" d="M-23 61q10 -51 41 -81l2 -3l19 43v-51q-4 0 4 -4h-8l164 -51h43l12 17.5t12 15.5v-2q12 16 18.5 27.5t10.5 21.5t7 22.5t7 34.5q0 2 8.5 42t23.5 105l34 148l40 174l42 179l39 165q8 43 16 71t16 52q6 20 14.5 41t12.5 39l-2 -2q16 43 22.5 79t16.5 75q2 10 4 18t4 18 q0 35 -15.5 66t-40 54.5t-58 37.5t-70.5 14h-17q-20 14 -43 15q-49 0 -93 -92.5t-88 -268.5t-92 -433zM135 1571q0 -16 2 -33.5t13 -34.5q35 -70 96 -69q39 0 86 39l35 34q8 8 14 15.5t12 13.5l11.5 12t13.5 13q33 -4 59.5 -20.5t73.5 -51.5q14 -10 28.5 -16.5t36.5 -6.5 q31 0 62 25q25 18 37 47t12 64q0 20 -7 41.5t-13 46.5h2q-12 25 -23.5 36t-28.5 21l-14 -53q-4 8 -24.5 38.5t-52 62.5t-73.5 57.5t-90 25.5h-6q-41 0 -66.5 -23.5t-37.5 -80.5q0 -4 -12.5 -11.5t-28.5 -15.5l-35 -20q-16 -9 -27 -23q-23 -23 -39 -57.5t-16 -75.5z" />
<glyph unicode="&#xcf;" horiz-adv-x="569" d="M-23 61q10 -51 41 -81l2 -3l19 43v-51q-4 0 4 -4h-8l164 -51h43l12 17.5t12 15.5v-2q12 16 18.5 27.5t10.5 21.5t7 22.5t7 34.5q0 2 8.5 42t23.5 105l34 148l40 174l42 179l39 165q8 43 16 71t16 52q6 20 14.5 41t12.5 39l-2 -2q16 43 22.5 79t16.5 75q2 10 4 18t4 18 q0 35 -15.5 66t-40 54.5t-58 37.5t-70.5 14h-17q-20 14 -43 15q-49 0 -93 -92.5t-88 -268.5t-92 -433zM45 1591q14 -59 66.5 -97t138.5 -40q82 0 138 26.5t71 73.5q18 -45 67 -71.5t125 -28.5q92 0 153.5 36t61.5 97v4q-6 59 -62 100.5t-145 41.5h-10q-78 0 -130 -28 t-64 -75q-20 45 -70.5 74t-130.5 29h-4q-92 0 -148.5 -38t-56.5 -104z" />
<glyph unicode="&#xd0;" horiz-adv-x="1454" d="M-180 733q6 -47 15 -79.5t26 -55.5v2q23 -33 69.5 -44t112.5 -11h20q-43 -201 -69 -439v-47l4 -4q8 -57 59 -96l207 -70q49 0 85 3.5t65 7.5q10 2 22 2q135 12 261 57t235.5 113.5t199 155.5t154 184.5t99 201t34.5 201.5q0 100 -38 192.5t-119.5 167t-211.5 128 t-313 75.5q-53 14 -126.5 17.5t-166.5 3.5l-149 -25q-84 -217 -94 -272v-15l-37 -129l-35 -122q-66 -2 -120 -4.5t-79 -6.5q-27 -4 -47 -9t-34.5 -14t-21.5 -25.5t-7 -43.5zM346 147q8 76 29.5 184.5t50.5 225.5h6q33 2 68 3t63.5 3t49 3t28.5 3h33q53 0 81.5 3t53.5 20 q31 14 39 29.5t8 48.5l-10 20h2q-10 23 -19.5 40.5t-25.5 27.5h2q-55 51 -134 66.5t-171 17.5l45 147l39 121q174 0 277.5 -14.5t152.5 -48.5h-2q74 -55 100.5 -101.5t30.5 -83.5l2 -14q-4 -78 -56.5 -167t-139.5 -177t-201.5 -168t-243.5 -139q-12 -8 -55 -23.5t-97 -32.5z " />
<glyph unicode="&#xd1;" horiz-adv-x="1368" d="M-31 10q0 -35 16.5 -64.5t41 -51t56.5 -33t62 -11.5q53 0 93.5 28t48.5 97v11q12 37 37.5 124l54.5 194l57 223q29 116 45 208q39 -133 80 -244.5t81 -198.5t74 -145.5t58 -80.5q53 -68 104.5 -98.5t98.5 -30.5q57 0 99 36.5t65 98.5l46 145l32 100l22 71l13.5 43.5 t9.5 32.5l10 40q4 27 13 63l20 75q10 38 20 72l16 54v-4q6 12 17.5 47t25 82t25.5 103.5t19 109.5q16 39 28 84t12 90q0 31 -9 58.5t-31 50.5l-170 24q-43 -8 -73 -30.5t-50.5 -54.5t-32.5 -68.5t-19 -73.5l-7 -36q-7 -36 -20 -95l-32 -135l-39 -157l-42 -161 q-22 -80 -42 -145q-61 147 -98 275t-60 269q-6 12 -7 33t-1 45v33q0 39 -3 81t-16 78t-40 58.5t-72 26.5q-119 -6 -187.5 -27.5t-106.5 -57.5t-54 -86t-29 -114v2q-8 -29 -13 -56.5t-13 -53.5l-27 -93l-55 -220l-45 -175l-59 -229l-32 -128q-11 -44 -13.5 -61.5t-2.5 -29.5 v-17zM582 1513q0 -41 32.5 -70.5t85.5 -29.5q37 0 59.5 16.5t45.5 38.5l14 15l4 -4q23 -25 59 -49.5t103 -24.5q109 0 171.5 43t72.5 166v6q0 37 -38 64.5t-79 27.5q-33 0 -61.5 -14.5t-44.5 -44.5q-8 -12 -9 -25q-2 -4 -2 -8v2q0 -2 -2 -2l-1 1q-1 1 -1 3h-2v2l-23 33 l-30 41v-21q-16 10 -39 17.5t-51 7.5q-37 0 -82 -16.5t-85 -42t-67.5 -59.5t-29.5 -66v-7z" />
<glyph unicode="&#xd2;" horiz-adv-x="1507" d="M-29 414q0 -23 2 -33v2q4 -41 20.5 -91t63.5 -126h-2l21 -32l20 -30q4 -6 8.5 -11t8.5 -11v4q70 -80 168 -124t239 -66h-4q45 -10 88 -13.5t94 -3.5q141 0 256 30t201 95q96 84 166 181.5t116 202t68.5 209.5t22.5 206v45q0 14 -1 26.5t-3 22.5q-4 41 -14.5 83t-30.5 83 q-45 84 -96.5 141.5t-105.5 93t-106.5 54t-97.5 24.5h-141q-143 -16 -246.5 -40.5t-169.5 -61.5l-83 -49l-52 -31q-2 -2 -4 -3t-4 -3l4 2q-92 -68 -168 -157t-128 -187t-81 -201.5t-29 -200.5v-30zM330 348q2 63 22.5 140t57 158t87 159t114 143.5t137 113.5t155.5 66 q20 6 44 10.5t52 4.5q55 0 103 -33l-2 2q45 -33 68.5 -97.5t33.5 -129.5v2q2 -16 3 -32.5t1 -33.5q0 -72 -15 -151.5t-48 -158.5t-82 -151.5t-115.5 -129t-151.5 -91.5t-188 -39q-20 0 -54 13.5t-69 29.5q-72 23 -109.5 78t-41.5 127h-2zM707 1788q0 -23 2 -33t6 -22 q12 -37 25.5 -61.5t32 -46t41.5 -41.5l58 -46v-2h2q33 -23 54.5 -40t29.5 -28q37 -47 69 -58t42 -11h8q53 18 77 37.5t24 60.5q0 14 -7.5 32.5l-19.5 47.5q-16 35 -42 75t-55.5 76.5t-60 68.5t-57.5 50q-35 23 -67.5 35t-61.5 12q-47 0 -73.5 -23.5t-26.5 -82.5z" />
<glyph unicode="&#xd3;" horiz-adv-x="1507" d="M-29 414q0 -23 2 -33v2q4 -41 20.5 -91t63.5 -126h-2l21 -32l20 -30q4 -6 8.5 -11t8.5 -11v4q70 -80 168 -124t239 -66h-4q45 -10 88 -13.5t94 -3.5q141 0 256 30t201 95q96 84 166 181.5t116 202t68.5 209.5t22.5 206v45q0 14 -1 26.5t-3 22.5q-4 41 -14.5 83t-30.5 83 q-45 84 -96.5 141.5t-105.5 93t-106.5 54t-97.5 24.5h-141q-143 -16 -246.5 -40.5t-169.5 -61.5l-83 -49l-52 -31q-2 -2 -4 -3t-4 -3l4 2q-92 -68 -168 -157t-128 -187t-81 -201.5t-29 -200.5v-30zM330 348q2 63 22.5 140t57 158t87 159t114 143.5t137 113.5t155.5 66 q20 6 44 10.5t52 4.5q51 0 101 -31q45 -33 68.5 -97.5t33.5 -129.5v2q2 -16 3 -32.5t1 -33.5q0 -72 -15 -151.5t-48 -158.5t-82 -151.5t-115.5 -129t-151.5 -91.5t-188 -39q-20 0 -54 13.5t-69 29.5q-72 23 -109.5 78t-41.5 127h-2zM662 1479q0 -41 23.5 -59.5t74.5 -39.5 h14q20 0 43 9.5t64 60.5q8 10 29.5 27.5t54.5 40.5l2 2l57 46q25 19 43 40.5t32.5 48t26.5 65.5q0 2 1 5.5t1 7.5v-7q2 6 3.5 14.5t1.5 28.5q0 59 -27 83t-74 24q-53 0 -131 -49q-29 -18 -59.5 -51t-60 -70t-54.5 -76t-41 -71q-24 -49 -24 -80z" />
<glyph unicode="&#xd4;" horiz-adv-x="1507" d="M-29 414q0 -23 2 -33v2q4 -41 20.5 -91t63.5 -126h-2l21 -32l20 -30q4 -6 8.5 -11t8.5 -11v4q70 -80 168 -124t239 -66h-4q45 -10 88 -13.5t94 -3.5q141 0 256 30t201 95q96 84 166 181.5t116 202t68.5 209.5t22.5 206v45q0 14 -1 26.5t-3 22.5q-4 41 -14.5 83t-30.5 83 q-45 84 -96.5 141.5t-105.5 93t-106.5 54t-97.5 24.5h-141q-143 -16 -246.5 -40.5t-169.5 -61.5l-83 -49l-52 -31q-2 -2 -4 -3t-4 -3l4 2q-92 -68 -168 -157t-128 -187t-81 -201.5t-29 -200.5v-30zM330 348q2 63 22.5 140t57 158t87 159t114 143.5t137 113.5t155.5 66 q20 6 44 10.5t52 4.5q51 0 101 -31q45 -33 68.5 -97.5t33.5 -129.5v2q2 -16 3 -32.5t1 -33.5q0 -72 -15 -151.5t-48 -158.5t-82 -151.5t-115.5 -129t-151.5 -91.5t-188 -39q-20 0 -54 13.5t-69 29.5q-72 23 -109.5 78t-41.5 127h-2zM674 1530q0 -16 2 -33.5t12 -34.5 q35 -70 96 -69q39 0 86 39l35 34q8 8 14.5 15.5t12.5 13.5l24 25q31 -6 58.5 -21.5t75.5 -50.5q14 -10 28.5 -16.5t36.5 -6.5q31 0 62 25q25 18 37 47t12 64q0 20 -7.5 41.5t-13.5 46.5h2q-12 25 -23.5 36t-27.5 21l-14 -53q-4 8 -24.5 38.5t-52.5 62.5t-74 57.5t-89 25.5 h-6q-41 0 -66.5 -23.5t-38.5 -80.5q0 -4 -12 -11.5t-28 -15.5l-35 -19q-16 -9 -27 -24q-23 -23 -39 -57.5t-16 -75.5z" />
<glyph unicode="&#xd5;" horiz-adv-x="1507" d="M-29 414q0 -23 2 -33v2q4 -41 20.5 -91t63.5 -126h-2l21 -32l20 -30q4 -6 8.5 -11t8.5 -11v4q70 -80 168 -124t239 -66h-4q45 -10 88 -13.5t94 -3.5q141 0 256 30t201 95q96 84 166 181.5t116 202t68.5 209.5t22.5 206v45q0 14 -1 26.5t-3 22.5q-4 41 -14.5 83t-30.5 83 q-45 84 -96.5 141.5t-105.5 93t-106.5 54t-97.5 24.5h-141q-143 -16 -246.5 -40.5t-169.5 -61.5l-83 -49l-52 -31q-2 -2 -4 -3t-4 -3l4 2q-92 -68 -168 -157t-128 -187t-81 -201.5t-29 -200.5v-30zM330 348q2 63 22.5 140t57 158t87 159t114 143.5t137 113.5t155.5 66 q20 6 44 10.5t52 4.5q51 0 101 -31q45 -33 68.5 -97.5t33.5 -129.5v2q2 -16 3 -32.5t1 -33.5q0 -72 -15 -151.5t-48 -158.5t-82 -151.5t-115.5 -129t-151.5 -91.5t-188 -39q-20 0 -54 13.5t-69 29.5q-72 23 -109.5 78t-41.5 127h-2zM559 1509q0 -41 33 -70.5t86 -29.5 q37 0 59.5 16.5t44.5 38.5l15 15l4 -4q23 -25 58.5 -49.5t103.5 -24.5q109 0 171 43t72 166v6q0 37 -38 64.5t-78 27.5q-33 0 -62 -14.5t-45 -44.5q-8 -12 -8 -25q-2 -4 -2 -8v2q0 -2 -2 -2l-1 1q-1 1 -1 3h-2v2l-24 33l-30 41v-21q-16 10 -38.5 17.5t-51.5 7.5 q-37 0 -82 -16.5t-85 -42t-67.5 -59.5t-29.5 -66v-7z" />
<glyph unicode="&#xd6;" horiz-adv-x="1507" d="M-29 414q0 -23 2 -33v2q4 -41 20.5 -91t63.5 -126h-2l21 -32l20 -30q4 -6 8.5 -11t8.5 -11v4q70 -80 168 -124t239 -66h-4q45 -10 88 -13.5t94 -3.5q141 0 256 30t201 95q96 84 166 181.5t116 202t68.5 209.5t22.5 206v45q0 14 -1 26.5t-3 22.5q-4 41 -14.5 83t-30.5 83 q-45 84 -96.5 141.5t-105.5 93t-106.5 54t-97.5 24.5h-141q-143 -16 -246.5 -40.5t-169.5 -61.5l-83 -49l-52 -31q-2 -2 -4 -3t-4 -3l4 2q-92 -68 -168 -157t-128 -187t-81 -201.5t-29 -200.5v-30zM330 348q2 63 22.5 140t57 158t87 159t114 143.5t137 113.5t155.5 66 q20 6 44 10.5t52 4.5q55 0 103 -33l-2 2q45 -33 68.5 -97.5t33.5 -129.5v2q2 -16 3 -32.5t1 -33.5q0 -72 -15 -151.5t-48 -158.5t-82 -151.5t-115.5 -129t-151.5 -91.5t-188 -39q-20 0 -54 13.5t-69 29.5q-72 23 -109.5 78t-41.5 127h-2zM489 1524q14 -59 66.5 -97 t138.5 -41q82 0 138.5 27t70.5 74q18 -45 67.5 -71.5t125.5 -29.5q92 0 153.5 36t61.5 98v4q-6 59 -62.5 100t-144.5 41h-10q-78 0 -130.5 -27.5t-64.5 -74.5q-20 45 -70.5 73.5t-130.5 28.5h-4q-92 0 -148.5 -37.5t-56.5 -103.5z" />
<glyph unicode="&#xd7;" horiz-adv-x="1003" d="M-2 565q0 -57 43 -100q45 -43 98 -43q29 6 123 53l61 36l46 28q57 41 125 51h12q43 0 72 -29l131 -131q43 -43 110 -43h21q63 8 114 59q47 47 47 105q0 43 -22 78l-125 153l-40 46l-13 16v10q0 20 28 49q12 12 33 29.5l43 34.5q16 14 28.5 21t22.5 16q74 80 74 143 q0 59 -49 108v-2q-41 43 -94 43q-43 0 -96 -28q-16 -10 -48 -37t-81 -72l2 2l-15.5 -12t-13.5 -10l-50 -41l-28 -23q-2 -2 -8 -2q-33 0 -100 68q-47 47 -79 74.5t-53 39.5q-23 12 -42 19.5t-42 7.5q-53 0 -98 -45q-16 -18 -30.5 -43t-26.5 -59q-2 -4 -2 -25q0 -74 76 -149 l19 -18.5t26 -22.5l13 -8.5t11 -8.5l-6 2q20 -20 21 -35q0 -6 -9 -14l-29 -29l-40 -36l2 2q-33 -25 -50.5 -40.5t-27.5 -25.5q-84 -84 -84 -162z" />
<glyph unicode="&#xd9;" horiz-adv-x="1298" d="M-16 344q0 -86 27.5 -166t105.5 -145l14 -6q96 -76 173 -107t165 -31q10 2 25 2h38q10 0 22.5 -1t23.5 -1h30v2h2q147 0 247.5 77t169.5 198t114 269.5t80 289.5h-2q35 125 64.5 262t43.5 260q0 45 -2 75t-12 71q-12 18 -35 33.5t-48.5 26.5t-52 16.5t-44.5 5.5 q-16 0 -33 -8.5t-31 -18.5t-25.5 -20.5t-15.5 -14.5l-72 -346q-2 -8 -2 -16t-2 -17l-21 -122q-11 -67 -40 -175q-16 -68 -35.5 -138.5t-40 -135t-41 -115.5t-39.5 -78l-76 -100l-4 -6q-23 -14 -50 -22.5t-53 -12.5t-47.5 -5t-31.5 -1h-10q-12 0 -34.5 7t-46.5 20.5t-40 35 t-16 52.5q0 4 2 12q0 53 12 114.5t35 137.5l64 215l47 151l32 100q12 38 21 60l13 36q5 13 7 23.5t3 22.5t3 31q2 14 2 30q0 18 4 48v8q0 29 -20.5 55.5t-50 48t-63.5 37.5t-60 23q-35 0 -64.5 -13.5t-62.5 -50.5v14q-8 -12 -14.5 -24l-12.5 -23q-16 -18 -30 -43l-5 -20h2 q-14 -33 -22 -63l-16 -62h2q-10 -39 -20.5 -72t-20.5 -61q-31 -98 -48.5 -158.5t-28.5 -108t-19.5 -92.5t-18.5 -114q-6 -37 -10 -76t-4 -80zM489 1769q0 -23 2.5 -33t6.5 -22q12 -37 25.5 -61.5t31.5 -46t42 -40.5l58 -46v-2h2q33 -23 54.5 -40.5t29.5 -27.5 q37 -47 69 -58.5t42 -11.5h8q53 18 77 38t24 61q0 14 -7.5 32.5l-19.5 47.5q-16 35 -42 74.5t-55.5 76.5t-60.5 68.5t-57 50.5q-35 23 -68 35t-61 12q-47 0 -74 -24t-27 -83z" />
<glyph unicode="&#xda;" horiz-adv-x="1298" d="M-16 344q0 -86 27.5 -166t105.5 -145l14 -6q96 -76 173 -107t165 -31q10 2 25 2h38q10 0 22.5 -1t23.5 -1h30v2h2q147 0 247.5 77t169.5 198t114 269.5t80 289.5h-2q35 125 64.5 262t43.5 260q0 45 -2 75t-12 71q-12 18 -35 33.5t-48.5 26.5t-52 16.5t-44.5 5.5 q-16 0 -33 -8.5t-31 -18.5t-25.5 -20.5t-15.5 -14.5l-72 -346q-2 -8 -2 -16t-2 -17l-21 -122q-11 -67 -40 -175q-16 -68 -35.5 -138.5t-40 -135t-41 -115.5t-39.5 -78l-76 -100l-4 -6q-23 -14 -50 -22.5t-53 -12.5t-47.5 -5t-31.5 -1h-10q-12 0 -34.5 7t-46.5 20.5t-40 35 t-16 52.5q0 4 2 12q0 53 12 114.5t35 137.5l64 215l47 151l32 100q12 38 21 60l13 36q5 13 7 23.5t3 22.5t3 31q2 14 2 30q0 18 4 48v8q0 29 -20.5 55.5t-50 48t-63.5 37.5t-60 23q-35 0 -64.5 -13.5t-62.5 -50.5v14q-8 -12 -14.5 -24l-12.5 -23q-16 -18 -30 -43l-5 -20h2 q-14 -33 -22 -63l-16 -62h2q-10 -39 -20.5 -72t-20.5 -61q-31 -98 -48.5 -158.5t-28.5 -108t-19.5 -92.5t-18.5 -114q-6 -37 -10 -76t-4 -80zM590 1483q0 -41 23.5 -59.5t74.5 -39.5h14q20 0 43 9.5t64 60.5q8 10 29.5 27.5t54.5 40.5l2 2l57 46q25 19 43.5 40.5t32.5 48.5 t27 65q0 2 1 5.5t1 7.5v-6q2 6 3 14t1 29q0 59 -26.5 82.5t-73.5 23.5q-53 0 -132 -49q-29 -18 -59.5 -51t-60 -70t-54 -76t-41.5 -71q-24 -49 -24 -80z" />
<glyph unicode="&#xdb;" horiz-adv-x="1298" d="M-16 344q0 -86 27.5 -166t105.5 -145l14 -6q96 -76 173 -107t165 -31q10 2 25 2h38q10 0 22.5 -1t23.5 -1h30v2h2q147 0 247.5 77t169.5 198t114 269.5t80 289.5h-2q35 125 64.5 262t43.5 260q0 45 -2 75t-12 71q-12 18 -35 33.5t-48.5 26.5t-52 16.5t-44.5 5.5 q-16 0 -33 -8.5t-31 -18.5t-25.5 -20.5t-15.5 -14.5l-72 -346q-2 -8 -2 -16t-2 -17l-21 -122q-11 -67 -40 -175q-16 -68 -35.5 -138.5t-40 -135t-41 -115.5t-39.5 -78l-76 -100l-4 -6q-23 -14 -50 -22.5t-53 -12.5t-47.5 -5t-31.5 -1h-10q-12 0 -34.5 7t-46.5 20.5t-40 35 t-16 52.5q0 4 2 12q0 53 12 114.5t35 137.5l64 215l47 151l32 100q12 38 21 60l13 36q5 13 7 23.5t3 22.5t3 31q2 14 2 30q0 18 4 48v8q0 29 -20.5 55.5t-50 48t-63.5 37.5t-60 23q-35 0 -64.5 -13.5t-62.5 -50.5v14q-8 -12 -14.5 -24l-12.5 -23q-16 -18 -30 -43l-5 -20h2 q-14 -33 -22 -63l-16 -62h2q-10 -39 -20.5 -72t-20.5 -61q-31 -98 -48.5 -158.5t-28.5 -108t-19.5 -92.5t-18.5 -114q-6 -37 -10 -76t-4 -80zM471 1546q0 -16 2 -33.5t12 -33.5q35 -70 97 -70q39 0 86 39l34 35l14.5 15l12.5 13l10 11q6 6 13 14q33 -6 60.5 -21.5 t74.5 -50.5q14 -10 28.5 -16t36.5 -6q31 0 62 24q25 18 37 47t12 64q0 20 -7 41.5t-14 46.5h2q-12 25 -23 36t-28 21l-14 -53q-4 8 -24.5 39t-52.5 62.5t-74 57t-89 25.5h-6q-41 0 -66.5 -23.5t-37.5 -80.5q0 -4 -12.5 -11l-28.5 -16l-35 -19q-16 -9 -27 -24 q-23 -23 -39 -57.5t-16 -75.5z" />
<glyph unicode="&#xdc;" horiz-adv-x="1298" d="M-16 344q0 -86 27.5 -166t105.5 -145l14 -6q96 -76 173 -107t165 -31q10 2 25 2h38q10 0 22.5 -1t23.5 -1h30v2h2q147 0 247.5 77t169.5 198t114 269.5t80 289.5h-2q35 125 64.5 262t43.5 260q0 45 -2 75t-12 71q-12 18 -35 33.5t-48.5 26.5t-52 16.5t-44.5 5.5 q-16 0 -33 -8.5t-31 -18.5t-25.5 -20.5t-15.5 -14.5l-72 -346q-2 -8 -2 -16t-2 -17l-21 -122q-11 -67 -40 -175q-16 -68 -35.5 -138.5t-40 -135t-41 -115.5t-39.5 -78l-76 -100l-4 -6q-23 -14 -50 -22.5t-53 -12.5t-47.5 -5t-31.5 -1h-10q-12 0 -34.5 7t-46.5 20.5t-40 35 t-16 52.5q0 4 2 12q0 53 12 114.5t35 137.5l64 215l47 151l32 100q12 38 21 60l13 36q5 13 7 23.5t3 22.5t3 31q2 14 2 30q0 18 4 48v8q0 29 -20.5 55.5t-50 48t-63.5 37.5t-60 23q-35 0 -64.5 -13.5t-62.5 -50.5v14q-8 -12 -14.5 -24l-12.5 -23q-16 -18 -30 -43l-5 -20h2 q-14 -33 -22 -63l-16 -62h2q-10 -39 -20.5 -72t-20.5 -61q-31 -98 -48.5 -158.5t-28.5 -108t-19.5 -92.5t-18.5 -114q-6 -37 -10 -76t-4 -80zM340 1599q14 -59 66.5 -97t138.5 -40q82 0 138 27t71 74q18 -45 67 -72t125 -29q92 0 153.5 36t61.5 97v4q-6 59 -62.5 100.5 t-144.5 41.5h-10q-78 0 -130 -27.5t-64 -75.5q-20 45 -70.5 74t-130.5 29h-4q-92 0 -148.5 -38t-56.5 -104z" />
<glyph unicode="&#xdd;" horiz-adv-x="1179" d="M-45 1221q0 -37 14.5 -74t32.5 -72q29 -43 58.5 -113.5t57 -147.5t48 -150.5t31.5 -122.5l-84 -488q2 -63 67 -106l21 -21q104 -39 157 -39q39 0 62.5 14.5t39 45t26 79t22.5 115.5l29 147q16 83 45 189q6 31 11 53.5t13 42t20.5 40t32.5 46.5q74 109 190 240t298 301 q8 4 11 7l7 7l-4 -2q23 18 53.5 47t30.5 66v39q-2 0 -2 -4v-25v11l-18 34q-16 31 -57.5 48.5t-86.5 17.5q-72 0 -123 -55l-250 -278q-122 -136 -229 -271q-29 57 -61 147q-43 109 -93.5 209t-115.5 152q-23 6 -45.5 9t-38.5 3q-35 0 -70 -5t-57 -24h2q-29 -18 -37 -43.5 t-8 -58.5v-10zM408 1421q0 -41 23.5 -59.5t74.5 -38.5h14q20 0 43 9t64 61q8 10 29.5 27.5t54.5 39.5l2 2l57 46q25 19 43 41t32.5 48.5t26.5 65.5q0 2 1 5t1 7v-6q2 6 3.5 14.5t1.5 28.5q0 59 -27 83t-74 24q-53 0 -131 -50q-29 -18 -59.5 -50.5t-60 -69.5t-54 -76 t-41.5 -72q-24 -49 -24 -80z" />
<glyph unicode="&#xdf;" horiz-adv-x="1994" d="M-66 240q0 -61 59.5 -123t149.5 -110t193.5 -77.5t193.5 -29.5q18 0 34 1t28 3q41 2 68.5 7t56.5 15q6 4 10 4q6 0 12 2q80 29 134.5 66t93.5 80v-2l2 2q45 -35 105.5 -66.5t127 -54.5t134 -36t126.5 -13q18 0 33.5 1t28.5 3q41 2 68.5 7t56.5 15q6 4 10 5q6 0 12 2 q80 29 134.5 65.5t92.5 79.5q18 20 33 44t23 44.5t12 34.5t4 18q0 12 -2 30.5t-4 29.5q-33 68 -100.5 124t-180.5 78q-4 2 2.5 3.5t4.5 3.5t-21.5 7t-75.5 17q-25 6 -52.5 15.5t-51.5 19.5q-16 14 -43 14q-23 2 -36 23.5t-13 50.5q0 31 12 49q29 47 82 90t119 68 q43 0 98 -11.5t96 -47.5q86 -70 125 -76h19q72 0 99.5 35.5t27.5 93.5q0 10 -2 26.5t-9 32.5l-4 8l-4 9v2q-16 35 -46 54t-83 48q-66 35 -126 61.5t-146 36.5q-23 0 -31 -2q-86 -4 -158 -33l-41 -20l2 2q-98 -47 -171.5 -108.5t-112.5 -122.5q0 20 -10 57l-5 8l-4 8v2 q-16 35 -45.5 54.5t-83.5 48.5q-66 35 -126 61.5t-146 36.5q-23 0 -31 -2q-86 -4 -157 -33l-41 -20l2 2q-102 -47 -180 -113.5t-113 -132.5q-29 -53 -48.5 -99t-19.5 -98q2 -47 24.5 -92t56.5 -84t76 -70.5t85 -52.5q16 -6 25.5 -10t13.5 -8q35 -16 62.5 -25.5t56.5 -15.5 q43 -10 83.5 -21.5t51.5 -23.5q25 -12 28 -8v-4q0 -10 -21.5 -18.5t-35.5 -12.5q-4 -4 -21.5 -6t-38.5 -3l-42 -2q-20 -1 -29 -1q-39 0 -71.5 5t-86.5 19q-41 20 -76.5 47t-58.5 64l-32 42q-15 19 -38 36q-12 8 -24 9t-23 1h-20q-25 -2 -54.5 -9t-64.5 -42v-8 q-27 -41 -27 -84zM465 635q0 31 12 49q29 47 82 90t119 68q43 0 98 -11.5t96 -48.5q86 -70 125 -75h19q43 0 67 12q-16 -49 -16 -92q2 -47 24.5 -92.5t56.5 -84t76 -70.5t85 -52q16 -6 25 -10.5t14 -8.5q35 -16 62.5 -25.5t55.5 -15.5q43 -10 84 -21t52 -24q25 -12 28 -8v-4 q0 -10 -21.5 -18.5t-35.5 -12.5q-4 -4 -21.5 -6t-39.5 -3l-42 -2q-20 -1 -28 -1q-39 0 -72 5t-86 20q-41 20 -77 46.5t-58 63.5l-32 42q-15 19 -38 36q-12 8 -24.5 9t-22.5 1h-24q-10 -2 -22.5 -3t-27.5 -5q-37 33 -87 58.5t-119 39.5q-4 2 2 3t4 3t-21.5 7.5t-74.5 17.5 q-25 6 -52.5 15.5t-52.5 19.5q-16 14 -43 14q-23 2 -36 23.5t-13 50.5z" />
<glyph unicode="&#xe0;" horiz-adv-x="1028" d="M-43 31q0 -31 13.5 -55.5t35 -42t48 -26.5t52.5 -9q59 0 102.5 23.5t78.5 88.5l18 38q8 17 14 34q12 33 22.5 55.5t25.5 38.5h22q2 2 0 2q12 0 27.5 1t32.5 3h18q10 0 20.5 1t20.5 1h22q12 0 23 2h-2q47 4 89 5.5t71 1.5l4 -25l16 -84q8 -49 21.5 -76.5t33 -43t46 -21.5 t63.5 -13q18 0 36.5 3.5t47.5 17.5q43 16 63.5 54t20.5 81q0 14 -5 30.5t-9 33.5l2 -7q-59 418 -108.5 666t-94.5 332q41 16 58.5 35.5t17.5 60.5q0 18 -23 74q-14 29 -34.5 62.5t-45 65t-51.5 57.5t-51 42q-31 18 -60.5 30.5t-56.5 12.5q-49 0 -78.5 -25.5t-29.5 -87.5 q0 -35 8 -51q10 -33 22.5 -55.5t27.5 -40.5t35.5 -35.5t49.5 -38.5l-4 2l5 -5q3 -3 13 -7q4 -2 5 -3t6 -3l-3 2q14 -10 23.5 -17.5t13.5 -13.5t8.5 -11t8.5 -9q-74 -16 -119 -37t-73.5 -46.5t-46 -55l-36.5 -64.5l-6 -10q-16 -35 -37.5 -75t-50.5 -83l-89 -145l-96 -163 l-92 -164q-44 -81 -75 -149q-16 -45 -25.5 -75.5t-9.5 -63.5v-20zM504 451l131 217l27 -217h-158z" />
<glyph unicode="&#xe1;" horiz-adv-x="1028" d="M-43 31q0 -31 13.5 -55.5t35 -42t48 -26.5t52.5 -9q59 0 102.5 23.5t78.5 88.5l18 38q8 17 14 34q12 33 22.5 55.5t25.5 38.5h22q2 2 0 2q12 0 27.5 1t32.5 3h18q10 0 20.5 1t20.5 1h22q12 0 23 2h-2q47 4 89 5.5t71 1.5l4 -25l16 -84q8 -49 21.5 -76.5t33 -43t46 -21.5 t63.5 -13q18 0 36.5 3.5t47.5 17.5q43 16 63.5 54t20.5 81q0 14 -5 30.5t-9 33.5l2 -7q-72 500 -128.5 758t-107.5 279h-2v-2v2h-10v2q8 0 10 -2q-2 2 -4 2t-6 2v16q-29 -4 -45 -8q10 10 26.5 21.5t36.5 27.5l-2 -2q27 20 47.5 37.5t36 36t27.5 44t26 62.5v8q0 2 1 3.5 t1 3.5v-7q2 10 3 31q0 61 -29 87t-78 26q-27 0 -57.5 -11.5t-63.5 -31.5q-23 -14 -48.5 -41t-49 -57.5t-45 -64.5t-35.5 -62q-25 -47 -25 -76q0 -37 12.5 -54.5t41.5 -31.5q-66 -31 -93.5 -71t-52.5 -91l-6 -10q-16 -35 -37.5 -75t-50.5 -83l-89 -145l-96 -163l-92 -164 q-44 -81 -75 -149q-16 -45 -25.5 -75.5t-9.5 -63.5v-20zM504 451l131 217l27 -217h-158zM817 1237l4 2h-2q0 -2 -2 -2z" />
<glyph unicode="&#xe2;" horiz-adv-x="1028" d="M-43 31q0 -31 13.5 -55.5t35 -42t48 -26.5t52.5 -9q59 0 102.5 23.5t78.5 88.5l18 38q8 17 14 34q12 33 22.5 55.5t25.5 38.5h22q2 2 0 2q12 0 26.5 1t30.5 3h21q10 0 20.5 1t20.5 1h22q12 0 23 2h-2q47 4 89 5.5t71 1.5l4 -25l16 -84q8 -49 21.5 -76.5t33 -43t46 -21.5 t63.5 -13q18 0 36.5 3.5t47.5 17.5q43 16 63.5 54t20.5 81q0 14 -5 30.5t-9 33.5l2 -7q-61 430 -111.5 680t-95.5 326q14 2 29.5 8t27.5 19l-4 -2q51 37 51 110q0 25 -8 43l6 2l-12 25v22h-14q-16 25 -32 39.5t-36 24.5l-21 -31q-4 2 -12 10l-45 36l-46 37q-22 17 -40 28.5 t-26 11.5h-5q-43 0 -70.5 -23.5t-39.5 -81.5q0 4 -5 3.5t-10 -5.5l-24 -16l2 2q-25 -14 -39 -29q-23 -23 -37 -53.5t-14 -68.5q0 -18 3 -37t11 -33q18 -35 42 -51.5t61 -16.5h12q-45 -29 -66.5 -63.5t-44.5 -79.5l-6 -10q-16 -35 -37.5 -75t-50.5 -83l-89 -145l-96 -163 l-92 -164q-44 -81 -75 -149q-16 -45 -25.5 -75.5t-9.5 -63.5v-20zM504 451l131 217l27 -217h-158zM616 1155l16 15q5 5 21 24v-2l9 8q2 4 10 12l8 9q16 -4 29.5 -11.5t31.5 -21.5q-80 -17 -125 -33zM692 1231q0 2 2 2zM852 1391h2q0 -2 -2 0zM930 1358q4 -8 4 -12z" />
<glyph unicode="&#xe3;" horiz-adv-x="1028" d="M-43 31q0 -31 13.5 -55.5t35 -42t48 -26.5t52.5 -9q59 0 102.5 23.5t78.5 88.5l18 38q8 17 14 34q12 33 22.5 55.5t25.5 38.5h22q2 2 0 2q12 0 26.5 1t30.5 3h21q10 0 20.5 1t20.5 1h22q12 0 23 2h-2q47 4 89 5.5t71 1.5l4 -25l16 -84q8 -49 21.5 -76.5t33 -43t46 -21.5 t63.5 -13q18 0 36.5 3.5t47.5 17.5q43 16 63.5 54t20.5 81q0 14 -5 30.5t-9 33.5l2 -7q-59 406 -106.5 651.5t-90.5 335.5q53 16 85 57.5t40 121.5v8q0 41 -39 70.5t-82 29.5q-66 0 -100 -53q-16 18 -43 32.5t-70 14.5q-31 0 -72 -15.5t-76.5 -41t-61 -57t-27.5 -62.5v-4 q0 -41 33.5 -74t86.5 -33q16 0 25 2q-47 -29 -69.5 -64.5t-45.5 -82.5l-6 -10q-16 -35 -37.5 -75t-50.5 -83l-89 -145l-96 -163l-92 -164q-44 -81 -75 -149q-16 -45 -25.5 -75.5t-9.5 -63.5v-20zM504 451l131 217l27 -217h-158zM606 1153q4 4 8 7l9 7q2 -2 4 -3t4 -3 q-9 -4 -25 -8zM739 1315v4q0 6 2 8q0 -4 -1 -7t-1 -5zM741 1311l27 26l23 -41zM793 1329q0 -2 1 -3l1 -1q-2 2 -2 4z" />
<glyph unicode="&#xe4;" horiz-adv-x="1028" d="M-43 31q0 -31 13.5 -55.5t35 -42t48 -26.5t52.5 -9q59 0 102.5 23.5t78.5 88.5l18 38q8 17 14 34q12 33 22.5 55.5t25.5 38.5h22q2 2 0 2q12 0 26.5 1t30.5 3h21q10 0 20.5 1t20.5 1h22q12 0 23 2h-2q47 4 89 5.5t71 1.5l4 -25l16 -84q8 -49 21.5 -76.5t33 -43t46 -21.5 t63.5 -13q18 0 36.5 3.5t47.5 17.5q43 16 63.5 54t20.5 81q0 14 -5 30.5t-9 33.5l2 -7q-57 397 -104.5 640t-88.5 339q82 2 134 38t52 95v7q-6 59 -59 98t-133 39h-8q-109 0 -160 -58q-25 27 -63.5 42.5t-92.5 15.5h-4q-86 0 -138 -40t-52 -106q14 -57 63 -93t127 -38h25 q-45 -29 -66.5 -63.5t-44.5 -79.5l-6 -10q-16 -35 -37.5 -75t-50.5 -83l-89 -145l-96 -163l-92 -164q-44 -81 -75 -149q-16 -45 -25.5 -75.5t-9.5 -63.5v-20zM504 451l131 217l27 -217h-158z" />
<glyph unicode="&#xe5;" horiz-adv-x="1028" d="M-43 31q0 -31 13.5 -55.5t35 -42t48 -26.5t52.5 -9q59 0 102.5 23.5t78.5 88.5l18 38q8 17 14 34q12 33 22.5 55.5t25.5 38.5h22q2 2 0 2q12 0 27.5 1t32.5 3h18q10 0 20.5 1t20.5 1h22q12 0 23 2h-2q47 4 89 5.5t71 1.5l4 -25l16 -84q8 -49 21.5 -76.5t33 -43t46 -21.5 t63.5 -13q18 0 36.5 3.5t47.5 17.5q43 16 63.5 54t20.5 81q0 14 -5 30.5t-9 33.5l2 -7q-70 487 -125.5 744.5t-106.5 288.5q45 35 74 84t33 108v18q0 2 1 3.5t1 3.5q0 72 -42 126t-128 54q-63 0 -112.5 -26.5t-85.5 -66.5t-54.5 -87t-20.5 -90v-9q0 -51 19.5 -94t66.5 -65 q-57 -29 -82.5 -68t-50.5 -88l-6 -10q-16 -35 -37.5 -75t-50.5 -83l-89 -145l-96 -163l-92 -164q-44 -81 -75 -149q-16 -45 -25.5 -75.5t-9.5 -63.5v-20zM504 451l131 217l27 -217h-158zM801 1124v35l2 -2v6q4 4 8 6t8 7l2 -2z" />
<glyph unicode="&#xe6;" horiz-adv-x="1712" d="M-43 31q0 -31 13.5 -55.5t35 -42t48 -26.5t52.5 -9q59 0 102.5 23.5t78.5 88.5l18 38q8 17 14 34q12 33 22.5 55.5t25.5 38.5h22q2 2 0 2q12 0 26.5 1t30.5 3h21q10 0 20.5 1t20.5 1h22q12 0 23 2h-2q47 4 89 5.5t71 1.5l4 -25l16 -84q8 -49 21.5 -76.5t33 -43t46 -21.5 t63.5 -13q12 0 27.5 2t31.5 9q20 -4 25 -4q35 0 57.5 3t46.5 7q4 2 15 2q12 0 28 6l-2 -2q6 2 13 2q6 0 14 2h6l481 74q66 6 91 30q12 12 17 27.5t5 32.5v10q0 8 -4 19v8q-2 6 -7 19t-30 48h-20q-27 14 -57 20l-54 9h-10q-4 0 -5 1t-5 1h-9q-27 0 -39 -1t-22 -3q-4 0 -10 -1 t-11 -1q-37 -6 -67 -6h-19q-2 0 -3 1t-3 1h-12q-10 0 -21 -2h5q-6 0 -13.5 -1t-15.5 -1q-18 -2 -35.5 -3t-32.5 -1q-10 -2 -20 -2h-17q-10 0 -20 -1.5t-20 -1.5l-70 -4q-35 -2 -66 -6l-12 89q-6 44 -10 85q-2 6 -1 11.5t-1 11.5v-8q0 4 -1 9t-1 9q0 10 -2 19q8 -2 15 -1 t13 1h35q27 0 55.5 1t63.5 3t82 7t112 11q8 0 19.5 1t26.5 3h12q16 2 33 2h20q49 8 67.5 34t18.5 58q0 25 -12 54l2 -5l-14 39q-29 51 -81.5 62.5t-111.5 11.5h-182q-53 0 -105.5 -1t-93.5 3q-4 31 -7 86t-5 96l6 3q2 0 6 2h-2q10 2 35 2h65l308 12h61q14 0 23.5 1t21.5 9 l-4 -2q43 14 61.5 39t18.5 53q0 6 -1 14.5t-7 20.5l-11 21q-16 23 -32.5 37t-38 21t-50 11t-69.5 8q-37 0 -87 2t-103 7h-33q-14 0 -31 2q-59 4 -118.5 6t-114.5 2q-72 0 -134.5 -5t-107.5 -18q-51 -16 -83 -36.5t-54.5 -46t-37.5 -56.5l-34 -68l-34 -66q-19 -38 -48 -79 l-89 -145l-96 -163l-92 -164q-44 -81 -75 -149q-16 -45 -25.5 -75.5t-9.5 -63.5v-20zM504 451l131 217l27 -217h-158zM928 -53q4 0 12 -4q-12 0 -12 4z" />
<glyph unicode="&#xe7;" horiz-adv-x="999" d="M-45 301q0 -16 2 -27q4 -47 13.5 -82.5t29.5 -74.5l92 -107v6q39 -33 83 -54t93 -38l-24 -18h10q-2 0 -3 -1t-3 -1l8 -39l-18 37l-7 -6q2 6 7 6q-29 -16 -39.5 -27.5t-10.5 -52.5q0 -25 10.5 -35t26.5 -14q-27 -29 -38 -53.5t-11 -38.5q0 -57 56.5 -82t138.5 -25 q61 0 128.5 13.5t126 36t96.5 55t38 71.5v19q0 47 -25.5 81.5t-64.5 57.5q78 20 148.5 58t142.5 91q37 33 52 53.5t29 43.5q-2 143 -120 143h-7q-2 0 -32.5 -9t-71.5 -30v4q-59 -35 -123.5 -62.5t-150.5 -54.5l8 -57h10l-6 62q-20 -4 -51 -5q-20 0 -53 7.5t-99 31.5 q-23 23 -44 51.5t-26 61.5v10q0 10 3 15q10 98 47 167q41 86 94 166t112 136q39 41 81 69.5t85 32.5l140 -100l51 -27.5t28.5 -13.5t17.5 -5.5t17 -1.5q57 25 90 67t33 73q0 10 -2 20v15q-10 53 -52 90t-101 69v2q-51 27 -89 44.5t-69 28.5t-56.5 15.5t-52.5 4.5 q-61 0 -166 -29q-106 -66 -197 -153t-161 -191.5t-115 -224t-59 -248.5v-27zM238 -98l6 4q-2 0 -6 -4z" />
<glyph unicode="&#xe8;" horiz-adv-x="1062" d="M-39 33q8 -4 25.5 -15.5t27.5 -19.5q8 -6 16.5 -11t12.5 -10q33 -27 68.5 -48t64.5 -21q45 0 77 4t69 10q4 2 12 3t12 3h12l506 72q45 4 64.5 10t27.5 15q20 25 29.5 42t9.5 48q0 8 -1 23.5t-7 58.5h-37q-23 14 -52.5 19t-57.5 9q-4 0 -7.5 1t-7.5 1h-8q-14 0 -27.5 -1 t-27.5 -3q-6 0 -13.5 -1t-11.5 -1q-41 -6 -71 -6h-23h-12q-10 0 -21 -2h4q-4 0 -12 -1t-14 -1q-20 -2 -39 -3t-31 -1q-6 0 -13 -1t-13 -1h-25l-81 -4q-40 -2 -79 -6q4 25 10.5 55.5l13.5 61.5l13 61q6 29 12 49h2q12 -2 23 -2h22h35q27 0 54.5 1t63.5 3t84 6l116 10 q10 0 26.5 1t34.5 3q4 0 7 1t7 1q10 2 19 3h14q37 6 59.5 18t33 29.5t13.5 37t3 37.5v41q-8 33 -25.5 50.5t-42 25.5t-55.5 10t-62 2h-184h-96q-47 0 -84 2q8 35 22 90l27 97h12q14 2 23 2h29h65l311 14h60q10 0 16 1t17 5h-2h6q4 4 8 6.5l10 6.5l-8 -9q53 18 72.5 46 t19.5 55v26q-16 29 -30.5 45.5t-35 26.5t-49 15.5t-69.5 9.5q-29 2 -66 3t-78 3h-8q27 14 38 32.5t11 51.5q0 23 -26 86q-12 27 -33 57.5t-45.5 60t-50 55t-49.5 42.5q-33 20 -64 32.5t-53 12.5q-49 0 -79 -25.5t-30 -87.5q0 -31 4 -41q12 -35 24.5 -59.5t28 -43t36.5 -36.5 l51 -41l-4 2q2 -2 4 -3t4 -3q0 -4 8 -6l2 -2q0 2 2 0l29 -22q12 -9 16 -17q10 -12 19.5 -21.5t19.5 -17.5q-37 2 -70.5 3t-56.5 1h-127h-29q-14 0 -32 2q-61 0 -97.5 -6t-56.5 -26.5t-32.5 -60.5t-26.5 -106zM1006 911q10 0 14 4q-2 0 -10 -4h-4z" />
<glyph unicode="&#xe9;" horiz-adv-x="1062" d="M-39 33q8 -4 25.5 -15.5t27.5 -19.5q8 -6 16.5 -11t12.5 -10q33 -27 68.5 -48t64.5 -21q45 0 77 4t69 10q4 2 12 3t12 3h12l506 72q45 4 64.5 10t27.5 15q20 25 29.5 42t9.5 48q0 8 -1 23.5t-7 58.5h-37q-23 14 -52.5 19t-57.5 9q-4 0 -7.5 1t-7.5 1h-8q-14 0 -27.5 -1 t-27.5 -3q-6 0 -13.5 -1t-11.5 -1q-41 -6 -71 -6h-23h-12q-10 0 -21 -2h4q-4 0 -12 -1t-14 -1q-20 -2 -39 -3t-31 -1q-6 0 -13 -1t-13 -1h-25l-81 -4q-40 -2 -79 -6q4 25 10.5 55.5l13.5 61.5l13 61q6 29 12 49h2q12 -2 23 -2h22h35q27 0 54.5 1t63.5 3t84 6l116 10 q10 0 26.5 1t34.5 3q4 0 7 1t7 1q10 2 19 3h14q37 6 59.5 18t33 29.5t13.5 37t3 37.5v41q-8 33 -25.5 50.5t-42 25.5t-55.5 10t-62 2h-184h-96q-47 0 -84 2q8 35 22 90l27 97h12q14 2 23 2h29h65l311 14h60q10 0 16 1t17 5h-2h6q4 4 8 6.5l10 6.5l-8 -9q53 18 72.5 46 t19.5 55v26q-16 29 -30.5 45.5t-35 26.5t-49 15.5t-69.5 9.5q-29 2 -66 3t-78 3q-20 2 -41 2q-20 0 -43 2q-16 0 -29.5 1t-27.5 1q6 6 12 13l15 18q2 2 12 10l27 20h-2q6 4 22 17l49 40q20 17 36.5 36.5t29 42t22.5 57.5v8v2v2q2 0 2 2v-8q4 16 4 39q0 59 -29.5 85t-76.5 26 q-27 0 -57.5 -11.5t-63.5 -31.5q-23 -16 -49.5 -42t-51 -58t-45 -65.5t-34.5 -62.5l2 2q-25 -47 -25 -75q0 -41 19 -62h-76h-29q-14 0 -32 2q-61 0 -97.5 -6t-56.5 -26.5t-32.5 -60.5t-26.5 -106zM1006 911q10 0 14 4q-2 0 -10 -4h-4z" />
<glyph unicode="&#xea;" horiz-adv-x="1062" d="M-39 33q8 -4 25.5 -15.5t27.5 -19.5q8 -6 16.5 -11t12.5 -10q33 -27 68.5 -48t64.5 -21q45 0 77 4t69 10q4 2 12 3t12 3h12l506 72q45 4 64.5 10t27.5 15q20 25 29.5 42t9.5 48q0 8 -1 23.5t-7 58.5h-37q-23 14 -52.5 19t-57.5 9q-4 0 -7.5 1t-7.5 1h-8q-14 0 -27.5 -1 t-27.5 -3q-6 0 -13.5 -1t-11.5 -1q-41 -6 -71 -6h-23h-12q-10 0 -21 -2h4q-4 0 -12 -1t-14 -1q-20 -2 -39 -3t-31 -1q-6 0 -13 -1t-13 -1h-25l-81 -4q-40 -2 -79 -6q4 25 10.5 55.5l13.5 61.5l13 61q6 29 12 49h2q12 -2 23 -2h22h35q27 0 54.5 1t63.5 3t84 6l116 10 q10 0 26.5 1t34.5 3q4 0 7 1t7 1q10 2 19 3h14q37 6 59.5 18t33 29.5t13.5 37t3 37.5v41q-8 33 -25.5 50.5t-42 25.5t-55.5 10t-62 2h-184h-96q-47 0 -84 2q8 35 22 90l27 97h12q14 2 23 2h29h65l311 14h60q10 0 17 1t18 5h-4h6q4 4 8 6.5l10 6.5l-8 -9q53 18 72.5 46 t19.5 55v26q-16 29 -30.5 45.5t-35 26.5t-49 15.5t-69.5 9.5q-29 2 -66 3t-78 3q-20 2 -41 2q-20 0 -43 2q-41 2 -79.5 3t-71.5 3q4 2 12 10l16 16q5 5 21 23v-2l8 8q2 4 10 13l9 8q16 -4 34.5 -16.5l49.5 -34.5q16 -10 30.5 -15.5t36.5 -5.5q14 0 30.5 4t35.5 21 q29 18 39 47t10 63q0 20 -6 43l6 2l-12 25v22h-15q-16 25 -31.5 39.5t-35.5 24.5l-21 -31q-4 2 -12 11l-45 35l-46 37q-22 17 -40.5 28.5t-26.5 11.5h-4q-47 0 -72.5 -23.5t-37.5 -82.5q-2 4 -10.5 1t-16.5 -7q-2 -2 -4 -3l-2 -2l6 2q-31 -16 -51 -36q-23 -23 -36 -53.5 t-13 -67.5q0 -39 14 -66l-2 2q14 -33 37 -51h-29h-29q-14 0 -32 2q-61 0 -97.5 -6t-56.5 -26.5t-32.5 -60.5t-26.5 -106zM797 1401h2q0 -2 -2 0zM1008 911q8 0 12 4q-2 0 -10 -4h-2z" />
<glyph unicode="&#xeb;" horiz-adv-x="1062" d="M-39 33q8 -4 25.5 -15.5t27.5 -19.5q8 -6 16.5 -11t12.5 -10q33 -27 68.5 -48t64.5 -21q45 0 77 4t69 10q4 2 12 3t12 3h12l506 72q45 4 64.5 10t27.5 15q20 25 29.5 42t9.5 48q0 8 -1 23.5t-7 58.5h-37q-23 14 -52.5 19t-57.5 9q-4 0 -7.5 1t-7.5 1h-8q-14 0 -27.5 -1 t-27.5 -3q-6 0 -13.5 -1t-11.5 -1q-41 -6 -71 -6h-23h-12q-10 0 -21 -2q-4 -2 -12 -2h-10q-20 -2 -39 -3t-31 -1q-6 0 -13 -1t-13 -1h-25l-81 -4q-40 -2 -79 -6q4 25 10.5 55.5l13.5 61.5l13 61q6 29 12 49h2q12 -2 23 -2h22h35q27 0 54.5 1t63.5 3t84 6l116 10q10 0 26.5 1 t34.5 3q4 0 7 1t7 1q10 2 19 3h14q37 6 59.5 18t33 29.5t13.5 37t3 37.5v41q-8 33 -25.5 50.5t-42 25.5t-55.5 10t-62 2h-184h-96q-47 0 -84 2q8 35 22 90l27 97h12q14 2 23 2h29h65l311 14h60q10 0 17 1t18 5h-4h6q4 4 8 6.5l10 6.5l-8 -9q53 18 72.5 46t19.5 55v26 q-16 29 -30.5 45.5t-35 26.5t-49 15.5t-69.5 9.5q-29 2 -61.5 3t-69.5 3h10q86 0 142.5 36t56.5 97v2q-4 59 -55.5 99t-135.5 40h-8q-115 0 -162 -57q-25 27 -63.5 42t-92.5 15h-2q-86 0 -138 -39t-52 -104q10 -43 39 -75t78 -46h-29h-29q-14 0 -32 2q-61 0 -97.5 -6 t-56.5 -26.5t-32.5 -60.5t-26.5 -106zM569 1155q53 12 86 45q23 -23 56.5 -38t81.5 -17h-9q-20 2 -41 2q-20 0 -43 2q-35 2 -68.5 3t-62.5 3zM1008 911q8 0 12 4q-2 0 -10 -4h-2z" />
<glyph unicode="&#xec;" horiz-adv-x="454" d="M-45 68q6 -25 16.5 -46.5t24.5 -35.5l35 -35l4 12l117 -39h55q12 16 29 41v-2q20 27 27 41t11 55l8 32l18 83l27 117l31 137l34 142l32 132q4 37 10 54.5t10 34.5l7 18q4 12 7 23.5t7 21.5v4h2q10 35 21.5 80t17.5 80q0 47 -24.5 87t-65.5 62q10 -4 19 -5t14 -1h10 q53 20 78.5 39t25.5 68q0 10 -3 19l-7 22q-2 4 -4 10l-4 12q-23 41 -55.5 90t-67.5 90h18l-28 19q-12 8 -27 16q-8 6 -15.5 12.5t-13.5 10.5l-2 -4q-82 47 -114 47q-49 0 -78 -25.5t-29 -87.5q0 -27 2 -37q12 -37 24.5 -62.5t29 -45t37.5 -36.5l50 -40q25 -16 44.5 -31.5 t27.5 -27.5q20 -31 47 -43q-16 6 -31.5 10t-31.5 4h-6q-18 10 -41 10q-45 0 -85 -75.5t-79 -221t-79 -355.5zM25 25l6 6h4l-6 -6h-4z" />
<glyph unicode="&#xed;" horiz-adv-x="454" d="M-45 68q6 -25 16.5 -46.5t24.5 -35.5l35 -35l4 12l117 -39h55q12 16 29 41v-2q20 27 27 41t11 55l8 32l18 83l27 117l31 137l34 142l32 132q4 37 10 54.5t10 34.5l7 18q4 12 7 23.5t7 21.5v4h2q10 35 21.5 80t17.5 80q0 59 -39 105t-96 61q8 8 16 17l19 22q2 2 12 10 l26 20h-2q6 4 23 17q31 20 51.5 37.5t35.5 37t27.5 44t24.5 61.5v8q0 2 1 3t1 3v-6q2 10 2 33q0 59 -28.5 85t-77.5 26q-27 0 -57.5 -11.5t-63.5 -31.5q-23 -14 -48.5 -41t-49 -57.5t-45 -64.5t-35.5 -63q-25 -47 -25 -76q0 -37 12.5 -54t40.5 -32q-35 -39 -67.5 -131 t-66.5 -232t-68 -327zM25 25l6 6h4l-6 -6h-4z" />
<glyph unicode="&#xee;" horiz-adv-x="454" d="M-45 68q6 -25 16.5 -46.5t24.5 -35.5l35 -35l4 12l117 -39h55q12 16 29 41v-2q20 27 27 41t11 55l8 32l18 83l27 117l31 137l34 142l32 132q4 37 10 54.5t10 34.5l7 18q4 12 7 23.5t7 21.5v4h2q10 35 21.5 80t17.5 80q0 35 -14.5 65.5t-38 54t-55 38t-66.5 14.5h-6 q-16 8 -25 8l33 35v-2l8 8q16 -4 33 -14l43 -27q2 -2 2 -4l2 -2l-2 2q14 -10 32.5 -18.5t41.5 -8.5q14 0 30.5 4.5t34.5 20.5q25 18 37 47t12 64q0 20 -6 43l4 2q-4 6 -8 18q-2 2 -2 6v23h-14q-14 23 -29.5 34t-34.5 21q-31 35 -82 67.5t-112 32.5h-7q-43 0 -70.5 -23.5 t-39.5 -82.5q-2 4 -10.5 1t-16.5 -7q-2 -2 -4 -2l-2 -2l6 2q-31 -16 -51 -37l2 4q-20 -20 -34.5 -52t-14.5 -73q0 -39 14 -66l-2 2q35 -74 103 -73h12q-63 -104 -122.5 -377.5t-131.5 -695.5zM25 25l6 6h4l-6 -6h-4z" />
<glyph unicode="&#xef;" horiz-adv-x="454" d="M-45 68q6 -25 16.5 -46.5t24.5 -35.5l35 -35l4 12l117 -39h55q12 16 29 41v-2q20 27 27 41t11 55l8 32l18 83l27 117l31 137l34 142l32 132q4 37 10 54.5t10 34.5l7 18q4 12 7 23.5t7 21.5v4h2q10 35 21.5 80t17.5 80q0 33 -13.5 63.5t-37 54t-54 38t-63.5 16.5 q16 8 31 22q25 -25 62.5 -40t88.5 -15q86 0 142.5 36t56.5 97v2q-4 61 -56.5 101.5t-134.5 40.5h-8q-115 0 -162 -58q-25 27 -63.5 42.5t-91.5 15.5h-2q-86 0 -138.5 -40t-52.5 -106q10 -57 60.5 -93t130.5 -38h20q-68 -92 -129 -369.5t-137 -719.5zM25 25l6 6h4l-6 -6h-4z " />
<glyph unicode="&#xf0;" horiz-adv-x="1163" d="M-170 604q4 -41 11 -69.5t26 -51.5v2q23 -31 60.5 -42t88.5 -13q-14 -74 -25 -153.5t-22 -167.5v-39q10 -61 66 -109l170 -55q43 0 83 3t70 7h-6q168 14 315.5 89t257 182.5t173 234.5t63.5 250q0 86 -31.5 163.5t-100 141t-176.5 108.5t-261 64q-53 12 -110.5 14 t-129.5 2l-135 -20q-41 -104 -60.5 -160.5t-23.5 -75.5v-16q-6 -8 -7 -16.5t-1 -12.5l2 8l-12 -44l-13 -44l-18 -69q-33 -2 -60.5 -3t-48.5 -3v4q-35 -6 -61.5 -13.5t-45 -18.5t-28.5 -28.5t-10 -48.5zM305 168q8 53 24 123l33 147q53 2 96.5 4t57.5 7h23q47 0 72.5 3 t47.5 17q37 14 44.5 32.5t7.5 53.5q0 2 -1 7t-1 7l-21 40q-10 19 -26 36q-2 0 -3 2h-2q-45 39 -101 53.5t-122 18.5l28 89l23 75q125 -2 200 -12.5t108 -34.5q53 -41 71.5 -76t22.5 -66v-4q-6 -59 -47 -125.5t-108.5 -133t-157 -127t-187.5 -105.5q-8 -4 -31 -13z" />
<glyph unicode="&#xf1;" horiz-adv-x="1093" d="M-51 29q0 -35 15.5 -63.5t39 -48t53 -31t60.5 -11.5q51 0 91 26.5t48 96.5v10l25 84q16 55 34 124l38 143l36 145q59 -180 118.5 -300t98.5 -159q88 -102 176 -102q55 0 95.5 34.5t58.5 92.5l19 64l18 54v-2q8 23 14 42.5t10 35.5q6 20 12.5 35.5t10.5 28.5l-2 -2l18 57 q6 18 11 41q6 41 21 96l26 90h2q4 10 14 40t21.5 71t21.5 87t14 89q12 31 23.5 70t11.5 77q0 29 -11 59t-36 54l-145 21q-41 -6 -71 -28t-49.5 -49.5t-30.5 -61t-17 -64.5l-12 -50l-28 -125l-39 -164q-22 -89 -44 -169q-35 92 -57.5 177t-38.5 183q-4 10 -5.5 24.5 t-1.5 33.5v24q0 37 -3 75t-15 69.5t-39 53t-74 26.5q-104 -6 -163.5 -26t-92 -50.5t-47 -73.5t-24.5 -100q-10 -39 -21.5 -77t-19.5 -73l-45 -176l-37 -143l-48 -188l-25.5 -105.5t-10.5 -52t-2 -27.5v-12zM438 1231q0 -41 34 -74t89 -33q33 0 53.5 13.5t38.5 29.5 q20 -18 51 -33.5t84 -15.5q98 0 154.5 39t67.5 152v8q0 41 -39 70.5t-82 29.5q-27 0 -53.5 -12t-44.5 -37l-40 62q-22 33 -28 43v-68q-23 6 -47 6q-31 0 -71 -15.5t-75.5 -40t-62.5 -55t-29 -61.5v-8zM770 1313v6q0 4 2 6v-6q0 -2 -1 -3t-1 -3z" />
<glyph unicode="&#xf2;" horiz-adv-x="1206" d="M-49 334q6 -41 18.5 -85t50.5 -110v2q10 -18 17.5 -29.5t15.5 -21.5q2 -6 8 -12q59 -72 143.5 -110t207.5 -58h-2q35 -8 70.5 -10t78.5 -2q117 0 213 24.5t168 79.5q80 70 138.5 150.5t96 167t56 174.5t18.5 170v34q0 16 -1 25.5t-3 19.5q-4 31 -12 65t-27 73 q-63 117 -140 175t-146 81q25 12 37 29.5t12 52.5q0 29 -25 75q-18 39 -50 84t-67 84h19l-29 19q-12 8 -26 16q-8 6 -15.5 12.5t-13.5 10.5l-2 -4q-82 47 -115 47q-49 0 -77.5 -26t-28.5 -87q0 -23 1 -29t3 -12v2q12 -37 24.5 -61.5t27.5 -44t34.5 -37t48.5 -37.5q-2 2 0 2 q29 -20 47 -35.5t29 -28.5q6 -8 18 -20h-29q-119 -14 -204.5 -33.5t-139.5 -52.5l-71 -42q-29 -17 -43 -28q-76 -55 -137.5 -128.5t-105.5 -155.5t-67.5 -167t-23.5 -165v-25q0 -12 2 -18h-2zM291 309q6 74 40 166t91 178t135 153.5t170 90.5q37 10 72 10q39 0 65 -18 q29 -23 45.5 -71t26.5 -97v-27q0 -4 1 -8t1 -8q0 -82 -26.5 -177t-83 -177t-141.5 -137.5t-202 -59.5q-14 0 -37.5 9t-50.5 24q-47 12 -73.5 54t-32.5 95zM678 1231l4 -2q-2 0 -3 1z" />
<glyph unicode="&#xf3;" horiz-adv-x="1206" d="M-49 334q6 -41 18.5 -85t50.5 -110v2q10 -18 17.5 -29.5t15.5 -21.5q2 -6 8 -12q59 -72 143.5 -110t207.5 -58h-2q35 -8 70.5 -10t78.5 -2q117 0 213 24.5t168 79.5q80 70 138.5 150.5t96 167t56 174.5t18.5 170v34q0 16 -1 25.5t-3 19.5q-4 31 -12 65t-27 73 q-37 72 -81 121t-90 79.5t-90 46t-81 21.5h-121q-10 -2 -18 -3t-16 -1q4 4 8 9t8 11q4 4 13.5 11.5t23.5 17.5q6 4 12 9t14 11l51 40q22 17 37 36t27 40.5t23 53.5l4 21q2 10 2 31q0 61 -29 86.5t-78 25.5q-29 0 -58.5 -12t-61.5 -31q-23 -14 -49.5 -41.5t-51 -60.5t-47 -69 t-37.5 -66v-4q-2 -2 -2 -4q-8 -16 -12 -27.5t-4 -28.5q0 -39 11 -56.5t40 -29.5q-96 -23 -154 -55l-71 -42q-29 -17 -43 -28q-76 -55 -137.5 -128.5t-105.5 -155.5t-67.5 -167t-23.5 -165v-25q0 -12 2 -18h-2zM291 309q6 74 40 166t91 178t135 153.5t170 90.5q37 10 72 10 q39 0 65 -18q29 -23 45.5 -71t26.5 -97v-27q0 -4 1 -8t1 -8q0 -82 -26.5 -177t-83 -177t-141.5 -137.5t-202 -59.5q-14 0 -37.5 9t-50.5 24q-47 12 -73.5 54t-32.5 95z" />
<glyph unicode="&#xf4;" horiz-adv-x="1206" d="M-49 334q6 -41 18.5 -85t50.5 -110v2q10 -18 17.5 -29.5t15.5 -21.5q2 -6 8 -12q59 -72 143.5 -110t207.5 -58h-2q35 -8 70.5 -10t78.5 -2q117 0 213 24.5t168 79.5q80 70 138.5 150.5t96 167t56 174.5t18.5 170v34q0 16 -1 25.5t-3 19.5q-4 31 -12 65t-27 73 q-61 115 -136 173t-144 81q33 0 63 24q29 18 39 47t10 64q0 20 -6 43l6 2l-12 24v23h-14q-16 25 -31.5 39t-36.5 24l-20 -30q-4 2 -13 10l-45 36l-46 37q-22 17 -40 28.5t-26 11.5h-4q-47 0 -73 -24t-38 -83q-2 4 -10 1t-17 -7q-2 -2 -4 -2l-2 -2l6 2q-35 -16 -47 -33 q-23 -23 -38 -54.5t-15 -70.5t14 -65l-2 2q16 -39 47 -60q-53 -12 -96 -26.5t-76 -32.5l-71 -42q-29 -17 -43 -28q-76 -55 -137.5 -128.5t-105.5 -155.5t-67.5 -167t-23.5 -165v-25q0 -12 2 -18h-2zM291 309q6 74 40 166t91 178t135 153.5t170 90.5q37 10 72 10q39 0 65 -18 q29 -23 45.5 -71t26.5 -97v-27q0 -4 1 -8t1 -8q0 -82 -26.5 -177t-83 -177t-141.5 -137.5t-202 -59.5q-14 0 -37.5 9t-50.5 24q-47 12 -73.5 54t-32.5 95zM713 1145l12 12q6 6 20 23v-2l9 8q2 4 10 12l8 8q16 -4 34.5 -16t49.5 -35q4 -4 12 -8q-2 0 -3 1l-1 1h-121 q-8 -2 -16 -2q-6 0 -14 -2zM944 1376h2q0 -2 -2 0z" />
<glyph unicode="&#xf5;" horiz-adv-x="1206" d="M-49 334q6 -41 18.5 -85t50.5 -110v2q10 -18 17.5 -29.5t15.5 -21.5q2 -6 8 -12q59 -72 143.5 -110t207.5 -58h-2q35 -8 70.5 -10t78.5 -2q117 0 213 24.5t168 79.5q80 70 138.5 150.5t96 167t56 174.5t18.5 170v34q0 16 -1 25.5t-3 19.5q-4 31 -12 65t-27 73 q-66 125 -148.5 183t-152.5 77q35 20 57.5 60t28.5 106v6q0 41 -38 70.5t-81 29.5q-29 0 -54 -11t-48 -40q-18 18 -44 31.5t-67 13.5q-35 0 -74.5 -15.5t-75.5 -40t-61.5 -55t-27.5 -61.5v-6q0 -43 33.5 -76t89.5 -33q33 0 53 13.5t41 31.5q6 -8 14 -14t19 -12 q-184 -25 -271 -76l-71 -42q-29 -17 -43 -28q-76 -55 -137.5 -128.5t-105.5 -155.5t-67.5 -167t-23.5 -165v-25q0 -12 2 -18h-2zM291 309q6 74 40 166t91 178t135 153.5t170 90.5q37 10 72 10q39 0 65 -18q29 -23 45.5 -71t26.5 -97v-27q0 -4 1 -8t1 -8q0 -82 -26.5 -177 t-83 -177t-141.5 -137.5t-202 -59.5q-14 0 -37.5 9t-50.5 24q-47 12 -73.5 54t-32.5 95zM795 1339q4 0 6 -5t2 -9q-4 4 -4 6z" />
<glyph unicode="&#xf6;" horiz-adv-x="1206" d="M-49 334q6 -41 18.5 -85t50.5 -110v2q10 -18 17.5 -29.5t15.5 -21.5q2 -6 8 -12q59 -72 143.5 -110t207.5 -58h-2q35 -8 70.5 -10t78.5 -2q117 0 213 24.5t168 79.5q80 70 138.5 150.5t96 167t56 174.5t18.5 170v34q0 16 -1 25.5t-3 19.5q-4 31 -12 65t-27 73 q-51 98 -113.5 152t-121.5 83q47 16 75.5 47t28.5 74v2q-4 59 -57 99t-135 40h-9q-111 0 -157 -57q-27 27 -66 42t-92 15h-4q-86 0 -138 -40t-52 -105q10 -47 47 -81t98 -44q-35 -10 -61.5 -21.5t-49.5 -23.5l-71 -42q-29 -17 -43 -28q-76 -55 -137.5 -128.5t-105.5 -155.5 t-67.5 -167t-23.5 -165v-25q0 -12 2 -18h-2zM291 309q6 74 40 166t91 178t135 153.5t170 90.5q37 10 72 10q39 0 65 -18q29 -23 45.5 -71t26.5 -97v-27q0 -4 1 -8t1 -8q0 -82 -26.5 -177t-83 -177t-141.5 -137.5t-202 -59.5q-14 0 -37.5 9t-50.5 24q-47 12 -73.5 54 t-32.5 95zM705 1145q4 4 9 7t9 7l12 -12q-8 0 -15 -1t-15 -1z" />
<glyph unicode="&#xf7;" horiz-adv-x="1099" d="M27 670q0 -12 2 -19v-8q0 -6 1 -11t5 -16l-2 7q6 -18 13 -43t24 -43l-2 4q23 -33 69.5 -44.5t112.5 -11.5h49q14 0 28.5 1t30.5 1q8 0 17.5 1t17.5 1q18 2 37 3.5t37 1.5h4q12 0 65.5 1t117 3t119.5 5t73 7h35q53 0 81.5 3t53.5 19q31 14 39 30t8 48l-10 21h2 q-10 23 -19.5 40t-25.5 27h2q-59 55 -146.5 69.5t-185.5 14.5h-88q-10 0 -23.5 -1t-23.5 -1q-10 -2 -21 -2h-16q-47 0 -104.5 -1t-110.5 -3t-95 -5t-61 -5v2q-53 -10 -81.5 -23.5t-28.5 -64.5v-8zM281 295q0 -29 9 -51.5t23 -40.5q47 -35 89 -48.5t65 -13.5q33 0 63.5 8.5 t53.5 20.5q45 25 75.5 63.5t32.5 85.5q0 94 -94 132l2 -2q-23 12 -49.5 20t-52.5 8q-29 0 -39 -2h2q-4 -2 -12 -2q-66 -12 -113 -55t-55 -103v-20zM383 961q0 -29 9 -51.5t24 -41.5q47 -35 89 -48t64 -13q33 0 64 8t53 21q45 25 76 63.5t33 85.5q0 94 -95 131l2 -2 q-23 12 -49 20.5t-53 8.5q-29 0 -39 -2h2q-4 -2 -12 -2q-66 -12 -113 -55.5t-55 -102.5v-20z" />
<glyph unicode="&#xf8;" horiz-adv-x="1206" d="M-49 334q6 -41 18.5 -85t50.5 -110v2q6 -12 13 -20l12 -17q0 -2 4 -6q0 -4 4 -7t8 -9q0 -2 5 -6l-9 -8q-4 -4 -2 -5q2 0 -2 -4q-27 -33 -38 -62.5t-11 -53.5q0 -63 42 -99.5t108 -36.5q41 0 88 20.5t82 68.5q6 8 12 15t10 13l15.5 -4t17.5 -4l31 -6q35 -8 70.5 -10 t78.5 -2q117 0 213 24.5t168 79.5q80 70 138.5 150.5t96 167t56 174.5t18.5 170v34q0 16 -1 25.5t-3 19.5q-4 31 -12 65t-27 73q35 35 60.5 82t25.5 112v43q-10 63 -54 88t-99 25q-33 0 -66 -9.5t-59 -25.5q-55 -39 -86 -70l-18 8q-7 3 -11 5q-6 2 -11 4t-11 4h-13l-2 2 h-119q-119 -14 -204.5 -33.5t-139.5 -52.5l-71 -42q-29 -17 -43 -28q-76 -55 -137.5 -128.5t-105.5 -155.5t-67.5 -167t-23.5 -165v-25q0 -12 2 -18h-2zM305 393q18 74 56 154t92.5 151.5t124 125t149.5 73.5q4 0 16 4l-48 -61q-26 -33 -60 -66q-14 -14 -30.5 -33.5 t-33.5 -35.5v2q-4 -4 -8 -9.5t-8 -9.5t-9 -11t-9 -9l2 2l-55 -59q-26 -28 -46 -56v2q-41 -47 -72 -88zM512 129l208 249l216 245q-8 -78 -38 -161t-82 -153.5t-128 -121t-176 -58.5zM774 942q0 8 6 14l23 -24l-23 20zM940 1122l14 2q37 -18 46.5 -23t2 -3t-26 9t-36.5 15z " />
<glyph unicode="&#xf9;" horiz-adv-x="1038" d="M-39 295q0 -72 22.5 -142.5t88.5 -123.5l14 -6q86 -66 152.5 -91.5t144.5 -25.5q8 2 12 2h29q4 0 9 -1t9 -1h72v4q117 6 198 71.5t136 163t91 216t65 233.5h-3q29 100 52.5 210.5t33.5 211.5q0 39 -1 64.5t-11 66.5q-12 18 -33.5 33.5t-46 26t-49 15.5t-41.5 5 q-16 0 -33.5 -8.5t-32 -18.5t-25.5 -20.5l-15 -14.5l-60 -286q-4 -12 -4 -19q-2 -8 -2 -16q-2 -4 -2 -13q-6 -39 -16 -89t-29 -126q-12 -53 -27.5 -109t-31 -106.5t-30.5 -90.5t-30 -58l-61 -80l4 2q-14 -10 -33.5 -15t-39 -8.5t-35 -4.5t-23.5 -1h-8q-8 0 -22.5 4.5 t-28 12.5t-23.5 20.5t-10 28.5q0 6 2 12q0 37 10 84t27 107l50 169l37 119l25 80l17 49q2 4 3 8.5t3 8.5q10 33 12 44t4 36q2 20 6 67v6q0 27 -18.5 53.5t-45 47t-57 36t-55.5 21.5q-49 0 -89 -26.5t-93 -106.5v-20q-10 -20 -19.5 -52t-19.5 -73l-8 -29l-4 -12l-4 -13h2 l-40 -140q-15 -52 -25 -91l-17 -77l-19 -95q-4 -31 -7 -62.5t-3 -66.5zM365 1436q0 -35 8 -52q10 -33 22.5 -55t27.5 -40.5t35.5 -36t49.5 -38.5l-4 3l4 -5q2 -2 4 -3t4 -3l14 15l-12 -15l14.5 -11t12.5 -9q8 -6 15 -12.5l13 -12.5l-2 4q35 -47 68 -57t43 -10h6 q55 20 81 40.5t26 65.5q0 29 -25 76q-14 29 -34.5 61.5t-45 63.5t-51.5 57.5t-51 42.5q-31 18 -60.5 30.5t-56.5 12.5q-47 0 -76.5 -25.5t-29.5 -86.5zM504 172h2l2 4z" />
<glyph unicode="&#xfa;" horiz-adv-x="1038" d="M-39 295q0 -72 22.5 -142.5t88.5 -123.5l14 -6q86 -66 152.5 -91.5t144.5 -25.5q8 2 12 2h29q4 0 9 -1t9 -1h72v4q117 6 198 71.5t136 163t91 216t65 233.5h-3q29 100 52.5 210.5t33.5 211.5q0 39 -1 64.5t-11 66.5q-12 18 -33.5 33.5t-46 26t-49 15.5t-41.5 5 q-16 0 -33.5 -8.5t-32 -18.5t-25.5 -20.5l-15 -14.5l-60 -286q-4 -12 -4 -19q-2 -8 -2 -16q-2 -4 -2 -13q-6 -39 -16 -89t-29 -126q-12 -53 -27.5 -109t-31 -106.5t-30.5 -90.5t-30 -58l-61 -80l4 2q-14 -10 -33.5 -15t-39 -8.5t-35 -4.5t-23.5 -1h-8q-8 0 -22.5 4.5 t-28 12.5t-23.5 20.5t-10 28.5q0 6 2 12q0 37 10 84t27 107l50 169l37 119l25 80l17 49q2 4 3 8.5t3 8.5q10 33 12 44t4 36q2 20 6 67v6q0 27 -18.5 53.5t-45 47t-57 36t-55.5 21.5q-49 0 -89 -26.5t-93 -106.5v-20q-10 -20 -19.5 -52t-19.5 -73l-8 -29l-4 -12l-4 -13h2 l-40 -140q-15 -52 -25 -91l-17 -77l-19 -95q-4 -31 -7 -62.5t-3 -66.5zM444 1206q0 -47 21.5 -64.5t69.5 -33.5l18 -6h8q23 0 45.5 9t61.5 56q4 4 19 17l36 28q2 2 2 0l2 2l4 5l52.5 40t37 35.5t27.5 42t22 58.5v2q2 6 3 13t1 30q0 59 -28.5 84.5t-77.5 25.5 q-27 0 -56.5 -11t-60.5 -28q-25 -18 -51.5 -46.5t-52 -61.5t-48 -66.5t-36.5 -62.5q0 -2 -1 -5t-1 -5q-10 -20 -13.5 -35t-3.5 -23zM504 172h2l2 4z" />
<glyph unicode="&#xfb;" horiz-adv-x="1038" d="M-39 295q0 -72 22.5 -142.5t88.5 -123.5l16 -6q82 -66 149.5 -91.5t145.5 -25.5q8 2 12 2h29q4 0 9 -1t9 -1h72v4q117 6 198 71.5t136 163t91 216t65 233.5h-3q29 100 52.5 210.5t33.5 211.5q0 39 -1 64.5t-11 66.5q-12 18 -33.5 33.5t-46 26t-49 15.5t-41.5 5 q-12 0 -25.5 -5t-25.5 -12q23 35 23 72q0 29 -13 64q-2 0 -2 4v10q-12 27 -30.5 42t-47.5 30q-31 35 -81 66.5t-111 31.5h-6q-47 0 -73 -23.5t-36 -79.5q-2 4 -9 1t-15 -7q-16 -10 -30.5 -21t-25.5 -22l2 4q-20 -20 -34.5 -52t-14.5 -73q0 -16 2 -32.5t10 -32.5 q35 -72 103 -72q23 0 42 9.5t42 25.5l43 43q2 4 10 12l8 9q16 -4 35 -16.5t49 -35.5q16 -10 30.5 -15t37.5 -5q10 0 17 2t18 6l-58 -276q-4 -12 -4 -19q-2 -8 -2 -16q-2 -4 -2 -13q-6 -39 -16 -89t-29 -126q-12 -53 -27.5 -109t-31 -106.5t-30.5 -90.5t-30 -58l-61 -80l4 2 q-14 -10 -33.5 -15t-39 -8.5t-35 -4.5t-23.5 -1h-8q-8 0 -22.5 4.5t-28 12.5t-23.5 20.5t-10 28.5q0 6 2 12q0 37 10 84t27 107l50 169l37 119l25 80l17 49q2 4 3 8.5t3 8.5q10 33 12 44t4 36q2 20 6 67v6q0 27 -18.5 53.5t-45 47t-57 36t-55.5 21.5q-49 0 -89 -26.5 t-93 -106.5v-20q-10 -20 -19.5 -52t-19.5 -73l-8 -29l-4 -12l-4 -13h2l-40 -140q-15 -52 -25 -91l-17 -77l-19 -95q-4 -31 -7 -62.5t-3 -66.5zM504 172h2l2 4z" />
<glyph unicode="&#xfc;" horiz-adv-x="1038" d="M-39 295q0 -72 22.5 -142.5t88.5 -123.5l16 -6q82 -66 149.5 -91.5t145.5 -25.5q8 2 12 2h29q4 0 9 -1t9 -1h72v4q117 6 198 71.5t136 163t91 216t65 233.5h-3q29 100 52.5 210.5t33.5 211.5q0 39 -1 64.5t-11 66.5q-20 33 -65 52.5t-82 25.5q29 29 28 71v7q-6 59 -59 98 t-133 39h-8q-109 0 -160 -58q-25 27 -64.5 42.5t-93.5 15.5h-2q-86 0 -138 -40t-52 -106q10 -57 60 -93t130 -38q113 0 168 56q25 -25 64 -40.5t90 -15.5h20q10 0 21 2l-60 -286q-4 -12 -4 -19q-2 -8 -2 -16q-2 -4 -2 -13q-6 -39 -16 -89t-29 -126q-12 -53 -27.5 -109 t-31 -106.5t-30.5 -90.5t-30 -58l-61 -80l4 2q-14 -10 -33.5 -15t-39 -8.5t-35 -4.5t-23.5 -1h-8q-8 0 -22.5 4.5t-28 12.5t-23.5 20.5t-10 28.5q0 6 2 12q0 37 10 84t27 107l50 169l37 119l25 80l17 49q2 4 3 8.5t3 8.5q10 33 12 44t4 36q2 20 6 67v6q0 27 -18.5 53.5 t-45 47t-57 36t-55.5 21.5q-49 0 -89 -26.5t-93 -106.5v-20q-10 -20 -19.5 -52t-19.5 -73l-8 -29l-4 -12l-4 -13h2l-40 -140q-15 -52 -25 -91l-17 -77l-19 -95q-4 -31 -7 -62.5t-3 -66.5zM504 172h2l2 4z" />
<glyph unicode="&#xfd;" horiz-adv-x="944" d="M-63 997q0 -35 10 -64.5t24 -53.5q23 -37 47.5 -93.5t46 -118t39 -120t25.5 -96.5l-66 -385q2 -63 60 -105l20 -20q100 -37 144 -37q39 0 63.5 12t40 40t24.5 71t19 104l23 116q12 65 35 150q8 45 16 70t33 55q59 90 153 196.5t240 242.5q8 2 16 10l-4 -2q20 16 48 44.5 t28 67.5v23l-25 47l-4 -2q-20 27 -55 41t-74 14q-70 0 -116 -53l-190 -207q-91 -102 -171 -203l-12 34l-13 36l-4 -2l2 2v2v4q-37 92 -78.5 178t-101.5 131q-35 10 -80 11q-33 0 -64.5 -6.5t-53.5 -22.5h2q-27 -16 -37 -43t-10 -59v-9zM299 1157q0 -47 21.5 -64.5 t68.5 -33.5l19 -6h8q18 0 42.5 9t63.5 56q4 4 20 17l36 28q2 2 2 0l2 2l4 4q31 23 52 40.5t36.5 36t28 42t22.5 58.5v2q2 6 3 13t1 30q0 59 -28.5 84.5t-77.5 25.5q-27 0 -56.5 -11t-60.5 -28q-25 -16 -50.5 -43.5t-50 -59.5t-46 -64.5t-35.5 -59.5q-25 -47 -25 -78z" />
<glyph unicode="&#xfe;" horiz-adv-x="917" d="M-43 72q12 -43 25 -66q2 -35 32 -39q2 0 3 -1t3 -1q6 -4 19 -4l113 -37h55q12 16 29 41v-2q20 27 27 41t11 55v4q0 16 2 25h7q125 16 205.5 37.5t156.5 56.5q172 78 270.5 171t98.5 227q-10 98 -60.5 163.5t-158.5 116.5q-53 23 -136.5 43.5t-171.5 32.5l13 49l6 33 q0 35 -14.5 65.5t-38 54t-55 38t-66.5 14.5h-6q-18 10 -41 10q-45 0 -85 -75.5t-78 -220t-79 -354.5t-86 -478zM344 354l18 90l21 101q10 49 19.5 89t13.5 54q53 -2 125.5 -12t126.5 -35q8 -16 28 -20q2 0 2 -3h2q23 -27 23 -40q0 -27 -29.5 -53.5t-79 -54.5t-115 -56.5 t-137.5 -55.5z" />
<glyph unicode="&#xff;" horiz-adv-x="944" d="M-63 997q0 -35 10 -64.5t24 -53.5q23 -37 47.5 -93.5t46 -118t39 -120t25.5 -96.5l-66 -385q2 -63 60 -105l20 -20q100 -37 144 -37q39 0 63.5 12t40 40t24.5 71t19 104l23 116q12 65 35 150q8 45 16 70t33 55q59 90 153 196.5t240 242.5q8 2 16 10l-4 -2q20 16 48 44.5 t28 67.5v23l-25 47l-4 -2q-20 27 -55 41t-74 14q-10 0 -17 -1t-16 -3q10 25 11 45v4q-6 59 -59.5 98t-133.5 39h-8q-109 0 -160 -57q-25 27 -64.5 42t-92.5 15h-2q-86 0 -138.5 -38.5t-52.5 -104.5q12 -57 60.5 -94t130.5 -37q55 0 99 14.5t68 42.5q25 -27 64 -42t90 -15 q43 0 76 8l-175 -192q-83 -94 -157 -187l-12 34l-13 36l-4 -2l2 2v2v4q-37 92 -78.5 178t-101.5 131q-35 10 -80 11q-33 0 -64.5 -6.5t-53.5 -22.5h2q-27 -16 -37 -43t-10 -59v-9z" />
<glyph unicode="&#x152;" horiz-adv-x="2424" d="M-29 414q0 -23 2 -33v2q4 -41 20.5 -91t63.5 -126h-2l21 -32l20 -30q4 -6 8.5 -11t8.5 -11v4q70 -80 168 -124t239 -66h-4q45 -10 88 -13.5t94 -3.5q123 0 226.5 23.5t185.5 70.5l29 -20l20 -14q41 -33 80 -58.5t72 -25.5q49 0 87 5t83 13q10 2 22 4l25 4h6l633 90 q49 4 71.5 12.5t30.5 16.5q16 16 23.5 32.5t7.5 47.5q0 8 -1 20.5t-5 49.5h-27q-25 16 -59.5 24t-69.5 12q-10 0 -18 2q-31 0 -56.5 -2t-48.5 -6q-25 -4 -48 -6t-46 -2h-14q-4 0 -7.5 1t-7.5 1h-14q-10 0 -25 -2h2q-29 -2 -63.5 -5t-56.5 -3q-18 -2 -39 -2q-18 0 -39 -2 q-55 -4 -110.5 -7t-106.5 -10l-4 2q4 29 13 78t21 103l24 100q11 47 19 72h29q14 -2 27 -2h24h43q33 0 68 1t79 4t103.5 8t145.5 13q10 0 31.5 1t43.5 3q20 2 37 3t23 1q37 4 58.5 16.5t31.5 30t13 37t3 37.5v47q-6 29 -25.5 45.5t-46 24.5t-59.5 10t-67 2h-230h-143 q-72 0 -121 6l-2 5q4 18 13 54l21 77l23 82l23 73q14 2 22 2q10 0 19 2q14 2 26.5 3t34.5 1h82l387 17h76q16 0 24.5 1t16.5 7h-6q4 0 8 2l-2 -2l2 2q57 16 76.5 42t19.5 54v27q-12 27 -27.5 43t-37 25.5t-54 14.5t-79.5 9q-29 2 -62 3t-67 3q-51 2 -105.5 5t-106 5.5 t-97.5 3.5t-78 1h-160h-39q-20 0 -43 2q-84 0 -123 -13.5t-61 -60.5q-59 47 -119 69.5t-113 30.5h-141q-143 -16 -246.5 -40.5t-169.5 -61.5l-83 -49l-52 -31q-2 -2 -4 -3t-4 -3l4 2q-92 -68 -168 -157t-128 -187t-81 -201.5t-29 -200.5v-30zM330 348q2 63 22.5 140t57 158 t87 159t114 143.5t137 113.5t155.5 66q20 6 44 10.5t52 4.5q55 0 103 -33l-2 2q45 -33 68.5 -97.5t33.5 -129.5v2q2 -16 3 -32.5t1 -33.5q0 -6 -1 -12t-1 -12v-21l-24 -147v4q-25 -96 -71 -189.5t-117.5 -168t-168 -123t-219.5 -52.5q-20 0 -53 13.5t-68 29.5 q-72 23 -109.5 78t-41.5 127h-2z" />
<glyph unicode="&#x153;" horiz-adv-x="1939" d="M-49 334q6 -41 18.5 -85t50.5 -110v2q10 -18 17.5 -29.5t15.5 -21.5q2 -6 8 -12q59 -72 143.5 -110t207.5 -58h-2q35 -8 70.5 -10t78.5 -2q188 0 326 71q6 -4 12 -9t14 -11q35 -29 71 -50.5t67 -21.5q39 0 65 4l55 8q6 2 13 2q8 0 14 3h-4l37 6h2l506 71q47 4 68.5 13.5 t29.5 17.5q16 16 23.5 34.5t7.5 47.5v82h-43q-23 14 -50.5 19t-52.5 10l-2 -31v31q-4 0 -6 1t-6 1q-2 0 -6 2q-25 0 -49.5 -1t-42.5 -5q-20 -4 -39 -6.5t-33 -2.5h-18h-2q0 2 -3 2h-12q-10 0 -20 -2q-4 -2 -13 -2h-10q-20 -2 -38.5 -3t-30.5 -1q-6 0 -11.5 -1t-11.5 -1h-25 q-41 -4 -81.5 -6t-79.5 -6q4 25 10 55l12 63q6 32 13.5 60.5t13.5 48.5h80q29 0 56.5 1t64 3t84.5 6l116 11q8 0 19.5 1t25.5 3h13q16 2 30 2h19q37 6 59.5 18.5t32.5 29.5t13 36.5t3 38.5v41q-18 61 -69.5 75.5t-116.5 14.5h-182h-97q-47 0 -84 2q8 37 23 89l27 93 q12 0 24 4h-2q10 2 16 2h25h66l309 12h61q14 0 24.5 1.5t20.5 7.5q53 16 72.5 44.5t19.5 59.5v25q-14 31 -28.5 47t-35 25.5t-49 14.5t-69.5 9q-43 2 -99 5t-115 5l-111 4q-53 2 -91 2h-127h-28q-14 0 -33 2q-66 0 -102.5 -9t-59.5 -38q-45 33 -89 48.5t-83 21.5h-119 q-119 -14 -204.5 -33.5t-139.5 -52.5l-71 -42q-29 -17 -43 -28q-76 -55 -137.5 -128.5t-105.5 -155.5t-67.5 -167t-23.5 -165v-25q0 -12 2 -18h-2zM291 309q6 74 40 166t91 178t135 153.5t170 90.5q37 10 72 10q39 0 65 -18q29 -23 45.5 -71t26.5 -97v-31q0 -4 1 -6t1 -6 t-1 -6t-1 -6v-19l-18 -119v4q-18 -74 -53.5 -144.5t-89.5 -127.5t-125.5 -94t-164.5 -39q-14 0 -37.5 9t-50.5 24q-47 12 -73.5 54t-32.5 95z" />
<glyph unicode="&#x178;" horiz-adv-x="1179" d="M-45 1221q0 -37 14.5 -74t32.5 -72q29 -43 58.5 -113.5t57 -147.5t48 -150.5t31.5 -122.5l-84 -488q2 -63 67 -106l21 -21q104 -39 157 -39q39 0 62.5 14.5t39 45t26 79t22.5 115.5l29 147q16 83 45 189q6 31 11 53.5t13 42t20.5 40t32.5 46.5q74 109 190 240t298 301 q8 4 11 7l7 7l-4 -2q23 18 53.5 47t30.5 66v39q-2 0 -2 -18l-18 34q-16 31 -57.5 48.5t-86.5 17.5q-72 0 -123 -55l-250 -278q-122 -136 -229 -271q-29 57 -61 147q-43 109 -93.5 209t-115.5 152q-23 6 -45.5 9t-38.5 3q-35 0 -70 -5t-57 -24h2q-29 -18 -37 -43.5t-8 -58.5 v-10zM197 1534q14 -59 66 -97t138 -40q82 0 138.5 26.5t70.5 73.5q18 -45 67.5 -71.5t125.5 -28.5q92 0 153.5 35.5t61.5 97.5v4q-6 59 -62.5 100t-144.5 41h-10q-78 0 -130.5 -27.5t-64.5 -74.5q-20 45 -70.5 73.5t-129.5 28.5h-5q-92 0 -148 -37.5t-56 -103.5z" />
<glyph unicode="&#x2c6;" horiz-adv-x="698" d="M68 1321q0 -16 2 -33.5t12 -34.5q35 -70 96 -69q39 0 86 39l35 34q8 8 14 15.5t13 13.5l10 10q6 6 12 15q33 -6 60.5 -21.5t74.5 -50.5q14 -10 28.5 -16t37.5 -6q31 0 61 24q25 18 37 47t12 64q0 20 -7 41.5t-13 46.5h2q-12 25 -23.5 36t-27.5 21l-15 -53 q-4 8 -24.5 38.5t-52 62.5t-73.5 57.5t-89 25.5h-6q-41 0 -66.5 -23.5t-38.5 -80.5q0 -4 -12 -11.5t-29 -15.5l-34 -19q-16 -9 -27 -24q-23 -23 -39 -57.5t-16 -75.5z" />
<glyph unicode="&#x2dc;" horiz-adv-x="913" d="M150 1280q0 -41 32.5 -70.5t85.5 -29.5q37 0 59.5 16t45.5 39l14 14l4 -4q23 -25 58.5 -49.5t103.5 -24.5q109 0 171 43t73 166v6q0 37 -38 65t-79 28q-33 0 -61.5 -14.5t-45.5 -45.5q-8 -12 -8 -24q-2 -4 -2 -9v3q0 -2 -2 -3l-1 2q-1 1 -1 3h-2v2l-23 32l-30 41v-20 q-16 10 -39 17t-51 7q-37 0 -82 -16t-85 -42t-67.5 -59.5t-29.5 -66.5v-6z" />
<glyph unicode="&#x2000;" horiz-adv-x="976" />
<glyph unicode="&#x2001;" horiz-adv-x="1955" />
<glyph unicode="&#x2002;" horiz-adv-x="976" />
<glyph unicode="&#x2003;" horiz-adv-x="1955" />
<glyph unicode="&#x2004;" horiz-adv-x="651" />
<glyph unicode="&#x2005;" horiz-adv-x="487" />
<glyph unicode="&#x2006;" horiz-adv-x="325" />
<glyph unicode="&#x2007;" horiz-adv-x="325" />
<glyph unicode="&#x2008;" horiz-adv-x="243" />
<glyph unicode="&#x2009;" horiz-adv-x="391" />
<glyph unicode="&#x200a;" horiz-adv-x="108" />
<glyph unicode="&#x2010;" horiz-adv-x="1099" d="M27 563q0 -12 2 -18v-8q0 -6 1 -11.5t5 -15.5l-2 6q6 -18 13 -42.5t24 -43.5l-2 4q23 -33 69.5 -44t112.5 -11h49q14 0 28.5 1t30.5 1q8 0 17.5 1t17.5 1q18 2 37 3t37 1h4q12 0 65.5 1t117 3t119.5 5t73 7h35q53 0 81.5 3.5t53.5 19.5q31 14 39 29.5t8 48.5l-10 20h2 q-10 23 -19.5 40.5t-25.5 27.5h2q-59 55 -146.5 69.5t-185.5 14.5h-88q-10 0 -23.5 -1t-23.5 -1q-10 -2 -21 -2h-16q-47 0 -104.5 -1t-110.5 -3t-95 -5.5t-61 -5.5v2q-53 -10 -81.5 -23t-28.5 -65v-8z" />
<glyph unicode="&#x2011;" horiz-adv-x="1099" d="M27 563q0 -12 2 -18v-8q0 -6 1 -11.5t5 -15.5l-2 6q6 -18 13 -42.5t24 -43.5l-2 4q23 -33 69.5 -44t112.5 -11h49q14 0 28.5 1t30.5 1q8 0 17.5 1t17.5 1q18 2 37 3t37 1h4q12 0 65.5 1t117 3t119.5 5t73 7h35q53 0 81.5 3.5t53.5 19.5q31 14 39 29.5t8 48.5l-10 20h2 q-10 23 -19.5 40.5t-25.5 27.5h2q-59 55 -146.5 69.5t-185.5 14.5h-88q-10 0 -23.5 -1t-23.5 -1q-10 -2 -21 -2h-16q-47 0 -104.5 -1t-110.5 -3t-95 -5.5t-61 -5.5v2q-53 -10 -81.5 -23t-28.5 -65v-8z" />
<glyph unicode="&#x2012;" horiz-adv-x="1099" d="M27 563q0 -12 2 -18v-8q0 -6 1 -11.5t5 -15.5l-2 6q6 -18 13 -42.5t24 -43.5l-2 4q23 -33 69.5 -44t112.5 -11h49q14 0 28.5 1t30.5 1q8 0 17.5 1t17.5 1q18 2 37 3t37 1h4q12 0 65.5 1t117 3t119.5 5t73 7h35q53 0 81.5 3.5t53.5 19.5q31 14 39 29.5t8 48.5l-10 20h2 q-10 23 -19.5 40.5t-25.5 27.5h2q-59 55 -146.5 69.5t-185.5 14.5h-88q-10 0 -23.5 -1t-23.5 -1q-10 -2 -21 -2h-16q-47 0 -104.5 -1t-110.5 -3t-95 -5.5t-61 -5.5v2q-53 -10 -81.5 -23t-28.5 -65v-8z" />
<glyph unicode="&#x2013;" horiz-adv-x="1177" d="M18 692q0 -92 93 -160q18 -6 44.5 -10t45.5 -4h14h10q6 0 17 4q37 12 86 19.5t98 13.5l43 6q29 2 59.5 7t53.5 12h-2q29 6 71.5 8t93.5 6l68 4q33 2 68 6q53 2 99 4t75 6q37 6 79 21.5t64 56.5h-2q10 18 16.5 35.5t6.5 40.5q0 33 -20.5 61.5t-51.5 50t-67 34t-66 12.5 q-41 0 -104.5 -4t-132 -10.5l-130 -12.5t-98.5 -10q-16 -4 -47 -5t-68 -3q-29 -2 -57.5 -3t-54.5 -4q-31 0 -54.5 -1t-36.5 -3q-39 -4 -76.5 -15t-68.5 -32.5t-49.5 -53.5t-18.5 -77z" />
<glyph unicode="&#x2014;" horiz-adv-x="1552" d="M20 698q0 -88 93 -161q18 -6 44.5 -10.5t47.5 -4.5h14q4 0 25 4h-2q45 10 129 21l176 20q25 4 49.5 5t46.5 6q14 2 25 2q12 0 22 2l67 7q28 3 62 9q20 4 59.5 7t87.5 6l103 6.5t111 5.5q33 2 61.5 3t56.5 3q37 2 68 2t49 4q35 4 78 19.5t68 56.5v2q10 16 17 32.5t7 42.5 q0 33 -21.5 62t-52 50.5t-67.5 33.5t-68 12q-27 0 -73 -2t-102 -5l-118 -6q-61 -3 -117.5 -7t-101.5 -8.5t-69 -6.5q-16 -2 -68.5 -6t-120.5 -8l-140 -8q-73 -4 -130 -6h-12q-16 -2 -27.5 -3t-22.5 -1h-38q-39 -4 -78 -16.5t-70 -34t-49.5 -53.5t-18.5 -77z" />
<glyph unicode="&#x2018;" horiz-adv-x="548" d="M57 1260q0 -45 10.5 -92.5t24.5 -93.5t30.5 -88t31.5 -75q4 -10 6 -14l6 -12l3 -6l3 -7q0 -4 4 -8l-2 2q2 0 2 -4l4 -4q4 -6 5 -12t5 -10l-2 2l34 -69q17 -34 40 -62v2q49 -63 107 -64q31 0 56.5 15.5t53.5 37.5q23 23 44.5 68t21.5 86q0 27 -27 72l4 2q-4 4 -7 8t-7 8 q-10 14 -19.5 30.5t-21.5 33.5v-19q-16 45 -27.5 91t-17.5 93q-2 4 -2 13v100q0 33 -5 65.5t-18 63.5h13l-15 18q-6 7 -12 13q-4 4 -7 10t-7 10l-2 -4q-47 41 -84 41q-20 0 -44 -6t-46.5 -15.5t-41 -20.5t-28.5 -21h2q-39 -35 -53.5 -80t-14.5 -98zM176 862v2l4 -10z M475 961v2q2 0 6 -5q-2 0 -3 1l-1 2h-2z" />
<glyph unicode="&#x2019;" horiz-adv-x="534" d="M12 895q0 -98 42 -126t120 -28q23 0 52.5 12.5t57 34t47 48t19.5 55.5q0 14 -5 27.5t-11 25.5q14 49 34.5 99.5t49.5 101.5v-2q12 18 21.5 30.5t19.5 22.5q39 41 67.5 87t28.5 118q0 33 -24.5 59.5t-58.5 46t-67.5 29.5t-54.5 10q-78 0 -131 -54t-89 -129t-57.5 -155 t-33.5 -131q-2 -8 -2 -20q0 -2 -1 -3t-1 -3v4q-2 -8 -3 -16.5t-3 -16.5l-11.5 -63.5t-5.5 -63.5zM319 961q2 0 5 -5z" />
<glyph unicode="&#x201a;" horiz-adv-x="534" d="M12 -203q0 -98 42 -125.5t120 -27.5q23 0 52.5 12t57 33.5t47 48t19.5 55.5q0 14 -5 27.5t-11 25.5q14 51 34.5 101.5t49.5 99.5v-2q12 18 21.5 30.5t19.5 22.5q39 41 67.5 87t28.5 118q0 33 -24.5 59.5t-58.5 46t-67.5 30t-54.5 10.5q-78 0 -131 -54.5t-89 -129.5 t-57.5 -154.5t-33.5 -130.5q-2 -8 -2 -21q0 -2 -2 -2v-2v2q-2 -8 -3 -16.5t-3 -16.5l-11.5 -63.5t-5.5 -63.5zM319 -137q2 0 5 -4z" />
<glyph unicode="&#x201c;" horiz-adv-x="925" d="M63 1272q0 -47 11.5 -97.5t29 -97.5t36 -90t34.5 -76l4 -9q4 -9 10 -19q0 -4 5 -9l-3 3q2 -2 3 -5l4 -4l6 -12l37 -75q18 -38 47 -66q49 -61 112 -62q57 0 96.5 31t53.5 109l-107 448q2 4 2 12q0 20 -7 64.5t-23.5 88.5t-43 78t-63.5 34q-23 0 -48.5 -6.5t-50 -16.5 t-44 -21.5t-29.5 -21.5l2 2q-41 -35 -57.5 -81t-16.5 -101zM193 872v2l4 -10zM436 1378q0 -96 37 -211.5t92.5 -216t121 -168t122.5 -67.5l113 26q10 23 11 36.5t1 27.5q0 31 -8 72t-20.5 86t-26.5 90l-27 84l2 -2q-2 6 -4 13t-4 11l2 -4q-16 72 -27 99l-16 44 q-6 12 -7 16.5t-3 8.5l2 -4q0 31 -1 56.5t-9.5 52t-27 57.5t-50.5 71v-2q-45 57 -105 58q-57 0 -104 -47h2q-35 -31 -50.5 -79.5t-15.5 -107.5z" />
<glyph unicode="&#x201d;" horiz-adv-x="927" d="M14 905q0 -98 44 -125.5t128 -27.5q33 0 77 21.5t75 55.5q0 -27 8 -44t19 -31l4 -4l6 -7l2 -4q2 -4 6 -14q49 -33 74.5 -46t56.5 -13h47q27 0 56.5 4t60.5 30l4 5l44 63.5t26 71.5q0 25 -6.5 37t-16.5 22q2 4 2 6q0 4 2 8l-2 -2l18 63q9 32 25 60q18 29 35 47q4 4 9 12.5 t9 12.5v-2l34 43q15 20 26.5 46t17.5 60.5t6 85.5q0 86 -35.5 115t-113.5 29q-53 0 -96 -13.5t-78 -48.5q-2 33 -29 59.5t-60.5 45t-69.5 29t-56 10.5q-80 0 -136.5 -55.5t-95.5 -132.5t-62.5 -157.5t-35.5 -132.5q0 -4 -1 -10t-1 -8v-8q-12 -41 -19.5 -81t-7.5 -75z" />
<glyph unicode="&#x201e;" horiz-adv-x="927" d="M14 -166q0 -98 44 -125.5t128 -27.5q33 0 77 21.5t75 55.5q0 -25 8 -43t19 -30q2 -4 10 -13l2 -4q2 -4 6 -14q49 -33 74.5 -46.5t56.5 -13.5h47q27 0 56.5 4.5t60.5 30.5l4 4l44 64t26 72q0 27 -6.5 39t-16.5 22l2 6l20 69q9 34 23 58q18 29 35 47q4 4 9 12.5t9 12.5v-2 l34 43q15 20 26.5 45.5t17.5 60.5t6 86q0 86 -35.5 115t-113.5 29q-53 0 -96 -13.5t-78 -48.5q-2 33 -29 59.5t-60.5 45t-69.5 29t-56 10.5q-80 0 -136.5 -55.5t-95.5 -132.5t-62.5 -157.5t-35.5 -132.5q0 -4 -1 -10t-1 -8v-8q-12 -41 -19.5 -81t-7.5 -75z" />
<glyph unicode="&#x2022;" horiz-adv-x="565" d="M37 662q0 -53 19.5 -96.5t52 -74t75.5 -47t90 -16.5q74 0 134.5 30.5t104.5 82t67.5 117t23.5 135.5q0 125 -69.5 188t-186.5 63q-82 0 -141.5 -34.5t-97 -90t-55 -123.5t-17.5 -134z" />
<glyph unicode="&#x2026;" horiz-adv-x="1370" d="M-63 131q0 -29 9 -51.5t23 -40.5q47 -35 89 -48.5t65 -13.5q33 0 63.5 8.5t53.5 20.5q45 25 75.5 64t32.5 86q0 94 -94 131l2 -2q-23 12 -49.5 20t-52.5 8q-29 0 -39 -2h2q-4 -2 -13 -2q-66 -12 -112.5 -55t-54.5 -102v-21zM420 125q0 -29 9 -51.5t24 -40.5 q47 -35 89 -48.5t64 -13.5q33 0 63.5 8.5t53.5 20.5q45 25 75.5 63.5t32.5 86.5q0 94 -94 131l2 -2q-23 12 -49 20t-53 8q-29 0 -39 -2h2q-4 -2 -12 -2q-66 -12 -113 -55t-55 -103v-20zM905 121q0 -29 9.5 -51.5t23.5 -40.5q47 -35 89 -48.5t65 -13.5q33 0 63.5 8.5 t52.5 20.5q45 25 76 63.5t33 85.5q0 94 -94 131l2 -2q-23 12 -49.5 20.5t-53.5 8.5q-29 0 -39 -2h2q-4 -2 -12 -2q-66 -12 -113 -55t-55 -103v-20z" />
<glyph unicode="&#x202f;" horiz-adv-x="391" />
<glyph unicode="&#x2039;" horiz-adv-x="481" d="M41 616q0 -39 13.5 -57t31.5 -31h2l193 -231l10 -12l2 -2q18 -27 41 -41l8 -6v2q8 -4 31 -9h24q31 0 57.5 20.5t51.5 80.5h-2q4 6 6 13t4 11q0 2 1 5t1 6v12q0 25 -12 51.5t-47 56.5l4 -2l-107 127l127 84h-2q55 29 79 69t26 62q0 2 1 5.5t1 7.5q0 18 -8 28 q-12 47 -31 64.5t-60 21.5h-10q-39 0 -84 -28v2l-243 -160q-37 -16 -68 -48t-39 -75q0 -6 -1 -14.5t-1 -12.5z" />
<glyph unicode="&#x203a;" horiz-adv-x="481" d="M8 342q0 -16 6 -31q12 -47 32 -63.5t60 -20.5h11q41 0 84 29v-2l241 158q39 16 70 48t39 77q0 6 1 14t1 12q0 37 -13.5 55.5t-33.5 30.5l-193 234l-10 10q-10 14 -20.5 24.5t-24.5 18.5l-6 8v-4q-8 4 -15.5 5t-15.5 5h-24q-31 0 -57.5 -20.5t-51.5 -79.5q-8 -20 -8 -25 q0 -2 -1 -5t-1 -5v-12q0 -25 12 -51.5t47 -57.5l-4 2l107 -129l-127 -82h2q-55 -29 -79 -68.5t-26 -62.5q0 -2 -1 -5t-1 -7z" />
<glyph unicode="&#x205f;" horiz-adv-x="487" />
<glyph unicode="&#x20ac;" horiz-adv-x="1280" d="M-82 451q6 -47 15.5 -80t25.5 -56q23 -29 55 -41q6 -37 15.5 -67.5t27.5 -63.5l47 -55l-2 2q39 -53 89.5 -89t105.5 -59.5t115.5 -39t119.5 -23.5l67 -8q34 -4 75 -4q80 0 149.5 13.5t134 40t127 65.5t127.5 88q41 35 58.5 55.5t29.5 40.5q0 141 -124 141q-2 0 -21.5 -4 t-47.5 -13t-58.5 -23.5t-51.5 -32.5q-51 -27 -113.5 -54.5t-164.5 -56.5q-6 -2 -21.5 -3t-44.5 -1t-76 9t-133 44q-23 20 -41 43t-34 51h45q45 0 97 1t99 2t82 3.5t47 4.5q39 0 67 2t46 5t31.5 8t23.5 13q31 14 39 29.5t8 48.5l-10 21h2q-10 23 -19 40t-26 27h2 q-59 55 -146 69.5t-186 14.5q-59 0 -92 -1t-51 -3h-41l21 41q6 20 8 22v3q0 2 2 6q14 0 27.5 1t27.5 1h4q12 0 65.5 1t117 3t120 5t72.5 7h35q53 0 81.5 3t53.5 20q31 14 39 29.5t8 47.5l-10 21h2q-10 23 -19.5 40t-25.5 28h2q-59 55 -146.5 69.5t-185.5 14.5h-78l33 35 l33 34q53 57 113.5 96t125.5 41l177 -127q39 -23 61.5 -34l33.5 -16t17 -6t12 -1q59 27 93 68t34 73q0 4 -1 10.5t-5 16.5l4 -8q-14 76 -64 121t-126 84q-57 31 -100 50t-77 30.5t-63.5 16.5t-60.5 5q-33 0 -81 -8t-114 -29q-143 -88 -261 -207t-204 -260h-12h-16 q-6 0 -17 -4v2q-27 -4 -47 -9t-34.5 -14.5t-21.5 -25.5t-7 -43q6 -47 15 -80t26 -55v2q0 -2 2 -4l-23 -67q-10 -32 -18 -62h-6q-27 -4 -47.5 -9.5t-35 -14.5t-21.5 -25t-7 -43z" />
<glyph unicode="&#x2122;" horiz-adv-x="1492" d="M119 1288q0 -12 6 -39.5t22.5 -57.5t43 -51.5t69.5 -21.5h8q2 0 7.5 1t9.5 1q14 4 26.5 6t28.5 7l-4 -46v3q-10 -72 -15.5 -155t-9.5 -169q-2 -14 -2 -33q0 -16 -2 -31q14 -70 50 -99.5t96 -29.5h12q72 6 104.5 53.5t48.5 104.5q-2 12 -2 23v24q0 29 3.5 59.5l7.5 65.5 q6 72 18 152t23 139h24q29 0 54.5 2t58.5 12h2q2 0 3 1t5 1l-88 -206q-41 -100 -82 -228l2 -2q-4 -12 -4 -18q0 -2 -1 -6.5t-1 -8.5t-1 -5t-1 -5v-10q0 -47 23.5 -88t91.5 -49q16 -4 26 -4h19q51 0 87 23.5t66 58.5q14 33 25 65q0 -4 1 -7t1 -7q31 -55 67.5 -75t79.5 -20 q37 0 72 12.5t55 28.5q4 4 9.5 7.5t9.5 7.5q0 2 2 2q14 14 23.5 30.5t19.5 36.5q2 -10 3 -18t3 -16q10 -66 49 -92.5t86 -26.5q31 0 66 12q100 39 110 135v13q0 2 1 3t1 5q0 20 -6 39v18q-4 20 -7 39.5t-5 43.5t-3 55.5t-1 78.5q0 14 -1 27.5t-1 25.5v113l-2 -2q0 41 6 115 q0 8 2 12v-4q4 12 4 27q2 6 3 11t3 11v29q0 10 -1 18t-3 17q-14 59 -65.5 87.5t-108.5 28.5q-55 0 -109 -28q-41 -37 -56 -68t-23 -59q-2 -6 -7 -15q-4 -12 -6 -16l-11 -20q-5 -9 -9 -19q2 4 2 10t2 10q2 10 2 25q0 12 -2 21.5l-4 19.5h-2q-14 45 -61.5 76t-100.5 31 q-35 0 -72 -14.5t-65 -47.5q-12 33 -58 72q-27 4 -51 5t-49 1q-61 0 -132 -9.5t-142.5 -23.5t-141.5 -33l-127 -34l-18 -11l4 4q-25 -14 -41 -25t-26.5 -24.5t-17.5 -34t-9 -53.5z" />
<glyph unicode="&#xe000;" horiz-adv-x="1205" d="M0 1205h1205v-1205h-1205v1205z" />
<glyph unicode="&#xfb01;" horiz-adv-x="1357" d="M858 68q6 -25 16.5 -46.5t24.5 -35.5l4 -4l6 -5q8 -8 21 -12l125 -41h55q12 16 29 41v-2q20 27 27 41t11 55l8 32l18 83l27 117l31 137l34 142l32 132q4 37 10 54.5t10 34.5l7 18q4 12 7 23.5t7 21.5v4h2q10 35 21.5 80t17.5 80q0 35 -14.5 65.5t-38 54t-55 38 t-66.5 14.5h-6q-18 10 -41 10q-45 0 -85 -75.5t-79 -221t-79 -355.5zM932 25l2 6h4zM-76 29q4 -29 16.5 -51.5t57.5 -55.5q23 -16 45.5 -21t75.5 -5q33 12 56.5 37.5t40.5 61.5t28.5 77t21.5 82l-2 -2q2 4 4 14t4 14q8 37 17.5 69t19.5 54h287q4 0 9 -1t9 -1h48 q47 0 84.5 13.5t68.5 58.5l25 90q2 4 2 18q0 35 -14.5 53.5t-47 27.5t-87 11t-132.5 2h-184q8 45 19 93l22 89l18 73q8 32 15 44q35 8 88 12.5t135 4.5h153q25 -2 50.5 -3t42.5 -1q68 0 99.5 22.5t31.5 87.5l-4 72v27q-33 33 -72 42t-84 9q-6 0 -12.5 -1t-10.5 -1h-63h-205 h-119q-41 0 -59.5 -1t-32.5 -1h-22q-12 0 -30 -1t-42 -1q-6 2 -16 2h-21q-43 0 -69.5 -15.5t-43 -40t-25.5 -56.5l-18 -66q-4 -12 -4 -17q-2 -6 -2 -12l-72 -357l-49 -243l-28 -150l-16 -81q-5 -28 -6 -36t-1 -12v-28zM307 528q0 8 6 15l33 -15h-39z" />
<glyph unicode="&#xfb02;" horiz-adv-x="1720" d="M858 59q6 -37 11 -58t20 -40v-16q57 -31 92 -40t69 -9q61 10 116.5 16t103.5 10q8 2 14 2t14 2q27 4 52.5 6t50.5 7h-2q92 10 176 22t170 33q16 33 23 52.5t7 43.5q0 55 -36.5 89t-77.5 34q-14 0 -25 -2q-8 0 -15 -1t-13 -1q-29 0 -39 -2h4q-53 -4 -92 -8t-70 -9l-61 -7 q-26 -3 -49 -5l-49 -4q-26 -2 -58 -4l2 10l164 551l6 6q4 14 12 35l14 37l7 20q16 43 30.5 88.5t14.5 86.5q0 59 -32 98t-122 39q-31 0 -68 -6q-78 -4 -115.5 -30t-51.5 -89q-14 -23 -16.5 -47.5t-2.5 -46.5l-32 -125l-24 -103l-23 -102q-11 -53 -25 -129l-21 -98l-24 -123 l-4 -13q-4 -16 -5 -28v-4q-2 -8 -3 -16.5t-3 -14.5q-4 -27 -9 -50.5t-5 -56.5zM-76 29q4 -29 16.5 -51.5t57.5 -55.5q23 -16 45.5 -21t75.5 -5q33 12 56.5 37.5t40.5 61.5t28.5 77t21.5 82l-2 -2q2 4 4 14t4 14q8 37 17.5 69t19.5 54h287q4 0 9 -1t9 -1h48q47 0 84.5 13.5 t68.5 58.5l25 90q2 4 2 18q0 35 -14.5 53.5t-47 27.5t-87 11t-132.5 2h-184q8 45 19 93l22 89l18 73q8 32 15 44q35 8 88 12.5t135 4.5h153q25 -2 50.5 -3t42.5 -1q68 0 99.5 22.5t31.5 87.5l-4 72v27q-33 33 -72 42t-84 9q-6 0 -12.5 -1t-10.5 -1h-63h-205h-119 q-41 0 -59.5 -1t-32.5 -1h-22q-12 0 -30 -1t-42 -1q-6 2 -16 2h-21q-43 0 -69.5 -15.5t-43 -40t-25.5 -56.5l-18 -66q-4 -12 -4 -17q-2 -6 -2 -12l-72 -357l-49 -243l-28 -150l-16 -81q-5 -28 -6 -36t-1 -12v-28zM307 528q0 8 6 15l33 -15h-39z" />
<glyph unicode="&#xfb03;" horiz-adv-x="2260" d="M1761 68q6 -25 16.5 -46.5t24.5 -35.5l4 -4l6 -5q8 -8 21 -12l125 -41h55q12 16 29 41v-2q20 27 27 41t11 55l8 32l18 83l27 117l31 137l34 142l32 132q4 37 10 54.5t10 34.5l7 18q4 12 7 23.5t7 21.5v4h2q10 35 21.5 80t17.5 80q0 35 -14.5 65.5t-38 54t-55 38 t-66.5 14.5h-6q-18 10 -41 10q-45 0 -85 -75.5t-79 -221t-79 -355.5zM1835 25l2 6h4zM827 29q4 -29 16.5 -51.5t57.5 -55.5q23 -16 45.5 -21t75.5 -5q33 12 56.5 37.5t40.5 61.5t28.5 77t21.5 82l-2 -2q2 4 4 14t4 14q8 37 17.5 69t19.5 54h287q4 0 9 -1t9 -1h48 q47 0 84.5 13.5t68.5 58.5l25 90q2 4 2 18q0 35 -14.5 53.5t-47 27.5t-87 11t-132.5 2h-184q8 45 19 93l22 89l18 73q8 32 15 44q35 8 88 12.5t135 4.5h153q25 -2 50.5 -3t42.5 -1q68 0 99.5 22.5t31.5 87.5l-4 72v27q-33 33 -72 42t-84 9q-6 0 -12.5 -1t-10.5 -1h-63h-205 h-119q-41 0 -59.5 -1t-32.5 -1h-22q-12 0 -30 -1t-42 -1q-6 2 -16 2h-21q-43 0 -69.5 -15.5t-43 -40t-25.5 -56.5l-18 -66q-4 -12 -4 -17q-2 -6 -2 -12l-72 -357l-49 -243l-28 -150l-16 -81q-5 -28 -6 -36t-1 -12v-28zM1210 528q0 8 6 15l33 -15h-39zM-76 29 q4 -29 16.5 -51.5t57.5 -55.5q23 -16 45.5 -21t75.5 -5q33 12 56.5 37.5t40.5 61.5t28.5 77t21.5 82l-2 -2q2 4 4 14t4 14q8 37 17.5 69t19.5 54h287q4 0 9 -1t9 -1h48q47 0 84.5 13.5t68.5 58.5l25 90q2 4 2 18q0 35 -14.5 53.5t-47 27.5t-87 11t-132.5 2h-184q8 45 19 93 l22 89l18 73q8 32 15 44q35 8 88 12.5t135 4.5h153q25 -2 50.5 -3t42.5 -1q68 0 99.5 22.5t31.5 87.5l-4 72v27q-33 33 -72 42t-84 9q-6 0 -12.5 -1t-10.5 -1h-63h-205h-119q-41 0 -59.5 -1t-32.5 -1h-22q-12 0 -30 -1t-42 -1q-6 2 -16 2h-21q-43 0 -69.5 -15.5t-43 -40 t-25.5 -56.5l-18 -66q-4 -12 -4 -17q-2 -6 -2 -12l-72 -357l-49 -243l-28 -150l-16 -81q-5 -28 -6 -36t-1 -12v-28zM307 528q0 8 6 15l33 -15h-39z" />
<glyph unicode="&#xfb04;" horiz-adv-x="2623" d="M1761 59q6 -37 11 -58t20 -40v-16q57 -31 92 -40t69 -9q61 10 116.5 16t103.5 10q8 2 14 2t14 2q27 4 52.5 6t50.5 7h-2q92 10 176 22t170 33q16 33 23 52.5t7 43.5q0 55 -36.5 89t-77.5 34q-14 0 -25 -2q-8 0 -15 -1t-13 -1q-29 0 -39 -2h4q-53 -4 -92 -8t-70 -9l-61 -7 q-26 -3 -49 -5l-49 -4q-26 -2 -58 -4l2 10l164 551l6 6q4 14 12 35l14 37l7 20q16 43 30.5 88.5t14.5 86.5q0 59 -32 98t-122 39q-31 0 -68 -6q-78 -4 -115.5 -30t-51.5 -89q-14 -23 -16.5 -47.5t-2.5 -46.5l-32 -125l-24 -103l-23 -102q-11 -53 -25 -129l-21 -98l-24 -123 l-4 -13q-4 -16 -5 -28v-4q-2 -8 -3 -16.5t-3 -14.5q-4 -27 -9 -50.5t-5 -56.5zM827 29q4 -29 16.5 -51.5t57.5 -55.5q23 -16 45.5 -21t75.5 -5q33 12 56.5 37.5t40.5 61.5t28.5 77t21.5 82l-2 -2q2 4 4 14t4 14q8 37 17.5 69t19.5 54h287q4 0 9 -1t9 -1h48q47 0 84.5 13.5 t68.5 58.5l25 90q2 4 2 18q0 35 -14.5 53.5t-47 27.5t-87 11t-132.5 2h-184q8 45 19 93l22 89l18 73q8 32 15 44q35 8 88 12.5t135 4.5h153q25 -2 50.5 -3t42.5 -1q68 0 99.5 22.5t31.5 87.5l-4 72v27q-33 33 -72 42t-84 9q-6 0 -12.5 -1t-10.5 -1h-63h-205h-119 q-41 0 -59.5 -1t-32.5 -1h-22q-12 0 -30 -1t-42 -1q-6 2 -16 2h-21q-43 0 -69.5 -15.5t-43 -40t-25.5 -56.5l-18 -66q-4 -12 -4 -17q-2 -6 -2 -12l-72 -357l-49 -243l-28 -150l-16 -81q-5 -28 -6 -36t-1 -12v-28zM1210 528q0 8 6 15l33 -15h-39zM-76 29q4 -29 16.5 -51.5 t57.5 -55.5q23 -16 45.5 -21t75.5 -5q33 12 56.5 37.5t40.5 61.5t28.5 77t21.5 82l-2 -2q2 4 4 14t4 14q8 37 17.5 69t19.5 54h287q4 0 9 -1t9 -1h48q47 0 84.5 13.5t68.5 58.5l25 90q2 4 2 18q0 35 -14.5 53.5t-47 27.5t-87 11t-132.5 2h-184q8 45 19 93l22 89l18 73 q8 32 15 44q35 8 88 12.5t135 4.5h153q25 -2 50.5 -3t42.5 -1q68 0 99.5 22.5t31.5 87.5l-4 72v27q-33 33 -72 42t-84 9q-6 0 -12.5 -1t-10.5 -1h-63h-205h-119q-41 0 -59.5 -1t-32.5 -1h-22q-12 0 -30 -1t-42 -1q-6 2 -16 2h-21q-43 0 -69.5 -15.5t-43 -40t-25.5 -56.5 l-18 -66q-4 -12 -4 -17q-2 -6 -2 -12l-72 -357l-49 -243l-28 -150l-16 -81q-5 -28 -6 -36t-1 -12v-28zM307 528q0 8 6 15l33 -15h-39z" />
</font>
</defs>
</svg>
