<?xml version="1.0" standalone="no"?>
<!DOCTYPE svg PUBLIC "-//W3C//DTD SVG 1.1//EN" "http://www.w3.org/Graphics/SVG/1.1/DTD/svg11.dtd" >
<svg xmlns="http://www.w3.org/2000/svg">
<metadata>
This is a custom SVG webfont generated by Font Squirrel.
Copyright   :  19992001 WolfBainX  Apostrophic Labs All rights reserved Email infoapostrophiclabcom or visit wwwapostrophiclabcom for more information
Designer    : WolfBainX
Foundry URL : wwwapostrophiclabcom
</metadata>
<defs>
<font id="webfontbLJwbrMy" horiz-adv-x="1286" >
<font-face units-per-em="2048" ascent="1638" descent="-410" />
<missing-glyph horiz-adv-x="714" />
<glyph unicode=" "  horiz-adv-x="714" />
<glyph unicode="&#x09;" horiz-adv-x="714" />
<glyph unicode="&#xa0;" horiz-adv-x="714" />
<glyph unicode="!" horiz-adv-x="899" d="M27 141q0 -18 10 -39q6 -23 27.5 -50t48.5 -44h6q43 -12 94 -12q33 0 57.5 2t40.5 4q27 6 54.5 21.5t49 37t38 45t22.5 46.5q2 8 3 17t1 24q0 57 -51 96l-113 67q2 -2 -11 -4t-30.5 -5t-31 -5t-11.5 -4q-70 -14 -119 -51t-69 -94q-16 -21 -16 -52zM215 563q0 -53 21 -80 l165 -71q27 10 52.5 31.5t46 46t34 50t15.5 44.5q2 8 28 78l60 168l77 214l78 216l62 171q27 71 33 80q14 16 14 37q0 16 -9 33.5t-22 30.5l-6 4q-39 41 -76.5 55.5t-76.5 14.5q-10 0 -26.5 -2.5t-37.5 -6.5q-51 -10 -84 -34.5t-53.5 -58.5t-32.5 -75t-22 -82 q-45 -186 -102.5 -358t-110.5 -352l-6 -26l-10 -39q-5 -22 -8 -45.5t-3 -43.5z" />
<glyph unicode="&#x22;" horiz-adv-x="688" d="M69 1009.5q-3 -22.5 2 -43t18 -36t42 -19.5h14q47 0 93.5 50.5t66.5 123.5l82 238q2 4 2 10q0 8 2 13l8 50q4 26 -2 47t-25.5 35.5t-58.5 14.5q-68 0 -104.5 -47t-52.5 -111q-4 -6 -3 -12t-3 -14l-58 -215q-6 -12 -8 -17.5t-8 -25.5q-4 -19 -7 -41.5zM395 958.5 q4 -20.5 19.5 -33t44.5 -14.5h8q59 0 102 55.5t64 133.5l-2 2l65 219l9 29q4 10 5 19t5 17q6 20 7 40t-7 35.5t-26.5 23.5t-51.5 8q-43 0 -70.5 -15.5t-45 -41t-28 -57t-18.5 -64.5l-63 -228l-4 -26q-8 -31 -12.5 -56.5t-0.5 -46z" />
<glyph unicode="#" horiz-adv-x="1181" d="M6 926q0 -29 10.5 -53.5t26.5 -49.5q10 -16 30.5 -30.5t46 -24.5t51.5 -17.5t46 -7.5h21q23 0 37 3.5t24 3.5q-6 -10 -6 -54v-10h-25q-6 2 -16 2h-31q-10 2 -18 3t-25 1q-51 0 -90 -24h2q-57 -37 -57 -103q0 -51 41 -98q37 -47 90 -53q31 -2 59.5 -3t48.5 -3h2 q8 -37 14 -68l9 -55q10 -49 47 -86q47 -47 86 -47q74 0 102 92l-2 -2q16 53 17 98q0 10 -1 20.5t-3 20.5l-4 18q51 14 198 15q20 0 21 -17q0 -4 -1 -11t-1 -15v-23q0 -16 2 -35.5t10 -48.5q6 -29 13 -44l12 -25q6 -10 21 -23.5t32.5 -26t34 -20.5t24.5 -8q18 0 39 12 t38 30.5t28.5 41t11.5 41.5v147q0 2 -1 10.5t-1 14.5q-2 2 -2 10h65q25 4 48.5 20.5t52.5 44.5q25 31 39 58.5t14 56.5q0 14 -8 33.5t-21.5 37t-31 29t-35.5 11.5h-146q-6 0 -6 16q0 12 6 37v6q41 10 81 14l81 9q23 4 42.5 15t35.5 40q35 47 35 82q0 41 -35 94 q-41 59 -94 59h-135q2 8 3 21.5t5 28.5q4 23 5 43t1 30q0 145 -131 146q-59 0 -90 -45q-33 -51 -35 -150q-2 -41 -6 -66.5t-8 -35.5q0 2 -35 2h-146v110q0 43 -1 66t-1 27q-25 125 -118 125q-98 0 -113 -113q-2 -10 -3 -21.5t-1 -23.5q-2 -4 -2 -25v-26q-4 -47 -6 -82 t-2 -64q-16 -6 -37 -6q-10 0 -32 2t-48 6q-35 8 -80 8q-119 1 -119 -118zM563 758q31 14 111 14q49 0 65 -6h-2v-18q0 -20 -10 -56h-133q-4 0 -9 -1t-10 -1q-2 -2 -10 -2v70h-2z" />
<glyph unicode="$" horiz-adv-x="1030" d="M6 623q0 -94 86 -156q23 -16 57.5 -33.5t86.5 -40.5q33 -14 50 -24.5t21 -14.5v-2h2q8 -18 8 -28v-168q0 -37 41 -90q39 -55 86 -56q45 0 86 60l-2 -2q35 53 35 90v192q0 -4 70 23l89 30l30 11q238 145 241 327q0 -2 1 3l3 16l-2 -2q2 8 5 19l4 11q0 104 -46 175v-2 q-35 68 -53 79h2q-92 82 -282 123l-86 4q-45 2 -86 7q-90 4 -91 14q0 14 35 43q39 39 68 41q190 31 237 31h15q57 0 92 10q25 8 51 69q20 43 21 70q0 55 -47.5 84t-96.5 29h-20q-18 0 -23 -2q-8 -2 -16 -2q-6 -2 -25 -2h-82v14q0 8 1 15t1 16q0 31 -3 66.5t-16 65t-39 50 t-71 20.5q-31 0 -67.5 -26.5t-42.5 -57.5v4q-4 -10 -5 -45.5t-1 -72.5v-47q0 -63 -19 -84q-35 -25 -59.5 -44.5t-42.5 -29.5q-154 -141 -154 -248q0 -96 68 -164q55 -63 244 -92q35 -6 71.5 -11t71.5 -9q33 -4 65.5 -9.5t69.5 -9.5q109 -29 109 -67q0 -6 -15 -27 q-43 -57 -84 -74q-63 -33 -110 -33t-81 6.5t-56 6.5q-4 0 -8.5 -1t-8.5 -1h-10q-23 0 -50.5 13t-57.5 32l-60 37q-31 18 -57 30q-8 4 -17 4q-20 0 -40.5 -18t-43.5 -43q-47 -59 -47 -102z" />
<glyph unicode="%" horiz-adv-x="1990" d="M33 1022q0 -66 29.5 -125t76.5 -98q49 -41 114.5 -59.5t137.5 -18.5q53 0 107 6q92 18 157.5 47l124.5 57l23 12q10 5 22 9h-2q86 39 119 114.5t33 161.5q0 59 -12 113l-2 2q-12 55 -45 92t-76 61.5t-91 41.5l-94 30q-37 10 -67.5 13.5t-59.5 3.5q-88 0 -159.5 -32 t-129 -81t-101.5 -111.5t-77 -123.5q-28 -64 -28 -115zM242 2q0 -49 34.5 -76.5t88.5 -27.5q39 0 83 20.5t78 63.5l464 566q232 278 501 558q20 23 37 35l35 26q29 20 57.5 45t52 54.5t37.5 67.5t14 85v21q0 18 -2 22q-6 47 -43 67.5t-84 20.5q-31 0 -62.5 -8t-53.5 -24 q-102 -70 -170 -153l-135 -171l-76 -100q-39 -51 -86 -99v2l-37 -40l-39 -42l-85 -91q-42 -44 -77 -91l2 2l-135 -165l-105 -132l-93 -121l-95 -129l-34 -45l-35 -45q-37 -53 -37 -96zM354 1049q0 39 15.5 65.5t37 47t47.5 34.5l46 27q6 4 24 4q20 0 46 -8.5t48.5 -22.5 t39 -33.5t16.5 -40.5q0 -12 -6 -20l-2 -2q-14 -29 -45 -48.5t-68 -31.5t-75 -17.5t-64 -5.5q-23 0 -38.5 6.5t-19.5 24.5q0 4 -1 9.5t-1 11.5zM956 238q0 -86 48.5 -157t146.5 -99q92 -33 201 -33q135 0 250.5 48t193.5 122q31 29 62.5 65.5t57.5 79.5t41 93.5t15 105.5 q0 80 -26 139q-39 92 -125 125t-197 33q-61 0 -120.5 -6t-114.5 -15q-63 -8 -125 -35.5t-116 -70.5t-96 -99.5t-67 -123.5q-12 -47 -18.5 -83t-10.5 -89zM1249 340q0 27 11.5 53.5t29 50t40 40t46.5 24.5q20 8 56 10t71 2h78q18 0 32.5 -12t24.5 -43q6 -18 7 -31 q0 -53 -31 -105.5t-84 -74.5q-25 -10 -57.5 -20.5t-79.5 -10.5q-12 0 -31 3t-36 8.5t-30.5 10.5t-15.5 11q-16 23 -23.5 44.5t-7.5 39.5z" />
<glyph unicode="&#x26;" horiz-adv-x="1564" d="M16 434q0 -178 111 -295q119 -123 307 -123q319 0 488 156l-4 -2q31 25 62.5 58.5t66.5 74.5q35 45 58 79l40 56l55 133q23 55 35 95q0 4 -1 5t-1 3q0 16 18.5 19t44.5 3q10 0 21.5 1t23.5 3q119 0 174.5 42t55.5 114q0 100 -35 146.5t-109 46.5q-35 0 -62.5 -5.5 t-64.5 -9.5q-2 -2 -10 -2t-12 -2q-23 -2 -41 -3t-37 -1q-25 0 -48.5 1t-51.5 1q-113 0 -152 -88q-12 -37 -18 -59.5l-10 -38.5q0 -8 -9 -35l-51 -129q-20 -49 -31 -70l-57 -77q-27 -36 -49 -60q-4 -6 -6 -6q-90 -129 -295 -129q-39 0 -63.5 17.5t-24.5 47.5q0 43 31 111 q57 94 94 131l67 63q29 26 41 42q35 33 109 73q4 2 5 3t5 3q8 2 25 12l35 19l40 22q20 11 35 17q31 23 43.5 44.5t12.5 45.5q0 186 -170 187q-35 0 -127 -46l2 2q-33 -12 -51.5 -18t-24.5 -10q2 2 2 6q0 12 -5 32.5t-5 45.5q0 33 17 66.5t77 62.5q47 23 92 28t84 5h53 q33 0 82 -56q96 -96 148 -96q41 0 76.5 26.5t35.5 75.5q0 92 -84 189q-113 100 -182 112q-14 2 -35 8l-43 10q-23 5 -44 9t-38 4q-57 0 -111.5 -16.5t-104.5 -43t-95 -60t-84 -66.5q-143 -125 -143 -318q0 -59 8 -108t35 -100q0 -23 -17.5 -42.5t-38.5 -37.5l-39 -36 q-18 -17 -20 -34q-111 -166 -111 -334z" />
<glyph unicode="'" horiz-adv-x="382" d="M69 1009.5q-3 -22.5 2 -43t18 -36t42 -19.5h14q47 0 93.5 50.5t66.5 123.5l82 238q2 4 2 10q0 8 2 13l8 50q4 26 -2 47t-25.5 35.5t-58.5 14.5q-68 0 -104.5 -47t-52.5 -111q-4 -6 -3 -12t-3 -14l-58 -215q-6 -12 -8 -17.5t-8 -25.5q-4 -19 -7 -41.5z" />
<glyph unicode="(" horiz-adv-x="784" d="M18 719q6 -82 19.5 -159t38 -149.5t63.5 -140t97 -133.5q6 -6 13 -12t13 -12q29 -33 45 -43q57 -43 125 -43q117 0 117 114q0 63 -70 152l-65 90q-27 37 -39 59q-27 53 -41.5 110.5t-14.5 117.5q0 170 84 450l-2 -2q4 4 7 17q16 29 22 51q10 25 19.5 44t21.5 36 q39 66 98.5 139.5t141.5 146.5h-2q25 33 39 71t14 79q0 137 -139 137q-35 0 -74 -19.5t-74 -47t-62.5 -60.5t-41.5 -59q-84 -78 -150 -203q-72 -127 -92 -233q-4 -18 -10 -38t-10 -38l-30 -101.5t-28 -114t-21.5 -111.5t-11.5 -95z" />
<glyph unicode=")" horiz-adv-x="798" d="M18 168q0 -70 32 -102.5t104 -32.5q27 0 49 8t39 18q12 10 32.5 35t38.5 41l28 25q13 12 26 22l66 88l48 62l35 46q14 19 27 42q14 23 25.5 59.5t35.5 77.5q35 61 60.5 141t43 172.5t29 193.5t17.5 204l-56 182q-16 33 -49 85l-69.5 104.5t-73.5 98.5t-62 68 q-23 23 -48 31t-52 8q-115 0 -115 -116q0 -59 29 -100.5t59 -76.5q4 -8 17 -20l31 -49q16 -27 34 -62q16 -68 34 -101.5t18 -70.5q4 -18 5 -34.5t1 -38.5q0 -43 -13.5 -114t-35.5 -175q-8 -12 -11.5 -31.5t-5.5 -38t-4 -35t-8 -22.5q-27 -72 -45.5 -116t-30.5 -69.5 t-21 -39.5l-18 -27q-6 -23 -45 -66l-84 -94q-45 -51 -81 -100t-36 -80z" />
<glyph unicode="*" horiz-adv-x="921" d="M0 1225q0 -68 51 -113q57 -49 121 -49q10 0 32.5 4t35.5 4q41 0 55 -20q10 -16 10 -64q0 -16 -1 -39.5t-1 -40.5q0 -98 86 -149q8 -8 45 -8q57 0 72 88q12 109 37 139q8 -4 30.5 -13.5t61.5 -27.5q70 -35 78 -35q33 0 54 26.5t21 57.5q0 41 -57 84q-63 45 -76 72 q41 10 80 17t78 18q82 25 82 114q0 113 -119 113q-10 0 -32 -2l-44 -4l-44 -4q-22 -2 -33 -2q-57 0 -80 28q-6 18 -11.5 48t-7.5 75q-2 49 -7 80t-11 47q-25 61 -94 62q-45 -4 -73 -38t-28 -77v-17q0 -18 3 -40l8 -52q-4 -16 -19 -16l-39 42l-39 42q-49 43 -102 43 q-31 0 -53.5 -22.5t-22.5 -55.5q0 -37 55 -110q23 -27 42.5 -52.5l41.5 -52.5q-23 -23 -69 -22h-4q-37 0 -39 -3q-29 -6 -51.5 -27t-22.5 -48z" />
<glyph unicode="+" horiz-adv-x="1093" d="M0 838q0 -41 23 -90q37 -63 153 -64q12 0 40 2t44 2q76 0 76 -57q0 -35 -6 -96q-6 -66 -6 -97q0 -182 125 -182q51 0 73 25q8 10 19.5 38.5t25.5 75.5q20 76 31 123q12 72 51 123q45 61 111 61h184q57 0 98 50q33 39 33 104q0 94 -92 117q-123 16 -186 18q-92 6 -101 15 q-33 27 -32 84q0 14 3 37.5t6 50t6 50t3 38.5q0 150 -127 149q-86 0 -113 -98q-4 -23 -8 -65t-8 -101l-7 -80q-3 -33 -7 -55q-8 -57 -156 -58q-59 0 -100 -3t-64 -7q-92 -24 -92 -110z" />
<glyph unicode="," horiz-adv-x="460" d="M-55 -16q0 -47 32.5 -77t81.5 -30q18 0 43 9.5t45 31.5l-2 -4q6 6 27 34l45 62l50 70l42 57h8l5.5 37t1.5 21q0 29 -15.5 51t-42.5 43q-25 8 -37 10t-22 2h-10q-14 0 -26.5 -1t-33.5 -9v-2q-18 -14 -51 -61.5t-63.5 -98.5t-54 -94t-23.5 -51z" />
<glyph unicode="-" horiz-adv-x="1099" d="M57 563q0 -8 2 -12v-14l12 -43q7 -27 21 -43q16 -25 57 -33t101 -8q25 0 51.5 1t56.5 1l54 4q27 2 55 2h4q12 0 65.5 1t115 3t116.5 5t72 7h41q53 0 77.5 3t45.5 18q18 8 23 17t5 26l-20 43q-10 20 -21 28q-53 49 -135 62.5t-176 13.5h-88q-20 0 -42 -2t-42 -2 q-51 0 -110.5 -1t-113 -3t-93 -4t-50.5 -4h2q-41 -8 -63.5 -17.5t-22.5 -40.5v-8z" />
<glyph unicode="." horiz-adv-x="323" d="M-33 131q0 -23 7.5 -39t17.5 -31q41 -31 76.5 -42t54.5 -11q29 0 55.5 7.5t46.5 17.5q39 20 64.5 53t27.5 72q0 70 -75 100q-20 10 -43 17.5t-45 7.5q-14 0 -22.5 -1t-20.5 -3q-55 -10 -96.5 -47t-47.5 -85v-16z" />
<glyph unicode="/" horiz-adv-x="1499" d="M-61 131q0 -16 5 -28.5t13 -26.5q49 -70 143 -70q47 0 90 25q41 29 74 67.5t55 61.5q6 10 15.5 17t13.5 16l-2 -7l1051 1102q12 10 28 33v-4q31 29 52.5 51.5t21.5 58.5q0 10 -1 20.5t-9 22.5v-2q-23 33 -44.5 44.5t-60.5 19.5h-12q-6 0 -11 1t-11 1q-55 0 -106.5 -21.5 t-97.5 -55.5t-87 -74t-74 -76l-897 -955l-42 -43q-26 -27 -49.5 -57.5t-40.5 -62t-17 -58.5z" />
<glyph unicode="0" horiz-adv-x="1058" d="M4 422q0 -100 31 -179t108 -143q98 -92 238 -92q145 0 307 96q133 74 212 175.5t130 250.5v-2q53 135 53 232q0 57 -28 137q-29 63 -61.5 92t-78.5 58h3q-4 4 -9.5 5t-9.5 5q-68 43 -135.5 67.5t-138.5 24.5q-131 0 -269 -82q-154 -92 -232.5 -216t-107.5 -298 q-12 -65 -12 -131zM223 524q0 57 33 146q25 55 61.5 98t80.5 72.5t94.5 45t101.5 15.5q10 0 22.5 -1t22.5 -3q47 -6 88 -26.5t70.5 -52.5t47 -74t17.5 -89q0 -49 -20 -100v-2q-10 -29 -23.5 -51.5t-31 -42t-37.5 -37.5l-45 -39q-59 -53 -112.5 -76.5t-119.5 -23.5h-22 q-59 4 -94 19t-70 56q-64 70 -64 166z" />
<glyph unicode="1" horiz-adv-x="471" d="M8 844q0 -41 21.5 -78t46.5 -51q4 -6 30 -6q23 0 40.5 9t33.5 21q6 4 11.5 8.5t9.5 8.5q-2 -27 -9.5 -60.5l-15.5 -66.5t-10 -54v3q-12 -80 -27.5 -141.5t-32.5 -119.5q-16 -55 -29.5 -112.5t-27.5 -141.5v-14q0 -53 27.5 -66.5t68.5 -13.5h45q37 16 58.5 32.5t32 37 t14.5 48.5t8 71q2 20 10 62l19 93q4 25 10 49.5t10 47.5q8 45 16 78l13 62q6 28 12 52.5t15 52.5q12 45 27 110l40 169v4q16 49 17 78q0 59 -34 93t-75 34q-37 0 -76 -27q-31 -29 -55 -45l-47 -31q-4 -4 -8 -5t-9 -5l-18 -12l-73 -51.5t-77 -69.5q-8 -14 -10 -26.5t-2 -26.5 z" />
<glyph unicode="2" horiz-adv-x="1077" d="M16 197q0 -16 1 -30.5t8 -31.5h-2q16 -49 42.5 -87t75.5 -38q10 0 17.5 1t13.5 3q80 23 138.5 30t111.5 7q49 0 104 -6q12 -2 25 -2q14 0 27 -2q14 -2 26 -2q14 0 31 -2q14 0 26.5 -1t28.5 -3q14 -2 29 -5l35 -8l-2 3q37 -14 67 -15q55 0 94 53q20 29 34 63t14 64 q0 57 -52 78q-88 31 -174 42t-168 11q-47 0 -92 -3t-84 -7l31 31q4 4 12 8q63 47 133 80t137.5 61.5t130 58.5t116 69.5t94 93t65.5 131.5h-2q14 41 14 76q0 63 -28.5 109t-77.5 75v-2q-16 10 -29.5 13t-23.5 5q-6 0 -11 2q-27 10 -65 10q-45 0 -102.5 -11t-114 -26.5 t-103.5 -32t-71 -28.5v4q-41 -4 -102.5 -37.5t-118 -81t-96.5 -97.5t-40 -87q0 -12 8.5 -30.5t22.5 -35t30.5 -27.5t35.5 -11q2 0 3 -1t5 -1h-2q6 -2 12 -2h14q35 0 52.5 17t33.5 40q2 2 3 4t3 4q10 14 31 25q8 4 11.5 7t11.5 7l28.5 19.5t22.5 13.5q4 4 7 6t7 6l-4 -2 q47 31 95 56.5t104 29.5q4 2 12 2q10 0 16 2q4 0 6.5 1t6.5 1q20 4 39.5 6t36.5 2q20 0 35.5 -4t19.5 -18v-2v-6q0 -33 -41 -54.5t-88 -37.5q-8 -4 -14.5 -6.5t-14.5 -6.5l-25 -10q-15 -6 -24 -10q-20 -10 -33.5 -15.5t-30.5 -13.5q-16 -6 -29 -13l-26 -13 q-51 -23 -91 -44.5t-93 -56.5q-14 -8 -26.5 -14t-20.5 -15h4l-53 -34q-25 -16 -48.5 -36t-48 -44.5t-55.5 -59.5q-72 -87 -72 -161z" />
<glyph unicode="3" horiz-adv-x="1026" d="M16 207q0 -10 4 -17q23 -53 48.5 -86.5t56.5 -56t67.5 -39t83.5 -35.5q88 -27 187 -26q82 0 164 20.5t152.5 59.5t123.5 91t78 118q57 117 57 225q0 31 -6 63.5t-20 63.5l-29 51q-12 23 -29 41q41 35 80 96.5t39 141.5q0 16 -2 34.5t-12 42.5q-20 66 -59 102t-111 46h2 q-29 6 -62.5 8t-72.5 2q-63 0 -132 -11.5t-135.5 -38t-127 -71.5t-109.5 -110q10 -53 38.5 -96.5t82.5 -43.5h8l9 3l22 8q6 4 13 8l7 4q6 4 9 5t10 5q61 41 131.5 78t136.5 37q18 0 41.5 -7.5t56.5 -25.5q-2 -16 -18.5 -37.5t-32.5 -38.5q-43 -31 -80 -40l-72 -17l-24 -6 q-61 -12 -116.5 -29.5t-96.5 -52.5q-6 -23 -8 -40.5t-2 -33.5q0 -59 29.5 -93t80.5 -34h17v-2q47 16 93 27.5t85 11.5q41 0 72.5 -12.5t43.5 -46.5q10 -31 11 -54q0 -31 -13.5 -60.5t-42.5 -51.5q-59 -41 -112 -62.5t-119 -21.5q-23 0 -48.5 2t-60.5 12q-35 8 -62.5 35 t-49.5 55q-29 35 -52.5 58.5t-56.5 23.5q-25 0 -30 -6l-40 -30q-24 -17 -45.5 -38.5t-36 -45t-14.5 -50.5v-12z" />
<glyph unicode="4" horiz-adv-x="1036" d="M4 455h8q0 -23 9.5 -51.5t21.5 -57.5t27.5 -55.5t27.5 -42.5q27 -18 54 -19q20 0 43 7q4 2 15 4t17 4q18 6 41 12t43 10q57 4 131 6t127 2h35q-8 -35 -19 -76l-22 -83h2l-6 -19q-2 -4 -3 -8t-3 -8q-2 -6 -3 -10t-1 -15q0 -2 -1 -3t-1 -3v6q-6 -23 -10.5 -43t-4.5 -43 q0 -33 12.5 -51t53.5 -18h37q4 0 6 -1t6 -1h10q39 0 65 16t54 70q20 43 29.5 95t15.5 101v-2q4 37 10.5 70t14.5 55q20 6 43 6h24q2 0 4.5 -1t6.5 -1q16 0 35.5 4t41.5 21q25 14 45.5 28.5t35 34t21.5 48t7 71.5v8q0 57 -22.5 75.5t-61.5 18.5q-12 0 -21.5 -1t-19.5 -3h4 q-4 0 -11 -1t-11 -1q-16 -4 -32.5 -6t-33.5 -2q8 49 14 78l13 55l8 46q4 24 12 63q2 16 13 26q16 23 27 44.5t11 43.5v19q-10 43 -39.5 64.5t-70.5 21.5q-23 0 -64 -18.5t-90 -47.5h31q-16 -23 -22.5 -48t-10.5 -48q-4 -25 -6 -33q-16 -41 -23.5 -74.5t-13.5 -66.5l2 2 q-2 -4 -3 -10t-3 -10q-4 -10 -6 -18.5t-4 -22.5q-8 -29 -12.5 -51.5t-14.5 -43.5q-37 -8 -83 -14t-95 -11t-98 -8t-90 -3q10 27 23 50t30 48q10 16 23.5 35.5t23.5 36.5q14 33 37 61q10 10 14 17.5l8 15.5q2 2 7 10v-2q20 29 39.5 61.5t39.5 85.5q20 37 21 64 q0 41 -20.5 69.5t-55.5 43.5q-6 0 -8 2h2q-8 2 -33 2q-88 0 -139 -138q-12 -39 -22.5 -59t-22.5 -39q-4 -6 -6 -8t-6 -10l2 2l-11 -16l-10 -15q-4 -6 -7 -11l-7 -12l-2 3q-33 -61 -56 -91q-45 -68 -80.5 -133t-62.5 -155z" />
<glyph unicode="5" horiz-adv-x="942" d="M10 199q0 -35 12.5 -72l24.5 -70q31 -59 110 -86.5t179 -27.5q70 0 131 12h-2q104 14 189 51t167 133q45 45 73 90t52 111h2q23 80 23 137q0 80 -31 146.5t-82 109.5q-63 53 -135 71.5t-143 18.5q-53 0 -98 -7l-83 -13q4 18 13.5 35.5t19.5 33.5q37 2 78 7.5t88 15.5 q10 2 18 2t19 2l37 6h-2q2 0 4 1t4 1q8 2 14 2h101q35 0 64.5 4.5t60.5 18.5q37 16 59 59t22 82q0 41 -26 64q-37 51 -109 51q-31 0 -58.5 -6l-57.5 -13q-4 -2 -15.5 -4t-15.5 -4v2q-70 -20 -123 -28l-28.5 -3.5t-24.5 -1.5q-8 0 -16.5 -1t-14.5 -1q-61 -4 -118.5 -15 t-125.5 -46q-14 -78 -33.5 -120t-42.5 -77q-23 -39 -44 -82t-31 -126q33 -92 56.5 -123t57.5 -31q12 0 23.5 1t26.5 7q2 0 5 1t5 1q47 14 108.5 25.5t126.5 17.5h21q80 0 140 -30.5t60 -90.5q0 -12 -4 -26.5t-10 -30.5q-14 -35 -38.5 -57.5t-59.5 -46.5q-12 -4 -19 -15 q-53 -39 -105 -54t-101 -15q-25 0 -50.5 4t-54.5 10q-18 4 -27.5 17.5t-15.5 29.5v-2q-12 35 -29.5 60.5t-70.5 25.5h-17q-6 0 -16 -2q-68 -14 -92.5 -51t-24.5 -88z" />
<glyph unicode="6" horiz-adv-x="1030" d="M33 326q0 -39 5 -71t13 -65q31 -111 105.5 -173t210.5 -62q76 0 157 20q86 20 156 47t129 69t111.5 102.5t101.5 150.5v2q49 94 49 180q0 74 -29 125q-37 70 -84 95.5t-124 29.5h-21q-127 0 -247 -43t-228 -102q12 16 28.5 34.5t34.5 36.5l11 11q8 6 24 22 q59 61 119.5 91t130.5 46q25 6 49.5 18.5t47 30t40 39t23.5 44.5l14 -13q-2 10 -4 19l-4 16v6q0 8 -2 16.5t-4 12.5l-4 -4q-16 43 -43 61.5t-58 18.5q-14 0 -30.5 -2t-36.5 -9l-75 -21q-32 -9 -59.5 -21.5t-56.5 -28.5l-65 -39q-72 -49 -128.5 -102.5t-99.5 -114t-74.5 -131 t-54.5 -154.5q-14 -51 -21 -96t-7 -92zM301 262q0 8 3 19.5t13 27.5q57 49 125 96.5t160 65.5q8 0 14 2q2 0 4.5 1t4.5 1q41 10 82 15.5t77 5.5q29 0 47.5 -6.5t18.5 -24.5v-10q-2 -16 -19.5 -38t-43 -44.5t-56.5 -45t-61 -40.5q-66 -41 -131.5 -57.5t-100.5 -16.5 q-18 0 -41.5 2t-45 7t-36 14.5t-14.5 25.5z" />
<glyph unicode="7" horiz-adv-x="878" d="M49 39q23 -51 60.5 -79t74.5 -28q16 0 31.5 5.5t30.5 17.5q41 53 78 113l71 118h2l52 90h-3l103 152q49 70 100 134.5t109 128.5l129 138q33 33 60.5 77t27.5 85q0 16 -6 35q-16 47 -38 65.5t-75 18.5h-18h-11q-6 0 -16 -4l4 2q-137 -18 -240.5 -28.5t-201.5 -10.5h-33 h-14q-6 0 -15 2h2q-23 6 -49 6q-66 0 -117 -44t-51 -124v-16q0 -4 1 -9t1 -10q8 -39 24.5 -61t70.5 -22q14 0 30.5 1t32.5 5q47 14 92 17t90 3q33 0 63.5 -3t61.5 -7q-33 -53 -66 -100l-69 -95l-24 -31l-23 -32l-88 -123q-45 -63 -92 -137v2q-12 -20 -29 -36l-33 -30 l-18 -18q-31 -31 -51.5 -61.5t-20.5 -88.5v-18z" />
<glyph unicode="8" horiz-adv-x="1112" d="M-20 231q0 -39 8 -74.5t28 -70.5v2q23 -45 55.5 -72.5t72.5 -45t87.5 -25.5t100.5 -15q4 -2 16 -2q4 0 8 -2q2 0 5.5 -1t7.5 -1q31 -4 60.5 -7t59.5 -3q158 0 303.5 60.5t268.5 193.5q23 23 38 50.5t24.5 55t14.5 51t7 35.5q6 25 6 54q0 35 -8 60.5t-23.5 46t-35.5 35.5 l-40 32q-4 4 -18 16q25 27 51.5 59.5t47 69.5t33.5 77t13 83q0 49 -22 100q-47 102 -132 138t-200 36h-59q-70 -4 -136.5 -17t-127 -43t-114.5 -79t-99 -123q-61 -100 -62 -196q0 -53 23 -103l-75 -42q-34 -19 -60.5 -43.5t-49 -57.5t-41.5 -78q-20 -41 -28 -80t-8 -74z M231 315q4 49 41 67.5t82 33.5q4 2 9.5 3t9.5 3q25 6 53 18v-22l31 31q12 0 18 2q10 2 23 2q12 0 22 2q35 4 72 6t76 2q31 0 62.5 -3t60.5 -14l36 -8h-2q31 -8 57.5 -19t26.5 -34v-4q-2 -41 -28.5 -74t-65.5 -53q-72 -39 -139.5 -54.5t-132.5 -15.5q-109 0 -203 35 q-43 16 -74 40.5t-35 55.5zM451 770q8 41 41.5 66.5t81 41t102.5 23.5t104 12h6q4 0 6.5 1t6.5 1q49 0 90 -20.5t45 -44.5q-2 -31 -23.5 -52.5t-52.5 -37t-67.5 -23.5t-67.5 -14t-54.5 -10t-39.5 -4q-68 0 -118 17t-60 44z" />
<glyph unicode="9" horiz-adv-x="1071" d="M8 133q0 -57 18.5 -91t48 -52.5t66.5 -23.5t74 -7q4 0 6 -2h-2q8 -2 17 -2h18q25 -6 50.5 -8t51.5 -2q41 0 81 5t87 19q45 12 84 24.5t74 31t70.5 43t76.5 59.5q66 57 113 110.5t81 114t57.5 130t43.5 159.5v-2q10 35 13.5 70.5t3.5 72.5q0 41 -8.5 82t-28.5 86 q-25 61 -52.5 98t-82.5 78q-43 29 -89 39.5t-96 10.5q-70 0 -138 -17.5t-118 -34.5q-135 -45 -225 -125.5t-145 -207.5q-18 -39 -26.5 -77t-8.5 -73q0 -47 15.5 -85t51.5 -75q31 -33 60 -51t58.5 -28.5t62 -14.5t69.5 -6q6 -2 21 -2h14q14 -2 30.5 -3t33.5 -1q68 0 132 11 t120 30q-14 -25 -21.5 -32t-19.5 -17q-92 -88 -186.5 -117t-207.5 -29q-16 0 -35 10l-38 21l2 -4q-4 0 -4 2q-27 16 -51.5 28.5t-53.5 12.5q-47 0 -96 -41t-72 -105v-12zM360 719q0 16 17.5 35.5t40.5 36.5q57 47 147 76.5t172 29.5q31 0 56 -6q53 -10 80.5 -56.5 t33.5 -105.5q-47 -43 -130 -62.5t-169 -19.5q-66 0 -124 12.5t-93 32.5q-31 15 -31 27z" />
<glyph unicode=":" horiz-adv-x="325" d="M43 174q0 -78 42 -126t101 -48q41 0 76 22.5t60.5 58.5t40 82t14.5 93q0 92 -43 139t-113 47q-47 0 -81 -24.5t-55.5 -63.5t-31.5 -87t-10 -93zM84 801q0 -78 43 -125t102 -47q41 0 76 22.5t59.5 58t39 82t14.5 95.5q0 92 -42 138t-112 46q-49 0 -83 -24.5t-55.5 -64.5 t-31.5 -88t-10 -93z" />
<glyph unicode=";" horiz-adv-x="483" d="M16 -74q0 -47 14.5 -74.5t36 -42t48 -18.5t51.5 -4q100 0 153 109q49 104 92.5 215.5t43.5 244.5q0 35 -14.5 69t-38 59.5t-52 42t-57.5 16.5q-25 0 -51.5 -15.5t-48 -41t-36 -57.5t-14.5 -64q0 -53 -3 -101.5t-19 -91.5q-4 -8 -8 -18.5t-11 -20.5q-12 -4 -14 -18 q-2 -2 -2 -11q-6 -16 -16 -22q-23 -25 -38.5 -54.5t-15.5 -101.5zM123 823q0 -82 45 -131t108 -49q45 0 82 22.5t64 60.5t41 86t14 97q0 94 -44 142.5t-116 48.5q-51 0 -87.5 -25.5t-60.5 -65.5t-35 -89.5t-11 -96.5z" />
<glyph unicode="&#x3c;" horiz-adv-x="854" d="M6 952q0 -74 27 -127q16 -29 42.5 -69.5t67.5 -96.5l54 -73l39 -58q6 -10 11 -15t9 -13q70 -129 172 -246l18 -18l17 -17q6 -6 16 -14l76 -99q68 -72 123 -71q109 0 108 145q0 49 -49 121l2 -2q-10 18 -22 29.5t-29 31.5q-18 23 -45 50.5t-59 68.5q-47 53 -81 97.5 t-50 78.5q-6 8 -11.5 16.5t-9.5 12.5h2q-4 4 -7 8l-9 13l2 -5q-109 158 -109 172q0 29 172 183q29 27 59.5 51t59.5 51v-2l57 53l60 54q106 106 106 182q0 31 -12 58.5t-31.5 49t-44 33.5t-51.5 12q-59 0 -197 -141q-23 -23 -41 -44t-40 -42l-42 -43l-40 -41 q-41 -35 -74 -59.5t-57 -40.5l-23 -17l-14 -10q-152 -115 -152 -207z" />
<glyph unicode="=" horiz-adv-x="915" d="M20 926q6 -53 35 -100.5t60 -67.5q27 -14 98 -15h23q18 0 24 2l375 21q8 2 31 6q8 2 15 3t17 3q43 6 60 6q63 0 84.5 22.5t21.5 88.5v27q-2 2 -2 16q0 80 -96 123q-66 27 -137 26q-86 0 -191.5 -9t-234.5 -29q-10 -2 -18.5 -3.5t-16.5 -3.5q-16 -2 -24.5 -4t-18.5 -6 q-35 -12 -57 -28h2q-50 -29 -50 -78zM49 543q0 -86 74 -142q63 -51 147 -51q8 0 105 6q92 4 171 10.5t144 12.5l34 3q11 1 17 1h13q43 8 67 66v-3q16 37 17 74q0 59 -19.5 95t-58.5 59q-63 29 -162 28q-4 0 -27.5 -1t-62.5 -5l-48 -4q-24 -2 -46 -2q-25 -2 -52.5 -3 t-54.5 -5q-61 -8 -100 -12q-59 -6 -78 -13h4q-35 -8 -59.5 -42.5t-24.5 -71.5z" />
<glyph unicode="&#x3e;" horiz-adv-x="854" d="M29 1376q0 -53 41 -112l62 -73q26 -30 40 -42v2q72 -78 126 -130t91 -83l44 -33l44 -33l-4 2q49 -49 49 -53q0 -10 -25 -49l-73 -108v2q-14 -16 -24.5 -29.5t-14.5 -24.5q-37 -74 -121 -170q-70 -72 -104 -114l-45 -56q-57 -70 -58 -116q0 -49 27 -88q16 -29 37.5 -41.5 t46.5 -12.5q55 0 123 74q10 10 21 25l20 24l-2 -2q10 12 22.5 25.5t22.5 27.5q23 35 44 62l40 51l30 42q14 19 25 36v-2q16 20 28.5 39.5t26.5 36.5l75 99l61 79l28 45l17 26l11 19q5 8 13 24v-2q43 70 43 156q0 106 -143 195q-35 23 -76 53.5t-90 77.5q-27 27 -51.5 54.5 t-50.5 53.5v-2l-52 53q-135 139 -188 140q-27 0 -51.5 -13.5t-44 -34t-30.5 -47t-11 -53.5z" />
<glyph unicode="?" horiz-adv-x="1507" d="M156 135q0 -113 118 -112q74 0 150 57q78 57 100 129l-2 -2q4 10 5 18t1 19q0 45 -39 82q-45 39 -108 39q-121 0 -166 -68q-39 -39 -41 -55v2q-8 -31 -13 -57.5t-5 -51.5zM156 1325q0 -16 1 -39.5t6 -44t15 -35t29 -14.5q25 -27 57 -27q29 0 67 17.5t87 46.5 q45 29 69.5 48t28.5 21q35 12 57 24l42 20q19 9 41 15.5t53 10.5q70 10 122 15.5t89 5.5h4q266 0 266 -93q0 -8 -4 -24q-41 -121 -307 -209l-54 -17q-23 -7 -45 -12l-84 -14q-47 -8 -108 -23q-12 -4 -24.5 -6t-26.5 -6q-20 -4 -38 -8l-34 -8q-14 -4 -23.5 -6t-17.5 -5 q-47 -10 -83 -51t-50 -84q-4 -10 -7 -28.5t-5 -53.5q-2 -14 -3.5 -26.5t-1.5 -24.5v-43q0 -37 -4 -70.5t-4 -60.5q0 -31 11.5 -48t46.5 -22q16 -2 30 -2h29q72 0 91.5 21.5t19.5 75.5q0 23 3 49l7 59l14 31q10 8 21.5 15t27.5 12l19 3q18 3 39 7q72 10 152.5 35.5 t172.5 64.5q100 41 176 84t129 86q61 53 117 131q4 4 5 8t5 9l44 73q19 33 30 62h-2q8 23 10 41t2 35q0 84 -57 159q-82 102 -197 125q-41 8 -97 12.5t-132 4.5q-131 0 -190 -15h2q-203 -27 -269 -49q-324 -92 -366 -231q-2 -6 -3 -11.5t-1 -15.5z" />
<glyph unicode="@" horiz-adv-x="1914" d="M31 659q0 -88 12 -157.5t43 -122.5q12 -23 34.5 -51.5t53.5 -71.5l62 -71q27 -30 49 -44q111 -68 246 -99.5t300 -31.5q45 0 81 17.5t61.5 47t39 68.5t13.5 82q0 61 -55 97q-45 27 -101 26q-14 0 -31.5 -1t-35.5 -3q-16 -2 -34.5 -3t-29.5 -1q-82 0 -207 39 q-106 33 -163 164q-39 90 -39 180q0 43 8 70q143 684 702 690h80q39 0 72 -4t55 -11q121 -25 168 -55q94 -53 123 -88t41 -88q14 -45 14 -121q0 -27 -12 -102q-10 -100 -84 -199q-41 -49 -80 -75.5t-82 -26.5q-53 0 -53 114q0 96 18 195q2 10 7.5 31.5t15.5 52.5 q16 39 20.5 61.5t4.5 32.5q0 80 -105 127q-35 16 -70.5 23.5t-76.5 7.5q-35 0 -81 -8.5t-97 -28.5h2q-53 -16 -95.5 -35.5t-70.5 -42.5h2q-51 -33 -95.5 -84t-78.5 -117q-47 -78 -74 -154.5t-16 -148.5q18 -117 64 -184.5t101.5 -100t110.5 -40.5t92 -8q61 0 148 24 q102 29 120 29q8 0 16 -3l17 -7l19 -7h-2q25 -12 50 -21t54 -9q104 -2 162.5 13t103.5 44q152 94 246 272q41 82 59.5 171t20.5 184v88q0 20 -2 30q0 98 -49 179q-4 4 -6 9t-7 11q-14 29 -24 46.5t-17 25.5q-47 76 -120.5 136t-180.5 108q-184 80 -378 79q-150 0 -326 -53 q-199 -55 -301 -145q-43 -35 -87 -83t-87 -108q-258 -357 -258 -760zM782 809q0 72 92 156q94 86 160 86h2q0 -35 -18 -158q-10 -55 -15.5 -90t-9.5 -47l-22 -10l-33 -13v2q-37 -10 -55 -16l-19 -6q-35 0 -58.5 30.5t-23.5 65.5z" />
<glyph unicode="A" d="M10 12q0 -23 11.5 -42t30 -32.5t40 -20.5t41.5 -7q53 0 96 21.5t72 84.5q23 47 38 83t28.5 63.5t28 50.5t34.5 43l8 2h23q4 0 6 1t6 1q49 2 111 6l174 8q88 4 139 5h23l14 -7h2l8 -8l4 -6l10 -61l21 -105q8 -43 20.5 -68.5t31 -40t43 -20.5t59.5 -12q12 0 27.5 4t37.5 14 q35 14 50.5 46t15.5 67q0 29 -11 53l-2 4q-170 1219 -239 1245l-30 8q-13 3 -36 3h-6v2q-96 -14 -153.5 -37t-92.5 -53.5t-56 -71.5l-46 -90l-46 -92q-26 -49 -59 -99l-113 -185l-124 -208l-117 -209q-55 -102 -94 -186q-14 -35 -21.5 -63.5t-7.5 -63.5v-27zM535 498v8 l264 440l14 6l21 -4l10 -10l53 -438l-4 -8l-14 -15h4l-9 -4h-321l-6 2z" />
<glyph unicode="B" horiz-adv-x="1380" d="M55 141q0 -23 2 -26v-4q2 -41 10.5 -72t24.5 -39l25 -27l12 -2q53 -43 107.5 -56t105.5 -13h20q96 0 223.5 21.5t255.5 64.5t240.5 109.5t180.5 156.5q41 53 41 106q0 55 -43 105q-86 123 -226 170l-2 4l-2 23l4 6q78 33 153 69.5t132 89.5q33 29 50 63t22 62q6 25 6 52 q0 63 -39 117.5t-103.5 95t-145.5 67.5t-163 37q-66 10 -144.5 16t-164.5 6q-33 0 -66.5 -2t-64.5 -6h-4q-102 -4 -162 -106q-25 -41 -34 -63.5t-9 -35.5l-100 -388l-68 -265l-42 -169q-15 -62 -22.5 -96t-8.5 -47.5t-1 -23.5zM342 78l8 76l84 321l19 8q156 37 284 37 q168 0 258 -59q16 -8 23.5 -21.5t11.5 -23.5v-10q-12 -51 -70.5 -99.5t-136.5 -90.5t-160.5 -73.5t-144.5 -50.5q-18 -8 -48 -13t-69 -5q-14 0 -28.5 1t-30.5 3zM508 739l34 142q13 53 25.5 86.5t24.5 57.5t31 50l22 23q106 33 250 32q133 -10 188.5 -42.5t55.5 -75.5 q0 -47 -57.5 -101.5t-145.5 -99.5t-194.5 -74.5t-204.5 -29.5l-13 6l-10 10z" />
<glyph unicode="C" horiz-adv-x="1249" d="M8 350q0 -16 2 -22q4 -55 13.5 -93t27.5 -73l45 -53q74 -98 184.5 -140.5t225.5 -58.5l66 -8q34 -4 71 -4q154 0 273.5 52t246.5 148q35 29 50.5 47.5t25.5 38.5v-4q0 100 -86 101h-8q-2 0 -19.5 -4.5t-42 -12.5t-52 -20.5t-48.5 -28.5h4q-53 -29 -118.5 -58.5 t-170.5 -58.5q-18 -6 -75 -6q-33 0 -82 10.5t-142 47.5q-39 37 -72.5 81.5t-43.5 102.5v24q0 25 2 31q12 115 65 225q57 111 125 216.5t148 179.5q57 61 124.5 103t139.5 42h6l184 -133l25 -13l46 -25q26 -13 28 -13q47 23 75.5 54.5t28.5 55.5q0 8 -2 13v16q-12 53 -58 93 t-116 75q-55 29 -96 47t-73 29.5t-59.5 16.5t-58.5 5q-33 0 -78 -7t-98 -23q-127 -78 -235.5 -181.5t-191.5 -228.5t-136 -266.5t-70 -292.5v-27z" />
<glyph unicode="D" horiz-adv-x="1363" d="M25 74l2 -2q6 -55 45 -86l196 -66q47 0 90 5t72 12l4 -5l15 11q193 14 363.5 98t298.5 209t203 273.5t75 291.5q0 94 -37 181t-116 158t-203 121t-300 73h-4q-53 14 -122.5 17t-155.5 3l-134 -22q-76 -199 -86 -250q0 -10 -1 -14.5t-5 -14.5l-66 -250 q-30 -117 -54.5 -231.5t-44 -232t-35.5 -251.5v-28zM313 137q6 68 23.5 160t41 191.5t51.5 200.5l52 189l45 153q20 67 31 97h-2l8 7l17 6q180 0 288.5 -16.5t161.5 -53.5q80 -59 109.5 -111.5t34.5 -93.5l2 -14q-2 -84 -55.5 -177t-142.5 -184.5t-208 -175.5t-250 -145 q-12 -8 -64.5 -26.5t-111.5 -34.5l-12 6l-13 10z" />
<glyph unicode="E" horiz-adv-x="1329" d="M23 47q25 -16 52 -38l54 -41q27 -19 50.5 -32.5t41.5 -13.5q57 0 103.5 8.5t111.5 18.5h4l633 90q43 4 61.5 10t22.5 10q12 12 17.5 23.5t5.5 34.5v16q0 10 -2 23h-11q-20 23 -65 28.5t-80 10.5q-45 0 -94 -8.5t-97 -8.5q-8 0 -14 1t-14 1q-4 0 -22.5 -2t-43 -3t-49 -3 t-41.5 -2l-152 -8q-77 -4 -151 -15l-8 3l-19 18l-2 8q2 27 13.5 84t25 117.5t26.5 113t19 68.5l4 2h3l12 4h39q14 -2 24 -2h23h43q33 0 66.5 1t77.5 4t103.5 8.5l145.5 13.5q8 0 27.5 1t41 3t40 3t24.5 1q55 8 67.5 34.5t12.5 55.5v39q-10 41 -59.5 50t-108.5 9h-229 q-78 0 -156 1t-125 8l-14 20l-2 8q4 18 15 64l25 95l25 94q12 44 19 61h-2l6 4l10 4l35 3l23 2l24 2q12 1 33 1h82l385 16h78q18 0 20 2q6 6 8 7q47 10 63.5 29.5t16.5 37.5v17q-10 20 -22.5 32.5t-31 19.5t-47 11t-69.5 8q-53 2 -122.5 6t-141.5 7.5t-138.5 5.5t-111.5 2 h-160h-39q-20 0 -43 2q-55 0 -87.5 -6.5t-52 -26.5t-31 -58t-25.5 -102z" />
<glyph unicode="F" horiz-adv-x="1128" d="M-31 20q4 -23 15.5 -43t52.5 -49q16 -10 37.5 -15t68.5 -5q27 8 48.5 42t38 82t28.5 102l25 106q12 51 24 92t27 59q0 4 1 6t1 4l12 11l17 6h380q23 0 43.5 -1t38.5 -1q43 0 77 9t57 44l24 92q0 4 1 7t1 7q0 39 -62.5 47.5t-224.5 8.5h-303l-2 2q2 2 2 12v2q0 2 2 4 l29 143q16 79 32.5 148.5t30 117.5t17.5 50l16 16q47 12 120 19.5t198 7.5h90q49 0 106 -2q33 -2 60.5 -3t50.5 -1q53 0 76.5 14.5t23.5 59.5l-4 86v8q-18 18 -53 23t-78 5q-27 0 -54.5 -1t-53.5 -1h-256h-146q-51 0 -73.5 -1t-41.5 -1q-18 0 -45.5 -1t-91.5 -1q-10 2 -30 2 q-39 0 -61.5 -18t-37 -48t-22.5 -67l-17 -76l-90 -445l-60 -301l-37 -186l-19.5 -101t-7.5 -43t-1 -15v-19z" />
<glyph unicode="G" horiz-adv-x="1361" d="M-6 332q0 -47 10 -88l25 -84q23 -70 66.5 -108t133.5 -72v2q4 -2 15.5 -6.5t25 -8.5t24.5 -8t15 -6h2l8 -4q53 -16 107.5 -22.5t108.5 -6.5q106 0 197 22.5t149 51.5q70 27 150.5 78t150 111.5t114.5 123t45 113.5l-2 8q-2 10 -2 18v19q0 29 -8 55.5t-45 48.5 q-31 16 -87 19.5t-118 3.5h-75q-61 0 -129 -4t-129.5 -10.5t-113.5 -14.5t-85 -16l2 6q-47 -20 -69.5 -48t-22.5 -52q0 -18 11 -31.5t36 -15.5q29 -20 71.5 -27.5t94.5 -7.5q180 37 266 37q57 0 81.5 -12.5t24.5 -33.5q0 -25 -32.5 -57.5t-85 -63t-118 -57t-130.5 -39.5 q-47 -16 -103.5 -23t-99.5 -7q-29 0 -48 3t-17 9l-2 2h-9l-30.5 19.5t-35 24.5t-29.5 28.5t-15 31.5q-23 6 -31 39t-8 76q0 49 10 98.5t27 75.5q84 186 157.5 309t148.5 197t154.5 105.5t174.5 33.5h6q45 0 88 -30.5t81 -68.5l71.5 -68.5t60.5 -30.5h4l84 51l-12 78 q-2 2 -3 10q-6 29 -39.5 78t-86 97t-117 85t-131.5 41h-49q-43 0 -91.5 -3t-62.5 -13q-119 -33 -218 -103.5t-181 -164t-143.5 -201t-102.5 -214t-62.5 -205.5t-21.5 -173z" />
<glyph unicode="H" horiz-adv-x="1423" d="M29 -2q0 -25 5 -36t13 -17q27 -23 61.5 -34t71.5 -11h6q2 0 4.5 1t4.5 1l28.5 5t30.5 12t25.5 28.5t15.5 56.5l34 153l33 152q4 12 7.5 26.5t13.5 39.5l4 2l14 6q51 2 119 5t136.5 5t131 3t103.5 1l8 -4h-4l16 -16l2 -8q-6 -33 -8 -49.5t-3 -28.5t-2 -27l-3 -43l-14 -211 q18 -29 53 -50t70 -21q25 0 41 14q35 0 59 20.5t40.5 50t25 63.5t12.5 60h2l2 9v20l172 916q8 20 15 40.5t14.5 49t13.5 68.5t12 102q-8 84 -123 88h-14q-121 0 -131 -66q-33 -92 -80 -294l-117 -492l-4 -6l-8 -4l-16 -7h4l-496 -8l-18 21l-2 8q8 45 25.5 112.5t39 140.5 t47 141.5t51.5 117.5q29 41 29 70q0 31 -20.5 60.5t-55.5 39.5q-31 12 -94 12q-25 0 -45 -6l-2 6l-18 -10q-68 -12 -89.5 -63.5t-35.5 -127.5l-105 -498l-65 -320q-25 -122 -34 -182t-9 -87z" />
<glyph unicode="I" horiz-adv-x="569" d="M10 61q6 -35 31 -59l2 -2h-4q2 0 14 -8l150 -47h24l23 31q8 11 13 21.5t8 23l8 34.5q0 2 8 42t23 106l34 149l40 174l42 181l39 165q10 57 28.5 106.5t30.5 96.5q12 39 24 88l21 97q0 55 -46 96t-107 41h-29q-14 14 -31 14q-39 0 -76.5 -90t-78.5 -263t-88 -424z" />
<glyph unicode="J" horiz-adv-x="1122" d="M-18 195q0 -49 35.5 -95.5t95.5 -58.5q111 -59 214 -90t195 -31q178 0 298 116t143 355q20 100 34 178l27 140q12 86 26.5 154.5l29.5 133.5l32 135q16 69 33 156q0 55 -17 66q-35 20 -69.5 31.5t-65.5 11.5q-16 0 -26.5 -1t-20.5 -3l-37 -9q-35 -6 -57.5 -42.5t-48 -142 t-58.5 -299.5l-86 -513v-12q0 -37 -15 -81t-43 -82t-64.5 -64.5t-79.5 -26.5q-47 0 -90 35q-29 18 -63 46.5t-68.5 54.5t-71.5 45.5t-72 19.5q-37 0 -65.5 -28t-44.5 -95v-4z" />
<glyph unicode="K" horiz-adv-x="1292" d="M-20 18q6 -41 28 -63q33 -18 56.5 -23.5t46.5 -5.5h24q33 6 55.5 19.5t44 61.5t49 145.5l72.5 269.5l2 4l19 12l10 2q18 -8 57 -37.5t91 -80.5l43 -37l60 -55l56 -50q57 -47 99.5 -89t80 -75.5t76.5 -58.5t92 -37q84 37 84 100q0 35 -26.5 78t-73.5 95.5t-113 112.5 l-143 130l-92 82l-96 88q-23 2 -23 15q0 20 49 60t111.5 83t120.5 79l73 46l23 21l22 20l394 284q35 25 58.5 45.5t23.5 55.5q-4 45 -47.5 70.5t-83.5 25.5q-31 0 -63 -20.5t-85 -63.5q-18 -16 -36.5 -30.5t-39.5 -28.5l-74 -55q-24 -17 -41 -28l-36 -23l-58 -36l-409 -284 q2 6 6 23.5t8 37t7 35.5t3 18q2 27 10.5 59t18.5 66q12 41 22.5 82t10.5 84v10q0 23 -13.5 43.5t-35 37t-48 25.5t-51.5 9q-4 0 -9 -1t-9 -1h-12q-63 0 -104.5 -40t-41.5 -111v-21l-65 -298l-50 -230l-47 -211l-53 -240q-6 -35 -10 -55l-7 -37q-3 -16 -6 -35.5t-5 -52.5v-21 z" />
<glyph unicode="L" horiz-adv-x="1021" d="M8 55q4 -41 11.5 -65.5t27.5 -40.5v-6q41 -23 69.5 -29t59.5 -6q137 20 242 32l196 21q100 10 197.5 24.5t196.5 41.5q10 18 14 30.5t4 28.5q0 41 -25.5 65.5t-54.5 24.5q-10 0 -14 -2q-55 -4 -90 -6t-60.5 -4t-46 -4t-45.5 -6q-2 -2 -8 -2l-90 -11q-35 -4 -70 -7t-80 -5 t-123 -6h5l-19 6l-8 8l-6 15v4q2 2 2 10v4l8 37v4l215 717l10 10l27 73l28 75q13 38 22 75t9 68q0 47 -27.5 76.5t-101.5 29.5q-33 0 -71 -6q-74 -4 -111 -25.5t-47 -76.5v-4q-16 -23 -20.5 -51.5t-4.5 -61.5v2l-34 -139l-27 -112l-23 -104l-24 -120l-33 -158l-45 -215 l-10 -49l-11.5 -57.5t-9.5 -56.5t-4 -46z" />
<glyph unicode="M" horiz-adv-x="1705" d="M-33 8q2 -53 32 -81.5t71 -28.5h47q35 0 49 8l80 133v2l254 686l6 4l24 -4l9 -8q0 -92 1 -152.5t1 -103.5v-113q-2 -20 -3 -45.5t-1 -54.5q0 -41 4 -84t16 -78t34.5 -57.5t59.5 -22.5h8q20 0 60 17q35 14 61.5 30.5t28.5 18.5q23 35 58 101l77 149l74 142 q39 73 75.5 134.5t68.5 104.5t52 53l11 2l28 -12l2 -5l-29 -140q-13 -62 -21.5 -115.5t-12.5 -103.5t-4 -105q-2 -6 -3 -33t-1 -58v-41q0 -12 4 -28q6 -41 16 -72t33 -51l18 -19q47 -27 113 -26q14 0 39 6q55 4 64.5 23.5t11.5 48.5v43q0 154 19.5 294t57 280t93 282.5 t125.5 298.5v10q0 37 -23.5 68.5t-59.5 55t-81 40t-88 22.5q-57 0 -105.5 -42t-89.5 -89v2q-2 -2 -3 -4t-3 -4q-6 -6 -6 -10q-39 -43 -93.5 -110.5t-119 -156.5t-134.5 -199l-145 -235l-10 -6l-29 4l-6 11q2 100 5.5 167.5t6.5 118t9 93.5t14 94q6 14 12 38l13 48q6 25 9 47 t3 35q-6 31 -30.5 49t-57.5 27.5t-67.5 13.5t-61.5 6h-25q-16 0 -20 -2q-80 -4 -121 -36t-70 -85l-28 -72l-24 -56l-20 -49l-20 -50l-55 -133l-59 -152l-77 -206l-108 -298h2q-4 -10 -11 -29l-15 -43q-8 -24 -13.5 -48.5t-5.5 -43.5v-10z" />
<glyph unicode="N" horiz-adv-x="1368" d="M0 10q0 -29 13.5 -52.5t34 -40.5t47 -26.5t50.5 -9.5q41 0 73 22.5t38 76.5v10q8 23 23.5 73t33.5 116l40 145q22 78 41.5 157.5t35.5 155.5t27 137l10 8l27 2l8 -6q39 -139 81 -257t83 -208t75.5 -149.5t57.5 -79.5q47 -61 92 -89t86 -28q47 0 82 31t53 84l66 209 l34 110l19 60q6 20 14 55q4 23 13 58l20 74l20 73l17 55q6 12 17 46t23.5 82t25 102.5t18.5 107.5q16 37 28.5 81t12.5 85q0 53 -27 80l-151 22q-35 -6 -59.5 -26.5t-42 -48t-28 -61.5t-16.5 -66l-8 -39q-8 -39 -23 -102l-33 -143l-40 -165q-20 -84 -43 -166t-45 -147l-6 -4 l-27 -2q-35 80 -62.5 153.5t-49 144t-37 140.5t-27.5 145q-6 12 -7 34t-1 50v33q0 35 -2.5 72t-12.5 67.5t-30.5 51t-55.5 22.5q-109 -6 -172 -25.5t-98 -51t-49.5 -78t-26.5 -105.5l-28 -104l-25 -99l-84 -326l-57 -225l-36 -142q-13 -52 -19.5 -81t-8.5 -41t-2 -20v-17z " />
<glyph unicode="O" horiz-adv-x="1507" d="M2 414q0 -20 2 -27q6 -47 21.5 -97t56.5 -110v2q70 -115 174 -172t268 -84q45 -10 86 -13t88 -3q135 0 246 27.5t193 91.5q92 80 160.5 175t112.5 195.5t65.5 204t21.5 199.5v45q0 10 -1 22.5t-3 22.5q-4 39 -13.5 79t-27.5 77q-43 80 -91 133t-99.5 88t-100.5 52t-92 24 h-133q-141 -16 -242.5 -40t-163.5 -59l-86 -51l-49 -31q-90 -66 -162.5 -151.5t-124 -181t-79 -195.5t-27.5 -193v-30zM299 342q2 66 23.5 146.5t58.5 164.5t90 166t118.5 150.5t143.5 119t164 70.5q20 6 46 10.5t56 4.5q59 0 119 -37q51 -37 78 -108t37 -140q2 -16 3 -33.5 t1 -34.5q0 -113 -38 -241.5t-114.5 -240.5t-196.5 -187.5t-282 -81.5q-23 0 -59.5 13t-73.5 32q-82 27 -125 86t-47 133q-2 2 -2 8z" />
<glyph unicode="P" horiz-adv-x="1245" d="M-14 18q0 -16 17 -34.5t44 -35t56.5 -27.5t54.5 -11q18 0 26 4q29 6 46.5 14.5t27.5 20.5t14 31.5t9 48.5q0 53 14 104l53 273l-2 -3l2 5l19 16q78 10 140 21.5t115.5 25.5t100.5 31.5t92 38.5q197 88 309.5 188t112.5 240q-10 104 -64.5 176t-171.5 125 q-45 20 -112.5 38.5t-144 34t-156.5 24.5t-150 11h-6q-47 0 -81 -14t-60 -39q-53 -55 -71.5 -114.5t-35.5 -133.5q-8 -47 -18 -100l-21 -105l-61 -306l-61 -306q-12 -53 -22.5 -114.5t-14.5 -114.5v-13zM393 651l13 72l12 70q14 86 27.5 156.5t27.5 120.5t30.5 79t39.5 29 q39 0 90 -4.5t103 -13.5t102.5 -24.5t87.5 -37.5q0 -6 6 -6q2 -2 8 -2q63 -61 64 -115q0 -49 -42 -93t-113 -86t-164 -82t-196 -79l-65 -14l-6 2l-23 22z" />
<glyph unicode="Q" horiz-adv-x="1490" d="M20 393q0 -12 1.5 -24.5t1.5 -22.5q4 -43 14 -86t33.5 -85t65.5 -82t110 -75q111 -59 195.5 -79.5t164.5 -20.5q45 0 76 1t54.5 4t44 7t44.5 13l84 28q35 -12 66 -38.5t63 -49.5l35 -28q23 -18 50.5 -37t59 -32t60.5 -13q37 0 64 28q4 10 11 33t7 51q2 8 3 14.5t1 12.5 q0 31 -19.5 51.5t-47 34.5t-59.5 24.5t-56 20.5q-2 0 -5 7t-9 44q49 31 112 94h-4q117 117 174.5 276t57.5 312q0 10 -1.5 43t-9.5 78t-23.5 97.5t-43.5 101.5q-59 100 -140 157.5t-215 81.5q-41 4 -72.5 11.5t-76.5 7.5q-96 0 -196.5 -32t-193.5 -85t-172 -126t-130 -155 q-98 -150 -138.5 -295t-40.5 -268zM260 444q0 104 45 205t118 193t165 170t184 137q35 14 87 25.5t110 11.5q31 0 61 -6q80 -25 119 -99.5t47 -160.5q2 -16 3 -35t1 -39q0 -72 -13 -148.5t-39 -150.5t-63.5 -139.5t-87.5 -114.5l-86 -78q-20 0 -46.5 12.5t-61.5 32.5 q-2 2 -4 2l-4 4v-2q-45 23 -92.5 43.5t-88.5 20.5q-4 2 -14 2q-16 0 -36.5 -10.5t-37 -25.5t-28 -34.5t-11.5 -38.5q0 -35 35 -51q2 -2 5 -3l3 -1q20 -12 35 -18l27 -9q12 -4 26.5 -14t36.5 -33q-33 -10 -71.5 -12t-57.5 -2q-70 0 -120 41t-82.5 98t-48 120.5t-15.5 106.5z " />
<glyph unicode="R" horiz-adv-x="1292" d="M0 12q4 -47 66 -88q10 -8 39.5 -24.5t46.5 -16.5h4q33 0 53 25.5t20 64.5v4l4 9q8 16 28 67l43 116l48 130q25 66 45 111h6l103 -88l96 -82h-2l10 -11q6 -6 23 -18q100 -96 194.5 -168t219.5 -125q37 12 62.5 26.5t25.5 55.5q41 8 41 33q0 29 -60 76l-142 107l-172 130 q-89 70 -149 143l-2 9l6 18l13 12q100 27 203.5 69t191.5 96.5t149.5 119t77.5 135.5l-10 94q-8 57 -44 94.5t-108 88.5q-160 74 -299 96t-268 22q-35 -2 -71.5 -3t-71.5 -7t-66.5 -21.5t-54.5 -45.5v2q-10 -12 -20.5 -31.5t-18.5 -40t-14 -38.5l-8 -23l-98 -441l-66 -300 l-41 -188l-22 -106q-7 -37 -9 -50t-2 -21v-17zM434 748q0 45 16.5 114.5t37 137t38 119.5t19.5 63q43 0 98 -2t111.5 -10.5t107.5 -22.5t88 -41h-2l4 -4q8 -10 22.5 -21.5t28 -26t23.5 -28.5t12 -29q0 -8 -8 -27l-18 -44l-82 -92l-4 -3q-53 -31 -100.5 -51t-95.5 -32.5 t-100 -18.5t-114 -10q-33 -27 -53 -27q-29 1 -29 56z" />
<glyph unicode="S" horiz-adv-x="1329" d="M-18 274q0 -45 31.5 -89t85 -84t123 -73.5t145 -59t152.5 -40t145 -14.5q16 0 33.5 1t33.5 3q63 0 107.5 14.5t85.5 24.5q78 29 136 69t103 89q39 43 55.5 86t16.5 47q-2 8 -5 28.5t-7 36.5q-29 63 -98.5 118.5t-186.5 78.5q-70 27 -141.5 48.5t-145.5 51.5q-2 2 -10 2 q-57 4 -90 50.5t-33 105.5q0 53 27 94q47 72 122.5 135.5t170.5 92.5h8q31 0 68.5 -3.5t75.5 -12.5t75 -26.5t65 -43.5q47 -37 78 -57.5t52 -24.5h10q53 0 73.5 27.5t20.5 68.5q0 14 -2 29.5t-6 25.5q-12 35 -44 57.5t-98 57.5q-78 41 -150.5 72.5t-168.5 42.5q-14 0 -16 -3 q-49 0 -99.5 -11t-97.5 -29l-37 -19q-117 -55 -207 -131t-129 -147q-33 -61 -54.5 -112.5t-21.5 -98.5q2 -49 27 -97.5t61.5 -90.5t83 -75.5t93.5 -56.5l31 -14q13 -6 24 -15q29 -14 61 -22l68 -16q63 -14 122.5 -31t74.5 -37q35 -16 46 -30.5t13 -30.5v-9 q0 -20 -12.5 -37.5t-29.5 -31t-35.5 -21.5t-31.5 -10q-6 -4 -32.5 -7t-57 -5t-60.5 -3t-42 -1q-27 0 -49.5 2t-48 6t-56.5 11l-71 17q-55 29 -106.5 69t-86.5 93q-14 23 -31.5 44.5t-48.5 37.5v2q-29 -4 -64.5 -7t-58.5 -26l-2 -2q-32 -39 -32 -84z" />
<glyph unicode="T" horiz-adv-x="1193" d="M-33 1264q0 -31 10.5 -65t24.5 -58q43 -10 77 -14.5t79 -4.5h229l19 -22l-3 2l3 -10l-88 -434l-59 -292l-37 -181l-20 -97q-7 -33 -10.5 -42t-5.5 -13q0 -20 7.5 -34.5t35.5 -49.5v2q6 -12 32 -20.5t56 -8.5q43 0 82 19.5t39 66.5v15l98 437l61 286l38 174.5t24.5 98.5 t22.5 57.5t33 53.5l534 29q35 12 50.5 37t15.5 53q0 45 -38 84t-106 39q-23 0 -49 -6q-31 0 -79 2t-101 2h-33h-16q-8 0 -16 -2q-8 0 -51.5 -1t-96.5 -3t-103.5 -5t-72.5 -5h-162q-59 0 -94 1t-55 1h-35q-27 0 -66 -3t-118 -7q-31 -4 -43.5 -27.5t-12.5 -54.5z" />
<glyph unicode="U" horiz-adv-x="1298" d="M14 344q0 -78 24.5 -151.5t92.5 -131.5l14 -6q94 -76 167 -105.5t151 -29.5q10 2 31 2q18 0 39.5 -1t44.5 -1h16q2 2 8 2h8q137 0 232.5 75t161 192.5t108.5 261t78 282.5q33 121 62.5 256t43.5 262q0 37 -2 63.5t-12 67.5q-8 14 -26.5 25.5t-40 20t-44 12.5t-38.5 4 q-20 0 -45 -20.5t-31 -26.5l-70 -336q-10 -66 -23.5 -140.5t-41.5 -191.5q-16 -68 -36 -139.5t-41.5 -137t-43 -118.5t-41.5 -82l-76 -100l-6 -9q-25 -18 -55.5 -28.5t-60.5 -15.5t-53.5 -6t-35.5 -1h-10q-16 0 -44 8.5t-55.5 26.5t-48 46t-20.5 65q0 12 2 20 q0 47 13.5 110.5t35.5 141.5l89 298q34 110 54.5 169t27.5 81.5t11 39t5.5 40t7.5 85.5v4q0 23 -18.5 44t-44 38.5t-55.5 31t-54 19.5q-37 0 -69 -23.5t-79 -97.5l-2 -12v2q-4 -8 -13 -42l-24 -89l-49 -163l-34 -116l-23 -85q-10 -36 -17.5 -70.5t-14.5 -73.5t-15 -94 q-6 -37 -10.5 -75t-4.5 -77z" />
<glyph unicode="V" horiz-adv-x="1351" d="M70 860q0 -86 5 -186.5t17 -222.5l45 -320q6 -25 14.5 -54.5t21.5 -57t31.5 -52t43.5 -39.5q51 -10 108 -10q55 0 112.5 9.5t103.5 28.5t76 51t30 77v6l215 412q88 162 149.5 265t102.5 164l74 109q10 20 36 55l57 72q30 39 55.5 77t33.5 67q0 16 -6 35.5t-18.5 37 t-29 28.5t-34.5 11q-2 4 -13.5 5.5t-27.5 1.5q-25 0 -49.5 -3.5t-32.5 -11.5q-55 -41 -120.5 -125t-135.5 -189.5t-139 -222.5l-133 -228l-117 -201q-53 -92 -90 -146l-25 4l-6 10l-14 58q-8 33 -13 63q-4 41 -7 81t-3 77v139q0 98 8 164t19 113q10 51 13 100t3 84 q-8 53 -56 78.5t-98 25.5h-43q-16 0 -22 -2q-63 -14 -91 -68t-40 -143q-4 -37 -7 -95t-3 -132z" />
<glyph unicode="W" horiz-adv-x="1796" d="M57 524q2 -104 5.5 -216.5t13.5 -229.5q4 -29 16 -56.5t41 -44.5l4 -4v2q53 -35 94 -34q33 0 64 10h4q16 -4 27 -4q33 0 59.5 28.5t53 84t56.5 135.5l70 182l46 108q19 45 33.5 75t27.5 49l22 36l19 6l20 -4l10 -8l9 -95q2 -24 4 -34l4 -22q2 -11 8 -56l16 -92 q8 -47 19 -90q6 -39 18.5 -86t31.5 -93t47 -84t65 -57q33 -10 63.5 -14t52.5 -4q37 0 61.5 1t51.5 9q25 8 40 16.5t25.5 20.5t17.5 30.5t17 49.5h2q27 61 47 114l43 111l54 134l76 180l110 247l160 340v2h2v-2q16 27 24.5 51.5t16.5 57.5l-2 2v2q0 4 -2 6h8 q-31 47 -63.5 66.5t-71.5 19.5q-29 0 -70 -10q-43 0 -86 -46t-89 -129t-96 -198l-108 -250l-70 -166l-75 -165l-6 -5l-23 5l-10 8q-8 72 -13 123t-7.5 89t-2.5 68v68v137v74q0 25 -1 32t-1 9q-2 20 -7 36.5t-21 26.5q-45 27 -96.5 38t-73.5 11q-76 -10 -136.5 -68.5 t-107.5 -131.5l-47 -74l-40 -68l-42 -74l-53 -96l-10 -6l-27 8l-6 11q8 152 20.5 232.5t22.5 133.5v-2l7 44q3 19 6 42t5 51.5t4 71.5q-6 51 -53 74.5t-98 23.5q-33 0 -56 -8q-43 -4 -66.5 -16t-35.5 -33.5t-18.5 -53.5t-12.5 -75v-4q-18 -117 -29.5 -266.5t-11.5 -317.5z " />
<glyph unicode="X" horiz-adv-x="1292" d="M-88 -18q4 -43 90 -60q10 -2 16.5 -3t10.5 -1h22q49 0 109 31l109 125l85 100l57 66q26 29 44 51q20 20 33 38l24 31l8 5l23 -3l6 -6q27 -45 72 -111.5t94 -130t96 -110.5t78 -53v-2q33 -6 59 -6q43 0 74 14q37 4 53.5 18.5t16.5 30.5q-4 37 -29 72t-55.5 67.5t-58 65.5 t-38.5 65l-42 64q-19 31 -37.5 68.5t-37 85t-38.5 110.5h-2v2l4 17l-2 -2l4 8v-2l103 116l52 62l19 18l2 2q2 2 2 6l6 7q10 12 22 24l28 31l44 45l68 70q57 61 97 100l71 67l58 51l61 54q10 14 10 27q0 20 -17.5 39.5t-42 35t-53 24.5t-51.5 9h-8q-20 0 -44 -8t-53.5 -30.5 t-64.5 -60.5t-80 -99l-321 -330l-15 -6l-22 6h-2q-43 66 -72 125t-51.5 110.5t-45 93t-52.5 72.5h-19q-18 0 -45 -2t-55.5 -7t-55 -11t-43.5 -15q-25 -10 -32.5 -31.5t-7.5 -43.5q0 -41 14 -74l8 -6l32 -63l54 -111q31 -66 64.5 -146t64.5 -162l2 -6l-4 -16l-117 -145 l-87 -108l-67 -85l-60 -79l-63 -86z" />
<glyph unicode="Y" horiz-adv-x="1179" d="M-14 1221q0 -33 14 -68t31 -68q29 -43 59.5 -114.5t58 -149.5t48 -152.5t30.5 -123.5v-8l-84 -488q2 -45 60 -80l18 -18q90 -33 137 -33q43 0 63.5 29.5t36 97.5t34 176.5t59.5 263.5l11 55q5 24 13.5 44t22.5 42.5t37 51.5q74 109 192.5 243t302.5 306l23 17 q14 11 27.5 23.5t23.5 27t10 30.5v8q0 2 -1 3t-1 3l-14 27q-12 23 -46 36t-71 13q-57 0 -100 -45l-266 -293q-129 -145 -242 -293l2 2h-2q-16 29 -37.5 79t-46.5 114l-43 103q-23 52 -46.5 98.5t-50 83t-54.5 59.5q-14 4 -34 6t-36 2q-31 0 -61.5 -4t-47.5 -18 q-18 -12 -24 -32t-6 -46v-10z" />
<glyph unicode="Z" horiz-adv-x="1495" d="M12 2q0 -14 17 -43q25 -27 70.5 -37t111.5 -10q211 4 349 17.5t214 13.5h27q41 -2 102.5 -3t118.5 -1h65q12 0 23.5 1t22.5 3q92 2 127.5 21.5t35.5 51.5q0 12 -7 31t-17 35v4q-8 94 -170 94h-146q-27 0 -49 1t-61 5q-18 0 -43 -1t-66 -3t-102 -6l-152 -10l-32 20v7 l790 745l86 79q47 42 86 87t65.5 87t26.5 79q0 39 -37.5 65.5t-136.5 36.5q-41 0 -102 -6q-10 0 -44 -1t-72 -3t-71.5 -3t-44.5 -1h-114q-25 0 -66 -2t-121 -10q-186 -12 -300.5 -23.5t-178 -26t-85 -32t-21.5 -37.5q0 -14 6 -29v-20q0 -29 5 -57.5t32 -39.5q31 -25 55 -32 t53 -7q16 0 41 2.5t53 6.5q18 0 83 6t142.5 15t153.5 20.5t117 19.5l-4 -4l52 7q24 3 46 3q41 0 76 -20v-11l-850 -778q-27 -25 -53.5 -52.5t-48 -58t-34.5 -62.5t-13 -62v-8q-4 -14 -7.5 -27.5t-3.5 -36.5z" />
<glyph unicode="[" horiz-adv-x="763" d="M14 1614q0 -25 6.5 -56.5t22.5 -74.5l24 -67l23 -66l26 -68q11 -29 17 -47l18 -143q7 -61 11 -103q4 -47 6 -74.5t2 -37.5q0 -16 -1 -59.5t-3 -117.5q-2 -6 -2 -18v-66q-2 -23 -10.5 -76t-20.5 -145q-20 -131 -24 -219v-14q0 -70 63 -101q29 -10 66.5 -20t87.5 -18l78 -9 l79 -8q35 -4 55.5 -5t26.5 -1q57 0 109 51q53 49 53 105q0 33 -10 49q-29 39 -68 49q-25 8 -121 18q-86 6 -116 19q-10 6 -23.5 25.5t-13.5 31.5t2 35t5 47.5t6 46t3 31.5q12 197 12 414q0 51 -1 86.5t-3 56.5q-10 92 -18 157l-14 109q-2 10 -9.5 31.5t-17.5 56.5 q-20 55 -21 78q0 23 31 39l57 7q24 3 39 3q25 4 50.5 7t52.5 8q63 6 94 26q86 43 86 105q0 49 -39 80q-12 12 -84 12h-287q-6 -2 -16 -2h-82q-207 0 -207 -168z" />
<glyph unicode="\" horiz-adv-x="1220" d="M-70 1638q0 -51 25 -94l75 -112l58 -84l184 -261l134 -184q78 -111 123.5 -187.5l66.5 -113.5l101 -191q48 -87 98 -163l55 -90q20 -33 24 -43q63 -117 103 -117q45 0 102 63q59 66 60 109q0 66 -482 860l-56 79l-40 54l-111 153l-81 109q-14 18 -39 60l-64 104 q-31 51 -58.5 90t-51.5 66q-41 47 -58 47q-168 0 -168 -154z" />
<glyph unicode="]" horiz-adv-x="763" d="M33 180q0 -68 47 -127q47 -53 117 -53q-4 0 34.5 6t124.5 17l136 18q100 16 118 35q43 43 43 67q0 31 -2 33l-30.5 257t-22.5 183q-2 4 -2 21v53q-6 135 -6 187q0 98 10 185t27 173q4 18 21.5 67.5l47.5 129.5q51 127 52 182q0 47 -9.5 76.5t-30 46t-54 22.5t-83.5 6 q-35 0 -95 4.5t-148 12.5l-152 18q-25 0 -39 1t-18 1q-25 0 -78 -41q0 -78 28.5 -128t94.5 -66q20 -8 127 -15q39 -2 68.5 -5t50.5 -11q31 -16 30 -39q0 -23 -20 -78q-23 -66 -25 -88l-22 -176l-11 -101q-4 -42 -4 -65q0 -223 5.5 -368.5t17.5 -221.5q6 -47 6 -51 q0 -51 -59 -61l-126.5 -20.5t-90.5 -12.5q-23 -6 -50.5 -30t-27.5 -44z" />
<glyph unicode="^" horiz-adv-x="880" d="M45 1243q0 -39 16 -69q35 -68 105 -68q41 0 82 31l59 50l45 40q10 10 23.5 20t30.5 25q66 -6 106.5 -23.5t93.5 -52.5l-2 2q8 -4 16.5 -11t18.5 -11l38.5 -18.5t39.5 -8.5q31 0 69 22q51 35 52 111q0 53 -25 100v-2q-12 25 -25.5 35l-29.5 21q-4 4 -14 8l-9 4 q-29 23 -44 30t-36 13l-25 10q-15 6 -46 23h2l-11 4q-35 20 -77.5 41.5t-81.5 25.5q-6 2 -13 2h-14q-41 0 -67.5 -23.5t-40.5 -78.5l-11 -8q-4 -4 -9 -6t-15 -11q-27 -23 -40 -28.5t-24 -11.5l-26 -14q-14 -7 -39 -30q-29 -23 -50.5 -59.5t-21.5 -83.5z" />
<glyph unicode="_" horiz-adv-x="1083" d="M27 -88q0 -100 57 -156.5t158 -56.5h157q16 0 40 1t53 3l232 15q103 7 183 16q55 2 62 6q39 8 63 65q20 47 21 97q0 106 -140 125q-6 2 -16 2h-29l-319 -27q-80 -6 -120 -8l-40 -2h-287q-18 0 -47 -29q-28 -35 -28 -51z" />
<glyph unicode="`" horiz-adv-x="555" d="M88 1579q0 -18 1 -26.5t5 -18.5q10 -33 22.5 -56.5t30 -43t40 -38t55.5 -42.5q35 -25 58.5 -43.5t33.5 -32.5q31 -39 54.5 -48t31.5 -9h4q39 14 56.5 26.5t17.5 40.5q0 18 -23 68q-16 33 -39.5 69.5t-51.5 72.5t-57.5 65.5t-56.5 48.5q-66 43 -112 43q-33 0 -51.5 -17.5 t-18.5 -58.5z" />
<glyph unicode="a" horiz-adv-x="1028" d="M-12 31q0 -47 39 -75t79 -28q49 0 87 19.5t67 77.5q10 20 17.5 36.5t13.5 32.5q16 41 28.5 65.5t34.5 47.5h19h2q0 2 4 2q16 0 34.5 1t41.5 3h12q20 2 41 2q20 0 41 2q51 4 95 5t73 1h14l6 -4l8 -45l17 -84q8 -41 19.5 -64.5t27.5 -36t38.5 -17.5t53.5 -11q14 0 28.5 3 t37.5 13q35 12 50 43t15 66q0 10 -4 25l-8 28q-139 981 -211 1010q-4 0 -6 1t-6 1h2q-6 2 -5 3t-22 3v6q-86 -14 -137 -32.5t-83 -43t-50.5 -55.5t-36.5 -67q-2 -4 -5 -11.5t-5 -11.5v2q-14 -31 -35 -69.5t-49 -79.5l-89 -146l-97 -164l-92 -166l-77 -149q-14 -37 -21 -63.5 t-7 -55.5v-20zM449 420l204 340h2l41 -336l-4 -4h-243z" />
<glyph unicode="b" horiz-adv-x="1103" d="M25 109q2 -35 9 -65t27 -40l23 -22l8 -2q47 -37 92 -47.5t90 -10.5h17q78 0 181 17.5t207.5 53.5t198 90t148.5 128q16 25 26.5 48.5t10.5 49.5q0 51 -39 97q-68 96 -176 135q61 27 118.5 55.5t102.5 71.5q29 27 44 56.5t20 55.5l-3 -2q8 18 9 45q0 55 -34 102.5t-87 82 t-121 58.5t-137 32h2q-109 18 -252 18q-57 0 -107 -6h-2q-92 -4 -147 -96q-20 -33 -27.5 -51.5t-9.5 -30.5l-80 -310l-54 -214l-34 -137q-12 -50 -17 -77.5t-6 -40t-1 -20.5v-24zM297 100l4 41v-4l66 250q63 14 117.5 21.5t105.5 7.5q131 0 203 -47q8 -8 10 -15v-6 q-8 -37 -52 -71.5t-102.5 -65.5t-122 -55.5t-110.5 -38.5q-33 -16 -94 -17h-23h-2zM426 610l2 -2l-2 4q16 68 27.5 109t20.5 67.5t18.5 44t21.5 35.5l10 11q86 27 191 26q96 -10 136 -29.5t40 -46.5q0 -35 -43 -73.5t-110.5 -72.5t-148.5 -55.5t-157 -21.5l-4 2zM803 354 q0 -4 2 -6z" />
<glyph unicode="c" horiz-adv-x="999" d="M-14 301q0 -16 2 -22q4 -47 12 -79t25 -65l36 -43v2q31 -41 70 -69.5t84 -48t93 -31t95 -17.5h-2q25 -4 53.5 -7t59.5 -3q127 0 225.5 43t202.5 121q35 29 46 44t22 32l2 6q0 102 -90 102h-7q-2 0 -43 -14t-92 -45v4q-41 -23 -93 -45.5t-134 -46.5h2q-20 -4 -57 -4 q-25 0 -63 6t-105 35q-29 29 -52.5 61.5t-31.5 73.5v16q0 16 2 21q8 94 51 176q43 88 97.5 170t115.5 139q45 47 95 79t102 32l147 -107l44 -24q15 -8 23.5 -11.5t12.5 -4.5t8 -1q47 20 73.5 53t26.5 56q0 10 -2 16v12q-10 47 -51 82t-100 66h2q-45 25 -79 40t-61.5 24.5 t-51 13.5t-48.5 4q-63 0 -149 -25q-104 -63 -192.5 -148t-156 -187.5t-111.5 -218t-58 -240.5v-23z" />
<glyph unicode="d" horiz-adv-x="1091" d="M0 76q10 -55 49 -88l160 -51l158 20q156 12 295 82t243.5 171t164.5 223t60 239q0 80 -29.5 152.5t-95 132t-169 101.5t-248.5 60h2q-43 12 -101.5 14.5t-132.5 2.5l-116 -19q-35 -90 -53.5 -143t-22.5 -72q0 -10 -1 -14t-5 -17l-53 -196q-24 -92 -43 -182.5 t-34.5 -184.5t-27.5 -203v-28zM270 135q8 78 33 188.5t53.5 223t58.5 211.5l46 151l2 2l4 2q139 0 221 -12t123 -41q59 -45 80.5 -83t26.5 -70l2 -9q-4 -63 -46.5 -136t-112 -143.5t-161.5 -134t-197 -112.5q-8 -4 -42.5 -17.5t-81.5 -25.5l-7 4z" />
<glyph unicode="e" horiz-adv-x="1062" d="M-4 49l27 -18l36 -27q31 -25 63 -45t54 -20q47 0 81 5t79 13q4 2 12 2h6l506 72q39 4 56.5 10t23.5 12q12 16 18.5 27.5t6.5 34.5v18q0 10 -4 33h-19q-18 14 -48 19l-58 10q-4 0 -9.5 1t-9.5 1q-78 -6 -130 -9.5t-86 -6.5t-52.5 -4t-30.5 -1t-25.5 -1t-25.5 -1 q-47 -2 -94 -5t-94 -9l-7 6q2 23 11 63l17 84q9 43 18.5 81t15.5 57l2 2l102 -2q27 0 53.5 1t62.5 3t84 6l116 10q10 0 26.5 1t34.5 3q16 2 28.5 3t16.5 1q57 10 69.5 37t12.5 55v35q-10 45 -55 54.5t-99 9.5h-184h-117q-57 0 -96 4l-4 6q2 14 10 43l18 62l18 69q9 35 18 61 l17 3.5t13 1.5l430 16h62q20 0 26 4q2 2 5 2q45 12 61 32.5t16 41.5v20q-10 20 -22 32.5t-29.5 20t-42 11.5t-61.5 8q-29 2 -66 3t-78 3q-74 4 -148.5 7t-121.5 3h-127h-31q-14 0 -32 2q-51 0 -81 -5t-47.5 -23.5t-28.5 -52t-24 -91.5z" />
<glyph unicode="f" horiz-adv-x="903" d="M-45 33q4 -23 14.5 -40.5t46.5 -45.5q16 -12 36 -16.5t63 -4.5q27 8 46 35t33.5 61.5t24.5 75.5l21 82q10 47 21 87t26 61v2l4 4h305q10 0 18.5 -1t18.5 -1h29q41 0 71.5 11t54.5 46l21 74v12q0 2 1 3t1 3q0 45 -55.5 54.5t-194.5 9.5h-221l22 113l24 112q11 51 20.5 86 t11.5 37l12 10q37 8 94.5 13.5t149.5 5.5h155q25 -2 49.5 -3t41.5 -1q53 0 76.5 16t23.5 63l-4 70v14q-23 23 -54.5 29t-70.5 6q-10 0 -21.5 -1t-21.5 -1h-43h-205h-117q-41 0 -59 -1t-33 -1q-16 0 -36.5 -1t-67.5 -1q-8 2 -29 2q-33 0 -54.5 -12.5t-34.5 -34t-21.5 -49 t-14.5 -58.5q-2 -8 -3 -14t-3 -14l-73 -357l-48 -241l-29 -151l-15 -81q-5 -27 -6 -35t-1 -12v-20zM336 520q0 2 1 3t1 5q0 -4 -1 -6z" />
<glyph unicode="g" horiz-adv-x="1089" d="M-25 287q0 -51 9 -78l18 -68q20 -59 63.5 -95t139.5 -71q4 -2 8 -2t8 -2l-4 2q8 -4 18.5 -8t8.5 -2l6 -4q43 -12 88 -17t90 -5q88 0 164 17t123 44h-2q57 23 124.5 64.5t124 93t94.5 104.5t38 96l-4 13l2 -2q-2 10 -2 26q0 27 -7.5 53.5t-44.5 47.5q-29 16 -76 18t-98 2 h-61q-47 0 -95.5 -2t-94.5 -7t-86 -10.5t-68 -11.5q-57 -16 -86 -44.5t-29 -55.5q0 -23 12.5 -40t40.5 -19q27 -16 63 -21.5t81 -5.5q72 14 123 21.5t86 7.5q63 0 63 -15q0 -16 -24.5 -38.5t-62.5 -44t-86 -41t-95 -27.5q-41 -16 -86 -21.5t-80 -5.5q-29 0 -27 10h-28 q-8 4 -11 7q-18 12 -39.5 29.5t-25.5 43.5q-16 4 -22.5 25.5t-6.5 50.5q0 39 7 76t22 59q63 143 120.5 239.5t115 154t119 81t132.5 25.5h6q35 0 69 -28.5t67 -61.5q29 -29 54 -49.5t50 -20.5h10l84 51l-12 82q-2 2 -2 4q-4 25 -33 66t-74 82t-100 72.5t-113 35.5h-41 q-35 0 -75.5 -3t-57.5 -13l4 4q-96 -27 -178 -85t-148.5 -134t-116.5 -164t-84 -176t-51.5 -168t-17.5 -141z" />
<glyph unicode="h" horiz-adv-x="1138" d="M2 18q0 -29 5 -39t16 -20q23 -20 54.5 -29.5t65.5 -9.5h17v2h4q27 4 55.5 19.5t36.5 81.5v-3l12 60q6 31 15 61q6 31 13 61.5t15 61.5l-2 -4q2 4 6 16q2 6 2 13q0 8 5 16l4 2q39 2 90 3t103 3t100.5 3t82.5 1l7 -6q-6 -25 -7 -41q0 -14 -2 -28q0 -8 -1 -17.5t-3 -25.5 l-10 -174q16 -29 51 -51.5t68 -22.5q23 0 39 12q31 2 53.5 19.5t35.5 42t20.5 53t11.5 51.5l143 760l-2 -4l12 36q6 17 12.5 40.5t11.5 57.5t11 83q-12 90 -119 90h-12q-117 0 -125 -70l2 4q-23 -66 -49 -172l-62 -254q-10 -47 -22 -96l-25 -102l-8 -4l-379 -6l-6 6 q8 37 21.5 89t31 107.5t37 108.5t39.5 90h-2q27 43 27 65q0 31 -19.5 61t-54.5 40h2q-14 6 -34.5 8t-49.5 2q-16 0 -27 -2l-34 -8q-61 -10 -80 -55.5t-33 -110.5l-84 -399l-52 -256q-19 -98 -26.5 -147.5t-7.5 -72.5z" />
<glyph unicode="i" horiz-adv-x="454" d="M-12 70q10 -41 30 -62l2 -2l11 -6q-4 0 -8 4q4 -6 14 -10l119 -39h37l11 16l7 11q16 23 22.5 35t10.5 46q0 2 15 70l38 167l48 211l48 204q4 35 13 58l16 46q6 18 11 35.5t7 22.5v-3q8 29 17.5 69t17.5 81q0 27 -11 51.5t-31.5 43t-46.5 29.5t-54 11h-17q-12 10 -30 10 q-37 0 -71 -73.5t-68.5 -214t-73.5 -345t-84 -466.5z" />
<glyph unicode="j" horiz-adv-x="897" d="M-35 176q0 -47 32 -89t85 -54q88 -47 173 -71.5t163 -24.5q76 0 139.5 23.5t112.5 72.5t79.5 123.5t41.5 175.5v-2l12 66l12 61l14.5 67.5t10.5 59.5q10 78 23.5 139l27.5 121q10 45 22.5 94t22.5 109q0 59 -25 77q-29 16 -58.5 25.5t-57.5 9.5q-16 0 -24.5 -1t-14.5 -3 h-2l-31 -6q-33 -6 -54.5 -37t-43 -117t-47.5 -243l-70 -418v-15q0 -25 -11.5 -56.5t-31 -59t-46 -47t-54.5 -19.5q-33 0 -60 25l-29 21q-14 11 -30 26q-39 33 -83 61.5t-89 28.5q-37 0 -64.5 -25.5t-44.5 -89.5v-8z" />
<glyph unicode="k" horiz-adv-x="1034" d="M-37 31q4 -20 12.5 -35.5t18.5 -30.5q29 -16 50.5 -20t43.5 -4h25q33 6 53 18t38.5 51t40.5 118l58 218l6 4q16 -10 43 -30.5t62 -55.5l94 -85q25 -22 35 -32q31 -25 53 -46l45 -42q47 -45 89 -76.5t104 -48.5q88 37 88 103q0 63 -81 148t-210 198q-16 16 -35 33l-37 33 q-20 16 -42 36l-44 41h-2q12 14 43 38t69 49l74 50q37 24 62 37v-2q8 4 15 9.5t11 7.5q20 25 33 33l316 227l-2 -2q8 8 12 10q29 18 46 36.5t17 55.5q-4 45 -45 69.5t-80 24.5q-29 0 -57.5 -17t-75.5 -56q-29 -25 -57 -45l-451 -310q4 16 6.5 28.5t2.5 16.5q0 20 6 44t14 49 q2 4 3 10t3 10l15.5 60.5t7.5 58.5v8q0 20 -13.5 40.5t-34 37t-45 26t-47.5 9.5q-2 0 -4 -1t-4 -1h-16q-59 0 -98 -38t-39 -104v-12l-55 -244l-40 -188l-35 -165q-17 -81 -42 -185l-6.5 -33.5l-4.5 -24.5q-4 -18 -7 -35.5t-5 -56.5v-20z" />
<glyph unicode="l" horiz-adv-x="817" d="M-14 63q4 -35 10 -55t20 -37v-8q43 -23 71 -30t56 -7l132 18l114 13q55 6 105 12q84 8 163.5 20.5t163.5 33.5l15.5 36t5.5 31q0 41 -27 66.5t-57 25.5q-12 0 -19 -2q-20 -2 -37 -2q-16 0 -30 -2q-90 -10 -143 -15l-92 -9l-77.5 -7.5t-95.5 -5.5l-10 2v2v7l8 30v2 l170 570l6 6q4 14 11 30l12 33l33 94q16 47 16 89q0 47 -25.5 76.5t-97.5 29.5q-31 0 -61 -6h2q-70 -4 -102.5 -24.5t-43.5 -73.5q-16 -23 -17 -47.5t-1 -49.5v4l-32 -126l-24 -100l-22.5 -101.5l-26.5 -128.5q-10 -45 -20 -99l-25 -122l-6 -26q-4 -17 0 -7q-6 -35 -14 -74 t-8 -66z" />
<glyph unicode="m" horiz-adv-x="1363" d="M-47 27q2 -53 31.5 -81t70.5 -28h39q31 0 56 12l67 115v6l193 520q0 -35 1 -64.5t1 -51.5v-152q-2 -16 -2 -37v-45q0 -37 4 -76t16 -69.5t33.5 -50t56.5 -19.5h8q10 0 25 5l31 12q29 12 53.5 27.5t26.5 17.5l38 70l52 95q0 4 5 10.5t9 14.5l57 114l59.5 107t53.5 84 t39 43h2l-22 -106q-9 -47 -15 -89t-9 -82t-3 -85q-4 -10 -4 -31v-41v-33q0 -10 1 -16t3 -12v2q6 -35 14 -62.5t31 -48.5l18 -18q39 -23 101 -23h12q8 0 14 2h-2q2 2 10 2q57 6 66.5 25.5t11.5 50.5v37q0 121 16.5 232.5t46 223t73.5 225t100 238.5v13q0 35 -20.5 63.5 t-52.5 51t-70.5 37t-75.5 18.5q-55 0 -96.5 -35t-77.5 -76l2 -2v-2q-8 -6 -15 -14q-66 -70 -170 -212.5t-219 -338.5q2 76 3 126t4 89t7.5 71.5l10.5 73.5q6 12 11 32l10 41q5 22 8.5 40t3.5 31q-6 31 -29 49t-51.5 27.5t-59 12.5t-55.5 5h-21q-14 0 -20 -2 q-72 -4 -105.5 -32t-58.5 -71q-20 -53 -35 -86l-20 -48q-10 -24 -21 -56v2q-25 -55 -47 -112l-51 -130l-64 -174l-87 -244h2q-10 -25 -19.5 -56.5t-9.5 -53.5v-8z" />
<glyph unicode="n" horiz-adv-x="1093" d="M-20 29q0 -55 44 -89t93 -34q41 0 71.5 21.5t36.5 74.5v10q10 31 32 104.5t45 163.5l46 182q23 93 35 165q31 -113 65.5 -207t67.5 -166t61.5 -119t47.5 -63l-2 4q41 -53 81.5 -78t77.5 -25q45 0 77 30t48 77q23 66 37 113l25 79l19 60l11.5 38l8.5 28.5t8 31.5 q2 20 10 49l16 59q8 30 17 56l12 41v-2q4 8 13.5 36.5t19.5 67.5l20.5 83t14.5 87q12 29 22 66t10 71q0 51 -32 84l-129 19q-33 -6 -56.5 -23.5t-40 -42t-25.5 -54.5t-16 -58l-14 -64l-36 -153l-48 -194q-27 -103 -51 -183q-53 121 -83 224t-48 222q-4 10 -5 25.5t-1 38.5 v24q0 31 -2 64t-12.5 60.5t-30 46t-56.5 22.5q-94 -6 -148 -22.5t-84 -44t-42 -67.5t-23 -91v2q-12 -43 -22 -84l-21 -80v2l-44 -172l-35 -139l-49 -188q-17 -69 -25 -104.5t-10 -49t-2 -23.5v-12z" />
<glyph unicode="o" horiz-adv-x="1206" d="M-18 340q0 -6 4 -16l-2 4q4 -35 16 -74t47 -98q8 -14 15.5 -25.5t15.5 -21.5q2 -4 8 -11q55 -66 134 -102.5t196 -54.5q35 -8 68.5 -10.5t74.5 -2.5q111 0 203 22.5t160 76.5q154 135 225.5 306t71.5 331v34q0 12 -1 21.5t-4 19.5q-4 31 -11 63t-23 66q-35 66 -76 111 t-84 74.5t-84 44t-76 20.5h-112q-117 -14 -200 -33.5t-134 -48.5l-70 -41q-27 -16 -41 -26q-74 -53 -133 -124t-101 -150t-64.5 -160.5t-22.5 -157.5v-25v-12zM260 295q2 76 37 176t95.5 193.5t144.5 166t184 97.5q37 10 78 10q23 0 43 -5t41 -20q35 -27 54 -80t30 -106v-20 q0 -6 1 -13.5t1 -15.5q0 -86 -29 -186.5t-88 -187.5t-150.5 -145.5t-216.5 -62.5q-16 0 -43.5 10.5t-56.5 26.5q-59 16 -89 61.5t-34 100.5h-2z" />
<glyph unicode="p" horiz-adv-x="995" d="M-33 35q0 -16 16.5 -34.5t41 -34t52 -27t50.5 -11.5h10q6 0 17 4l-2 -2q55 12 70.5 34t23.5 77q0 18 2 37.5t6 38.5l43 219l4 4q123 16 204 37.5t154 56.5q166 72 258.5 157t92.5 206q-10 92 -55.5 152.5t-145.5 105.5q-37 16 -92 31.5t-117.5 27.5t-127 19.5t-122.5 9.5 h-4q-43 0 -73.5 -12.5t-53.5 -34.5q-18 -29 -39.5 -92.5t-43 -145.5t-42.5 -174l-39 -178l-33 -159l-24 -114q-10 -43 -18.5 -92t-12.5 -94v-12zM336 543q4 16 5 31.5t5 31.5l4 22l4 23q23 129 40.5 210t39.5 81q29 0 67 -3t76.5 -10t75.5 -18.5t68 -25.5q0 -12 22 -13 q39 -39 39 -71q0 -35 -32.5 -68t-87 -64.5t-126.5 -61.5l-153 -60l4 2l-45 -10z" />
<glyph unicode="q" horiz-adv-x="1191" d="M-4 336q0 -6 1 -11.5t1 -9.5v-20q2 -37 11 -74t29.5 -71.5t55.5 -68.5t92 -65q92 -47 162 -64.5t137 -17.5q35 0 60.5 1.5t45 3.5t37.5 7l38 11l59 20q16 -6 30.5 -18l30.5 -25l17 -12l16 -12q-4 2 3 -2t12 -8l30 -25q18 -14 40 -26.5t44.5 -21.5t46.5 -9q39 0 64 26 q6 12 14 35t8 49v11q0 4 1 6t1 6q0 25 -12 42t-30.5 29.5t-41.5 21.5l-43 17l-19 7.5t-17 7.5q8 0 8 10q43 29 110 107q80 94 120 213.5t40 234.5q0 8 -1 36t-7 65.5t-19.5 80.5t-35.5 84q-49 84 -118 132t-183 71q-12 2 -23.5 3t-22.5 3h3q-16 4 -35 6t-43 2 q-78 0 -161 -25.5t-160 -70.5t-141.5 -104.5t-107.5 -126.5q-80 -123 -113.5 -243t-33.5 -218zM229 377q0 80 35 157.5t91.5 148.5t128 132.5t143.5 106.5q25 10 64.5 18t82.5 8q10 0 22.5 -1t24.5 -3h-4q57 -18 85 -72.5t34 -117.5q2 -14 3 -27.5t1 -30.5q0 -55 -10 -114.5 t-29.5 -116.5t-49.5 -107.5t-67 -89.5l-63 -55q-10 2 -25.5 10t-36.5 21q-2 8 -14 8l-31 12q-29 16 -59.5 26.5t-60.5 12.5q-4 2 -15 2q-16 0 -35.5 -10t-36 -25.5t-27.5 -35t-11 -37.5q0 -39 45 -62q10 -4 21 -9t22 -9q6 -4 11 -6t13 -7q-15 -3 -28 -3h-7q-16 1 -24 1 q-49 0 -86 31t-60.5 74t-35 90t-11.5 80z" />
<glyph unicode="r" horiz-adv-x="1034" d="M-20 29q2 -43 61 -86q10 -8 36.5 -22.5t43.5 -14.5h4q35 0 57.5 26.5t22.5 67.5q6 12 19 47l30 80l36 99l36 93l30 -26l31 -27l50 -45l28 -25q10 -9 15 -14l14 -10q80 -78 158.5 -135t185.5 -105q35 10 59.5 23.5t28.5 48.5q35 12 35 43t-48.5 71t-115.5 89l-138 100 q-72 53 -118 113h2l2 2q82 20 166 56t156.5 81t122.5 100.5t65 116.5l-8 80q-8 53 -39 85t-90 75q-135 63 -249 81.5t-218 18.5q-10 0 -19.5 -1t-19.5 -1q-39 -4 -79 -7t-73 -17l-11 -14.5l-11 -14.5q-4 -4 -7.5 -8t-5.5 -11q-25 -39 -39 -70.5t-16 -39.5l-79 -351l-52 -241 l-33 -152l-18 -85q-6 -30 -7 -41t-1 -19v-14zM369 618q0 31 8 72t20 85l25 84q12 40 22 67q2 8 7 20q33 0 72.5 -3t79.5 -9t78 -17.5t67 -29.5q2 -2 5 -4t7 -6q14 -12 29.5 -29t21.5 -33q-2 -6 -7 -17.5t-13 -25.5q-66 -49 -115 -78.5t-92 -45t-86 -23t-92 -9.5 q-29 -23 -35 -22q-2 -1 -2 24z" />
<glyph unicode="s" horiz-adv-x="1062" d="M-35 240q0 -57 56.5 -112.5t141.5 -99.5t184 -71t183 -27q16 0 30.5 1t27.5 3q39 0 66.5 6.5t52.5 14.5q10 4 30 8q72 27 121 60.5t86 74.5q35 37 49.5 76t14.5 45q0 8 -2 25.5t-7 29.5q-29 57 -88 105.5t-157 69.5l4 -3q-25 10 -51.5 19.5t-53.5 17.5l-62 20 q-30 9 -54 19q-8 8 -23 8q-37 4 -58.5 35t-21.5 70q0 37 19 65q35 53 92 100.5t131 71.5q47 0 109.5 -12t107.5 -53q80 -63 111 -70h12q55 0 75.5 28t20.5 71q0 12 -2 26.5t-6 24.5v-2q-14 37 -41 56.5t-82 47.5q-61 35 -120.5 59.5t-141.5 34.5q-16 0 -23 -2 q-80 -4 -159 -34l-29 -15q-98 -47 -172 -109.5t-107 -121.5q-29 -51 -46 -94t-17 -86q2 -43 22.5 -84t52 -77t70.5 -64.5t78 -47.5q33 -14 45 -22q27 -14 52.5 -21.5t54.5 -13.5q47 -10 92 -22.5t55 -26.5q25 -10 33 -17.5t8 -15.5v-6q0 -12 -8 -22.5t-20.5 -17.5 t-24.5 -12.5t-21 -7.5q-4 -4 -24.5 -7t-43.5 -4l-46 -2q-23 -1 -31 -1q-39 0 -74 6t-96 23q-43 23 -83 51.5t-64 69.5q-12 18 -25.5 35.5t-36.5 31.5q-16 8 -29.5 7t-19.5 -1q-20 -2 -44 -7t-46 -28v-4q-27 -34 -27 -73z" />
<glyph unicode="t" horiz-adv-x="954" d="M-47 1032q0 -29 10 -61.5t25 -55.5q39 -10 68.5 -14t70.5 -4h170l4 -4q-10 -43 -16 -83t-15 -77l-55 -276l-38 -187l-23 -115q-8 -42 -13.5 -63.5t-7.5 -28t-4 -10.5q0 -20 5 -34.5t32 -47.5q2 -4 10 -12l29 -14q20 -6 49 -6q41 0 79 18t38 70v8l81 359q32 142 50 233 l27.5 125t17.5 71.5t16 43t21 38.5l415 23q39 12 56.5 37.5t17.5 54.5q0 43 -36 81t-99 38h-18q-8 0 -17 -2h2q-4 -2 -8 -2h-53q-59 0 -120.5 -1t-116 -2.5t-98.5 -3.5t-69 -4h-127q-76 0 -122 -1t-76.5 -2t-53 -2t-49.5 -1q-33 -6 -46 -29.5t-13 -56.5z" />
<glyph unicode="u" horiz-adv-x="1038" d="M-8 295q0 -66 20.5 -129.5t75.5 -110.5l16 -6q78 -63 139.5 -87.5t131.5 -24.5q8 2 20 2h29q10 0 19.5 -1t19.5 -1h20v2h4q117 0 197 61t134 156.5t90 213t65 232.5v-2q27 96 50.5 205.5t33.5 214.5q0 35 -1 57.5t-9 57.5q-8 14 -25.5 25t-39 19.5t-42 12.5t-35.5 4 q-23 0 -47 -20.5l-31 -26.5l-57 -277q-2 -8 -3 -16t-3 -16l-18 -100q-9 -54 -29 -132q-12 -53 -27.5 -110.5t-32 -108.5t-34 -93t-31.5 -63l-62 -79l-4 -4q-18 -12 -40.5 -19.5t-43 -10.5t-38 -4t-25.5 -1h-8q-10 0 -29.5 6t-38 17.5t-33 29.5t-14.5 43q0 10 2 16 q0 35 10.5 83t28.5 112l50 169l37 120l26 81l16 50q6 20 10 31.5t6 19.5t3 16.5t1 22.5q2 10 3.5 26.5t3.5 42.5q0 20 -16.5 42t-39 38.5t-50.5 28.5t-48 18q-37 0 -67.5 -24.5t-75.5 -102.5h2l-26 -77l-15 -52q-6 -20 -10.5 -31.5t-6.5 -21.5l-39 -133q-14 -49 -23 -88 l-17.5 -78t-18.5 -100q-4 -31 -7 -61.5t-3 -63.5z" />
<glyph unicode="v" horiz-adv-x="1081" d="M35 709q0 -72 4 -152t14 -178l37 -260q4 -20 11.5 -45t18.5 -49.5t28.5 -46t41.5 -35.5q18 -4 42 -6.5t53 -2.5q47 0 96 8.5t89 27t66.5 47t26.5 69.5l159 305l115 204l79 130l57 86q4 8 10 15.5t10 15.5q6 14 22 34l32 42l57 76q29 40 37 69q0 16 -6.5 36.5t-18.5 38 t-28.5 30t-36.5 12.5l18 -13q-6 12 -20.5 14.5t-30.5 2.5q-23 0 -45.5 -3t-32.5 -12q-49 -35 -106.5 -108.5t-117 -164.5t-117.5 -193l-110 -191l-73 -127q-33 -57 -60 -96q-4 20 -9 41.5t-9 42.5q-4 35 -6 65.5t-2 59.5v110q0 76 6 127t16 90q8 41 10.5 83t2.5 71 q-8 53 -52.5 77.5t-91.5 24.5h-35h-10q-4 0 -14 -4l2 2q-57 -12 -83 -60t-38 -126q-4 -29 -6 -77t-2 -107z" />
<glyph unicode="w" horiz-adv-x="1437" d="M25 440l4 -176q2 -90 12 -184q4 -29 15.5 -53.5t39.5 -42.5l6 -2h-2q45 -29 84 -29q31 0 54 8q16 -4 22 -4q53 0 87 62.5t77 177.5q10 27 22.5 55.5t24.5 60.5q39 94 58.5 137.5t35.5 65.5l8 2q6 -61 8.5 -76.5t4.5 -23.5q2 -4 3 -15.5t5 -42.5q2 -6 2 -10t2 -10 q4 -35 10 -68.5t15 -56.5v4q4 -33 14 -73t26.5 -78.5t40 -71.5t54.5 -47q33 -12 59.5 -15.5t46.5 -3.5q35 0 55.5 1t41.5 8q25 6 38 13t22 18.5t16 28.5l18 46v-2q20 43 35 82l30 80l42 108l61 146l92 206l135 287q14 29 20.5 44.5t10.5 31.5q-20 59 -53 84t-70 25t-55 -9 q-41 0 -78 -37.5t-76 -105t-80 -162.5l-88 -205l-41 -96l-43 -94q-6 -16 -13 -30.5l-14 -30.5q-6 53 -10 92t-5 67.5t-1 53.5v51v98v59q0 23 -1 33t-1 15q-2 16 -8 32.5t-25 30.5q-39 23 -84 33t-65 10q-63 -10 -114.5 -58t-92.5 -112l-37 -58l-33 -52l-34 -58l-40 -72 q6 109 14.5 170.5t18.5 102.5q2 8 2 16t2 15q4 27 7.5 55.5t7.5 89.5q-6 51 -50.5 74.5t-91.5 23.5q-31 0 -51 -6h4q-41 -4 -62.5 -15t-33.5 -30.5t-17.5 -47.5t-11.5 -67v-4q-14 -94 -23 -214t-9 -255z" />
<glyph unicode="x" horiz-adv-x="1034" d="M-90 12q0 -57 88 -73h8q6 -4 17 -5h18q49 0 96 27l116 131l69 78l36 44l23 28q16 16 25 27l16 22q20 -35 55 -85t73 -98.5t75 -87t65 -53.5v-4q29 -6 42 -7t26 -1q37 0 63 10q39 6 55.5 23.5t16.5 38.5q-4 37 -29.5 70.5t-52.5 64.5q-23 23 -40 45t-21 41 q-35 51 -64 106.5t-63 153.5l49 55q25 27 35 39l44 51l29 35l24 27q11 12 27 28l29 30l39 40q63 68 101 101l69 63l61 55q12 16 13 33q0 20 -16.5 39.5t-39 35t-49 25t-47.5 9.5h-6q-39 0 -87 -34t-124 -134l-252 -261l-8 3q-27 43 -47 86l-39 84l-41 82q-18 36 -47 65 l-14 6h-15q-14 0 -35.5 -2t-46 -5t-48 -9t-38.5 -13q-27 -12 -36 -34.5t-9 -44.5q0 -16 5.5 -38t11.5 -36l4 -4l27 -55l44 -90l52 -112q27 -60 49 -120l-49 -62l-107 -132l-75 -96l-67 -90zM621 500v4v-4z" />
<glyph unicode="y" horiz-adv-x="944" d="M-33 997q0 -31 9.5 -55t21.5 -47q25 -37 50.5 -96.5t48 -123t40 -123.5t25.5 -99l-68 -392q2 -47 58 -81l-5 2l17 -17q82 -31 123 -31q31 0 48 11.5t29.5 36t20.5 62.5t18 93l23 117q12 66 35 152q4 25 8 42t10 32.5t16.5 31.5t28.5 39q59 88 153.5 193.5t242.5 242.5 l2 2q2 0 6 4q16 14 39.5 37t23.5 51v17l-14 26v-2q-12 25 -45 38.5t-68 13.5q-55 0 -94 -44l-204 -224q-99 -110 -185 -220q-10 20 -21.5 47t-21.5 58v-3q-2 4 -4 10.5t-4 10.5q-35 88 -75 169t-91 122q-10 4 -27.5 5t-36.5 1q-29 0 -56.5 -5t-43.5 -18q-18 -12 -25.5 -32.5 t-7.5 -44.5v-9z" />
<glyph unicode="z" horiz-adv-x="1196" d="M-10 23q0 -23 14 -46q25 -29 66 -38t98 -9q100 2 181 8l140 9q41 4 73 6t56 2h23q33 -2 82 -3t94 -1h53q12 0 21.5 1t17.5 3q82 2 115 23.5t33 54.5q0 12 -5 28.5t-14 30.5q-12 92 -157 92h-86q-33 0 -53.5 1t-35 2t-28.5 3q-25 0 -75 -2t-159 -10q-12 -2 -26 -2 q-12 0 -27 -2l617 582q4 4 10 9t10 9l66 63q35 34 64.5 67.5t48 67.5t18.5 64q0 39 -35 65.5t-123 37.5q-14 0 -34.5 -1t-49.5 -3q-115 -4 -183.5 -5.5t-112.5 -3.5t-71.5 -4t-60.5 -4q-156 -10 -251 -21.5t-147.5 -24.5t-70.5 -30.5t-18 -40.5q0 -14 6 -26v-12 q0 -25 4 -53.5t33 -41.5q29 -23 50 -28.5t48 -5.5q31 0 78 6q16 0 66 5t109.5 12t119 15.5t94.5 14.5q16 0 25.5 1t19.5 3t18.5 3t18.5 1q12 0 28 -6l-663 -606q-43 -41 -84 -93.5t-41 -109.5v-2q-4 -12 -6 -23.5t-2 -31.5z" />
<glyph unicode="{" horiz-adv-x="946" d="M127 723q0 -43 26.5 -77t84.5 -34q82 0 109.5 -23.5t27.5 -78.5q0 -16 -1 -30.5t-3 -35.5q-6 -66 -16 -127l-17 -118v2q-8 -43 -13.5 -82t-7.5 -68q-2 -16 -3 -33.5t-1 -33.5q0 -119 48.5 -181.5t162.5 -62.5q61 0 148 22q-4 -2 5 1l15 6l-2 -2q18 4 41 11t42.5 20.5 t32.5 35t17 55.5v15q0 39 -23.5 71.5t-64.5 32.5q-14 0 -24 -4l-25 -10q-47 -25 -78 -25q-25 0 -37 16.5t-12 45.5q0 4 1 8t1 8q4 27 7 53l7 62q8 53 16.5 121.5t16.5 156.5q2 16 2 31v33q0 61 -15 113.5t-58 103.5q43 37 70.5 84t45 105.5t26.5 129t17 154.5q4 39 11.5 82 t20.5 80t34.5 60.5t56.5 23.5h41q18 0 34.5 3t29 13t21.5 30.5t11 55.5v19q0 63 -26.5 80.5t-71.5 17.5q-90 0 -160.5 -40t-121 -104.5t-80 -147.5t-37.5 -169l-4 -59q-6 -66 -12.5 -115t-24 -83t-50 -51.5t-89.5 -17.5q-35 0 -64 -13t-48.5 -34.5t-29.5 -48t-10 -53.5z" />
<glyph unicode="|" horiz-adv-x="391" d="M86 -145v-19q0 -37 12.5 -60.5t30.5 -37.5t38.5 -19.5t39.5 -5.5q33 0 60.5 41t41.5 121l2 -2l2 31q2 10 3 23.5t1 29.5l117 1341q0 12 2 30t2 36q4 27 6 55.5t2 59.5q0 55 -16 95t-63 40q-4 0 -9.5 -1t-9.5 -1q-43 -12 -65.5 -27.5t-34.5 -42t-17.5 -67.5t-9.5 -101v2 q-2 -10 -2 -22t-2 -27l-127 -1452v4q-4 -14 -4 -24z" />
<glyph unicode="}" horiz-adv-x="946" d="M129 -125v-16q0 -68 38 -92.5t79 -24.5q70 0 135 36t116.5 94t84 134t39.5 154l16 194q2 25 9 62t25.5 71.5t50.5 60t85 25.5q72 0 108.5 42t36.5 87q0 39 -27.5 70t-84.5 33l-45 4l-11.5 4t-13.5 6l2 -2q-10 2 -19.5 7t-16.5 16.5t-11 33t-4 60.5q0 88 13.5 191.5 t35.5 211.5l-2 -2q6 20 8 39t2 37q0 51 -14 98t-45 84t-77 58.5t-110 21.5q-57 0 -96 -3t-86 -15h2q-47 -10 -69.5 -46t-22.5 -77t24.5 -74t84.5 -33q-2 0 4 1l15 2.5t19.5 2.5t16.5 1l57 6q10 0 31 -4h-2q16 -4 21.5 -13.5t5.5 -19.5v-12q0 -6 -2 -13 q-25 -121 -39.5 -238.5t-14.5 -215.5q0 -154 66 -226q-74 -55 -106.5 -142t-41.5 -196l-16 -196q-2 -20 -5 -45t-12.5 -46.5t-25.5 -38t-43 -18.5q-78 -10 -120 -50t-48 -89z" />
<glyph unicode="~" horiz-adv-x="892" d="M109 1071q0 -35 30.5 -60.5t79.5 -25.5q33 0 57.5 18.5t47.5 43.5q16 16 32.5 30.5t30.5 14.5q12 0 33 -31q27 -29 66.5 -58.5t115.5 -29.5q61 0 110.5 11t84 39t56 74t28.5 117v7q0 29 -34 53t-73 24q-31 0 -57.5 -14t-42.5 -45q-6 -25 -8 -29q-4 -18 -11.5 -39.5 t-25.5 -21.5q-16 0 -30 14l-30 33q-23 31 -56.5 59.5t-98.5 28.5q-41 0 -93.5 -17.5t-98.5 -47t-78.5 -66.5t-34.5 -74v-8z" />
<glyph unicode="&#xa1;" horiz-adv-x="454" d="M-98 627q0 -59 73 -78q8 -8 33 -8q27 0 64 3t73.5 8t69.5 9t51 6q10 4 13.5 5t15.5 1q37 16 48 33t11 35v14q-10 29 -32.5 42.5t-45.5 19.5l168 438q2 12 15 25l-4 -2l31.5 67.5t17.5 63.5v10q0 14 -12 27q-23 33 -50.5 38t-74.5 5q-2 0 -33 -1.5t-71 -5.5t-79 -14 t-55 -29q-12 -12 -16 -26.5t-4 -26.5q0 -14 4 -26q14 -31 47 -36t55 -5l-178 -500q-4 0 -6 -1t-6 -1q-14 -2 -25 -4l-31 -6l2 2q-41 -8 -55 -33.5t-14 -48.5z" />
<glyph unicode="&#xa2;" horiz-adv-x="714" d="M-49 616q8 -80 40 -136t118 -83l-7.5 -19t-3.5 -22q-35 -104 -35 -147v-14q10 -31 31 -51.5t62 -30.5h20q47 0 75 19.5t42 47.5q6 12 10 25.5t8 34t7 50.5l8 72v-2q0 6 2 12.5t2 10.5q76 20 130 49l83 43q4 6 12 11l8 6l-2 -3q92 70 92 123v11q-14 29 -31.5 43t-33.5 24 q-16 4 -21 4h-12q-23 0 -45.5 -9t-56.5 -32q-25 -16 -48.5 -27.5t-64.5 -23.5q-35 -16 -57.5 -23.5t-38.5 -7.5h-2q-14 4 -17.5 11.5t-5.5 25.5v8q0 31 12.5 79t34 97.5t50 90.5t59.5 59h6q4 0 45 -12l11 -5q11 -5 16 -7v2q25 -14 42 -21.5t46 -7.5q23 0 53 10 q33 16 46 30.5t13 41.5t-22 65q-39 53 -119 99q2 6 4 14t6 18q2 4 4 9.5t13 13.5l19 33q11 18 20.5 38.5t16.5 40t7 35.5q0 4 -1 10.5t-1 8.5q-16 41 -45 54t-63 13q-49 0 -82 -21.5t-48 -55.5l-19 -37.5t-13 -30.5t-15 -43l-22 -72q-98 -37 -164 -104.5t-105.5 -144 t-56 -151.5t-16.5 -128v-21z" />
<glyph unicode="&#xa3;" horiz-adv-x="1044" d="M6 143q0 -16 5 -27.5t22 -27.5q47 -49 97 -66.5t132 -17.5h39q16 0 32.5 1t33.5 1q84 6 132 9l81 5q33 2 60.5 3.5t72.5 3.5q39 2 87 9t92 20.5t80 33t50 45.5q4 4 6 4t2 -2h2q4 0 5 7.5t1 33.5q0 2 -1 3t-1 3q0 33 -18 56q-39 27 -72 26q-6 0 -16 -1t-21 -1 q-6 -2 -28 -2q-23 0 -32 -1t-34 -3q-31 -4 -72 -8t-85 -7l-89 -6q-45 -3 -82 -6h-10q18 16 29.5 29.5t21 29t17.5 34t18 47.5q4 12 5 25.5t3 25.5q29 0 55.5 1t47.5 3q10 0 19 1t16 1q35 0 54 1t31.5 4t21.5 9.5t24 14.5q16 14 19 22t3 21q0 10 -5 27.5t-21 37.5l-13 17h23 q14 0 22 2h-6q37 8 57.5 14t33 20.5t21.5 42t21 78.5l-4 -2l49 158q2 6 2 14t2 15q8 20 12.5 35.5t4.5 44.5q0 35 -16.5 70.5t-55.5 68.5q-16 12 -61 35.5t-99.5 48t-108.5 43t-89 18.5h-17q-80 -12 -152.5 -58t-131 -104.5t-99.5 -120t-59 -104.5v-2q-6 -20 -10 -38.5 t-4 -35.5v-14q0 -8 2 -14q4 -53 22.5 -99.5t40.5 -87.5h-8q-86 0 -86 -75q6 -14 10 -37t4 -31q12 -37 46 -49t81 -12h33q-12 -27 -39.5 -52.5t-60.5 -47t-65 -38t-52 -24.5l-25 -16l-14 -9q-41 -41 -41 -76zM436 758v10q0 6 4 18v-2q12 51 46 98.5t77 84.5t89 63.5t83 38.5 q6 0 11.5 1t15.5 1q6 0 22 -6v-10q0 -16 -5 -33.5t-9 -34.5q-8 -25 -8 -47l-33 -86q-2 -4 -3 -10t-1 -17l-13 -47q-7 -25 -7 -57q0 -63 43 -107q-25 6 -54.5 8.5t-62.5 2.5q-16 0 -30.5 -1t-33.5 -1h-55q-6 4 -10 6t-8 8q-23 29 -40.5 58.5t-17.5 60.5z" />
<glyph unicode="&#xa4;" horiz-adv-x="727" d="M-39 614q0 -20 10 -32q27 -61 99 -62q4 0 12 1t20 5h-8l79 17q30 6 56.5 9t59.5 5t90 6q37 6 68.5 8t62.5 2h82q74 18 80 68q2 6 2 21q0 25 -15.5 42t-31.5 23q-27 12 -73 17.5t-89 5.5h-6l70 67q40 39 85 88q31 35 59.5 80t51.5 90t36 88t13 74v16q-6 82 -90 95 q-8 0 -20 4q-23 0 -37 10q-6 6 -7 8l-4 6q-10 10 -16 20.5t-27 18.5l-2 4q-39 16 -75 17q-45 0 -103.5 -26t-128.5 -83q-31 -23 -76 -68t-88 -96t-73.5 -97t-30.5 -71v-10q10 -33 26.5 -52.5t51.5 -27.5l-2 2q10 -2 20 -3t21 -1q25 0 50 10.5t36 34.5l-2 -6q63 86 98 125 t49 51q14 8 14 17q35 35 80 66.5t86 31.5h15q4 -4 4 -10v-19q-8 -31 -15.5 -51t-18.5 -39.5t-29 -43.5l-46 -60q-59 -76 -119.5 -135.5t-146.5 -118.5h2l-40 -20.5t-46 -16.5h2q-6 -2 -10 -3t-10 -3h2l-49 -13q-24 -6 -39 -28q-6 -10 -12.5 -22.5t-6.5 -24.5v-11z" />
<glyph unicode="&#xa5;" horiz-adv-x="1179" d="M-43 606q6 -41 34.5 -75.5t59.5 -49.5q23 -10 99 -10h65l-8 -51q-20 -2 -36.5 -3t-27.5 -1q-29 -2 -48 -4t-29 -4h4q-35 -6 -59.5 -32t-24.5 -54q0 -66 73 -105q47 -29 107 -35l-23 -133q2 -45 60 -80l18 -18q90 -33 137 -33q31 0 49.5 15.5t31 48t22.5 85.5l24 123 q39 4 74 5.5t68 5.5q23 2 32 2h19h12q43 8 68 49v-2q16 29 16 55q0 45 -19.5 70.5t-58.5 44.5q-31 10 -69.5 15t-87.5 5q4 10 6 21.5t6 23.5l20 2q4 2 13 2q8 0 18 3q8 2 15.5 3t17.5 1q23 4 37 4h22q63 0 85 17.5t22 64.5v20q-2 2 -2 12q0 59 -97 91q-10 4 -20 6l-20 4 q74 104 186.5 228t281.5 284l23 17q14 11 27.5 23.5t23.5 27t10 30.5v8q0 2 -1 3t-1 3l-14 27q-12 23 -46 36t-71 13q-57 0 -100 -45l-265 -292q-128 -144 -241 -292h-2q-16 29 -37.5 79t-46.5 114l-43 103q-23 52 -46.5 98.5t-50 83t-54.5 59.5q-14 4 -34 6t-36 2 q-31 0 -61.5 -4t-47.5 -18q-18 -12 -24 -32t-6 -46v-10q0 -33 14 -68t31 -68q20 -31 40.5 -74.5t41 -95t39.5 -106.5l34 -107q-12 -2 -23 -3t-24 -3q-10 -2 -18 -3t-17 -1l-24 -3q-8 -1 -19 -5q-16 -4 -31 -10l-26 -10h2q-49 -23 -49 -58z" />
<glyph unicode="&#xa6;" horiz-adv-x="389" d="M88 -203q0 -37 12.5 -60.5t31 -36.5t38.5 -19.5t39 -6.5q35 0 61.5 41t42.5 123l2 -2v29q2 12 3 25.5t4 27.5l28 336q0 12 1 28.5t3 36.5q4 27 6 55.5t2 57.5q0 55 -16 95t-65 40q-2 0 -7.5 -1t-9.5 -1q-43 -10 -66.5 -26.5t-35.5 -43t-16.5 -66.5t-8.5 -97 q-2 -10 -2 -25q0 -12 -2 -24l-39 -445l2 4q-8 -25 -8 -45zM172 844q0 -37 12.5 -60.5t30.5 -38t38.5 -19.5t39.5 -5q35 0 61.5 40t42.5 120l2 28q2 14 3 26.5t4 29.5l28 335q0 12 1 29t3 37q6 49 6 113q0 55 -15 95t-64 40q-2 0 -7.5 -1t-9.5 -1q-43 -10 -66.5 -26.5 t-36 -43t-17.5 -66.5t-9 -100v-24q0 -12 -2 -25l-39 -444q-4 -12 -5 -21.5t-1 -17.5z" />
<glyph unicode="&#xa7;" horiz-adv-x="866" d="M20 938q4 -35 25 -80t39 -67q16 -12 43 -11.5t51.5 7t43 12.5t18.5 4q41 4 94 6t94 2h18l-8 -28q-4 -13 -8 -29q-12 -43 -19 -71l-12 -44q-4 -16 -5 -25.5t-1 -17.5q0 -27 10.5 -41t45.5 -14q33 0 53 1t34.5 8t23.5 20.5t20 35.5q6 8 13 32t12 51.5t9 53.5l7 41 q2 14 4 25.5t6 21.5q47 2 66.5 5.5t41.5 17.5q39 23 60.5 46.5t21.5 86.5v6q0 45 -17.5 59.5t-47.5 14.5q-12 0 -23.5 -1t-21.5 -3q-23 -8 -37 0q2 10 3 18.5t3 16.5q12 57 23.5 92t20.5 57.5t14 37.5t5 36q-10 35 -32.5 51.5t-53.5 16.5q-37 -4 -63.5 -31t-45 -65 t-30.5 -82t-19 -82.5t-10.5 -65.5t-5.5 -29q-49 -10 -122.5 -17t-133.5 -7l51 80l62 97q31 48 52.5 86t17.5 46q4 10 6 17t2 16q0 63 -60 86q-4 2 -10 3t-18 1q-72 0 -109 -103l-44 -83l-29 -51l-17 -29q-6 -10 -12 -19q-35 -51 -59 -99t-40 -120z" />
<glyph unicode="&#xa8;" horiz-adv-x="839" d="M43 1300q10 -47 55 -78.5t119 -33.5q82 0 133 27.5t51 74.5v2q-6 47 -52 80t-128 33h-4q-78 0 -126 -29t-48 -76zM449 1303q2 -47 47 -80t122 -35q78 0 131.5 27.5t53.5 74.5v2q-4 47 -52.5 80t-123.5 33h-11q-76 0 -121.5 -27.5t-45.5 -74.5z" />
<glyph unicode="&#xa9;" horiz-adv-x="1656" d="M117 449q0 -106 28.5 -196.5t88 -155t147.5 -100.5t209 -36q47 0 95 7t95 20q166 45 303.5 103.5t247 144.5t192.5 207.5t140 295.5q37 113 37 211q0 135 -58.5 248t-150.5 221q-39 45 -96.5 78t-124 55.5t-136 33.5t-130.5 11q-49 0 -98.5 -14t-96.5 -37.5t-92 -52.5 l-86 -57q-113 -78 -201 -180.5t-151.5 -220t-103.5 -244.5t-54 -256q-2 -23 -3 -43t-1 -43zM297 535v40q0 20 4 43q10 102 58.5 213t119 209.5t156.5 174t172 108.5q20 -14 47 -14q25 0 53 12l62 28q33 15 70.5 28.5t80.5 13.5q80 0 146.5 -34t113.5 -93.5t74 -138 t27 -169.5v-28q0 -14 -2 -31q-16 -141 -69.5 -249.5t-145.5 -203.5q-59 -59 -133 -107t-154 -82t-161 -51.5t-154 -17.5q-174 0 -269.5 82.5t-95.5 266.5zM465 582q2 -47 15.5 -95.5t42 -86.5t72.5 -62.5t110 -24.5q12 0 25 1t28 3q111 18 198.5 52t180.5 98q12 8 25.5 26.5 t24.5 40t19 42t8 32.5v8q0 31 -22.5 66t-48.5 35q-23 0 -48 -21l-44 -34l-62 -38q-33 -19 -67.5 -35t-70.5 -26t-69 -10q-63 0 -113.5 10t-50.5 58v6q4 37 19.5 65.5t37 54t48.5 50t53 53.5q16 18 49 47t71 54.5t74 44t58 18.5q23 0 25 -21q4 -45 31.5 -62.5t56.5 -17.5 t49 19.5t33.5 47.5t20.5 58.5t9 53.5q2 10 2 30q0 72 -44 110t-121 38q-76 0 -165 -49.5t-170 -121t-144.5 -152.5t-88.5 -144q-23 -49 -40 -100.5t-17 -102.5v-18z" />
<glyph unicode="&#xaa;" horiz-adv-x="700" d="M18 512q0 -33 33 -60.5t99 -27.5l20 -4q10 -2 21.5 -3t23.5 -1q25 0 43 10l246 2l131 2q57 0 87 23.5t30 56.5t-36 59.5t-114 26.5q-6 0 -13 1t-16 1q-10 0 -18 1t-18 1q-25 0 -43 -6h-254q-6 2 -27 2q-10 0 -25.5 -1t-27.5 -3q-8 -2 -15 -2h-8q-59 0 -89 -24.5 t-30 -53.5zM63 848q0 -31 13.5 -65.5t37 -64.5t54.5 -49.5t65 -19.5q84 0 162 29t131 51h2q0 -29 16.5 -46t69.5 -17q55 0 78 29.5t23 88.5l28 404v14q0 51 -15 84t-38.5 51.5t-53.5 25.5t-58 7q-84 0 -177.5 -19.5t-171.5 -72.5h2l-12 -6q-18 -10 -37.5 -23.5t-23.5 -56.5 v-10q0 -37 17.5 -50.5t45.5 -13.5q29 0 62 14l47 19q20 6 38 12l35 13q35 12 68 21t70 9h10q8 0 10 -4l-4 -47q-203 -14 -336 -80.5t-155 -204.5q0 -4 -1.5 -11t-1.5 -11zM233 860v4q2 25 32 45.5t75 38t100.5 30.5t110.5 23l4 -77q-2 -4 -30.5 -21.5t-68.5 -38t-86 -36 t-83 -15.5h-17q-29 6 -33 12t-4 35zM330 1151q0 2 2 2z" />
<glyph unicode="&#xab;" horiz-adv-x="874" d="M41 633q-4 -41 6 -57.5t29 -26.5l196 -236l7 -6v2q14 -23 27 -35t40 -18h19q23 0 41 16.5t38 65.5v-2q4 8 5.5 13t3.5 11q4 23 -6.5 45.5t-43.5 53.5l-129 155l158 103q47 23 66.5 55.5t21.5 50.5q2 4 2 13q0 8 -6 14q-10 39 -23.5 51t-41.5 17h-7q-35 0 -67 -23 l-244 -160q-33 -14 -59.5 -40.5t-32.5 -61.5zM451 596q-4 -41 6 -57.5t28 -26.5l197 -236l6 -6v2q14 -23 27.5 -35t40.5 -18h18q23 0 41.5 16.5t38.5 65.5v-2q4 8 5 13t3 12q4 23 -6 45t-43 53l-129 156l158 102q47 23 66.5 55.5t21.5 50.5q2 4 2 13q0 8 -6 14 q-10 39 -23.5 51.5t-42.5 16.5h-6q-35 0 -68 -23l-243 -160q-33 -14 -59.5 -40.5t-32.5 -61.5z" />
<glyph unicode="&#xac;" horiz-adv-x="1943" d="M31 100q-4 -25 4 -42t24 -33l37 -30l31 -24q14 -10 32.5 -16t63.5 6l126 26l132 25q31 6 33 12.5t-2 28.5q-8 18 -15.5 37t-17.5 35q-16 18 -29.5 24.5t-39.5 4.5q-47 -4 -87 -8.5t-87 -10.5l34 133l37 138l37 130q18 62 37 113q6 20 0 31.5t-29 26.5q-53 29 -116 43 q-27 8 -39.5 3t-22.5 -28q-20 -61 -42.5 -145t-42 -172.5t-35 -169.5t-23.5 -138zM97 1517.5q-5 -6.5 3 -24.5q10 -16 23.5 -43t34.5 -45q16 -16 30.5 -20.5t38.5 1.5q16 4 40 7.5l50 7.5l-30 -130q-16 -71 -29.5 -142.5l-25 -138t-15.5 -113.5q-10 -41 15.5 -58.5 t64.5 -30.5q43 -12 69.5 -17t30.5 24q14 74 32 153l37 162l40 163l39 152q41 4 82 7.5t75 7.5q27 4 31 10t0 25q-20 47 -49 81q-10 10 -22.5 15.5t-40.5 5.5q-51 -2 -116 -7t-133.5 -11.5t-134 -14.5t-118.5 -16q-17 -4 -22 -10.5zM438 477q-14 -33 27 -41q16 -2 34.5 -4 t32.5 2q18 0 33 7.5t31 21.5q12 12 26.5 32.5t29 44t26.5 48t20 45.5q2 12 3 20.5t1 12.5q0 16 -14 32q-12 10 -27.5 21.5t-31.5 21.5q-23 14 -36 11.5t-24 -21.5l-29 -61l-36 -70l-36 -68zM542.5 14.5q10.5 -12.5 32.5 -28.5q16 -8 32 -14.5t28 -12.5q25 -8 34 -5t19 21 l32 67q15 34 38 73q55 16 127.5 25.5l144.5 19.5q4 -41 8 -75l9 -65q6 -29 16 -40t33 -17q25 -10 47 -11t49 -1q25 0 32 7t7 26q-6 86 -11.5 181t-9.5 185t-5 171t3 141q0 25 -9 38t-38 23q-37 10 -81 19.5t-113 13.5q-41 4 -62.5 -9.5t-36.5 -35.5q-39 -61 -84 -145 l-89 -171l-83 -173q-39 -85 -65 -152q-15 -43 -4.5 -55.5zM659 877q-6 -29 2.5 -43.5t30.5 -24.5q20 -12 47 -19l49 -14q27 -6 35 -1t13 22q12 49 22 109.5t29 127.5q39 6 79 11.5t78 11.5q-10 -55 -16 -101.5t-10 -83.5q-10 -37 13.5 -54t64.5 -30q41 -10 68.5 -15t27.5 24 q14 82 36 174l43 182l43 172l38 145q4 20 0 31.5t-29 26.5q-51 33 -106 45q-29 6 -42.5 3t-19.5 -30q-20 -68 -38.5 -155.5t-41.5 -180.5q-35 -4 -72.5 -6t-78.5 -6q23 78 38 143.5t31 112.5q4 23 -1 34t-29 25q-27 16 -56.5 27.5t-56.5 20.5q-29 8 -43 4t-19 -31 q-14 -68 -28.5 -155l-30.5 -176t-34 -173.5t-36 -152.5zM846 293l88 164q41 78 78 139q0 -68 2 -139.5t8 -145.5l-90 -8q-43 -4 -86 -10zM1260 131q-8 -37 1 -52.5t31 -39.5q27 -23 48.5 -38t54.5 -28q29 -18 51 -19t63 9q33 8 73 22.5t79 32t75 38t60 44.5q35 29 51.5 61 t5.5 75q-4 35 -30.5 67.5t-61.5 50.5q57 35 94 66q41 35 67 77t9 91q-10 45 -33.5 76.5t-56.5 60.5q-35 31 -98.5 39t-136 2t-145 -25.5t-126.5 -44.5q-4 -63 -14 -138l-22 -149l-22 -147q-11 -72 -17 -131zM1317 920q-4 -27 3 -45.5t23 -34.5q18 -18 35 -30l33 -24 q14 -10 34.5 -15t63.5 5q59 10 125 24l129 25q27 6 33 13.5t-4 27.5q-6 18 -13 36t-18 38q-10 16 -26.5 23.5t-44.5 3.5l-89 -7.5t-88 -13.5q10 29 15.5 56.5t15.5 56.5q55 12 114.5 21.5l117.5 19.5q27 6 34 12t-4 29q-6 18 -13 35.5t-17 35.5q-10 16 -25.5 22.5t-42.5 4.5 q-66 0 -113 -8l25.5 89t26.5 79q63 10 120.5 15t110.5 11q25 4 31 10.5t2 28.5q-4 18 -10.5 33.5t-16.5 36.5q-18 35 -65 35q-104 -4 -209 -21.5t-183 -36.5zM1436 115q10 39 18 75.5t19 75.5q78 27 126 20t56 -28q8 -33 -52.5 -74.5t-166.5 -68.5zM1513 420q10 47 20.5 87 t25.5 77q78 33 130 35t62 -21q4 -14 -10.5 -36.5t-45 -48.5t-77 -50.5t-105.5 -42.5z" />
<glyph unicode="&#xad;" horiz-adv-x="1099" d="M57 563q0 -8 2 -12v-14l12 -43q7 -27 21 -43q16 -25 57 -33t101 -8q25 0 51.5 1t56.5 1l54 4q27 2 55 2h4q12 0 65.5 1t115 3t116.5 5t72 7h41q53 0 77.5 3t45.5 18q18 8 23 17t5 26l-20 43q-10 20 -21 28q-53 49 -135 62.5t-176 13.5h-88q-20 0 -42 -2t-42 -2 q-51 0 -110.5 -1t-113 -3t-93 -4t-50.5 -4h2q-41 -8 -63.5 -17.5t-22.5 -40.5v-8z" />
<glyph unicode="&#xae;" horiz-adv-x="1818" d="M190 680q0 -158 43 -268q61 -158 216 -271q176 -127 382 -127q211 0 474 140q203 113 311 241q57 68 99 152t71 192l29 119q12 53 16 96q2 16 3 31.5t1 32.5q0 141 -70 258q-76 131 -245 223q-244 129 -451 129q-209 0 -414 -119q-426 -248 -460 -735q-2 -25 -3.5 -48 t-1.5 -46zM393 721q0 16 1 33.5t3 33.5q12 96 45 183q66 186 236 299q172 117 366 116q223 0 398 -155q168 -147 168 -338v-23q0 -10 -2 -22q-12 -111 -88 -236q-72 -123 -164 -196q-195 -156 -436 -156h-27q-12 0 -27 2q-213 16 -342 135q-131 125 -131 324zM612 471 q0 -33 15 -55q53 -41 92 -41q29 0 69 18q43 18 54 109q0 10 1 24.5t3 30.5v47q10 2 18 2h17q41 0 73 -16q43 -23 105 -96q70 -74 112 -99q6 -2 31 -2q61 0 117 64q18 20 18 39v2q0 18 -37 71q-76 80 -112 105q111 45 160 106q68 80 75 166v23q0 61 -28 123q-72 145 -336 145 q-147 0 -307 -43q-76 -20 -86 -109v-14q0 -35 26 -59q0 -45 -11 -143.5t-34 -258.5q-2 -12 -7 -28l-11 -35l-12 -35q-5 -16 -5 -29v-12zM872 819q0 41 5.5 91.5t15.5 111.5q90 20 162 20q31 0 61.5 -4t63.5 -12q55 -16 55 -55v-8q-4 -45 -80 -84q-63 -29 -111 -41 q-41 -10 -76.5 -15.5t-66.5 -5.5q-8 0 -15.5 1t-13.5 1z" />
<glyph unicode="&#xaf;" horiz-adv-x="499" d="M-141 682q6 -51 71 -74q14 -4 22.5 -5t22.5 -1q20 0 51 3t66 7l69 9q34 4 60 8q10 2 19.5 3t13.5 1q8 0 25 4q41 14 54 30.5t13 39.5q0 4 -1 8t-1 6q-16 35 -39.5 49t-54.5 18l160 498q2 6 4 16.5t8 24.5q10 31 23.5 63.5t13.5 57.5q0 10 -5 20l-10 19q-29 33 -56.5 40 t-78.5 7q-4 0 -38.5 -1t-79 -6t-85 -17.5t-55.5 -32.5v4q-20 -27 -20 -51q0 -27 20 -41q16 -31 42 -36t48 -5h17l-156 -562h-4q-16 -2 -27.5 -3t-19.5 -1t-16.5 -1t-18.5 -3h2q-59 -23 -59 -73v-23z" />
<glyph unicode="&#xb0;" horiz-adv-x="440" d="M66 1137q0 -61 34.5 -108.5t120.5 -47.5q49 0 96.5 20.5t84 55.5t60 81t27.5 97v2q0 6 1.5 12t1.5 13q0 63 -37 111t-113 48q-63 0 -113.5 -26.5t-85 -66.5t-55 -89t-22.5 -92v-10zM250 1165q2 29 21.5 56.5t58.5 27.5q8 0 8 -14v-8q-2 -33 -24.5 -57.5t-55.5 -24.5 q-8 0 -8 20z" />
<glyph unicode="&#xb1;" horiz-adv-x="944" d="M31 217q0 -20 5 -38.5t13 -37.5q29 -53 127 -53q10 0 32.5 2t37.5 2l567 12q49 0 82 39q27 33 27 88q0 78 -76 97q-51 6 -89 11t-67 3q-80 -4 -141.5 -8t-112.5 -8l-97 -7.5t-95 -3.5q-51 0 -85 -2t-53 -6q-75 -20 -75 -90zM80 938q0 -20 5 -38.5t13 -37.5 q29 -53 127 -53q10 0 33 2t37 2q63 0 63 -47q0 -16 -1 -35.5t-3 -46.5q-6 -49 -6 -80q0 -152 103 -151q43 0 61 22q14 14 39 94l14 59l10 44q12 61 41 100q41 53 93 53h153q49 0 82 39q27 33 27 88q0 78 -76 97q-51 6 -89 9t-67 5q-72 6 -82 12q-27 20 -26 70q0 12 2 31.5 t5 41t5 41t2 31.5q0 125 -104 125q-70 0 -95 -82q-4 -18 -6 -53t-6 -84q-4 -41 -7 -66.5t-7 -46.5q-6 -47 -127 -47q-51 0 -85 -2t-52 -6q-76 -20 -76 -90z" />
<glyph unicode="&#xb2;" horiz-adv-x="1077" d="M16 197q0 -16 1 -30.5t8 -31.5h-2q16 -49 42.5 -87t75.5 -38q10 0 17.5 1t13.5 3q80 23 138.5 30t111.5 7q49 0 104 -6q12 -2 25 -2q14 0 27 -2q14 -2 26 -2q14 0 31 -2q14 0 26.5 -1t28.5 -3q14 -2 29 -5l35 -8l-2 3q37 -14 67 -15q55 0 94 53q20 29 34 63t14 64 q0 57 -52 78q-88 31 -174 42t-168 11q-47 0 -92 -3t-84 -7l31 31q4 4 12 8q63 47 133 80t137.5 61.5t130 58.5t116 69.5t94 93t65.5 131.5h-2q14 41 14 76q0 63 -28.5 109t-77.5 75v-2q-16 10 -29.5 13t-23.5 5q-6 0 -11 2q-27 10 -65 10q-45 0 -102.5 -11t-114 -26.5 t-103.5 -32t-71 -28.5v4q-41 -4 -102.5 -37.5t-118 -81t-96.5 -97.5t-40 -87q0 -12 8.5 -30.5t22.5 -35t30.5 -27.5t35.5 -11q2 0 3 -1t5 -1h-2q6 -2 12 -2h14q35 0 52.5 17t33.5 40q2 2 3 4t3 4q10 14 31 25q8 4 11.5 7t11.5 7l28.5 19.5t22.5 13.5q4 4 7 6t7 6l-4 -2 q47 31 95 56.5t104 29.5q4 2 12 2q10 0 16 2q4 0 6.5 1t6.5 1q20 4 39.5 6t36.5 2q20 0 35.5 -4t19.5 -18v-2v-6q0 -33 -41 -54.5t-88 -37.5q-8 -4 -14.5 -6.5t-14.5 -6.5l-25 -10q-15 -6 -24 -10q-20 -10 -33.5 -15.5t-30.5 -13.5q-16 -6 -29 -13l-26 -13 q-51 -23 -91 -44.5t-93 -56.5q-14 -8 -26.5 -14t-20.5 -15h4l-53 -34q-25 -16 -48.5 -36t-48 -44.5t-55.5 -59.5q-72 -87 -72 -161z" />
<glyph unicode="&#xb3;" horiz-adv-x="858" d="M27 741q0 -10 2 -12q33 -74 78 -102.5t114 -53.5q35 -10 70 -15t69 -5q61 0 123 15.5t115 44t93 68.5t59 89q41 82 41 170t-60 160q29 29 56.5 73t27.5 101q2 51 -17.5 88t-53 59.5t-78.5 30.5t-91 2q-47 0 -98 -9t-100 -29.5t-93 -54.5t-81 -83q10 -41 30.5 -75 t63.5 -34q10 2 29.5 10.5t35.5 18.5q41 29 90.5 54.5t96.5 25.5q16 0 33.5 -4t33.5 -14q-2 -12 -16 -29t-27 -29h5q-31 -16 -65 -25.5t-71 -15.5q-4 0 -5 -1t-3 -1q-37 -10 -72.5 -22.5t-70.5 -40.5q-4 -14 -5 -27.5t-1 -26.5q0 -47 23.5 -73.5t62.5 -26.5q12 0 19 1t18 5 q57 20 106 21q41 6 64.5 -17.5t23.5 -58.5q-10 -43 -41 -76t-73 -52.5t-87 -21.5t-84 19q-23 6 -43 26.5t-36 38.5q-20 27 -39 44.5t-45 17.5q-20 -2 -25.5 -3t-7.5 -3h2q-14 -10 -30.5 -23.5t-31 -31t-24.5 -39t-10 -48.5z" />
<glyph unicode="&#xb4;" horiz-adv-x="507" d="M111 1282q0 -29 16 -40t51 -25l8 -3h7q14 0 30.5 8.5t50.5 49.5q10 14 34 32.5l59 43.5l55 43t39.5 37.5t30 43t22.5 56.5q2 10 4 18t2 27q0 41 -18.5 58.5t-50.5 17.5q-23 0 -52.5 -11.5t-62.5 -31.5q-27 -18 -55.5 -48t-56 -66t-51 -73t-40.5 -69q-22 -50 -22 -68z" />
<glyph unicode="&#xb5;" horiz-adv-x="974" d="M111 -221v-25q0 -47 18 -76.5t82 -37.5h18q39 0 61.5 14t35 38.5t18.5 56.5t10 65v2l8 141q47 0 78 3t63 10t71 23l106 42q8 -41 38 -53.5t66 -12.5q57 0 100.5 24.5t43.5 86.5q0 25 -8 49l47 655v-6q4 25 7 46.5t3 39.5q0 55 -24.5 77t-65.5 22h-15q-63 -6 -97 -44 t-50 -124l-35 -502q-23 -16 -53.5 -33.5t-64 -33t-67.5 -26t-65 -12.5h-6q-27 0 -43 20.5t-16 67.5v11l43 481v-6q2 10 2 24v29q0 51 -23.5 85t-77.5 36h-10q-70 0 -103.5 -46t-33.5 -95q0 -16 2 -23l-20 -299l-14 -182q-5 -68 -6 -96.5t-1 -38.5v-9l-18 -323q0 -4 -1 -10.5 t-1 -10.5q-2 -12 -2 -24z" />
<glyph unicode="&#x3bc;" horiz-adv-x="974" d="M111 -221v-25q0 -47 18 -76.5t82 -37.5h18q39 0 61.5 14t35 38.5t18.5 56.5t10 65v2l8 141q47 0 78 3t63 10t71 23l106 42q8 -41 38 -53.5t66 -12.5q57 0 100.5 24.5t43.5 86.5q0 25 -8 49l47 655v-6q4 25 7 46.5t3 39.5q0 55 -24.5 77t-65.5 22h-15q-63 -6 -97 -44 t-50 -124l-35 -502q-23 -16 -53.5 -33.5t-64 -33t-67.5 -26t-65 -12.5h-6q-27 0 -43 20.5t-16 67.5v11l43 481v-6q2 10 2 24v29q0 51 -23.5 85t-77.5 36h-10q-70 0 -103.5 -46t-33.5 -95q0 -16 2 -23l-20 -299l-14 -182q-5 -68 -6 -96.5t-1 -38.5v-9l-18 -323q0 -4 -1 -10.5 t-1 -10.5q-2 -12 -2 -24z" />
<glyph unicode="&#xb6;" horiz-adv-x="958" d="M94 594q0 -147 69.5 -231t201.5 -84h32q18 0 35 2l-29 -463v-15q0 -63 28 -94t65 -31q16 0 26 5l-2 -2q35 8 58.5 25.5t38 48t23.5 75.5t15 113l86 1081h13q2 0 5 1t7 1q6 0 13 -3t16 -17l-99 -1170v-18q0 -61 28 -92t67 -31h10q6 0 16 4l-2 -2q35 8 58.5 24.5t38 47 t22.5 76.5t14 114l74 1159v6q0 41 -27.5 65.5t-66.5 39t-82 18.5t-72 4q-109 0 -224.5 -41t-213.5 -118.5t-165 -191.5t-75 -259v2q-2 -12 -2 -27v-22z" />
<glyph unicode="&#xb7;" horiz-adv-x="741" d="M49 -301q0 -35 51.5 -51.5t126.5 -16.5q66 0 140.5 11.5t137 32t103.5 49t41 63.5v23q0 41 -26.5 71.5t-63.5 55.5q-35 16 -67.5 28t-73.5 17l119 96h-232l-203 -152q-23 -14 -31 -20t-8 -29q0 -2 52 -2h121h38q16 0 19 -2q-68 -18 -114 -43t-75.5 -49.5t-42 -47 t-12.5 -34.5z" />
<glyph unicode="&#xb9;" horiz-adv-x="471" d="M8 844q0 -41 21.5 -78t46.5 -51q4 -6 30 -6q23 0 40.5 9t33.5 21q6 4 11.5 8.5t9.5 8.5q-2 -27 -9.5 -60.5l-15.5 -66.5t-10 -54v3q-12 -80 -27.5 -141.5t-32.5 -119.5q-16 -55 -29.5 -112.5t-27.5 -141.5v-14q0 -53 27.5 -66.5t68.5 -13.5h45q37 16 58.5 32.5t32 37 t14.5 48.5t8 71q2 20 10 62l19 93q4 25 10 49.5t10 47.5q8 45 16 78l13 62q6 28 12 52.5t15 52.5q12 45 27 110l40 169v4q16 49 17 78q0 59 -34 93t-75 34q-37 0 -76 -27q-31 -29 -55 -45l-47 -31q-4 -4 -8 -5t-9 -5l-18 -12l-73 -51.5t-77 -69.5q-8 -14 -10 -26.5t-2 -26.5 z" />
<glyph unicode="&#xba;" horiz-adv-x="919" d="M33 903q0 -66 29.5 -125t76.5 -98q49 -41 114.5 -59.5t137.5 -18.5q53 0 107 6q92 18 157.5 47t124.5 58l23 11q10 5 22 9h-2q86 39 119 115t33 162q0 59 -12 112l-2 2q-12 55 -45 92t-76 62t-91 41l-94 31q-37 10 -67.5 13t-59.5 3q-88 0 -159.5 -31.5t-129 -81 t-101.5 -112t-77 -123.5q-28 -64 -28 -115zM49 438q0 -8 2 -12v-14l11 -43q7 -27 22 -43q16 -25 57 -33t101 -8q25 0 51 1t57 1h6q31 0 82 1t103.5 3t95.5 5t57 7h41q53 0 78 3t45 18q18 8 23.5 17t5.5 26l-21 43q-10 20 -20 28q-53 49 -135 62.5t-176 13.5h-89 q-20 0 -41.5 -2t-42.5 -2q-102 0 -154 -1t-75 -5h2q-41 -8 -63.5 -17.5t-22.5 -40.5v-8zM354 930q0 39 15.5 65.5t37 47t47.5 34.5l46 27q6 4 24 4q20 0 46 -8t48.5 -22.5t39 -34t16.5 -39.5q0 -12 -6 -21l-2 -2q-14 -29 -45 -48.5t-68 -31.5t-75 -17t-64 -5q-23 0 -38.5 6 t-19.5 24q0 4 -1 9.5t-1 11.5z" />
<glyph unicode="&#xbb;" horiz-adv-x="874" d="M39 340q0 -8 6 -14q10 -39 23.5 -51.5t42.5 -16.5h6q33 0 67 23l244 159q33 14 59.5 41t32.5 62q4 41 -6 57t-29 27l-196 235l-6 6v-2q-14 23 -27.5 35t-40.5 19h-18q-23 0 -41.5 -16.5t-38.5 -65.5v2q-4 -8 -5 -13.5t-3 -11.5q-4 -23 6 -45t43 -53l129 -156l-158 -102 q-47 -23 -66.5 -55.5t-21.5 -51.5q-2 -4 -2 -12zM449 303q0 -8 6 -14q10 -39 23.5 -51.5t41.5 -16.5h6q33 0 68 23l244 159q33 14 59.5 41t32.5 62q4 41 -6.5 57.5t-28.5 26.5l-197 235l-6 6v-2q-14 23 -27.5 35.5t-39.5 18.5h-19q-23 0 -41 -16.5t-39 -65.5v2 q-4 -8 -5 -13.5t-3 -11.5q-4 -23 6.5 -45t42.5 -53l129 -156l-157 -102q-47 -23 -66.5 -55.5t-21.5 -51.5q-2 -4 -2 -12z" />
<glyph unicode="&#xbc;" horiz-adv-x="1452" d="M-23 692q0 -59 74 -78q8 -8 33 -8q27 0 63.5 3t73.5 8.5t70 9.5t51 6q10 4 13 5t16 1q37 16 48 32.5t11 35.5v14q-10 29 -32.5 42t-45.5 19l168 439q2 12 15 24l-5 -2l32 68t18 63v10q0 14 -13 27q-23 33 -50.5 38t-74.5 5q-2 0 -32.5 -1t-70.5 -5t-79 -14.5t-55 -28.5 q-12 -12 -16.5 -26.5t-4.5 -26.5q0 -14 4 -27q14 -31 47 -36t56 -5l-178 -500q-4 0 -6.5 -1t-6.5 -1q-14 -2 -24 -4l-31 -6l2 2q-41 -8 -55.5 -33.5t-14.5 -48.5zM219 102q0 -47 24.5 -68.5t82.5 -21.5q27 0 47 12.5t35.5 31t26.5 40l20 39.5q2 6 7 16.5t9 22.5t9 23l7 14 q18 45 52 105l72 131l85 147l90 149l134 228q61 104 92 170v6q6 23 14 48.5t8 47.5q0 39 -20.5 65.5t-69.5 26.5q-72 0 -102.5 -28.5t-40.5 -63.5l-71 -119l-96 -170l-110 -198l-108 -202l-92 -179q-41 -82 -64 -133q-41 -83 -41 -140zM684 391q4 -35 24.5 -80t39.5 -67 q16 -12 42.5 -11.5t51 7t43 12.5t18.5 4q41 4 94.5 6t94.5 2h18l-8 -27q-4 -13 -8 -30l-20 -71l-11 -44q-4 -16 -5 -25.5t-1 -17.5q0 -27 10 -41t45 -14q33 0 53.5 1t34.5 8t23.5 20.5t19.5 35.5q6 8 13.5 32t12.5 51.5t9 54.5l6 41q2 14 4 25t6 22q47 2 66.5 5t42.5 17 q39 23 60.5 46.5t21.5 86.5v6q0 45 -17.5 59.5t-48.5 14.5q-12 0 -23.5 -1t-21.5 -3q-23 -8 -37 0q2 10 3 18.5t3 16.5q12 57 23.5 92t21 57.5t14.5 38t5 35.5q-10 35 -32.5 51.5t-53.5 16.5q-37 -4 -63.5 -31t-45 -64.5t-31 -81.5t-19.5 -83t-10 -66t-5 -29 q-49 -10 -123 -17t-133 -7l50 80l63 97q31 48 52 86t17 46q4 10 6 17.5t2 15.5q0 63 -59 86q-4 2 -10 3t-19 1q-72 0 -108 -102l-44 -83l-29 -52l-17 -29q-6 -10 -13 -19q-35 -51 -58.5 -99t-39.5 -120z" />
<glyph unicode="&#xbd;" horiz-adv-x="1452" d="M-23 692q0 -59 74 -78q8 -8 33 -8q27 0 63.5 3t73.5 8.5t70 9.5t51 6q10 4 13 5t16 1q37 16 48 32.5t11 35.5v14q-10 29 -32.5 42t-45.5 19l168 439q2 12 15 24l-5 -2l32 68t18 63v10q0 14 -13 27q-23 33 -50.5 38t-74.5 5q-2 0 -32.5 -1t-70.5 -5t-79 -14.5t-55 -28.5 q-12 -12 -16.5 -26.5t-4.5 -26.5q0 -14 4 -27q14 -31 47 -36t56 -5l-178 -500q-4 0 -6.5 -1t-6.5 -1q-14 -2 -24 -4l-31 -6l2 2q-41 -8 -55.5 -33.5t-14.5 -48.5zM219 102q0 -47 24.5 -68.5t82.5 -21.5q27 0 47 12.5t35.5 31t26.5 40l20 39.5q2 6 7 16.5t9 22.5t9 23l7 14 q18 45 52 105l72 131l85 147l90 149l134 228q61 104 92 170v6q6 23 14 48.5t8 47.5q0 39 -20.5 65.5t-69.5 26.5q-72 0 -102.5 -28.5t-40.5 -63.5l-71 -119l-96 -170l-110 -198l-108 -202l-92 -179q-41 -82 -64 -133q-41 -83 -41 -140zM639 59q0 -8 1 -16t9 -16 q27 -61 99 -62q4 0 12 1t20 5h-8l79 17q30 6 56.5 9t59 5t90.5 6q37 6 68.5 8t62.5 2h82q74 18 80 68q2 6 2 20q0 25 -15.5 42.5t-31.5 23.5q-27 12 -73 17.5t-89 5.5h-6l70 67q40 39 85 88q31 35 59.5 80t51 90t36 88t13.5 74v16q-6 82 -90 95q-8 0 -21 4q-23 0 -36 10 q-8 8 -11 14q-10 10 -16 20.5t-27 18.5l-2 4q-39 16 -75 17q-45 0 -103.5 -26t-128.5 -83q-31 -23 -76 -68t-88 -96t-73.5 -97t-30.5 -71v-10q10 -33 26.5 -52.5t51.5 -27.5l-2 2q10 -2 20 -3t21 -1q25 0 50 10.5t36 34.5l-3 -6q63 86 98.5 125t49.5 51q14 8 14 17 q35 35 80 66.5t86 31.5h15q4 -4 4 -10v-19q-8 -31 -15.5 -51t-18.5 -39.5t-29 -43.5l-46 -60q-59 -76 -119.5 -135.5t-146.5 -118.5h2l-40 -20.5t-46 -16.5h2q-6 -2 -10 -3t-11 -3h2l-48 -13q-24 -6 -40 -28q-6 -10 -12 -22.5t-6 -24.5v-11z" />
<glyph unicode="&#xbe;" horiz-adv-x="1683" d="M-31 750q0 -10 2 -13q33 -74 78 -102.5t115 -52.5q35 -10 69.5 -15.5t69.5 -5.5q61 0 122.5 15.5t115 44t93.5 68.5t58 89q41 82 41 170t-59 160q29 29 56.5 73t27.5 101q2 51 -17.5 88t-53.5 59.5t-79 30.5t-90 2q-47 0 -98 -9t-100.5 -29.5t-93.5 -54.5t-81 -83 q10 -41 31 -74.5t64 -33.5q10 2 29.5 10t35.5 18q41 29 90 54.5t97 25.5q16 0 33.5 -4t33.5 -14q-2 -12 -16.5 -28.5l-26.5 -29.5h4q-31 -16 -64.5 -25t-70.5 -16q-4 0 -5 -1t-3 -1q-37 -10 -73 -22t-71 -41q-4 -14 -5 -27.5t-1 -25.5q0 -47 23.5 -74t62.5 -27q12 0 19.5 1 t17.5 5q57 20 107 21q41 6 64.5 -17.5t23.5 -58.5q-10 -43 -41 -75.5t-73 -52t-87 -21.5t-84 18q-23 6 -43 26.5l-37 39.5q-20 27 -38.5 44t-45.5 17q-20 -2 -25 -3t-8 -3h3q-14 -10 -31 -23.5t-31 -31t-24.5 -38.5t-10.5 -48zM451 102q0 -47 24.5 -68.5t81.5 -21.5 q27 0 47.5 12.5t35.5 31t26.5 40t19.5 39.5q2 6 7 16.5t9.5 22.5t9.5 23l7 14q18 45 51 105l73 131l85 147l90 149l133 228q61 104 92 170v6q6 23 14.5 48.5t8.5 47.5q0 39 -20.5 65.5t-69.5 26.5q-72 0 -103 -28.5t-41 -63.5l-70 -119l-97 -170l-109 -198l-109 -202 l-92 -179q-41 -82 -63 -133q-41 -83 -41 -140zM915 391q4 -35 25 -80t39 -67q16 -12 43 -11.5t51.5 7t43 12.5t18.5 4q41 4 94 6t94 2h18l-8 -27q-4 -13 -8 -30q-12 -43 -19 -71l-12 -44q-4 -16 -5 -25.5t-1 -17.5q0 -27 10.5 -41t44.5 -14q33 0 53.5 1t35 8t23.5 20.5 t20 35.5q6 8 13 32t12 51.5t9 54.5l7 41q2 14 4 25t6 22q47 2 66.5 5t41.5 17q39 23 60.5 46.5t21.5 86.5v6q0 45 -17.5 59.5t-47.5 14.5q-12 0 -23.5 -1t-21.5 -3q-23 -8 -37 0q2 10 3 18.5t3 16.5q12 57 23.5 92t20.5 57.5t14 38t5 35.5q-10 35 -32.5 51.5t-53.5 16.5 q-37 -4 -63.5 -31t-45 -64.5t-30.5 -81.5t-19.5 -83t-10.5 -66t-5 -29q-49 -10 -122.5 -17t-133.5 -7l50 80l63 97q31 48 52.5 86t17.5 46q4 10 6 17.5t2 15.5q0 63 -60 86q-4 2 -10 3t-18 1q-72 0 -109 -102l-44 -83l-29 -52l-17 -29q-6 -10 -12 -19q-35 -51 -59 -99 t-40 -120z" />
<glyph unicode="&#xbf;" horiz-adv-x="1382" d="M31 -117q0 -84 57 -159q82 -102 197 -125q41 -8 97 -12.5t132 -4.5q131 0 191 15h-3q203 27 269 49q324 92 366 231q2 6 3 11.5t1 15.5q0 16 -1 39.5t-6 44t-15 35t-29 14.5q-25 27 -57 26q-29 0 -67 -17t-87 -46q-45 -29 -69.5 -48.5t-28.5 -21.5q-35 -12 -57 -23 l-42 -21q-19 -9 -41 -15t-53 -10q-70 -10 -122 -15.5t-88 -5.5h-5q-266 0 -266 92q0 8 4 25q39 119 307 209l54 17q23 7 45 12l84 14q47 8 108 22q12 4 24.5 6.5t27.5 6.5q20 4 37 8l34 8q14 4 23.5 6t17.5 4q47 10 83 51t50 85q4 10 7.5 28.5t5.5 52.5q2 14 3 26.5t1 25.5 v43q0 37 4 70.5t4 60.5q0 31 -11.5 48t-45.5 21q-16 2 -33 2h-27q-72 0 -91 -21.5t-19 -74.5q0 -23 -4 -49l-7 -59l-14 -31q-10 -8 -21.5 -15.5t-27.5 -11.5l-19 -3q-18 -3 -39 -7q-72 -10 -152.5 -35.5t-172.5 -64.5q-100 -41 -176 -84t-129 -86q-61 -53 -117 -131 q-4 -4 -5 -8.5t-5 -8.5l-44 -74q-19 -33 -30 -61h2q-8 -23 -10 -41.5t-2 -34.5zM969 985q0 -45 39 -82q45 -39 108 -39q119 0 166 68q35 35 41 53q8 31 13 57.5t5 51.5q0 113 -118 112q-74 0 -150 -57q-78 -57 -100 -129l2 2q-4 -10 -5 -18.5t-1 -18.5z" />
<glyph unicode="&#xc0;" d="M10 12q0 -23 11.5 -42t30 -32.5t40 -20.5t41.5 -7q53 0 96 21.5t72 84.5q23 47 38 83t28.5 63.5t28 50.5t34.5 43l8 2h23q4 0 6 1t6 1q49 2 111 6l174 8q88 4 139 5h23l14 -7h2l8 -8l4 -6l10 -61l21 -105q8 -43 20.5 -68.5t31 -40t43 -20.5t59.5 -12q12 0 27.5 4t37.5 14 q35 14 50.5 46t15.5 67q0 29 -11 53l-2 4q-170 1219 -239 1245l-30 8q-13 3 -36 3h-6v2q-96 -14 -153.5 -37t-92.5 -53.5t-56 -71.5l-46 -90l-46 -92q-26 -49 -59 -99l-113 -185l-124 -208l-117 -209q-55 -102 -94 -186q-14 -35 -21.5 -63.5t-7.5 -63.5v-27zM535 498v8 l264 440l14 6l21 -4l10 -10l53 -438l-4 -8l-14 -15h4l-9 -4h-321l-6 2zM682 1810q0 -18 1 -26t5 -19q10 -33 22.5 -56t30 -42.5t40 -38l55.5 -43.5l58.5 -43t33.5 -33q31 -39 54.5 -48t31.5 -9h4q39 14 56.5 26.5t17.5 41.5q0 18 -23 67q-16 33 -39.5 70t-51.5 72.5 t-57.5 65.5t-56.5 48q-66 43 -112 43q-33 0 -51.5 -17.5t-18.5 -58.5z" />
<glyph unicode="&#xc1;" d="M10 12q0 -23 11.5 -42t30 -32.5t40 -20.5t41.5 -7q53 0 96 21.5t72 84.5q23 47 38 83t28.5 63.5t28 50.5t34.5 43l8 2h23q4 0 6 1t6 1q49 2 111 6l174 8q88 4 139 5h23l14 -7h2l8 -8l4 -6l10 -61l21 -105q8 -43 20.5 -68.5t31 -40t43 -20.5t59.5 -12q12 0 27.5 4t37.5 14 q35 14 50.5 46t15.5 67q0 29 -11 53l-2 4q-170 1219 -239 1245l-30 8q-13 3 -36 3h-6v2q-96 -14 -153.5 -37t-92.5 -53.5t-56 -71.5l-46 -90l-46 -92q-26 -49 -59 -99l-113 -185l-124 -208l-117 -209q-55 -102 -94 -186q-14 -35 -21.5 -63.5t-7.5 -63.5v-27zM535 498v8 l264 440l14 6l21 -4l10 -10l53 -438l-4 -8l-14 -15h4l-9 -4h-321l-6 2zM727 1507q0 -29 16.5 -40t51.5 -25l8 -2h6q14 0 30.5 8t51.5 49q10 14 33.5 32.5t58.5 43.5l55.5 43t40 37.5t29.5 43t22 56.5q2 10 4.5 18.5t2.5 26.5q0 41 -18.5 58.5t-51.5 17.5q-23 0 -52.5 -11.5 t-62.5 -31.5q-27 -18 -55.5 -48t-56 -66t-51 -72.5t-39.5 -69.5q-23 -50 -23 -68z" />
<glyph unicode="&#xc2;" d="M10 12q0 -23 11.5 -42t30 -32.5t40 -20.5t41.5 -7q53 0 96 21.5t72 84.5q23 47 38 83t28.5 63.5t28 50.5t34.5 43l8 2h23q4 0 6 1t6 1q49 2 111 6l174 8q88 4 139 5h23l14 -7h2l8 -8l4 -6l10 -61l21 -105q8 -43 20.5 -68.5t31 -40t43 -20.5t59.5 -12q12 0 27.5 4t37.5 14 q35 14 50.5 46t15.5 67q0 29 -11 53l-2 4q-170 1219 -239 1245l-30 8q-13 3 -36 3h-6v2q-96 -14 -153.5 -37t-92.5 -53.5t-56 -71.5l-46 -90l-46 -92q-26 -49 -59 -99l-113 -185l-124 -208l-117 -209q-55 -102 -94 -186q-14 -35 -21.5 -63.5t-7.5 -63.5v-27zM535 498v8 l264 440l14 6l21 -4l10 -10l53 -438l-4 -8l-14 -15h4l-9 -4h-321l-6 2zM590 1548q0 -33 10 -53q27 -53 70 -53q27 0 57 24l37 38l31 32l16 16q8 8 20 19q43 -4 73 -19.5t83 -56.5q12 -8 24.5 -14t28.5 -6q20 0 43 18q37 27 37 86q0 23 -5 41t-11 37v-2q-10 20 -18.5 28.5 t-18.5 14.5q6 -4 -11.5 15.5t-50 44t-78.5 46t-100 21.5h-6q-29 0 -46 -18.5t-27 -61.5q0 -10 -14.5 -20.5t-33.5 -20.5l-36 -22q-18 -11 -27 -21q-18 -16 -32.5 -46t-14.5 -67z" />
<glyph unicode="&#xc3;" d="M10 12q0 -23 11.5 -42t30 -32.5t40 -20.5t41.5 -7q53 0 96 21.5t72 84.5q23 47 38 83t28.5 63.5t28 50.5t34.5 43l8 2h23q4 0 6 1t6 1q49 2 111 6l174 8q88 4 139 5h23l14 -7h2l8 -8l4 -6l10 -61l21 -105q8 -43 20.5 -68.5t31 -40t43 -20.5t59.5 -12q12 0 27.5 4t37.5 14 q35 14 50.5 46t15.5 67q0 29 -11 53l-2 4q-170 1219 -239 1245l-30 8q-13 3 -36 3h-6v2q-96 -14 -153.5 -37t-92.5 -53.5t-56 -71.5l-46 -90l-46 -92q-26 -49 -59 -99l-113 -185l-124 -208l-117 -209q-55 -102 -94 -186q-14 -35 -21.5 -63.5t-7.5 -63.5v-27zM535 498v8 l264 440l14 6l21 -4l10 -10l53 -438l-4 -8l-14 -15h4l-9 -4h-321l-6 2zM573 1513q0 -29 24 -49t65 -20q27 0 45 14.5t36 32.5q10 10 22.5 20.5t20.5 10.5l6 -6q5 -6 13 -13q20 -23 51 -45t90 -22q94 0 148.5 36.5t64.5 143.5v4q0 25 -27.5 43t-58.5 18q-25 0 -47 -11 t-33 -36q-2 -4 -3 -10t-3 -10l-8 -26q-4 -13 -14 -13t-19 10l-18 23v-2q-18 23 -44 45t-77 22q-33 0 -72 -13t-74.5 -35.5t-60.5 -50.5t-27 -56v-5z" />
<glyph unicode="&#xc4;" d="M10 12q0 -23 11.5 -42t30 -32.5t40 -20.5t41.5 -7q53 0 96 21.5t72 84.5q23 47 38 83t28.5 63.5t28 50.5t34.5 43l8 2h23q4 0 6 1t6 1q49 2 111 6l174 8q88 4 139 5h23l14 -7h2l8 -8l4 -6l10 -61l21 -105q8 -43 20.5 -68.5t31 -40t43 -20.5t59.5 -12q12 0 27.5 4t37.5 14 q35 14 50.5 46t15.5 67q0 29 -11 53l-2 4q-170 1219 -239 1245l-30 8q-13 3 -36 3h-6v2q-96 -14 -153.5 -37t-92.5 -53.5t-56 -71.5l-46 -90l-46 -92q-26 -49 -59 -99l-113 -185l-124 -208l-117 -209q-55 -102 -94 -186q-14 -35 -21.5 -63.5t-7.5 -63.5v-27zM481 1554 q10 -47 55.5 -78.5t118.5 -33.5q82 0 133.5 27.5t51.5 74.5v2q-6 47 -52.5 80t-128.5 33h-4q-78 0 -126 -29t-48 -76zM535 498v8l264 440l14 6l21 -4l10 -10l53 -438l-4 -8l-14 -15h4l-9 -4h-321l-6 2zM887 1556q2 -47 47 -79.5t123 -34.5q78 0 131 27.5t53 74.5v2 q-4 47 -52 80t-124 33h-10q-76 0 -122 -28t-46 -75z" />
<glyph unicode="&#xc5;" d="M10 12q0 -23 11.5 -42t30 -32.5t40 -20.5t41.5 -7q53 0 96 21.5t72 84.5q23 47 38 83t28.5 63.5t28 50.5t34.5 43l8 2h23q4 0 6 1t6 1q49 2 111 6l174 8q88 4 139 5h23l14 -7h2l8 -8l4 -6l10 -61l21 -105q8 -43 20.5 -68.5t31 -40t43 -20.5t59.5 -12q12 0 27.5 4t37.5 14 q35 14 50.5 46t15.5 67q0 29 -11 53l-2 4q-170 1219 -239 1245l-30 8q-13 3 -36 3h-6v2q-96 -14 -153.5 -37t-92.5 -53.5t-56 -71.5l-46 -90l-46 -92q-26 -49 -59 -99l-113 -185l-124 -208l-117 -209q-55 -102 -94 -186q-14 -35 -21.5 -63.5t-7.5 -63.5v-27zM535 498v8 l264 440l14 6l21 -4l10 -10l53 -438l-4 -8l-14 -15h4l-9 -4h-321l-6 2zM670 1591q0 -61 34.5 -108t120.5 -47q49 0 96.5 20.5t84 55t60.5 80.5t28 98v2q0 6 1 12t1 12q0 63 -37 111.5t-113 48.5q-63 0 -113.5 -26.5t-85 -66.5t-55 -89t-22.5 -92v-11zM854 1620 q2 29 21.5 56.5t58.5 27.5q8 0 8 -14v-9q-2 -33 -24.5 -57.5t-55.5 -24.5q-8 1 -8 21z" />
<glyph unicode="&#xc6;" horiz-adv-x="2140" d="M10 12q0 -23 11.5 -42t30 -32.5t40 -20.5t41.5 -7q53 0 96 21.5t72 84.5q23 47 38 83t28.5 63.5t28 50.5t34.5 43l8 2h23q4 0 6 1t6 1q49 2 111 6l174 8q88 4 139 5h23l14 -7h2l8 -8l4 -6l10 -61l21 -105q8 -43 20.5 -68.5t31 -40t43 -20.5t59.5 -12q25 0 59 16 q10 -4 18.5 -6t14.5 -2q57 0 100 8l107 19h4l602 90q43 4 59.5 10t18.5 10q10 12 11 23.5t-7 34.5q-4 18 -17 39h-10q-27 23 -73 28.5t-83 9.5q-45 0 -92 -8t-94 -8q-8 0 -15 1t-16 1q-4 0 -21.5 -2t-41 -3t-47 -3t-39.5 -2l-150 -8q-76 -4 -145 -15l-8 2l-27 17l-19 148 q-9 71 -20 136q-4 37 -6 67t-2 42l4 2h2l12 4h39q14 -2 25 -2h22h43q33 0 67 1t77 4t101.5 8t139.5 14q8 0 28 1t40.5 3t38.5 3t25 1q51 8 55 34.5t-6 55.5l-15 39q-23 41 -74 50t-110 9h-229q-78 0 -156 1t-129 7l-20 21l-5 8q-2 18 -6 63.5t-7 95.5t-4 94t-1 61h-2l4 4 l10 4l35 3t21.5 2t20.5 2t32 1h82l383 16h78q18 0 20 2l2 6q47 10 57.5 30t3.5 38l-6 16q-16 20 -32.5 32.5t-38 20t-51 11.5t-72.5 8q-86 0 -208 7t-249 11.5t-242.5 1t-187.5 -21.5q-53 -16 -86 -38.5t-56.5 -50.5t-40.5 -61l-36 -73l-46 -92q-26 -49 -59 -99l-113 -185 l-124 -208l-117 -209q-55 -102 -94 -186q-14 -35 -21.5 -63.5t-7.5 -63.5v-27zM535 498v8l264 440l14 6l21 -4l10 -10l53 -438l-4 -8l-14 -15h4l-9 -4h-321l-6 2z" />
<glyph unicode="&#xc7;" horiz-adv-x="1249" d="M8 350q0 -16 2 -22q4 -55 13.5 -93t27.5 -73l45 -53q72 -94 175.5 -136.5t213.5 -60.5l-147 -111q-23 -14 -31 -20t-8 -29q0 -2 51 -2h121h39q16 0 18 -2q-68 -18 -113.5 -42.5t-75.5 -49.5t-42 -47.5t-12 -34.5q0 -35 51 -51.5t127 -16.5q66 0 140.5 11.5t137 32 t103.5 49t41 63.5v23q0 41 -27 71.5t-63 55.5q-35 16 -68 28.5t-74 16.5l54 43q129 10 235.5 61t220.5 137q35 29 50.5 47.5t25.5 38.5q-4 96 -86 97h-8q-2 0 -19.5 -4.5t-42 -12.5t-52 -20.5t-48.5 -28.5h4q-53 -29 -118.5 -58.5t-170.5 -58.5q-18 -6 -75 -6 q-33 0 -82 10.5t-142 47.5q-39 37 -72.5 81.5t-43.5 102.5v24q0 25 2 31q12 115 65 225q57 111 125 216.5t148 179.5q57 61 124.5 103t139.5 42h6l184 -133l25 -13l46 -25q26 -13 28 -13q47 23 75.5 54.5t28.5 55.5q0 8 -2 13v16q-12 53 -58 93t-116 75q-55 29 -96 47 t-73 29.5t-59.5 16.5t-58.5 5q-33 0 -78 -7t-98 -23q-127 -78 -235.5 -181.5t-191.5 -228.5t-136 -266.5t-70 -292.5v-27z" />
<glyph unicode="&#xc8;" horiz-adv-x="1329" d="M23 47q25 -16 52 -38l54 -41q27 -19 50.5 -32.5t41.5 -13.5q57 0 103.5 8.5t111.5 18.5h4l633 90q43 4 61.5 10t22.5 10q12 12 17.5 23.5t5.5 34.5v16q0 10 -2 23h-11q-20 23 -65 28.5t-80 10.5q-45 0 -94 -8.5t-97 -8.5q-8 0 -14 1t-14 1q-4 0 -22.5 -2t-43 -3t-49 -3 t-41.5 -2l-152 -8q-77 -4 -151 -15l-8 3l-19 18l-2 8q2 27 13.5 84t25 117.5t26.5 113t19 68.5l4 2h3l12 4h39q14 -2 24 -2h23h43q33 0 66.5 1t77.5 4t103.5 8.5l145.5 13.5q8 0 27.5 1t41 3t40 3t24.5 1q55 8 67.5 34.5t12.5 55.5v39q-10 41 -59.5 50t-108.5 9h-229 q-78 0 -156 1t-125 8l-14 20l-2 8q4 18 15 64l25 95l25 94q12 44 19 61h-2l6 4l10 4l35 3l23 2l24 2q12 1 33 1h82l385 16h78q18 0 20 2q6 6 8 7q47 10 63.5 29.5t16.5 37.5v17q-10 20 -22.5 32.5t-31 19.5t-47 11t-69.5 8q-53 2 -122.5 6t-141.5 7.5t-138.5 5.5t-111.5 2 h-160h-39q-20 0 -43 2q-55 0 -87.5 -6.5t-52 -26.5t-31 -58t-25.5 -102zM559 1802q0 -18 1 -26.5t5 -18.5q10 -33 22.5 -56.5t30 -43t40 -37.5l55.5 -43l58.5 -43t33.5 -33q31 -39 54.5 -48t31.5 -9h4q39 14 56.5 26.5t17.5 40.5q0 18 -23 68q-16 33 -39.5 70t-51.5 72.5 t-57.5 65.5t-56.5 48q-66 43 -112 43q-33 0 -51.5 -17.5t-18.5 -58.5z" />
<glyph unicode="&#xc9;" horiz-adv-x="1329" d="M23 47q25 -16 52 -38l54 -41q27 -19 50.5 -32.5t41.5 -13.5q57 0 103.5 8.5t111.5 18.5h4l633 90q43 4 61.5 10t22.5 10q12 12 17.5 23.5t5.5 34.5v16q0 10 -2 23h-11q-20 23 -65 28.5t-80 10.5q-45 0 -94 -8.5t-97 -8.5q-8 0 -14 1t-14 1q-4 0 -22.5 -2t-43 -3t-49 -3 t-41.5 -2l-152 -8q-77 -4 -151 -15l-8 3l-19 18l-2 8q2 27 13.5 84t25 117.5t26.5 113t19 68.5l4 2h3l12 4h39q14 -2 24 -2h23h43q33 0 66.5 1t77.5 4t103.5 8.5l145.5 13.5q8 0 27.5 1t41 3t40 3t24.5 1q55 8 67.5 34.5t12.5 55.5v39q-10 41 -59.5 50t-108.5 9h-229 q-78 0 -156 1t-125 8l-14 20l-2 8q4 18 15 64l25 95l25 94q12 44 19 61h-2l6 4l10 4l35 3l23 2l24 2q12 1 33 1h82l385 16h78q18 0 20 2q6 6 8 7q47 10 63.5 29.5t16.5 37.5v17q-10 20 -22.5 32.5t-31 19.5t-47 11t-69.5 8q-53 2 -122.5 6t-141.5 7.5t-138.5 5.5t-111.5 2 h-160h-39q-20 0 -43 2q-55 0 -87.5 -6.5t-52 -26.5t-31 -58t-25.5 -102zM616 1495q0 -29 16.5 -40t51.5 -25l8 -3h6q14 0 30.5 8.5t51.5 49.5q10 14 34 32.5l58 43.5l55.5 43t40 37.5t30 43t22.5 56.5q2 10 4 18t2 27q0 41 -18.5 58.5t-51.5 17.5q-23 0 -52.5 -11.5 t-61.5 -31.5q-27 -18 -55.5 -48t-56.5 -66t-51.5 -73t-39.5 -69q-23 -50 -23 -68z" />
<glyph unicode="&#xca;" horiz-adv-x="1329" d="M23 47q25 -16 52 -38l54 -41q27 -19 50.5 -32.5t41.5 -13.5q57 0 103.5 8.5t111.5 18.5h4l633 90q43 4 61.5 10t22.5 10q12 12 17.5 23.5t5.5 34.5v16q0 10 -2 23h-11q-20 23 -65 28.5t-80 10.5q-45 0 -94 -8.5t-97 -8.5q-8 0 -14 1t-14 1q-4 0 -22.5 -2t-43 -3t-49 -3 t-41.5 -2l-152 -8q-77 -4 -151 -15l-8 3l-19 18l-2 8q2 27 13.5 84t25 117.5t26.5 113t19 68.5l4 2h3l12 4h39q14 -2 24 -2h23h43q33 0 66.5 1t77.5 4t103.5 8.5l145.5 13.5q8 0 27.5 1t41 3t40 3t24.5 1q55 8 67.5 34.5t12.5 55.5v39q-10 41 -59.5 50t-108.5 9h-229 q-78 0 -156 1t-125 8l-14 20l-2 8q4 18 15 64l25 95l25 94q12 44 19 61h-2l6 4l10 4l35 3l23 2l24 2q12 1 33 1h82l385 16h78q18 0 20 2q6 6 8 7q47 10 63.5 29.5t16.5 37.5v17q-10 20 -22.5 32.5t-31 19.5t-47 11t-69.5 8q-53 2 -122.5 6t-141.5 7.5t-138.5 5.5t-111.5 2 h-160h-39q-20 0 -43 2q-55 0 -87.5 -6.5t-52 -26.5t-31 -58t-25.5 -102zM520 1561q0 -33 10 -54q27 -53 70 -53q27 0 57 25l37 38l31 31l16 17q8 8 21 18q43 -4 72.5 -19.5t83.5 -56.5q12 -8 24 -14t29 -6q20 0 43 18q37 27 37 86q0 23 -5.5 41.5t-11.5 36.5v-2 q-10 20 -18 28.5t-19 14.5q6 -4 -11 15.5t-50 44t-79 46t-99 21.5h-6q-29 0 -46.5 -18.5t-27.5 -61.5q0 -10 -14.5 -20.5t-32.5 -20.5l-37 -21q-18 -11 -27 -22q-18 -16 -32.5 -45.5t-14.5 -66.5z" />
<glyph unicode="&#xcb;" horiz-adv-x="1329" d="M23 47q25 -16 52 -38l54 -41q27 -19 50.5 -32.5t41.5 -13.5q57 0 103.5 8.5t111.5 18.5h4l633 90q43 4 61.5 10t22.5 10q12 12 17.5 23.5t5.5 34.5v16q0 10 -2 23h-11q-20 23 -65 28.5t-80 10.5q-45 0 -94 -8.5t-97 -8.5q-8 0 -14 1t-14 1q-4 0 -22.5 -2t-43 -3t-49 -3 t-41.5 -2l-152 -8q-77 -4 -151 -15l-8 3l-19 18l-2 8q2 27 13.5 84t25 117.5t26.5 113t19 68.5l4 2h3l12 4h39q14 -2 24 -2h23h43q33 0 66.5 1t77.5 4t103.5 8.5l145.5 13.5q8 0 27.5 1t41 3t40 3t24.5 1q55 8 67.5 34.5t12.5 55.5v39q-10 41 -59.5 50t-108.5 9h-229 q-78 0 -156 1t-125 8l-14 20l-2 8q4 18 15 64l25 95l25 94q12 44 19 61h-2l6 4l10 4l35 3l23 2l24 2q12 1 33 1h82l385 16h78q18 0 20 2q6 6 8 7q47 10 63.5 29.5t16.5 37.5v17q-10 20 -22.5 32.5t-31 19.5t-47 11t-69.5 8q-53 2 -122.5 6t-141.5 7.5t-138.5 5.5t-111.5 2 h-160h-39q-20 0 -43 2q-55 0 -87.5 -6.5t-52 -26.5t-31 -58t-25.5 -102zM434 1581q10 -47 55.5 -79t118.5 -34q82 0 133.5 28t51.5 75v2q-6 47 -52.5 80t-128.5 33h-4q-78 0 -126 -29t-48 -76zM840 1583q2 -47 47 -80t123 -35q78 0 131 28t53 75v2q-4 47 -52 80t-124 33h-10 q-76 0 -122 -28t-46 -75z" />
<glyph unicode="&#xcc;" horiz-adv-x="569" d="M10 61q6 -35 31 -59l2 -2h-4q2 0 14 -8l150 -47h24l23 31q8 11 13 21.5t8 23l8 34.5q0 2 8 42t23 106l34 149l40 174l42 181l39 165q10 57 28.5 106.5t30.5 96.5q12 39 24 88l21 97q0 55 -46 96t-107 41h-29q-14 14 -31 14q-39 0 -76.5 -90t-78.5 -263t-88 -424z M229 1849q0 -18 1 -26t6 -19q10 -33 22 -56.5t29.5 -42.5t40 -37.5l55.5 -43.5l58.5 -43t33.5 -33q31 -39 54.5 -48t31.5 -9h4q39 14 56.5 26.5t17.5 41.5q0 18 -23 67q-16 33 -39.5 70t-51 72.5t-57.5 65.5t-56 48q-66 43 -113 43q-33 0 -51.5 -17.5t-18.5 -58.5z" />
<glyph unicode="&#xcd;" horiz-adv-x="569" d="M10 61q6 -35 31 -59l2 -2h-4q2 0 14 -8l150 -47h24l23 31q8 11 13 21.5t8 23l8 34.5q0 2 8 42t23 106l34 149l40 174l42 181l39 165q10 57 28.5 106.5t30.5 96.5q12 39 24 88l21 97q0 55 -46 96t-107 41h-29q-14 14 -31 14q-39 0 -76.5 -90t-78.5 -263t-88 -424z M287 1546q0 -29 16 -40t51 -25l8 -2h7q14 0 30.5 8t51.5 49q10 14 33.5 32.5t58.5 43.5l55.5 43t39.5 37.5t29.5 43t22.5 56.5q2 10 4 18.5t2 26.5q0 41 -18.5 58.5t-50.5 17.5q-23 0 -52.5 -11.5t-62.5 -31.5q-27 -18 -55.5 -48t-56 -66t-51 -72.5t-40.5 -69.5 q-22 -50 -22 -68z" />
<glyph unicode="&#xce;" horiz-adv-x="569" d="M10 61q6 -35 31 -59l2 -2h-4q2 0 14 -8l150 -47h24l23 31q8 11 13 21.5t8 23l8 34.5q0 2 8 42t23 106l34 149l40 174l42 181l39 165q10 57 28.5 106.5t30.5 96.5q12 39 24 88l21 97q0 55 -46 96t-107 41h-29q-14 14 -31 14q-39 0 -76.5 -90t-78.5 -263t-88 -424z M166 1571q0 -33 10 -53q27 -53 70 -54q27 0 57 25l37 38l31 32l16 16q8 8 21 18q43 -4 72.5 -19t82.5 -56q12 -8 24.5 -14.5t28.5 -6.5q20 0 43 19q37 27 37 86q0 23 -5 41t-11 36v-2q-10 20 -18.5 28.5t-18.5 14.5q6 -4 -11.5 15.5t-50 44t-78.5 46t-100 21.5h-6 q-29 0 -46 -18.5t-27 -61.5q0 -10 -14.5 -20t-33.5 -21l-36 -21q-18 -11 -27 -22q-18 -16 -32.5 -45.5t-14.5 -66.5z" />
<glyph unicode="&#xcf;" horiz-adv-x="569" d="M10 61q6 -35 31 -59l2 -2h-4q2 0 14 -8l150 -47h24l23 31q8 11 13 21.5t8 23l8 34.5q0 2 8 42t23 106l34 149l40 174l42 181l39 165q10 57 28.5 106.5t30.5 96.5q12 39 24 88l21 97q0 55 -46 96t-107 41h-29q-14 14 -31 14q-39 0 -76.5 -90t-78.5 -263t-88 -424zM76 1597 q10 -47 55 -78.5t119 -33.5q82 0 133 27.5t51 74.5v2q-6 47 -52 80t-128 33h-4q-78 0 -126 -29t-48 -76zM481 1599q2 -47 47 -79.5t123 -34.5q78 0 131.5 27.5t53.5 74.5v2q-4 47 -52.5 80t-124.5 33h-10q-76 0 -122 -28t-46 -75z" />
<glyph unicode="&#xd0;" horiz-adv-x="1454" d="M-150 737q6 -43 13.5 -73.5t21.5 -47.5q16 -25 57.5 -33t100.5 -8h59q-25 -113 -43 -227.5t-34 -245.5v-28l2 -2q6 -55 45 -86l196 -66q47 0 90 4t76 8q197 18 371 104.5t304 211.5t205 274.5t75 292.5q0 94 -37 181t-116 158t-203 121t-300 73h-4q-53 14 -122.5 17 t-155.5 3l-134 -22q-76 -199 -86 -250q0 -10 -1 -14.5t-5 -14.5l-37 -135l-32 -127q-78 -2 -141.5 -4t-80.5 -6h3q-41 -8 -64 -17.5t-23 -40.5zM313 137q8 86 33 205t55 244q35 2 72 3t69.5 3t56.5 4t34 4h41q53 0 77.5 3t45.5 18q18 8 23 17t5 26l-20 43q-10 20 -21 28 q-53 49 -135 62.5t-176 13.5h-12l57 196l39 121h-2l8 7l17 6q180 0 288.5 -16.5t161.5 -53.5q80 -59 109.5 -111.5t34.5 -93.5l2 -14q-2 -84 -55.5 -177t-142.5 -184.5t-208 -175.5t-250 -145q-12 -8 -64.5 -26.5t-111.5 -34.5z" />
<glyph unicode="&#xd1;" horiz-adv-x="1368" d="M0 10q0 -29 13.5 -52.5t34 -40.5t47 -26.5t50.5 -9.5q41 0 73 22.5t38 76.5v10q8 23 23.5 73t33.5 116l40 145q22 78 41.5 157.5t35.5 155.5t27 137l10 8l27 2l8 -6q39 -139 81 -257t83 -208t75.5 -149.5t57.5 -79.5q47 -61 92 -89t86 -28q47 0 82 31t53 84l66 209 l34 110l19 60q6 20 14 55q4 23 13 58l20 74l20 73l17 55q6 12 17 46t23.5 82t25 102.5t18.5 107.5q16 37 28.5 81t12.5 85q0 53 -27 80l-151 22q-35 -6 -59.5 -26.5t-42 -48t-28 -61.5t-16.5 -66l-8 -39q-8 -39 -23 -102l-33 -143l-40 -165q-20 -84 -43 -166t-45 -147l-6 -4 l-27 -2q-35 80 -62.5 153.5t-49 144t-37 140.5t-27.5 145q-6 12 -7 34t-1 50v33q0 35 -2.5 72t-12.5 67.5t-30.5 51t-55.5 22.5q-109 -6 -172 -25.5t-98 -51t-49.5 -78t-26.5 -105.5l-28 -104l-25 -99l-84 -326l-57 -225l-36 -142q-13 -52 -19.5 -81t-8.5 -41t-2 -20v-17z M612 1513q0 -29 23.5 -49t64.5 -20q27 0 45.5 14.5t36.5 32.5q10 10 22.5 20.5t20.5 10.5l5 -6q5 -6 14 -13q20 -23 51 -45t90 -22q94 0 148.5 36.5t64.5 143.5v4q0 25 -27.5 43t-58.5 18q-25 0 -47.5 -11t-32.5 -36q-2 -4 -3 -10t-3 -10l-8 -26q-4 -13 -14 -13t-19 10 l-18 23v-2q-18 23 -44 45t-77 22q-33 0 -72 -13t-74.5 -35.5t-60.5 -50.5t-27 -56v-5z" />
<glyph unicode="&#xd2;" horiz-adv-x="1507" d="M2 414q0 -20 2 -27q6 -47 21.5 -97t56.5 -110v2q70 -115 174 -172t268 -84q45 -10 86 -13t88 -3q135 0 246 27.5t193 91.5q92 80 160.5 175t112.5 195.5t65.5 204t21.5 199.5v45q0 10 -1 22.5t-3 22.5q-4 39 -13.5 79t-27.5 77q-43 80 -91 133t-99.5 88t-100.5 52t-92 24 h-133q-141 -16 -242.5 -40t-163.5 -59l-86 -51l-49 -31q-90 -66 -162.5 -151.5t-124 -181t-79 -195.5t-27.5 -193v-30zM299 342q2 66 23.5 146.5t58.5 164.5t90 166t118.5 150.5t143.5 119t164 70.5q20 6 46 10.5t56 4.5q59 0 119 -37q51 -37 78 -108t37 -140q2 -16 3 -33.5 t1 -34.5q0 -113 -38 -241.5t-114.5 -240.5t-196.5 -187.5t-282 -81.5q-23 0 -59.5 13t-73.5 32q-82 27 -125 86t-47 133q-2 2 -2 8zM737 1788q0 -18 1 -26.5t5 -18.5q10 -33 22.5 -56.5t30 -43t40 -38t55.5 -42.5q35 -25 58.5 -43.5t33.5 -32.5q31 -39 54.5 -48t31.5 -9h4 q39 14 56.5 26t17.5 41q0 18 -23 68q-16 33 -39.5 69.5t-51 72.5t-57.5 65.5t-56 48.5q-66 43 -113 43q-33 0 -51.5 -17.5t-18.5 -58.5z" />
<glyph unicode="&#xd3;" horiz-adv-x="1507" d="M2 414q0 -20 2 -27q6 -47 21.5 -97t56.5 -110v2q70 -115 174 -172t268 -84q45 -10 86 -13t88 -3q135 0 246 27.5t193 91.5q92 80 160.5 175t112.5 195.5t65.5 204t21.5 199.5v45q0 10 -1 22.5t-3 22.5q-4 39 -13.5 79t-27.5 77q-43 80 -91 133t-99.5 88t-100.5 52t-92 24 h-133q-141 -16 -242.5 -40t-163.5 -59l-86 -51l-49 -31q-90 -66 -162.5 -151.5t-124 -181t-79 -195.5t-27.5 -193v-30zM299 342q2 66 23.5 146.5t58.5 164.5t90 166t118.5 150.5t143.5 119t164 70.5q20 6 46 10.5t56 4.5q59 0 119 -37q51 -37 78 -108t37 -140q2 -16 3 -33.5 t1 -34.5q0 -113 -38 -241.5t-114.5 -240.5t-196.5 -187.5t-282 -81.5q-23 0 -59.5 13t-73.5 32q-82 27 -125 86t-47 133q-2 2 -2 8zM692 1479q0 -29 16.5 -40.5t51.5 -25.5l8 -2h6q14 0 30.5 8t51.5 49q10 14 33.5 33t58.5 43l55.5 43.5t40 38t29.5 43t23 55.5q2 10 4 18.5 t2 26.5q0 41 -18.5 58.5t-51.5 17.5q-23 0 -52.5 -11t-61.5 -32q-27 -18 -55.5 -48t-56.5 -65.5t-51.5 -72.5t-39.5 -70q-23 -49 -23 -67z" />
<glyph unicode="&#xd4;" horiz-adv-x="1507" d="M2 414q0 -20 2 -27q6 -47 21.5 -97t56.5 -110v2q70 -115 174 -172t268 -84q45 -10 86 -13t88 -3q135 0 246 27.5t193 91.5q92 80 160.5 175t112.5 195.5t65.5 204t21.5 199.5v45q0 10 -1 22.5t-3 22.5q-4 39 -13.5 79t-27.5 77q-43 80 -91 133t-99.5 88t-100.5 52t-92 24 h-133q-141 -16 -242.5 -40t-163.5 -59l-86 -51l-49 -31q-90 -66 -162.5 -151.5t-124 -181t-79 -195.5t-27.5 -193v-30zM299 342q2 66 23.5 146.5t58.5 164.5t90 166t118.5 150.5t143.5 119t164 70.5q20 6 46 10.5t56 4.5q59 0 119 -37q51 -37 78 -108t37 -140q2 -16 3 -33.5 t1 -34.5q0 -113 -38 -241.5t-114.5 -240.5t-196.5 -187.5t-282 -81.5q-23 0 -59.5 13t-73.5 32q-82 27 -125 86t-47 133q-2 2 -2 8zM705 1530q0 -33 10 -53q27 -53 69 -54q27 0 58 25l37 38l30 32l17 16q8 8 20 18q43 -4 73 -19t83 -56q12 -8 24.5 -14.5t28.5 -6.5 q20 0 43 19q37 27 37 86q0 23 -5 41t-11 36v-2q-10 20 -18.5 28.5t-18.5 14.5q6 -4 -11.5 15.5t-50.5 44t-79 46t-99 21.5h-6q-29 0 -46.5 -18.5t-27.5 -61.5q0 -10 -14 -20t-33 -20l-37 -22q-18 -11 -26 -22q-18 -16 -32.5 -45.5t-14.5 -66.5z" />
<glyph unicode="&#xd5;" horiz-adv-x="1507" d="M2 414q0 -20 2 -27q6 -47 21.5 -97t56.5 -110v2q70 -115 174 -172t268 -84q45 -10 86 -13t88 -3q135 0 246 27.5t193 91.5q92 80 160.5 175t112.5 195.5t65.5 204t21.5 199.5v45q0 10 -1 22.5t-3 22.5q-4 39 -13.5 79t-27.5 77q-43 80 -91 133t-99.5 88t-100.5 52t-92 24 h-133q-141 -16 -242.5 -40t-163.5 -59l-86 -51l-49 -31q-90 -66 -162.5 -151.5t-124 -181t-79 -195.5t-27.5 -193v-30zM299 342q2 66 23.5 146.5t58.5 164.5t90 166t118.5 150.5t143.5 119t164 70.5q20 6 46 10.5t56 4.5q59 0 119 -37q51 -37 78 -108t37 -140q2 -16 3 -33.5 t1 -34.5q0 -113 -38 -241.5t-114.5 -240.5t-196.5 -187.5t-282 -81.5q-23 0 -59.5 13t-73.5 32q-82 27 -125 86t-47 133q-2 2 -2 8zM590 1509q0 -29 23.5 -49t64.5 -20q27 0 45 14t37 33q10 10 22.5 20.5t20.5 10.5l5 -7q5 -6 13 -12q20 -23 51 -45t91 -22q94 0 148 36.5 t65 143.5v4q0 25 -28 43t-58 18q-25 0 -47.5 -11t-32.5 -36q-2 -4 -3 -10t-3 -10l-9 -26q-4 -13 -14 -13t-18 10l-19 23v-2q-18 23 -44 45t-77 22q-33 0 -71.5 -13.5t-74.5 -36t-60.5 -50t-26.5 -56.5v-4z" />
<glyph unicode="&#xd6;" horiz-adv-x="1507" d="M2 414q0 -20 2 -27q6 -47 21.5 -97t56.5 -110v2q70 -115 174 -172t268 -84q45 -10 86 -13t88 -3q135 0 246 27.5t193 91.5q92 80 160.5 175t112.5 195.5t65.5 204t21.5 199.5v45q0 10 -1 22.5t-3 22.5q-4 39 -13.5 79t-27.5 77q-43 80 -91 133t-99.5 88t-100.5 52t-92 24 h-133q-141 -16 -242.5 -40t-163.5 -59l-86 -51l-49 -31q-90 -66 -162.5 -151.5t-124 -181t-79 -195.5t-27.5 -193v-30zM299 342q2 66 23.5 146.5t58.5 164.5t90 166t118.5 150.5t143.5 119t164 70.5q20 6 46 10.5t56 4.5q59 0 119 -37q51 -37 78 -108t37 -140q2 -16 3 -33.5 t1 -34.5q0 -113 -38 -241.5t-114.5 -240.5t-196.5 -187.5t-282 -81.5q-23 0 -59.5 13t-73.5 32q-82 27 -125 86t-47 133q-2 2 -2 8zM520 1530q10 -47 55.5 -79t118.5 -34q82 0 133.5 28t51.5 75v2q-6 47 -52.5 79.5t-128.5 32.5h-4q-78 0 -126 -28.5t-48 -75.5zM926 1532 q2 -47 47 -80t123 -35q78 0 131 28t53 75v2q-4 47 -52 79.5t-124 32.5h-10q-76 0 -122 -27.5t-46 -74.5z" />
<glyph unicode="&#xd7;" horiz-adv-x="1003" d="M63 487q37 -35 70 -34q14 4 42 15t73 34l61 37l47 28q57 41 123 51q76 10 121 -34l131 -131q41 -41 105 -35q51 6 96 51q68 68 18 147l-67 85q-29 36 -52 61q-61 70 -61 82q-6 39 37 82q8 10 28 25l39 31l40 30q19 14 30 24q104 106 14 197q-57 59 -147 10 q-20 -14 -52 -39.5t-77 -66.5l-61 -52q-25 -20 -46 -34q-47 -35 -149 69q-43 43 -73.5 70t-51.5 39q-82 49 -143 -12q-29 -33 -47 -80q-18 -72 63 -154q10 -10 31 -28l33 -27q51 -55 12 -94q-27 -27 -72 -66q-27 -20 -45 -36.5l-29 -26.5q-129 -130 -41 -218z" />
<glyph unicode="&#xd9;" horiz-adv-x="1298" d="M14 344q0 -78 24.5 -151.5t92.5 -131.5l14 -6q94 -76 167 -105.5t151 -29.5q10 2 31 2q18 0 39.5 -1t44.5 -1h16q2 2 8 2h8q137 0 232.5 75t161 192.5t108.5 261t78 282.5q33 121 62.5 256t43.5 262q0 37 -2 63.5t-12 67.5q-8 14 -26.5 25.5t-40 20t-44 12.5t-38.5 4 q-20 0 -45 -20.5t-31 -26.5l-70 -336q-10 -66 -23.5 -140.5t-41.5 -191.5q-16 -68 -36 -139.5t-41.5 -137t-43 -118.5t-41.5 -82l-76 -100l-6 -9q-25 -18 -55.5 -28.5t-60.5 -15.5t-53.5 -6t-35.5 -1h-10q-16 0 -44 8.5t-55.5 26.5t-48 46t-20.5 65q0 12 2 20 q0 47 13.5 110.5t35.5 141.5l89 298q34 110 54.5 169t27.5 81.5t11 39t5.5 40t7.5 85.5v4q0 23 -18.5 44t-44 38.5t-55.5 31t-54 19.5q-37 0 -69 -23.5t-79 -97.5l-2 -12v2q-4 -8 -13 -42l-24 -89l-49 -163l-34 -116l-23 -85q-10 -36 -17.5 -70.5t-14.5 -73.5t-15 -94 q-6 -37 -10.5 -75t-4.5 -77zM520 1769q0 -18 1 -26t5 -19q10 -33 22.5 -56t30 -42.5t40 -38l55.5 -43.5l58.5 -43t33.5 -33q31 -39 54.5 -48t31.5 -9h4q39 14 56.5 26.5t17.5 41.5q0 18 -23 67q-16 33 -39.5 70t-51.5 72.5t-57.5 65.5t-56.5 48q-66 43 -112 43 q-33 0 -51.5 -17.5t-18.5 -58.5z" />
<glyph unicode="&#xda;" horiz-adv-x="1298" d="M14 344q0 -78 24.5 -151.5t92.5 -131.5l14 -6q94 -76 167 -105.5t151 -29.5q10 2 31 2q18 0 39.5 -1t44.5 -1h16q2 2 8 2h8q137 0 232.5 75t161 192.5t108.5 261t78 282.5q33 121 62.5 256t43.5 262q0 37 -2 63.5t-12 67.5q-8 14 -26.5 25.5t-40 20t-44 12.5t-38.5 4 q-20 0 -45 -20.5t-31 -26.5l-70 -336q-10 -66 -23.5 -140.5t-41.5 -191.5q-16 -68 -36 -139.5t-41.5 -137t-43 -118.5t-41.5 -82l-76 -100l-6 -9q-25 -18 -55.5 -28.5t-60.5 -15.5t-53.5 -6t-35.5 -1h-10q-16 0 -44 8.5t-55.5 26.5t-48 46t-20.5 65q0 12 2 20 q0 47 13.5 110.5t35.5 141.5l89 298q34 110 54.5 169t27.5 81.5t11 39t5.5 40t7.5 85.5v4q0 23 -18.5 44t-44 38.5t-55.5 31t-54 19.5q-37 0 -69 -23.5t-79 -97.5l-2 -12v2q-4 -8 -13 -42l-24 -89l-49 -163l-34 -116l-23 -85q-10 -36 -17.5 -70.5t-14.5 -73.5t-15 -94 q-6 -37 -10.5 -75t-4.5 -77zM621 1483q0 -29 16 -40t51 -26l8 -2h6q14 0 31 8.5t51 49.5q10 14 34 32.5t59 42.5q33 25 55 43.5t39.5 38t30 43t22.5 56.5q2 10 4 18t2 27q0 41 -18.5 58t-50.5 17q-23 0 -52.5 -11t-62.5 -32q-27 -18 -55.5 -47.5t-56 -65.5t-51.5 -73 t-40 -70q-22 -49 -22 -67z" />
<glyph unicode="&#xdb;" horiz-adv-x="1298" d="M14 344q0 -78 24.5 -151.5t92.5 -131.5l14 -6q94 -76 167 -105.5t151 -29.5q10 2 31 2q18 0 39.5 -1t44.5 -1h16q2 2 8 2h8q137 0 232.5 75t161 192.5t108.5 261t78 282.5q33 121 62.5 256t43.5 262q0 37 -2 63.5t-12 67.5q-8 14 -26.5 25.5t-40 20t-44 12.5t-38.5 4 q-20 0 -45 -20.5t-31 -26.5l-70 -336q-10 -66 -23.5 -140.5t-41.5 -191.5q-16 -68 -36 -139.5t-41.5 -137t-43 -118.5t-41.5 -82l-76 -100l-6 -9q-25 -18 -55.5 -28.5t-60.5 -15.5t-53.5 -6t-35.5 -1h-10q-16 0 -44 8.5t-55.5 26.5t-48 46t-20.5 65q0 12 2 20 q0 47 13.5 110.5t35.5 141.5l89 298q34 110 54.5 169t27.5 81.5t11 39t5.5 40t7.5 85.5v4q0 23 -18.5 44t-44 38.5t-55.5 31t-54 19.5q-37 0 -69 -23.5t-79 -97.5l-2 -12v2q-4 -8 -13 -42l-24 -89l-49 -163l-34 -116l-23 -85q-10 -36 -17.5 -70.5t-14.5 -73.5t-15 -94 q-6 -37 -10.5 -75t-4.5 -77zM502 1546q0 -33 10 -53q27 -53 70 -53q27 0 57 24l37 38l31 32l16 16q8 8 20 19q43 -4 73 -19.5t83 -56.5q12 -8 24.5 -14t28.5 -6q20 0 43 18q37 27 37 86q0 23 -5 41t-11 37v-2q-10 20 -18.5 28.5t-18.5 14.5q6 -4 -11.5 15.5t-50 44t-78.5 46 t-100 21.5h-6q-29 0 -46 -18.5t-28 -61.5q0 -10 -14 -20.5t-33 -20.5l-37 -22q-18 -11 -26 -21q-18 -16 -32.5 -46t-14.5 -67z" />
<glyph unicode="&#xdc;" horiz-adv-x="1298" d="M14 344q0 -78 24.5 -151.5t92.5 -131.5l14 -6q94 -76 167 -105.5t151 -29.5q10 2 31 2q18 0 39.5 -1t44.5 -1h16q2 2 8 2h8q137 0 232.5 75t161 192.5t108.5 261t78 282.5q33 121 62.5 256t43.5 262q0 37 -2 63.5t-12 67.5q-8 14 -26.5 25.5t-40 20t-44 12.5t-38.5 4 q-20 0 -45 -20.5t-31 -26.5l-70 -336q-10 -66 -23.5 -140.5t-41.5 -191.5q-16 -68 -36 -139.5t-41.5 -137t-43 -118.5t-41.5 -82l-76 -100l-6 -9q-25 -18 -55.5 -28.5t-60.5 -15.5t-53.5 -6t-35.5 -1h-10q-16 0 -44 8.5t-55.5 26.5t-48 46t-20.5 65q0 12 2 20 q0 47 13.5 110.5t35.5 141.5l89 298q34 110 54.5 169t27.5 81.5t11 39t5.5 40t7.5 85.5v4q0 23 -18.5 44t-44 38.5t-55.5 31t-54 19.5q-37 0 -69 -23.5t-79 -97.5l-2 -12v2q-4 -8 -13 -42l-24 -89l-49 -163l-34 -116l-23 -85q-10 -36 -17.5 -70.5t-14.5 -73.5t-15 -94 q-6 -37 -10.5 -75t-4.5 -77zM371 1606q10 -47 55 -79t119 -34q82 0 133 27.5t51 74.5v2q-6 47 -52 80t-128 33h-4q-78 0 -126 -28.5t-48 -75.5zM776 1608q2 -47 47 -80t123 -35q78 0 131 27.5t53 74.5v2q-4 47 -52 80t-124 33h-10q-76 0 -122 -27.5t-46 -74.5z" />
<glyph unicode="&#xdd;" horiz-adv-x="1179" d="M-14 1221q0 -33 14 -68t31 -68q29 -43 59.5 -114.5t58 -149.5t48 -152.5t30.5 -123.5v-8l-84 -488q2 -45 60 -80l18 -18q90 -33 137 -33q43 0 63.5 29.5t36 97.5t34 176.5t59.5 263.5l11 55q5 24 13.5 44t22.5 42.5t37 51.5q74 109 192.5 243t302.5 306l23 17 q14 11 27.5 23.5t23.5 27t10 30.5v8q0 2 -1 3t-1 3l-14 27q-12 23 -46 36t-71 13q-57 0 -100 -45l-265 -292q-128 -144 -241 -292h-2q-16 29 -37.5 79t-46.5 114l-43 103q-23 52 -46.5 98.5t-50 83t-54.5 59.5q-14 4 -34 6t-36 2q-31 0 -61.5 -4t-47.5 -18q-18 -12 -24 -32 t-6 -46v-10zM438 1421q0 -29 16.5 -40t51.5 -25l8 -2h6q14 0 30.5 8t51.5 49q10 14 33.5 32.5t58.5 43.5l55.5 43t40 37.5t29.5 43t23 56.5q2 10 4 18.5t2 26.5q0 41 -18.5 58.5t-51.5 17.5q-23 0 -52.5 -11.5t-61.5 -31.5q-27 -18 -55.5 -48t-56.5 -66t-51.5 -72.5 t-39.5 -69.5q-23 -50 -23 -68z" />
<glyph unicode="&#xdf;" horiz-adv-x="1994" d="M-35 240q0 -57 56.5 -112.5t141.5 -99.5t184 -71t183 -27q16 0 30.5 1t27.5 3q39 0 66.5 6.5t52.5 14.5q10 4 30 8q72 27 121 60.5t86 74.5q6 6 11.5 12.5t9.5 12.5q41 -39 101 -73t128 -58.5t137.5 -38.5t130.5 -14q16 0 30.5 1t27.5 3q39 0 66.5 6t51.5 14q10 4 31 8 q72 27 121 61t86 74q35 37 49 76t14 45q0 8 -2 25.5t-6 30.5q-29 57 -88 105t-157 69l4 -2q-25 10 -51.5 19l-53.5 18l-62 19q-30 9 -55 19q-8 8 -22 9q-37 4 -58.5 34.5t-21.5 69.5q0 37 18 66q35 53 92.5 100t131.5 72q47 0 109.5 -12.5t107.5 -53.5q80 -63 110 -70h13 q55 0 75.5 28t20.5 71q0 12 -2 26.5t-6 24.5v-2q-14 37 -41 56.5t-82 47.5q-61 35 -120.5 59.5t-141.5 35.5q-16 0 -23 -2q-80 -4 -160 -35l-28 -15q-98 -47 -172 -109.5t-107 -121.5q-29 -51 -46 -94t-17 -86q2 -43 22.5 -84t52 -77t70.5 -64.5t78 -47.5q33 -14 45 -22 q27 -14 52.5 -21.5t54.5 -13.5q47 -10 92 -22.5t55 -26.5q25 -10 33 -17.5t8 -15.5v-6q0 -12 -8 -22.5t-20.5 -17.5t-25 -12t-20.5 -7q-4 -4 -24.5 -7.5t-43.5 -4.5l-46 -2q-23 -1 -31 -1q-39 0 -74 6.5t-96 22.5q-43 23 -83 51.5t-65 69.5q-12 18 -25.5 35.5t-35.5 31.5 q-16 8 -29.5 7t-19.5 -1q-14 -2 -30.5 -4t-33.5 -10q-35 35 -83 61.5t-113 41.5l4 -3q-25 10 -51.5 19.5t-53.5 17.5l-62 20q-30 9 -54 19q-8 8 -23 8q-37 4 -58.5 35t-21.5 70q0 37 19 65q35 53 92 100.5t131 71.5q47 0 109.5 -12t107.5 -53q80 -63 111 -70h12 q55 0 75.5 28t20.5 71q0 12 -2 26.5t-6 24.5v-2q-14 37 -41 56.5t-82 47.5q-61 35 -120.5 59.5t-141.5 34.5q-16 0 -23 -2q-80 -4 -159 -34l-29 -15q-98 -47 -172 -109.5t-107 -121.5q-29 -51 -46 -94t-17 -86q2 -43 22.5 -84t52 -77t70.5 -64.5t78 -47.5q33 -14 45 -22 q27 -14 52.5 -21.5t54.5 -13.5q47 -10 92 -22.5t55 -26.5q25 -10 33 -17.5t8 -15.5v-6q0 -12 -8 -22.5t-20.5 -17.5t-24.5 -12.5t-21 -7.5q-4 -4 -24.5 -7t-43.5 -4l-46 -2q-23 -1 -31 -1q-39 0 -74 6t-96 23q-43 23 -83 51.5t-64 69.5q-12 18 -25.5 35.5t-36.5 31.5 q-16 8 -29.5 7t-19.5 -1q-20 -2 -44 -7t-46 -28v-4q-27 -34 -27 -73z" />
<glyph unicode="&#xe0;" horiz-adv-x="1028" d="M-12 31q0 -47 39 -75t79 -28q49 0 87 19.5t67 77.5q10 20 17.5 36.5t13.5 32.5q16 41 28.5 65.5t34.5 47.5h19h2q0 2 4 2q16 0 34.5 1t41.5 3h12q20 2 41 2q20 0 41 2q51 4 95 5t73 1h14l6 -4l8 -45l17 -84q8 -41 19.5 -64.5t27.5 -36t38.5 -17.5t53.5 -11q14 0 28.5 3 t37.5 13q35 12 50 43t15 66q0 10 -4 25l-8 28q-139 981 -211 1010q-4 0 -6 1t-6 1h2q-6 2 -5 3t-22 3v6q-86 -14 -137 -32.5t-83 -43t-50.5 -55.5t-36.5 -67q-2 -4 -5 -11.5t-5 -11.5v2q-14 -31 -35 -69.5t-49 -79.5l-89 -146l-97 -164l-92 -166l-77 -149q-14 -37 -21 -63.5 t-7 -55.5v-20zM449 420l204 340h2l41 -336l-4 -4h-243zM524 1468q0 -29 8 -43l-2 2q8 -29 19.5 -48t26 -36.5t34 -34t45.5 -36.5q4 -4 10.5 -7t10.5 -8q41 -27 49 -40q29 -37 53.5 -46.5t32.5 -9.5h4q41 14 59.5 28.5t18.5 47.5q0 18 -19 61q-12 27 -32.5 59t-43 60.5 t-48 54t-48.5 39.5q-29 16 -54 27.5t-46 11.5q-35 0 -56.5 -18.5t-21.5 -63.5z" />
<glyph unicode="&#xe1;" horiz-adv-x="1028" d="M-12 31q0 -47 39 -75t79 -28q49 0 87 19.5t67 77.5q10 20 17.5 36.5t13.5 32.5q16 41 28.5 65.5t34.5 47.5h19h2q0 2 4 2q16 0 34.5 1t41.5 3h12q20 2 41 2q20 0 41 2q51 4 95 5t73 1h14l6 -4l8 -45l17 -84q8 -41 19.5 -64.5t27.5 -36t38.5 -17.5t53.5 -11q14 0 28.5 3 t37.5 13q35 12 50 43t15 66q0 10 -4 25l-8 28q-139 981 -211 1010q-4 0 -6 1t-6 1h2q-6 2 -5 3t-22 3v6q-86 -14 -137 -32.5t-83 -43t-50.5 -55.5t-36.5 -67q-2 -4 -5 -11.5t-5 -11.5v2q-14 -31 -35 -69.5t-49 -79.5l-89 -146l-97 -164l-92 -166l-77 -149q-14 -37 -21 -63.5 t-7 -55.5v-20zM449 420l204 340h2l41 -336l-4 -4h-243zM561 1227q0 -33 17.5 -45.5t56.5 -28.5l4 -2h8q16 0 32.5 7t49.5 48q6 10 25 24l45 32q27 20 46 36.5t32.5 33t24.5 38t24 53.5q0 4 1 5.5t1 5.5q2 10 2 24q0 45 -20.5 63.5t-55.5 18.5q-43 0 -104 -39 q-23 -14 -46.5 -38.5t-46 -54.5t-42 -61.5t-33.5 -58.5q-21 -38 -21 -61z" />
<glyph unicode="&#xe2;" horiz-adv-x="1028" d="M-12 31q0 -47 39 -75t79 -28q49 0 87 19.5t67 77.5q10 20 17.5 36.5t13.5 32.5q16 41 28.5 65.5t34.5 47.5h19h2q0 2 4 2q16 0 34.5 1t41.5 3h12q20 2 41 2q20 0 41 2q51 4 95 5t73 1h14l6 -4l8 -45l17 -84q8 -41 19.5 -64.5t27.5 -36t38.5 -17.5t53.5 -11q14 0 28.5 3 t37.5 13q35 12 50 43t15 66q0 10 -4 25l-8 28q-139 981 -211 1010q-8 0 -10 2q-6 2 -5 3t-22 3v6q-86 -14 -137 -32.5t-83 -43t-50.5 -55.5t-36.5 -67q-2 -4 -5 -11.5t-5 -11.5v2q-14 -31 -35 -69.5t-49 -79.5l-89 -146l-97 -164l-92 -166l-77 -149q-14 -37 -21 -63.5 t-7 -55.5v-20zM449 420l204 340h2l41 -336l-4 -4h-243zM451 1260q0 -14 2 -28.5t8 -25.5q16 -27 32.5 -40t43.5 -13q33 0 59 25l22 23l13 13q4 4 8 9.5t10 11.5q4 4 10.5 9l14.5 11q27 -4 47 -15t57 -40q10 -8 23.5 -14t29.5 -6q10 0 23.5 4t24.5 14q39 27 39 86 q0 14 -4.5 26.5t-8.5 26.5l-1 1q-1 1 -1 3l2 -4l-1 1q-1 1 -1 3v5h-33l31 6q-10 23 -19.5 32t-19.5 15l-22 -35q-6 4 -33 26l-57 46l-58 45q-27 20 -30 20h-5q-31 0 -50 -18.5t-29 -61.5q0 -4 -11.5 -11l-25.5 -15q-14 -10 -28.5 -18.5t-18.5 -14.5l2 2q-18 -16 -31.5 -42.5 t-13.5 -61.5z" />
<glyph unicode="&#xe3;" horiz-adv-x="1028" d="M-12 31q0 -47 39 -75t79 -28q49 0 87 19.5t67 77.5q10 20 17.5 36.5t13.5 32.5q16 41 28.5 65.5t34.5 47.5h19h2q0 2 4 2q16 0 34.5 1t41.5 3h12q20 2 41 2q20 0 41 2q51 4 95 5t73 1h14l6 -4l8 -45l17 -84q8 -41 19.5 -64.5t27.5 -36t38.5 -17.5t53.5 -11q14 0 28.5 3 t37.5 13q35 12 50 43t15 66q0 10 -4 25l-8 28q-139 981 -211 1010q-6 0 -10 2h2q63 6 101 41t46 119v6q0 29 -28.5 49t-61.5 20q-57 0 -82 -51q-4 -6 -5 -13t-1 -11t-2 -4l2 4q0 -2 -2 -2v-2q-2 2 -3 4t-3 4l-10 8q-16 20 -39 38.5t-68 18.5q-29 0 -63.5 -13t-66.5 -33.5 t-53.5 -46t-23.5 -52.5v-4q0 -29 24.5 -52.5t65.5 -23.5q29 0 46.5 13.5t33.5 29.5l15 14q4 -4 8 -6q14 -16 33.5 -31.5t54.5 -21.5q-68 -14 -110 -32.5t-68.5 -42t-43 -51.5t-32.5 -62q-2 -4 -5 -11.5t-5 -11.5v2q-14 -31 -35 -69.5t-49 -79.5l-89 -146l-97 -164l-92 -166 l-77 -149q-14 -37 -21 -63.5t-7 -55.5v-20zM449 420l204 340h2l41 -336l-4 -4h-243z" />
<glyph unicode="&#xe4;" horiz-adv-x="1028" d="M-12 31q0 -47 39 -75t79 -28q49 0 87 19.5t67 77.5q10 20 17.5 36.5t13.5 32.5q16 41 28.5 65.5t34.5 47.5h19h2q0 2 4 2q16 0 34.5 1t41.5 3h12q20 2 41 2q20 0 41 2q51 4 95 5t73 1h14l6 -4l8 -45l17 -84q8 -41 19.5 -64.5t27.5 -36t38.5 -17.5t53.5 -11q14 0 28.5 3 t37.5 13q35 12 50 43t15 66q0 10 -4 25l-8 28q-139 981 -211 1010q-8 0 -10 2q-6 2 -5 3t-22 3v6q-86 -14 -137 -32.5t-83 -43t-50.5 -55.5t-36.5 -67q-2 -4 -5 -11.5t-5 -11.5v2q-14 -31 -35 -69.5t-49 -79.5l-89 -146l-97 -164l-92 -166l-77 -149q-14 -37 -21 -63.5 t-7 -55.5v-20zM365 1260q10 -47 52 -76t107 -31q68 0 114 23.5t52 64.5q10 -39 51 -62.5t105 -25.5q72 0 120 27.5t48 74.5v5q-4 47 -49 77.5t-113 30.5h-8q-66 0 -108 -24.5t-48 -65.5q-10 41 -52 65.5t-108 24.5h-4q-72 0 -115.5 -29.5t-43.5 -78.5zM449 420l204 340h2 l41 -336l-4 -4h-243z" />
<glyph unicode="&#xe5;" horiz-adv-x="1028" d="M-12 31q0 -47 39 -75t79 -28q49 0 87 19.5t67 77.5q10 20 17.5 36.5t13.5 32.5q16 41 28.5 65.5t34.5 47.5h19h2q0 2 4 2q16 0 34.5 1t41.5 3h12q20 2 41 2q20 0 41 2q51 4 95 5t73 1h14l6 -4l8 -45l17 -84q8 -41 19.5 -64.5t27.5 -36t38.5 -17.5t53.5 -11q14 0 28.5 3 t37.5 13q35 12 50 43t15 66q0 10 -4 25l-8 28q-139 981 -211 1010q-8 0 -10 2h2q-4 0 -5 1l-2 2q-1 1 -5.5 2t-16.5 1v6q-86 -14 -137 -32.5t-83 -43t-50.5 -55.5t-36.5 -67q-2 -4 -5 -11.5t-5 -11.5v2q-14 -31 -35 -69.5t-49 -79.5l-89 -146l-97 -164l-92 -166l-77 -149 q-14 -37 -21 -63.5t-7 -55.5v-20zM449 420l204 340h2l41 -336l-4 -4h-243zM516 1294q0 -57 33 -101t110 -44q43 0 85 17.5t75 48t53.5 70.5t22.5 85v12q0 2 1 4.5t1 6.5q0 59 -34 104t-105 45q-55 0 -99.5 -23.5t-75 -58.5t-48 -78t-19.5 -79v-9zM705 1323q2 12 8 23.5 t18 15.5q-3 -29 -26 -39z" />
<glyph unicode="&#xe6;" horiz-adv-x="1712" d="M-12 31q0 -47 39 -75t79 -28q49 0 87 19.5t67 77.5q10 20 17.5 36.5t13.5 32.5q16 41 28.5 65.5t34.5 47.5h19h2q0 2 4 2q16 0 34.5 1t41.5 3h12q20 2 41 2q20 0 41 2q51 4 95 5t73 1h14l6 -4l8 -45l17 -84q8 -41 19.5 -64.5t27.5 -36t38.5 -17.5t53.5 -11q10 0 24.5 2 t30.5 10h2v-2q16 -4 21 -4q35 0 61.5 4l57.5 9l21 4q11 2 26 4h8l481 73q55 6 72 23q14 14 14 37v8q0 6 -4 16v5l-5 15q-3 9 -17 30h-13q-23 16 -53 20l-59 8q-4 0 -9.5 1t-9.5 1q-35 0 -47 -2t-30 -4q-37 -6 -72 -6h-12q-4 0 -6.5 1t-6.5 1h-10q-8 0 -18 -2 q-23 -2 -49.5 -4t-43.5 -2q-20 -2 -41 -2q-18 0 -38 -2q-41 -2 -80 -5t-74 -10l-10 7q-10 59 -17 112l-12 105q-2 10 -2 18t-2 16q-2 10 -2 19q0 8 -2 16h24q10 -2 21 -2h18h35q27 0 54.5 1t62.5 3t81 7.5t111 11.5q10 0 25.5 1t34.5 3q16 2 31 2h18q35 6 48 22.5t13 38.5 q0 23 -8 39l-14 39q-20 37 -65.5 45t-98.5 8h-182h-121q-59 0 -100 5l-7 8q-2 12 -5 43.5t-5 67.5t-3 70t-1 52q12 0 20.5 1t14.5 3q10 2 41 2h65l306 13h63q10 0 15.5 1t13.5 5q35 10 48 26.5t13 36.5q0 12 -4 21l-8 16q-14 18 -28.5 29.5t-33 18.5t-45.5 10l-63 8 q-37 0 -85 2t-101 6q-72 4 -149 7t-148 3q-72 0 -132.5 -5t-101.5 -15q-45 -14 -74.5 -33t-49 -42.5t-34.5 -51.5l-30 -64q-14 -31 -35 -69.5t-49 -79.5l-89 -146l-97 -164l-92 -166l-77 -149q-14 -37 -21 -63.5t-7 -55.5v-20zM449 420l204 340h2l41 -336l-4 -4h-243z" />
<glyph unicode="&#xe7;" horiz-adv-x="999" d="M-14 301q0 -16 2 -22q4 -47 12 -79t25 -65l36 -43v2q51 -68 124 -103.5t153 -51.5l-80 -62q-2 -2 -4 -2t-6 -2l4 2q-20 -10 -26.5 -18.5t-6.5 -34.5q0 -16 16.5 -19.5t45.5 -3.5h32q-59 -33 -82.5 -67.5t-23.5 -50.5q0 -41 47 -58.5t117 -17.5q55 0 118.5 10t116.5 29.5 t88 46t35 59.5v19q0 41 -25.5 68.5t-60.5 49.5q-39 23 -74 31l4 4q104 8 190.5 50t178.5 110q33 29 46 45t24 35q-4 104 -90 104h-7q-2 0 -43 -14t-92 -45v4q-41 -23 -93 -45.5t-134 -46.5h2q-20 -4 -57 -4q-25 0 -63 7t-107 36l2 -2q-29 29 -52.5 61.5t-31.5 73.5v16 q0 16 2 21q8 94 51 176q43 88 97.5 170t115.5 139q45 47 95 79t102 32l147 -107l44 -24q15 -8 23.5 -11.5t12.5 -4.5t8 -1q47 20 73.5 53t26.5 56q0 10 -2 16v12q-10 47 -51 82t-100 66h2q-45 25 -79 40t-61.5 24.5t-51 13.5t-48.5 4q-63 0 -149 -25q-104 -63 -192.5 -148 t-156 -187.5t-111.5 -218t-58 -240.5v-23z" />
<glyph unicode="&#xe8;" horiz-adv-x="1062" d="M-4 49l27 -18l36 -27q31 -25 63 -45t54 -20q47 0 81 5t79 13q4 2 12 2h6l506 72q39 4 56.5 10t23.5 12q12 16 18.5 27.5t6.5 34.5v18q0 10 -4 33h-19q-18 14 -48 19l-58 10q-4 0 -9.5 1t-9.5 1q-16 0 -36.5 -2t-39.5 -5q-41 -6 -75 -6h-23h-10q-8 0 -19 -2q-23 -2 -51 -4 t-45 -2q-12 0 -25.5 -1t-25.5 -1q-47 -2 -94 -5t-94 -9l-7 6q2 23 11 63l17 84q9 43 18.5 81t15.5 57l2 2h26q12 -2 21 -2h20h35q27 0 53.5 1t62.5 3t84 6l116 10q10 0 26.5 1t34.5 3q16 2 28.5 3t16.5 1q57 10 69.5 37t12.5 55v35q-10 45 -55 54.5t-99 9.5h-184h-117 q-57 0 -96 4l-4 6q2 14 10 43l18 62l18 69q9 35 18 61l17 3.5t13 1.5q14 2 23 2h33h65l309 14h62q20 0 26 4q2 2 5 2q45 12 61 32.5t16 41.5v20q-10 20 -22 32.5t-29.5 20t-42 11.5t-61.5 8q-29 2 -66 3t-78 3q-74 4 -148.5 7t-121.5 3h-127h-31q-14 0 -32 2q-51 0 -81 -5 t-47.5 -23.5t-28.5 -52t-24 -91.5zM426 1462q0 -18 2 -26.5t6 -18.5l-2 2q8 -29 19.5 -47t26 -35.5t33.5 -34t46 -36.5q4 -4 8 -6.5t8 -6.5l35 -24q14 -10 19 -21q29 -35 53.5 -44t32.5 -9h4q41 14 59.5 28.5t18.5 45.5q0 23 -23 74q-12 25 -31.5 53t-42 57t-47 52.5 t-47.5 39.5q-29 16 -54.5 27.5t-45.5 11.5q-35 0 -56.5 -18.5t-21.5 -63.5z" />
<glyph unicode="&#xe9;" horiz-adv-x="1062" d="M-4 49l27 -18l36 -27q31 -25 63 -45t54 -20q47 0 81 5t79 13q4 2 12 2h6l506 72q39 4 56.5 10t23.5 12q12 16 18.5 27.5t6.5 34.5v18q0 10 -4 33h-19q-18 14 -48 19l-58 10q-4 0 -9.5 1t-9.5 1q-16 0 -36.5 -2t-39.5 -5q-41 -6 -75 -6h-23h-10q-8 0 -19 -2q-23 -2 -51 -4 t-45 -2q-12 0 -25.5 -1t-25.5 -1q-47 -2 -94 -5t-94 -9l-7 6q2 23 11 63l17 84q9 43 18.5 81t15.5 57l2 2h26q12 -2 21 -2h20h35q27 0 53.5 1t62.5 3t84 6l116 10q10 0 26.5 1t34.5 3q16 2 28.5 3t16.5 1q57 10 69.5 37t12.5 55v35q-10 45 -55 54.5t-99 9.5h-184h-117 q-57 0 -96 4l-4 6q2 14 10 43l18 62l18 69q9 35 18 61l17 3.5t13 1.5q14 2 23 2h33h65l309 14h62q20 0 26 4q2 2 5 2q45 12 61 32.5t16 41.5v20q-10 20 -22 32.5t-29.5 20t-42 11.5t-61.5 8q-29 2 -66 3t-78 3q-74 4 -148.5 7t-121.5 3h-127h-31q-14 0 -32 2q-51 0 -81 -5 t-47.5 -23.5t-28.5 -52t-24 -91.5zM473 1217q0 -33 17.5 -45.5t52.5 -28.5h16q14 0 31.5 6t50.5 47q6 10 25 24l45 33q53 41 80.5 70t44.5 84q0 2 1 7t1 7l-2 -6q2 6 4 15.5t2 19.5q0 43 -20.5 61.5t-55.5 18.5q-43 0 -104 -39q-23 -14 -46.5 -39t-46 -54.5t-43 -61 t-32.5 -58.5q-21 -38 -21 -61z" />
<glyph unicode="&#xea;" horiz-adv-x="1062" d="M-4 49l27 -18l36 -27q31 -25 63 -45t54 -20q47 0 81 5t79 13q4 2 12 2h6l506 72q39 4 56.5 10t23.5 12q12 16 18.5 27.5t6.5 34.5v18q0 10 -4 33h-19q-18 14 -48 19l-58 10q-4 0 -9.5 1t-9.5 1q-16 0 -36.5 -2t-39.5 -5q-41 -6 -75 -6h-23h-10q-8 0 -19 -2q-23 -2 -51 -4 t-45 -2q-12 0 -25.5 -1t-25.5 -1q-47 -2 -94 -5t-94 -9l-7 6q2 23 11 63l17 84q9 43 18.5 81t15.5 57l2 2h26q12 -2 21 -2h20h35q27 0 53.5 1t62.5 3t84 6l116 10q10 0 26.5 1t34.5 3q16 2 28.5 3t16.5 1q57 10 69.5 37t12.5 55v35q-10 45 -55 54.5t-99 9.5h-184h-117 q-57 0 -96 4l-4 6q2 14 10 43l18 62l18 69q9 35 18 61l17 3.5t13 1.5q14 2 23 2h33h65l309 14h62q20 0 26 4q2 2 5 2q45 12 61 32.5t16 41.5v20q-10 20 -22 32.5t-29.5 20t-42 11.5t-61.5 8q-29 2 -66 3t-78 3q-74 4 -148.5 7t-121.5 3h-127h-31q-14 0 -32 2q-51 0 -81 -5 t-47.5 -23.5t-28.5 -52t-24 -91.5zM395 1270q0 -33 11 -51q27 -55 73 -56q35 0 62 25l22 23l12 14q4 4 8.5 9t10.5 11l8 8q4 4 12 11q29 -4 50.5 -16.5t62.5 -41.5q27 -16 49 -16q27 0 47 18q20 14 28.5 36t8.5 50q0 29 -12 64l2 -6q0 2 -2 2v2h-33l31 6q-10 23 -19.5 32 t-19.5 15l-23 -35q-6 4 -32 26l-58 46l-57 45q-27 20 -31 20h-4q-35 0 -52.5 -18t-27.5 -63q0 -4 -11 -11l-24 -12l-28 -17q-12 -7 -21 -18q-18 -16 -30.5 -42.5t-12.5 -59.5z" />
<glyph unicode="&#xeb;" horiz-adv-x="1062" d="M-4 49l27 -18l36 -27q31 -25 63 -45t54 -20q47 0 81 5t79 13q4 2 12 2h6l506 72q39 4 56.5 10t23.5 12q12 16 18.5 27.5t6.5 34.5v18q0 10 -4 33h-19q-18 14 -48 19l-58 10q-4 0 -9.5 1t-9.5 1q-16 0 -36.5 -2t-39.5 -5q-41 -6 -75 -6h-23h-10q-8 0 -19 -2q-23 -2 -51 -4 t-45 -2q-12 0 -25.5 -1t-25.5 -1q-47 -2 -94 -5t-94 -9l-7 6q2 23 11 63l17 84q9 43 18.5 81t15.5 57l2 2h26q12 -2 21 -2h20h35q27 0 53.5 1t62.5 3t84 6l116 10q10 0 26.5 1t34.5 3q16 2 28.5 3t16.5 1q57 10 69.5 37t12.5 55v35q-10 45 -55 54.5t-99 9.5h-184h-117 q-57 0 -96 4l-4 6q2 14 10 43l18 62l18 69q9 35 18 61l17 3.5t13 1.5q14 2 23 2h33h65l309 14h62q20 0 26 4q2 2 5 2q45 12 61 32.5t16 41.5v20q-10 20 -22 32.5t-29.5 20t-42 11.5t-61.5 8q-29 2 -66 3t-78 3q-74 4 -148.5 7t-121.5 3h-127h-31q-14 0 -32 2q-51 0 -81 -5 t-47.5 -23.5t-28.5 -52t-24 -91.5zM328 1282q10 -47 50 -76.5t109 -29.5q68 0 114 23.5t52 64.5q10 -37 50 -62.5t104 -25.5q72 0 120 27.5t48 74.5v2q-4 47 -47 78t-113 31h-8q-68 0 -110 -25t-46 -68q-12 41 -53 67t-109 26h-2q-72 0 -115.5 -30t-43.5 -77z" />
<glyph unicode="&#xec;" horiz-adv-x="454" d="M-12 70q10 -41 30 -62l2 -2l11 25v-31q-4 0 -8 4q4 -6 14 -10l119 -39h37l11 16l7 11q16 23 22.5 35t10.5 46q0 2 15 70l38 167l48 211l48 204q4 35 13 58l16 46q6 18 11 35.5t7 22.5v-3q8 29 17.5 69t17.5 81q0 27 -11 51.5t-31.5 43t-46.5 29.5t-54 11h-17 q-12 10 -30 10q-37 0 -71 -73.5t-68.5 -214t-73.5 -345t-84 -466.5zM164 1499q0 -16 1 -23.5t5 -19.5l-2 2q8 -29 19.5 -49t25.5 -36.5t33.5 -33t48.5 -36.5q25 -16 44 -31t26 -25q29 -37 52 -46t32 -9h6q41 16 59 28.5t18 47.5q0 10 -6 23.5t-12 31.5v2q-14 27 -34.5 59.5 t-43 62.5t-48.5 55.5t-48 39.5h2q-59 39 -102 39q-35 0 -55.5 -18.5t-20.5 -63.5z" />
<glyph unicode="&#xed;" horiz-adv-x="454" d="M-12 70q10 -41 30 -62l2 -2l11 25v-31q-4 0 -8 4q4 -6 14 -10l119 -39h37l11 16l7 11q16 23 22.5 35t10.5 46q0 2 15 70l38 167l48 211l48 204q4 35 13 58l16 46q6 18 11 35.5t7 22.5v-3q8 29 17.5 69t17.5 81q0 27 -11 51.5t-31.5 43t-46.5 29.5t-54 11h-17 q-12 10 -30 10q-37 0 -71 -73.5t-68.5 -214t-73.5 -345t-84 -466.5zM209 1257q0 -33 17.5 -45t52.5 -28h16q14 0 31.5 6t50.5 47q6 10 24 24l45 33l47 36q19 15 33.5 32.5t25.5 39t21 52.5q0 4 1 5t1 5q2 10 3 27q0 43 -20.5 61.5t-55.5 18.5q-43 0 -105 -39 q-23 -14 -46 -39t-45.5 -54.5t-42 -61t-34.5 -58.5q-20 -39 -20 -62z" />
<glyph unicode="&#xee;" horiz-adv-x="454" d="M-12 70q10 -41 30 -62l2 -2l11 25v-31q-4 0 -8 4q4 -6 14 -10l119 -39h37l11 16l7 11q16 23 22.5 35t10.5 46q0 2 15 70l38 167l48 211l48 204q4 35 13 58l16 46q6 18 11 35.5t7 22.5v-3q8 29 17.5 69t17.5 81q0 27 -11 51.5t-31.5 43t-46.5 29.5t-54 11h-17 q-12 10 -30 10q-37 0 -71 -73.5t-68.5 -214t-73.5 -345t-84 -466.5zM113 1278q0 -33 10 -51q27 -55 74 -56q33 0 59 25l55 57l8 9q4 4 13 10q29 -4 48 -15.5t58 -37.5q10 -8 24.5 -14.5t31.5 -6.5q27 0 47 19q37 27 37 86q0 29 -13 63l2 -6q0 2 -2 2v2h-33l31 6 q-10 23 -19 31t-22 14l-4 -12q-12 14 -31.5 34.5t-44 39t-55.5 31t-63 12.5h-7q-31 0 -50 -18.5t-29 -63.5q0 -4 -12 -11l-23 -12l-29 -17q-12 -7 -20 -18q-16 -16 -28.5 -42.5t-12.5 -59.5z" />
<glyph unicode="&#xef;" horiz-adv-x="454" d="M-12 70q10 -41 30 -62l2 -2l11 25v-31q-4 0 -8 4q4 -6 14 -10l119 -39h37l11 16l7 11q16 23 22.5 35t10.5 46q0 2 15 70l38 167l48 211l48 204q4 35 13 58l16 46q6 18 11 35.5t7 22.5v-3q8 29 17.5 69t17.5 81q0 27 -11 51.5t-31.5 43t-46.5 29.5t-54 11h-17 q-12 10 -30 10q-37 0 -71 -73.5t-68.5 -214t-73.5 -345t-84 -466.5zM41 1294q10 -47 51 -75.5t109 -30.5q68 0 113.5 23.5t52.5 64.5q10 -39 51 -62.5t102 -25.5q72 0 120 27.5t48 74.5v2q-4 47 -47 79t-113 32h-8q-68 0 -109.5 -24.5t-45.5 -67.5q-12 41 -53.5 66.5 t-108.5 25.5h-2q-72 0 -116 -30t-44 -79z" />
<glyph unicode="&#xf0;" horiz-adv-x="1163" d="M-139 608q4 -37 10 -63.5t20 -42.5q16 -25 53.5 -33t90.5 -8h20q-18 -84 -31.5 -171t-23.5 -186v-28q10 -55 49 -88l160 -51q41 0 74.5 2t58.5 6q2 2 8 2q162 14 303.5 84.5t248 174t167.5 226.5t61 240q0 80 -29.5 152.5t-95 132t-169 101.5t-248.5 60h2 q-43 12 -101.5 14.5t-132.5 2.5l-116 -19q-35 -90 -53.5 -143t-22.5 -72v-14q0 -2 -2 -6t-3 -8.5t-3 -8.5q-12 -47 -25.5 -92t-24.5 -88q-53 -2 -97 -4t-64 -6v2q-41 -8 -62.5 -18.5t-21.5 -49.5zM270 137q8 63 26.5 150.5t41.5 181.5l105.5 4t66.5 6h29q43 0 65.5 3 t42.5 16q23 10 28 22t5 35l-20 42q-9 19 -21 28l2 -2q-47 41 -109.5 53t-136.5 14l37 123l31 98l4 2q139 0 221 -12t123 -41q59 -45 80.5 -83t26.5 -70l2 -9q-4 -63 -46.5 -136t-112 -143.5t-161.5 -134t-197 -112.5q-8 -4 -42.5 -16.5t-81.5 -26.5z" />
<glyph unicode="&#xf1;" horiz-adv-x="1093" d="M-20 29q0 -55 44 -89t93 -34q41 0 71.5 21.5t36.5 74.5v10q10 31 32 104.5t45 163.5l46 182q23 93 35 165q31 -113 65.5 -207t67.5 -166t61.5 -119t47.5 -63l-2 4q41 -53 81.5 -78t77.5 -25q45 0 77 30t48 77q23 66 37 113l25 79l19 60l11.5 38l8.5 28.5t8 31.5 q2 20 10 49l16 59q8 30 17 56l12 41v-2q4 8 13.5 36.5t19.5 67.5l20.5 83t14.5 87q12 29 22 66t10 71q0 51 -32 84l-129 19q-33 -6 -56.5 -23.5t-40 -42t-25.5 -54.5t-16 -58l-14 -64l-36 -153l-48 -194q-27 -103 -51 -183q-53 121 -83 224t-48 222q-4 10 -5 25.5t-1 38.5 v24q0 31 -2 64t-12.5 60.5t-30 46t-56.5 22.5q-94 -6 -148 -22.5t-84 -44t-42 -67.5t-23 -91v2q-12 -43 -22 -84l-21 -80v2l-44 -172l-35 -139l-49 -188q-17 -69 -25 -104.5t-10 -49t-2 -23.5v-12zM469 1231q0 -29 25.5 -52.5t66.5 -23.5q25 0 42.5 11.5t33.5 27.5l6 6 q4 4 6 7t4 5q2 -2 4 -3t5 -3q16 -18 44.5 -37.5t81.5 -19.5q86 0 133.5 32.5t57.5 129.5v6q0 29 -28.5 49t-61.5 20q-23 0 -46.5 -12t-35.5 -37q-4 -6 -4 -18q0 -4 -1 -5t-1 -3t-1 -3t-1 -3l2 6q0 -2 -1 -3l-20.5 27.5t-25.5 38.5v-18q-31 25 -78 24q-29 0 -63.5 -13 t-65.5 -33.5t-53.5 -46t-24.5 -50.5v-6z" />
<glyph unicode="&#xf2;" horiz-adv-x="1206" d="M-18 340q0 -6 4 -16l-2 4q4 -35 16 -74t47 -98q8 -14 15.5 -25.5t15.5 -21.5q2 -4 8 -11q55 -66 134 -102.5t196 -54.5q35 -8 68.5 -10.5t74.5 -2.5q111 0 203 22.5t160 76.5q154 135 225.5 306t71.5 331v34q0 12 -1 21.5t-4 19.5q-4 31 -11 63t-23 66q-35 66 -76 111 t-84 74.5t-84 44t-76 20.5h-112q-117 -14 -200 -33.5t-134 -48.5l-70 -41q-27 -16 -41 -26q-74 -53 -133 -124t-101 -150t-64.5 -160.5t-22.5 -157.5v-25v-12zM260 295q2 76 37 176t95.5 193.5t144.5 166t184 97.5q37 10 78 10q23 0 43 -5t41 -20q35 -27 54 -80t30 -106v-20 q0 -6 1 -13.5t1 -15.5q0 -86 -29 -186.5t-88 -187.5t-150.5 -145.5t-216.5 -62.5q-16 0 -43.5 10.5t-56.5 26.5q-59 16 -89 61.5t-34 100.5h-2zM569 1450q0 -16 1 -22.5t3 -12.5q12 -33 23.5 -54.5t25 -37.5t33 -32.5l45.5 -37.5l45 -31q18 -13 25 -24q29 -37 53.5 -46 t32.5 -9h4q41 16 59.5 28.5t18.5 47.5q0 23 -20 61q-12 27 -33 58.5t-43.5 60t-48 54.5t-48.5 40h3q-59 39 -103 39q-35 0 -55.5 -18.5t-20.5 -63.5z" />
<glyph unicode="&#xf3;" horiz-adv-x="1206" d="M-18 340q0 -6 4 -16l-2 4q4 -35 16 -74t47 -98q8 -14 15.5 -25.5t15.5 -21.5q2 -4 8 -11q55 -66 134 -102.5t196 -54.5q35 -8 68.5 -10.5t74.5 -2.5q111 0 203 22.5t160 76.5q154 135 225.5 306t71.5 331v34q0 12 -1 21.5t-4 19.5q-4 31 -11 63t-23 66q-35 66 -76 111 t-84 74.5t-84 44t-76 20.5h-112q-117 -14 -200 -33.5t-134 -48.5l-70 -41q-27 -16 -41 -26q-74 -53 -133 -124t-101 -150t-64.5 -160.5t-22.5 -157.5v-25v-12zM260 295q2 76 37 176t95.5 193.5t144.5 166t184 97.5q37 10 78 10q23 0 43 -5t41 -20q35 -27 54 -80t30 -106v-20 q0 -6 1 -13.5t1 -15.5q0 -86 -29 -186.5t-88 -187.5t-150.5 -145.5t-216.5 -62.5q-16 0 -43.5 10.5t-56.5 26.5q-59 16 -89 61.5t-34 100.5h-2zM532 1204q0 -33 16.5 -45t53.5 -26l12 -5h4q16 0 34 7.5t48 48.5q8 10 43 35q6 4 12.5 9l14.5 11l47 37q20 16 34.5 32.5t25 37 t20.5 49.5q2 6 3 14t1 27q0 45 -20.5 63.5t-55.5 18.5q-23 0 -49 -11.5t-55 -27.5q-23 -14 -46.5 -39t-47 -55.5t-43 -63.5t-33.5 -59v-2q-8 -18 -13.5 -32t-5.5 -24z" />
<glyph unicode="&#xf4;" horiz-adv-x="1206" d="M-18 340q0 -6 4 -16l-2 4q4 -35 16 -74t47 -98q8 -14 15.5 -25.5t15.5 -21.5q2 -4 8 -11q55 -66 134 -102.5t196 -54.5q35 -8 68.5 -10.5t74.5 -2.5q111 0 203 22.5t160 76.5q154 135 225.5 306t71.5 331v34q0 12 -1 21.5t-4 19.5q-4 31 -11 63t-23 66q-35 66 -76 111 t-84 74.5t-84 44t-76 20.5h-112q-117 -14 -200 -33.5t-134 -48.5l-70 -41q-27 -16 -41 -26q-74 -53 -133 -124t-101 -150t-64.5 -160.5t-22.5 -157.5v-25v-12zM260 295q2 76 37 176t95.5 193.5t144.5 166t184 97.5q37 10 78 10q23 0 43 -5t41 -20q35 -27 54 -80t30 -106v-20 q0 -6 1 -13.5t1 -15.5q0 -86 -29 -186.5t-88 -187.5t-150.5 -145.5t-216.5 -62.5q-16 0 -43.5 10.5t-56.5 26.5q-59 16 -89 61.5t-34 100.5h-2zM543 1245q0 -33 10 -51q27 -55 74 -55q35 0 61 24l23 24l12 13q4 4 8 9l10 12l9 8q4 4 12 10q29 -4 50.5 -16.5t61.5 -40.5 q27 -16 50 -17q27 0 47 19q20 14 28.5 35.5t8.5 50.5t-13 63l2 -6q0 2 -2 2v2h-32l30 6q-10 23 -19 32t-20 15l-22 -34q-6 4 -33 25l-57 46l-58 45q-27 20 -30 21h-4q-35 0 -52.5 -18.5t-27.5 -63.5q0 -4 -12 -10l-23 -13l-29 -17q-12 -7 -20 -17q-18 -16 -30.5 -43 t-12.5 -60z" />
<glyph unicode="&#xf5;" horiz-adv-x="1206" d="M-18 340q0 -6 4 -16l-2 4q4 -35 16 -74t47 -98q8 -14 15.5 -25.5t15.5 -21.5q2 -4 8 -11q55 -66 134 -102.5t196 -54.5q35 -8 68.5 -10.5t74.5 -2.5q111 0 203 22.5t160 76.5q154 135 225.5 306t71.5 331v34q0 12 -1 21.5t-4 19.5q-4 31 -11 63t-23 66q-35 66 -76 111 t-84 74.5t-84 44t-76 20.5h-112q-117 -14 -200 -33.5t-134 -48.5l-70 -41q-27 -16 -41 -26q-74 -53 -133 -124t-101 -150t-64.5 -160.5t-22.5 -157.5v-25v-12zM260 295q2 76 37 176t95.5 193.5t144.5 166t184 97.5q37 10 78 10q23 0 43 -5t41 -20q35 -27 54 -80t30 -106v-20 q0 -6 1 -13.5t1 -15.5q0 -86 -29 -186.5t-88 -187.5t-150.5 -145.5t-216.5 -62.5q-16 0 -43.5 10.5t-56.5 26.5q-59 16 -89 61.5t-34 100.5h-2zM451 1229q0 -31 25.5 -54.5t66.5 -23.5q27 0 44 13.5t36 31.5l14 14q0 2 6 -4q16 -23 45 -42t82 -19q84 0 132 33.5t59 130.5v4 q0 29 -28 49t-61 20q-25 0 -48 -12t-38 -41q0 -8 -4 -12v-4q-2 -4 -2 -10q-2 2 -4 6q-4 0 -4 6q-16 23 -40.5 42t-72.5 19q-29 0 -64.5 -12t-66 -32.5t-53 -46t-24.5 -52.5v-4z" />
<glyph unicode="&#xf6;" horiz-adv-x="1206" d="M-18 340q0 -6 4 -16l-2 4q4 -35 16 -74t47 -98q8 -14 15.5 -25.5t15.5 -21.5q2 -4 8 -11q55 -66 134 -102.5t196 -54.5q35 -8 68.5 -10.5t74.5 -2.5q111 0 203 22.5t160 76.5q154 135 225.5 306t71.5 331v34q0 12 -1 21.5t-4 19.5q-4 31 -11 63t-23 66q-35 66 -76 111 t-84 74.5t-84 44t-76 20.5h-112q-117 -14 -200 -33.5t-134 -48.5l-70 -41q-27 -16 -41 -26q-74 -53 -133 -124t-101 -150t-64.5 -160.5t-22.5 -157.5v-25v-12zM260 295q2 76 37 176t95.5 193.5t144.5 166t184 97.5q37 10 78 10q23 0 43 -5t41 -20q35 -27 54 -80t30 -106v-20 q0 -6 1 -13.5t1 -15.5q0 -86 -29 -186.5t-88 -187.5t-150.5 -145.5t-216.5 -62.5q-16 0 -43.5 10.5t-56.5 26.5q-59 16 -89 61.5t-34 100.5h-2zM395 1241q10 -45 51 -75.5t109 -30.5q72 0 118 24.5t50 67.5q8 -39 48 -65.5t106 -26.5q72 0 119.5 27.5t47.5 74.5v2 q-4 47 -48 78t-113 31h-9q-68 0 -108.5 -26t-44.5 -71q-10 41 -52 69t-110 28h-4q-72 0 -116 -30t-44 -77z" />
<glyph unicode="&#xf7;" horiz-adv-x="1099" d="M57 670q0 -8 2 -13v-14l12 -43q7 -27 21 -43q16 -25 57 -33t101 -8q25 0 51.5 1t56.5 1l54 4q27 2 55 2h4q12 0 65.5 1t115 3t116.5 5.5t72 7.5h41q53 0 77.5 3t45.5 17q18 8 23 17.5t5 25.5l-20 43q-10 20 -21 29q-53 49 -135 62.5t-176 13.5h-88q-20 0 -42 -2t-42 -2 q-51 0 -110.5 -1.5t-113 -3.5t-93 -4t-50.5 -4h2q-41 -8 -63.5 -17t-22.5 -40v-8zM311 295q0 -23 7.5 -39t17.5 -31q41 -31 77 -42t54 -11q29 0 55.5 7t46.5 18q39 20 64.5 53t28.5 72q0 70 -76 100q-20 10 -43 17t-45 7q-14 0 -22.5 -1t-20.5 -3q-55 -10 -96.5 -47 t-47.5 -84v-16zM414 961q0 -23 7 -39.5t17 -30.5q41 -31 77 -42t54 -11q29 0 55.5 7t47.5 17q39 20 64.5 53t27.5 72q0 70 -76 100q-20 10 -42.5 17.5t-45.5 7.5q-14 0 -22.5 -1t-20.5 -3q-55 -10 -96 -47t-47 -84v-16z" />
<glyph unicode="&#xf8;" horiz-adv-x="1206" d="M-18 340q0 -6 4 -16l-2 4q4 -35 16 -74t47 -98q6 -12 13.5 -22.5t15.5 -20.5q4 -8 10 -15v2q12 -16 20 -22q-6 -6 -14 -19q-6 -8 -11 -14t-11 -14q-35 -43 -35 -88q0 -49 32.5 -77t86.5 -28q35 0 74.5 17.5t70.5 58.5q10 10 18 21l17 22q16 -4 38 -8l44 -8 q35 -8 68.5 -10.5t74.5 -2.5q111 0 203 22.5t160 76.5q154 135 225.5 306t71.5 331v34q0 12 -1 21.5t-4 19.5q-4 31 -11 63t-23 66l-6 13q-2 2 -7 10q37 31 66 75t29 109v39q-8 47 -43 66.5t-80 19.5q-29 0 -56.5 -7t-50.5 -22q-49 -35 -90 -75q-23 10 -40 13t-34 7 q-2 0 -6 1t-6 1h-108q-117 -14 -200 -33.5t-134 -48.5l-70 -41q-27 -16 -41 -26q-74 -53 -133 -124t-101 -150t-64.5 -160.5t-22.5 -157.5v-25v-12zM260 295q2 76 37 176t95.5 193.5t144.5 166t184 97.5q37 10 78 10h6q0 -2 -1 -3l1 1l-11 -15l-10 -14l-11 -15l-11 -15 q-23 -33 -49.5 -65t-55.5 -60q-14 -14 -30.5 -33t-32.5 -35q-8 -10 -16.5 -17.5t-16.5 -17.5q-29 -29 -53.5 -56.5t-44.5 -55.5l-113 -139l-88 -111v8h-2zM451 100l250 302l266 300q0 -6 1 -12t1 -12q0 -86 -29 -186.5t-88 -187.5t-150.5 -145.5t-216.5 -62.5h-16 q-8 0 -18 4z" />
<glyph unicode="&#xf9;" horiz-adv-x="1038" d="M-8 295q0 -66 20.5 -129.5t75.5 -110.5l23 -8l-7 2q78 -63 139.5 -87.5t131.5 -24.5q8 2 20 2h29q10 0 19.5 -1t19.5 -1h20v2h4q117 0 197 61t134 156.5t90 213t65 232.5v-2q27 96 50.5 205.5t33.5 214.5q0 35 -1 57.5t-9 57.5q-8 14 -25.5 25t-39 19.5t-42 12.5t-35.5 4 q-23 0 -47 -20.5l-31 -26.5l-57 -277q-2 -8 -3 -16t-3 -16l-18 -100q-9 -54 -29 -132q-12 -53 -27.5 -110.5t-32 -108.5t-34 -93t-31.5 -63l-62 -79l-4 -4q-18 -12 -40.5 -19.5t-43 -10.5t-38 -4t-25.5 -1h-8q-10 0 -29.5 6t-38 17.5t-33 29.5t-14.5 43q0 10 2 16 q0 35 10.5 83t28.5 112l50 169l37 120l26 81l16 50q6 20 10 31.5t6 19.5t3 16.5t1 22.5q4 23 7 65v4q0 20 -16.5 42t-39 38.5t-50.5 28.5t-48 18q-37 0 -67.5 -22.5t-75.5 -89.5v-15h2q-10 -23 -18.5 -47t-14.5 -51l2 2q-8 -23 -14 -44l-13 -42l-39 -133q-14 -49 -23 -88 l-17.5 -78t-18.5 -100q-4 -31 -7 -61.5t-3 -63.5zM395 1436q0 -29 8 -43l-2 2q8 -29 19.5 -48.5t26 -37t34 -33.5l45.5 -37q2 -2 5.5 -4t7.5 -6l-2 2q23 -16 38 -28.5t21 -18.5q29 -37 53.5 -46.5t32.5 -9.5h2q41 16 60.5 31t19.5 45q0 23 -21 62q-12 27 -32.5 58.5t-43 60 t-48 54t-48.5 40.5q-29 16 -54 27.5t-46 11.5q-35 0 -55.5 -18.5t-20.5 -63.5z" />
<glyph unicode="&#xfa;" horiz-adv-x="1038" d="M-8 295q0 -66 20.5 -129.5t75.5 -110.5l23 -8l-7 2q78 -63 139.5 -87.5t131.5 -24.5q8 2 20 2h29q10 0 19.5 -1t19.5 -1h20v2h4q117 0 197 61t134 156.5t90 213t65 232.5v-2q27 96 50.5 205.5t33.5 214.5q0 35 -1 57.5t-9 57.5q-8 14 -25.5 25t-39 19.5t-42 12.5t-35.5 4 q-23 0 -47 -20.5l-31 -26.5l-57 -277q-2 -8 -3 -16t-3 -16l-18 -100q-9 -54 -29 -132q-12 -53 -27.5 -110.5t-32 -108.5t-34 -93t-31.5 -63l-62 -79l-4 -4q-18 -12 -40.5 -19.5t-43 -10.5t-38 -4t-25.5 -1h-8q-10 0 -29.5 6t-38 17.5t-33 29.5t-14.5 43q0 10 2 16 q0 35 10.5 83t28.5 112l50 169l37 120l26 81l16 50q6 20 10 31.5t6 19.5t3 16.5t1 22.5q4 23 7 65v4q0 20 -16.5 42t-39 38.5t-50.5 28.5t-48 18q-37 0 -67.5 -22.5t-75.5 -89.5v-15h2q-10 -23 -18.5 -47t-14.5 -51l2 2q-8 -23 -14 -44l-13 -42l-39 -133q-14 -49 -23 -88 l-17.5 -78t-18.5 -100q-4 -31 -7 -61.5t-3 -63.5zM475 1206q0 -31 16.5 -43t53.5 -26l12 -4h4q16 0 33.5 7t48.5 46q6 8 21 19l32 26q4 4 8.5 6t8.5 6q29 20 49 36.5t34.5 33t24.5 36t19 48.5v6q2 6 3 13t1 24q0 43 -20.5 61.5t-55.5 18.5q-23 0 -47.5 -8.5t-48.5 -22.5 q-25 -16 -50.5 -44t-49 -58.5t-44 -61.5t-34.5 -57q0 -2 -1 -6.5t-1 -6.5q-17 -39 -17 -49z" />
<glyph unicode="&#xfb;" horiz-adv-x="1038" d="M-8 295q0 -66 20.5 -129.5t75.5 -110.5l16 -6q78 -63 139.5 -87.5t131.5 -24.5q8 2 20 2h29q10 0 19.5 -1t19.5 -1h20v2h4q117 0 197 61t134 156.5t90 213t65 232.5v-2q27 96 50.5 205.5t33.5 214.5q0 35 -1 57.5t-9 57.5q-8 14 -25.5 25t-39 19.5t-42 12.5t-35.5 4 q-23 0 -47 -20.5l-31 -26.5l-57 -277q-2 -8 -3 -16t-3 -16l-18 -100q-9 -54 -29 -132q-12 -53 -27.5 -110.5t-32 -108.5t-34 -93t-31.5 -63l-62 -79l-4 -4q-18 -12 -40.5 -19.5t-43 -10.5t-38 -4t-25.5 -1h-8q-10 0 -29.5 6t-38 17.5t-33 29.5t-14.5 43q0 10 2 16 q0 35 10.5 83t28.5 112l50 169l37 120l26 81l16 50q6 20 10 31.5t6 19.5t3 16.5t1 22.5q4 23 7 65v4q0 20 -16.5 42t-39 38.5t-50.5 28.5t-48 18q-37 0 -67.5 -22.5t-75.5 -89.5v-15h2q-10 -23 -18.5 -47t-14.5 -51l2 2q-8 -23 -14 -44l-13 -42l-39 -133q-14 -49 -23 -88 l-17.5 -78t-18.5 -100q-4 -31 -7 -61.5t-3 -63.5zM381 1257q0 -29 10 -51q27 -55 74 -55q16 0 29.5 7t29.5 18l37 36q4 4 8 9.5t11 11.5l20 20q29 -4 50.5 -17t62.5 -42q27 -16 49 -16q16 0 45 18q39 35 39 86q0 16 -5 33.5l-10 34.5v2q-10 20 -19 28.5t-21 14.5l-5 -13 q-12 14 -31.5 35t-44 39.5t-55 30.5t-63.5 12h-6q-33 0 -51.5 -18.5t-26.5 -61.5q0 -2 -12 -9l-27 -15l-29 -19q-12 -8 -18 -16q-16 -16 -28.5 -43t-12.5 -60z" />
<glyph unicode="&#xfc;" horiz-adv-x="1038" d="M-8 295q0 -66 20.5 -129.5t75.5 -110.5l16 -6q78 -63 139.5 -87.5t131.5 -24.5q8 2 20 2h29q10 0 19.5 -1t19.5 -1h20v2h4q117 0 197 61t134 156.5t90 213t65 232.5v-2q27 96 50.5 205.5t33.5 214.5q0 35 -1 57.5t-9 57.5q-8 14 -25.5 25t-39 19.5t-42 12.5t-35.5 4 q-23 0 -47 -20.5l-31 -26.5l-57 -277q-2 -8 -3 -16t-3 -16l-18 -100q-9 -54 -29 -132q-12 -53 -27.5 -110.5t-32 -108.5t-34 -93t-31.5 -63l-62 -79l-4 -4q-18 -12 -40.5 -19.5t-43 -10.5t-38 -4t-25.5 -1h-8q-10 0 -29.5 6t-38 17.5t-33 29.5t-14.5 43q0 10 2 16 q0 35 10.5 83t28.5 112l50 169l37 120l26 81l16 50q6 20 10 31.5t6 19.5t3 16.5t1 22.5q4 23 7 65v4q0 20 -16.5 42t-39 38.5t-50.5 28.5t-48 18q-37 0 -67.5 -22.5t-75.5 -89.5v-15h2q-10 -23 -18.5 -47t-14.5 -51l2 2q-8 -23 -14 -44l-13 -42l-39 -133q-14 -49 -23 -88 l-17.5 -78t-18.5 -100q-4 -31 -7 -61.5t-3 -63.5zM276 1300q10 -47 51.5 -75.5t108.5 -30.5q68 0 114 23.5t52 64.5q10 -39 51 -62.5t105 -25.5q72 0 120 27.5t48 74.5v4q-4 47 -49.5 78t-112.5 31h-8q-66 0 -108 -24.5t-48 -65.5q-10 41 -52 65.5t-110 24.5h-2 q-72 0 -116 -30t-44 -79z" />
<glyph unicode="&#xfd;" horiz-adv-x="944" d="M-33 997q0 -31 9.5 -55t21.5 -47q25 -37 50.5 -96.5t48 -123t40 -123.5t25.5 -99l-68 -392q2 -47 58 -81l-5 2l17 -17q82 -31 123 -31q31 0 48 11.5t29.5 36t20.5 62.5t18 93l23 117q12 66 35 152q4 25 8 42t10 32.5t16.5 31.5t28.5 39q59 88 153.5 193.5t242.5 242.5 l2 2q2 0 6 4q16 14 39.5 37t23.5 51v17l-14 26v-2q-12 25 -45 38.5t-68 13.5q-55 0 -94 -44l-205 -225q-98 -111 -184 -221l-22 49q-11 27 -21 58v-3q-2 4 -4 10.5t-4 10.5q-35 88 -75 169t-91 122q-10 4 -27.5 5t-36.5 1q-29 0 -56.5 -5t-43.5 -18q-18 -12 -25.5 -32.5 t-7.5 -44.5v-9zM330 1157q0 -31 16 -43t53 -27l13 -4h4q14 0 32.5 7.5t49.5 46.5q6 8 20 19l33 26q4 4 8 6t8 6q29 20 49.5 36.5t35 33t24.5 36t18 48.5v6q2 6 3 13t1 24q0 43 -20.5 61t-54.5 18q-23 0 -47.5 -8t-49.5 -22q-23 -16 -48 -43t-48.5 -57.5t-44 -61.5t-35.5 -57 q-20 -39 -20 -64z" />
<glyph unicode="&#xfe;" horiz-adv-x="917" d="M-12 70q4 -16 9 -30.5t15 -25.5q0 -16 17 -16q4 -2 7 -3t7 -3l113 -37h37l11 16l7 11q16 23 22.5 35t10.5 46q2 14 3 22.5t7 33.5h25q121 14 200.5 35.5t153.5 56.5q164 74 257 159t93 205q-10 90 -56 149.5t-145 106.5q-57 27 -148 47.5t-185 32.5l20 82l6 31 q0 27 -11 51.5t-31.5 43t-46.5 29.5t-54 11h-17q-12 10 -30 10q-37 0 -71 -73.5t-68.5 -214t-73.5 -345t-84 -466.5zM307 322l18 86l22 111q11 56 22.5 105.5t17.5 71.5l-2 -2q12 25 21 25q29 0 66.5 -3t77.5 -10.5t78 -18.5t66 -25q2 -10 15 -11q2 -2 6 -2q39 -43 39 -71 q0 -35 -33 -67t-87 -63.5t-126 -62.5t-152 -61l4 2l-47 -11z" />
<glyph unicode="&#xff;" horiz-adv-x="944" d="M-33 997q0 -31 9.5 -55t21.5 -47q25 -37 50.5 -96.5t48 -123t40 -123.5t25.5 -99l-68 -392q2 -47 58 -81l-5 2l17 -17q82 -31 123 -31q31 0 48 11.5t29.5 36t20.5 62.5t18 93l23 117q12 66 35 152q4 25 8 42t10 32.5t16.5 31.5t28.5 39q59 88 153.5 193.5t242.5 242.5 l2 2q2 0 6 4q16 14 39.5 37t23.5 51v17l-14 26v-2q-12 25 -45 38.5t-68 13.5q-55 0 -94 -44l-205 -225q-98 -111 -184 -221l-22 49q-11 27 -21 58v-3q-2 4 -4 10.5t-4 10.5q-35 88 -75 169t-91 122q-10 4 -27.5 5t-36.5 1q-29 0 -56.5 -5t-43.5 -18q-18 -12 -25.5 -32.5 t-7.5 -44.5v-9zM162 1249q10 -47 50 -76.5t110 -29.5q68 0 113.5 23.5t51.5 64.5q10 -37 51.5 -62.5t104.5 -25.5q72 0 120 27.5t48 74.5v2q-4 47 -49 78t-113 31h-8q-66 0 -107.5 -24.5t-48.5 -65.5q-10 41 -52 65.5t-109 24.5h-2q-72 0 -116 -30t-44 -77z" />
<glyph unicode="&#x152;" horiz-adv-x="2424" d="M2 414q0 -20 2 -27q6 -47 21.5 -97t56.5 -110v2q70 -115 174 -172t268 -84q45 -10 86 -13t88 -3q125 0 229.5 23.5t184.5 76.5q25 -16 52 -38l55 -41q27 -19 50 -32.5t42 -13.5q57 0 103 8.5t112 18.5h4l633 90q43 4 61.5 10t22.5 11q12 12 17 23t5 34v16q0 10 -2 23h-10 q-20 23 -65.5 29t-80.5 10q-45 0 -94 -8.5t-96 -8.5q-8 0 -14 1t-15 1q-4 0 -22.5 -2t-43 -3t-49 -3t-40.5 -2l-153 -8q-77 -4 -150 -14l-9 2l-18 18l-2 8q2 27 13.5 84.5l24.5 117.5t26.5 112.5t19.5 68.5l4 2h2l12 4h39q14 -2 25 -2h22h43q33 0 67 1t78 4.5l103.5 8.5 t145.5 13q8 0 27.5 1t41 3t40 3t24.5 1q55 8 67.5 35t12.5 55v39q-10 41 -59.5 50.5t-108.5 9.5h-230q-78 0 -155.5 1t-124.5 7l-15 20l-2 8q4 18 16 64l24 95l26 94q12 44 18 61h-2l6 4l11 4l34 3l24 2l24 2q12 1 32 1h82l385 17h78q18 0 21 2q6 6 8 6q47 10 63.5 29.5 t16.5 37.5v17q-10 20 -22.5 32.5t-31 19.5t-47 11t-69.5 8q-53 2 -123 6.5t-141.5 7.5t-138 5t-111.5 2h-160h-39q-20 0 -43 2q-43 0 -71.5 -3t-47 -13.5t-31 -29t-22.5 -48.5q-63 59 -128 85.5t-120 35.5h-133q-141 -16 -242.5 -40t-163.5 -59l-86 -51l-49 -31 q-90 -66 -162.5 -151.5t-124 -181t-79 -195.5t-27.5 -193v-30zM299 342q2 66 23.5 146.5t58.5 164.5t90 166t118.5 150.5t143.5 119t164 70.5q20 6 46 10.5t56 4.5q59 0 119 -37q51 -37 78 -108t37 -140q2 -16 3 -33.5t1 -34.5q0 -12 -1 -24.5t-1 -24.5l-25 -147 q-25 -98 -74 -195.5t-123.5 -176.5t-176 -129t-230.5 -54q-23 0 -59.5 13t-73.5 32q-82 27 -125 86t-47 133q-2 2 -2 8z" />
<glyph unicode="&#x153;" horiz-adv-x="1939" d="M-18 340q0 -6 4 -16l-2 4q4 -35 16 -74t47 -98q8 -14 15.5 -25.5t15.5 -21.5q2 -4 8 -11q55 -66 134 -102.5t196 -54.5q35 -8 68.5 -10.5t74.5 -2.5q98 0 180 18.5t148 59.5l19 -14q11 -8 24 -19q33 -25 64.5 -45t54.5 -20q41 0 71 5l68 11l37 6h2l506 72q39 4 56 10 t23 13q12 12 17.5 24t5.5 35v51h-20q-18 14 -45 19.5t-54 9.5h2q-6 2 -12 2t-12 2q-45 0 -82 -6q-20 -4 -40 -6t-36 -2h-12q-4 0 -5 1t-6 1h-10q-8 0 -18 -2l-51.5 -4.5t-44.5 -2.5q-10 0 -22.5 -1t-23.5 -1q-51 -4 -100 -7t-94 -9l-4 6q2 23 10 63l17 83l19 81q9 39 15 58 l4 2h99q27 0 54.5 1t63 3t83.5 6l116 10q10 0 25.5 1t34.5 3q16 2 28 3h19q57 10 69.5 36.5t12.5 55.5v39q-12 41 -56.5 51t-99.5 10h-182h-119q-57 0 -96 4l-2 4q2 14 9 43l16 64q9 35 20 69l18 62q16 0 24.5 1t16.5 3q10 2 18 2h27h66l307 12h63q23 0 31 8q45 10 60.5 31 t15.5 43v17q-10 23 -21.5 35t-29 20t-42 11t-61.5 7q-43 2 -99.5 5t-113.5 5l-110 5q-53 2 -91 2h-127h-30q-14 0 -33 2q-70 0 -100.5 -11.5t-49.5 -52.5q-47 41 -96 60.5t-90 25.5h-110q-117 -14 -200 -33.5t-134 -48.5l-70 -41q-27 -16 -41 -26q-74 -53 -133 -124 t-101 -150t-64.5 -160.5t-22.5 -157.5v-25v-12zM260 295q2 76 37 176t95.5 193.5t144.5 166t184 97.5q37 10 78 10q23 0 43 -5t41 -20q35 -27 54 -80t30 -106v-22q0 -6 1 -13.5t1 -13.5t-1 -11t-1 -10v-14l-19 -119q-18 -78 -56 -152.5t-95.5 -135t-135 -99.5t-176.5 -41 q-16 0 -43.5 10.5t-56.5 26.5q-59 16 -89 61.5t-34 100.5h-2zM1872 913h2h-2z" />
<glyph unicode="&#x178;" horiz-adv-x="1179" d="M-14 1221q0 -33 14 -68t31 -68q29 -43 59.5 -114.5t58 -149.5t48 -152.5t30.5 -123.5v-8l-84 -488q2 -45 60 -80l18 -18q90 -33 137 -33q43 0 63.5 29.5t36 97.5t34 176.5t59.5 263.5l11 55q5 24 13.5 44t22.5 42.5t37 51.5q74 109 192.5 243t302.5 306l23 17 q14 11 27.5 23.5t23.5 27t10 30.5v8q0 2 -1 3t-1 3l-14 27q-12 23 -46 36t-71 13q-57 0 -100 -45l-265 -292q-128 -144 -241 -292h-2q-16 29 -37.5 79t-46.5 114l-43 103q-23 52 -46.5 98.5t-50 83t-54.5 59.5q-14 4 -34 6t-36 2q-31 0 -61.5 -4t-47.5 -18q-18 -12 -24 -32 t-6 -46v-10zM227 1540q10 -47 55.5 -78.5t118.5 -34.5q82 0 133.5 28t51.5 75v2q-6 47 -52.5 80t-127.5 33h-5q-78 0 -126 -29t-48 -76zM633 1542q2 -47 47 -79.5t123 -35.5q78 0 131 28t53 75v2q-4 47 -52 80t-124 33h-10q-76 0 -122 -28t-46 -75z" />
<glyph unicode="&#x2c6;" horiz-adv-x="698" d="M98 1321q0 -33 11 -53q27 -53 69 -54q27 0 58 25l36 38l31 32l16 16q8 8 21 18q43 -4 72.5 -19t83.5 -56q12 -8 24 -14.5t29 -6.5q20 0 43 19q37 27 37 86q0 23 -5.5 41l-11.5 37v-3q-10 20 -18 28.5t-19 14.5q6 -4 -11 15.5t-50 44t-79 46t-99 21.5h-6q-29 0 -46.5 -18 t-27.5 -61q0 -10 -14.5 -20.5t-32.5 -20.5l-37 -22q-18 -11 -27 -21q-18 -16 -32.5 -46t-14.5 -67z" />
<glyph unicode="&#x2dc;" horiz-adv-x="913" d="M180 1280q0 -29 23.5 -49.5t64.5 -20.5q27 0 45.5 14.5t36.5 32.5q10 10 22.5 20.5t20.5 10.5l5 -6q5 -6 14 -12q20 -23 51 -45.5t90 -22.5q94 0 148.5 37t64.5 143v4q0 25 -27.5 43.5t-58.5 18.5q-25 0 -47.5 -11.5t-32.5 -35.5q-2 -4 -3 -10.5t-3 -10.5l-8 -25 q-4 -13 -15 -14q-10 0 -18 11l-18 22v-2q-18 23 -44 45.5t-77 22.5q-33 0 -72 -13.5t-75 -36t-60.5 -50t-26.5 -56.5v-4z" />
<glyph unicode="&#x2000;" horiz-adv-x="962" />
<glyph unicode="&#x2001;" horiz-adv-x="1925" />
<glyph unicode="&#x2002;" horiz-adv-x="962" />
<glyph unicode="&#x2003;" horiz-adv-x="1925" />
<glyph unicode="&#x2004;" horiz-adv-x="641" />
<glyph unicode="&#x2005;" horiz-adv-x="481" />
<glyph unicode="&#x2006;" horiz-adv-x="319" />
<glyph unicode="&#x2007;" horiz-adv-x="319" />
<glyph unicode="&#x2008;" horiz-adv-x="239" />
<glyph unicode="&#x2009;" horiz-adv-x="385" />
<glyph unicode="&#x200a;" horiz-adv-x="106" />
<glyph unicode="&#x2010;" horiz-adv-x="1099" d="M57 563q0 -8 2 -12v-14l12 -43q7 -27 21 -43q16 -25 57 -33t101 -8q25 0 51.5 1t56.5 1l54 4q27 2 55 2h4q12 0 65.5 1t115 3t116.5 5t72 7h41q53 0 77.5 3t45.5 18q18 8 23 17t5 26l-20 43q-10 20 -21 28q-53 49 -135 62.5t-176 13.5h-88q-20 0 -42 -2t-42 -2 q-51 0 -110.5 -1t-113 -3t-93 -4t-50.5 -4h2q-41 -8 -63.5 -17.5t-22.5 -40.5v-8z" />
<glyph unicode="&#x2011;" horiz-adv-x="1099" d="M57 563q0 -8 2 -12v-14l12 -43q7 -27 21 -43q16 -25 57 -33t101 -8q25 0 51.5 1t56.5 1l54 4q27 2 55 2h4q12 0 65.5 1t115 3t116.5 5t72 7h41q53 0 77.5 3t45.5 18q18 8 23 17t5 26l-20 43q-10 20 -21 28q-53 49 -135 62.5t-176 13.5h-88q-20 0 -42 -2t-42 -2 q-51 0 -110.5 -1t-113 -3t-93 -4t-50.5 -4h2q-41 -8 -63.5 -17.5t-22.5 -40.5v-8z" />
<glyph unicode="&#x2012;" horiz-adv-x="1099" d="M57 563q0 -8 2 -12v-14l12 -43q7 -27 21 -43q16 -25 57 -33t101 -8q25 0 51.5 1t56.5 1l54 4q27 2 55 2h4q12 0 65.5 1t115 3t116.5 5t72 7h41q53 0 77.5 3t45.5 18q18 8 23 17t5 26l-20 43q-10 20 -21 28q-53 49 -135 62.5t-176 13.5h-88q-20 0 -42 -2t-42 -2 q-51 0 -110.5 -1t-113 -3t-93 -4t-50.5 -4h2q-41 -8 -63.5 -17.5t-22.5 -40.5v-8z" />
<glyph unicode="&#x2013;" horiz-adv-x="1177" d="M49 692q0 -74 78 -133q12 -4 34.5 -7t39.5 -3h14q10 0 16 2q51 16 114 24l120 17q25 2 54.5 7t53.5 11q20 4 55.5 7.5t76 6.5t86 5t88.5 6q53 2 98 4t74 6q31 4 65.5 16.5t50.5 40.5l-2 -2q23 33 23 68q0 27 -17.5 50.5t-43 39.5t-56.5 26.5t-57 10.5q-37 0 -99.5 -4 t-130.5 -10l-129 -13q-61 -6 -98 -10q-12 -2 -38.5 -4t-59.5 -3t-69 -3t-66 -4q-29 0 -52.5 -1t-35.5 -3q-35 -4 -69 -13.5t-59.5 -27t-42 -44t-16.5 -63.5z" />
<glyph unicode="&#x2014;" horiz-adv-x="1552" d="M51 698q0 -74 78 -135q12 -4 34.5 -7t41.5 -3h14q4 0 17 4q27 6 72 12l102 14q55 7 115.5 13t113.5 12l94 9.5t82 11.5q20 4 59 7t88.5 6t104.5 6t111 5q76 4 139 6.5t94 6.5t66.5 15t52.5 40q10 16 17 30.5t7 36.5q0 27 -18 50.5t-45 40t-57.5 26.5t-57.5 10 q-37 0 -118.5 -4t-172 -9t-170 -11t-116.5 -10q-16 -2 -68.5 -6.5t-121.5 -8.5l-141 -8q-73 -4 -130 -6q-18 -2 -33.5 -3t-30.5 -1h-34q-35 -4 -69 -13.5t-60.5 -28t-43 -45t-16.5 -63.5z" />
<glyph unicode="&#x2018;" horiz-adv-x="548" d="M88 1260q0 -49 12.5 -102.5t31 -103.5t36.5 -93l31 -74q4 -4 5 -9.5t5 -9.5l-2 6l35 -76q18 -40 45 -71q39 -51 82 -51q25 0 46 12t44 33q20 18 37.5 57t17.5 74t-16 57v-2q-10 16 -16.5 19.5t-10.5 3.5h-6q-4 0 -6 2q-4 0 -4 2q-23 53 -39.5 112.5t-24.5 118.5 q-2 4 -2 19v100q0 41 -8 83t-37 77h2q-10 14 -27.5 20t-35.5 6q-35 0 -78 -19t-60 -36q-33 -29 -45 -68.5t-12 -86.5z" />
<glyph unicode="&#x2019;" horiz-adv-x="534" d="M43 895q0 -78 34 -100.5t97 -22.5q18 0 43 10.5t48.5 26.5t38.5 37.5t15 44.5q0 12 -5 21.5l-9 17.5q-2 0 -3 2l-1 2v4q16 57 37.5 112.5t52.5 108.5q10 16 22 30l23 28q35 39 61.5 80.5t26.5 103.5q0 27 -20.5 47t-49 35.5t-58 24t-46.5 8.5q-68 0 -115 -51.5 t-79.5 -123t-53.5 -147.5l-32 -125q-2 -10 -3 -12t-1 -8l-16 -80q-7 -39 -7 -74z" />
<glyph unicode="&#x201a;" horiz-adv-x="534" d="M43 -203q0 -78 34 -100.5t97 -22.5q18 0 43 10.5t48.5 27t38.5 38t15 43.5q0 12 -5 21.5l-9 17.5q-2 0 -3 2l-1 2v4q16 57 37.5 112.5t52.5 108.5q10 16 22 30l23 28q35 39 61.5 81t26.5 103q0 27 -20.5 47.5t-49 35.5t-58 23.5t-46.5 8.5q-68 0 -115 -51.5t-79.5 -123 t-53.5 -147.5l-32 -125q-2 -10 -3 -12t-1 -8l-16 -80q-7 -39 -7 -74z" />
<glyph unicode="&#x201c;" horiz-adv-x="925" d="M94 1272q0 -49 13.5 -102.5t33 -104.5t39.5 -94l35 -74q4 -4 5 -9t5 -9l-2 6l39 -79q20 -40 49 -73q39 -49 88 -49q45 0 76 23.5t41 85.5l-104 448l1 4q1 4 1 8q0 18 -6.5 57.5t-18.5 78t-32.5 68.5t-49.5 30q-18 0 -40.5 -6t-44 -14.5t-39 -18.5t-25.5 -18 q-35 -29 -49.5 -70t-14.5 -88zM467 1378q0 -92 32.5 -202.5t83 -206t109 -160t111.5 -64.5l96 23q4 10 4 37q0 33 -9 77t-21.5 91t-27.5 93l-28 83q-12 51 -20.5 78.5l-13.5 43t-9 24t-8 24.5q0 27 -1 50.5t-9 48t-24.5 53t-47.5 65.5q-37 45 -80 45t-82 -39 q-29 -27 -42 -69t-13 -95z" />
<glyph unicode="&#x201d;" horiz-adv-x="927" d="M45 905q0 -78 37 -100.5t104 -22.5q20 0 47 10.5t50.5 27t40 38t16.5 43.5q0 12 -5 21.5t-11 17.5l-2 4v4q16 57 38.5 113.5t55.5 109.5q10 18 23.5 32t25.5 28v-2q35 41 63.5 83t28.5 103q0 27 -21.5 49.5t-52 38t-61.5 23.5t-49 8q-72 0 -122 -52t-86 -126t-57.5 -151 t-33.5 -126q0 -8 -1 -10t-3 -12l2 2q-10 -39 -18.5 -79t-8.5 -75zM369 829q0 -20 8 -34.5t18 -24.5q2 -4 5 -7t10 -20q39 -27 59 -37t45 -10h47q23 0 48.5 3t47.5 24q14 18 39 53t25 64q0 23 -6 29l-15 18l-4 4h-2l22 83q11 42 32 77q14 23 27 39l28 32l31 40q14 19 24 43 t16.5 55.5t6.5 78.5q0 66 -29 89.5t-90 23.5q-66 0 -116 -26.5t-81 -92.5q-12 -29 -27 -54l-32 -54q-51 -92 -94 -188.5t-43 -207.5z" />
<glyph unicode="&#x201e;" horiz-adv-x="927" d="M45 -166q0 -78 37 -100.5t104 -22.5q20 0 47 10.5t50.5 26.5t40 37.5t16.5 44.5q0 12 -5 21.5t-11 17.5l-2 4v4q16 57 38.5 113.5t55.5 109.5q10 18 23.5 31.5t25.5 28.5v-2q35 41 63.5 83t28.5 103q0 27 -21.5 49.5t-52 37.5t-61.5 23.5t-49 8.5q-72 0 -122 -52.5 t-86 -126t-57.5 -150.5t-33.5 -126q0 -8 -1 -10t-3 -12l2 2q-10 -39 -18.5 -79t-8.5 -75zM369 -242q0 -20 8 -34.5t18 -24.5q2 -4 5 -7t10 -20q39 -27 59 -37t45 -10h47q23 0 48.5 3t47.5 24q14 18 39 53t25 64q0 23 -6 29l-15 18l-4 4h-2l22 83q11 42 32 77q14 23 27 38 l28 33l31 40q14 19 24 43t16.5 55.5t6.5 78.5q0 66 -29 89.5t-90 23.5q-66 0 -116 -26.5t-81 -92.5q-12 -29 -27 -54l-32 -54q-51 -92 -94 -188.5t-43 -207.5z" />
<glyph unicode="&#x2022;" horiz-adv-x="565" d="M68 662q0 -92 61 -147.5t145 -55.5q68 0 122.5 28.5t94 75.5t61 106.5t21.5 123.5q0 111 -61 166t-164 55q-74 0 -127 -33t-87 -83t-50 -112.5t-16 -123.5z" />
<glyph unicode="&#x2026;" horiz-adv-x="1370" d="M-33 131q0 -23 7.5 -39t17.5 -31q41 -31 76.5 -42t54.5 -11q29 0 55.5 7.5t46.5 17.5q39 20 64.5 53t27.5 72q0 70 -75 100q-20 10 -43 17.5t-45 7.5q-14 0 -22.5 -1t-20.5 -3q-55 -10 -96.5 -47t-47.5 -85v-16zM451 125q0 -23 7 -39t17 -31q41 -31 77 -42t54 -11 q29 0 55.5 7t47.5 18q39 20 64.5 53t27.5 72q0 70 -76 100q-20 10 -43 17t-45 7q-14 0 -22.5 -1t-20.5 -3q-55 -10 -96 -47t-47 -84v-16zM936 121q0 -23 7 -39t18 -31q41 -31 76.5 -42t54.5 -11q29 0 55.5 7t46.5 18q39 20 64.5 53t27.5 71q0 70 -76 101q-20 10 -42.5 17 t-45.5 7q-14 0 -22 -1t-21 -3q-55 -10 -96 -47t-47 -84v-16z" />
<glyph unicode="&#x202f;" horiz-adv-x="385" />
<glyph unicode="&#x2039;" horiz-adv-x="481" d="M74 637q-4 -41 6 -57.5t29 -26.5l196 -236l6 -6v2q14 -23 27.5 -35t40.5 -18h18q23 0 41.5 16.5t38.5 65.5v-2q4 8 5 13t3 12q4 23 -6 45t-43 53l-129 155l158 103q47 23 66.5 55.5t21.5 50.5q2 4 2 13q0 8 -6 14q-10 39 -23.5 51.5t-42.5 16.5h-6q-35 0 -67 -23 l-244 -160q-33 -14 -59.5 -40.5t-32.5 -61.5z" />
<glyph unicode="&#x203a;" horiz-adv-x="481" d="M39 340q0 -8 6 -14q10 -39 23.5 -51.5t42.5 -16.5h6q33 0 67 23l244 159q33 14 59.5 41t32.5 62q4 41 -6 57t-29 27l-196 235l-6 6v-2q-14 23 -27.5 35t-40.5 19h-18q-23 0 -41.5 -16.5t-38.5 -65.5v2q-4 -8 -5 -13.5t-3 -11.5q-4 -23 6 -45t43 -53l129 -156l-158 -102 q-47 -23 -66.5 -55.5t-21.5 -51.5q-2 -4 -2 -12z" />
<glyph unicode="&#x205f;" horiz-adv-x="481" />
<glyph unicode="&#x20ac;" horiz-adv-x="1280" d="M-51 455q6 -43 13 -74t22 -47q18 -25 59 -35q4 -43 13.5 -74.5t25.5 -62.5l45 -53q74 -98 184.5 -140.5t225.5 -58.5l66 -8q34 -4 71 -4q154 0 273.5 52t246.5 148q35 29 50.5 47.5t25.5 34.5q0 100 -94 101q-2 0 -19.5 -4.5t-42 -12.5t-51.5 -20.5t-45 -28.5 q-53 -29 -118.5 -58.5t-170.5 -58.5q-18 -6 -76 -6q-33 0 -82 10.5t-141 47.5q-33 31 -62.5 67.5t-45.5 81.5q27 0 88 1l127 2q66 1 122 3t72 6q41 0 68.5 2t45 5.5t29 8.5t21.5 11q18 8 23.5 17.5t5.5 25.5l-21 43q-10 20 -20 29q-53 49 -135 62t-177 13q-86 0 -118.5 -2 t-53.5 -2h-55q8 23 17.5 45.5l19.5 44.5q4 10 10 20.5t10 20.5q16 2 35 3t37 1h4q12 0 65.5 1.5t115 3.5t116.5 5t72 7h41q53 0 77.5 3t45.5 17q18 8 23 17.5t5 25.5l-20 43q-10 20 -21 29q-53 49 -135 62.5t-176 13.5h-88q-14 0 -27.5 -1t-27.5 -3q55 74 110 127 q57 61 125 103t140 42h6l184 -133l25 -13l46 -25q26 -13 27 -13q47 23 76 54.5t29 55.5q0 8 -2 13q-12 66 -58.5 107.5t-115.5 76.5q-55 29 -96.5 47t-73 29.5t-59 16.5t-58.5 5q-33 0 -78 -7t-98 -23q-143 -88 -261 -207t-204 -265q-23 -2 -39 -2q-14 0 -21 -2h3 q-41 -8 -64 -17t-23 -40q6 -43 13.5 -73.5t21.5 -47.5q4 -6 13 -14q-31 -78 -50 -164q-10 0 -16 -1t-10 -1q-41 -8 -63.5 -17t-22.5 -40z" />
<glyph unicode="&#x2122;" horiz-adv-x="1492" d="M150 1286q0 -10 5 -32.5t17 -46t33.5 -41t54.5 -17.5q4 0 9 1t10 1q25 4 46 9t44 14l2 1q2 1 4 1l-8 -91q-10 -86 -17 -181l-12 -199q10 -53 39 -77t76 -24h8q59 6 85.5 44t41.5 83q-2 12 -2 23v24q0 31 3 62.5t7 66.5q8 82 21.5 169l23.5 147q8 2 25 2h26q29 0 54.5 2 t54.5 12h2q43 14 64.5 54t29.5 71q4 12 4 18q0 14 2 21v10q0 20 -8 40t-37 42q-27 4 -47 5t-41 1q-61 0 -131 -9t-140.5 -22.5t-137 -31t-121.5 -33.5q-4 -2 -8.5 -5t-8.5 -5q-18 -10 -31.5 -19.5t-21.5 -19.5t-13 -26.5t-7 -43.5zM670 721q0 -35 19.5 -69t72.5 -38 q12 -4 18 -4h19q41 0 71.5 19.5t55.5 48.5q12 31 19 51l12 35l10 26l8 21q4 23 10 42l8 26v2q6 -35 9.5 -74l7.5 -86q23 -41 52.5 -56.5t63.5 -15.5q33 0 63 11.5t46 23.5q25 20 39 44t29 60v-2q10 16 16 35t16 35q6 -70 19 -143q8 -51 37.5 -71.5t66.5 -20.5q25 0 55 10 q82 31 91 110q0 4 1 8.5t1 8.5q0 14 -7 30v21q-4 20 -7 39.5t-5 44.5t-3 57.5t-1 81.5q0 27 -1 49.5t-1 40.5l-2 -2q0 47 1 87t5 106q2 10 4 19t2 20q2 6 6 22v23q0 8 -4 28q-10 47 -53 70t-90 23q-49 0 -90 -23q-41 -35 -51.5 -60.5t-18.5 -52.5q-4 -8 -6 -16t-8 -18 l-42 -88l-36 -74q0 16 -1 30.5t-1 28.5q0 49 6 105q2 6 2 18q0 8 -4 25v-2q-6 39 -47 66.5t-88 27.5t-93 -30t-61 -101l4 6l-31 -71l-30 -68l-94 -222q-43 -104 -82 -221l2 2q-4 -10 -5 -19t-3 -20q0 -4 -1 -10t-1 -10z" />
<glyph unicode="&#xe000;" horiz-adv-x="1175" d="M0 1175h1175v-1175h-1175v1175z" />
<glyph unicode="&#xfb01;" horiz-adv-x="1357" d="M891 70q10 -41 30 -62l2 -2l11 -6q-4 0 -8 4q4 -6 14 -10l119 -39h37l11 16l7 11q16 23 22.5 35t10.5 46q0 2 15 70l38 167l48 211l48 204q4 35 13 58l16 46q6 18 11 35.5t7 22.5v-3q8 29 17.5 69t17.5 81q0 27 -11 51.5t-31.5 43t-46.5 29.5t-54 11h-17q-12 10 -30 10 q-37 0 -71 -73.5t-68.5 -214t-73.5 -345t-84 -466.5zM-45 33q4 -23 14.5 -40.5t46.5 -45.5q16 -12 36 -16.5t63 -4.5q27 8 46 35t33.5 61.5t24.5 75.5l21 82q10 47 21 87t26 61v2l4 4h305q10 0 18.5 -1t18.5 -1h29q41 0 71.5 11t54.5 46l21 74v12q0 2 1 3t1 3 q0 45 -55.5 54.5t-194.5 9.5h-221l22 113l24 112q11 51 20.5 86t11.5 37l12 10q37 8 94.5 13.5t149.5 5.5h155q25 -2 49.5 -3t41.5 -1q53 0 76.5 16t23.5 63l-4 70v14q-23 23 -54.5 29t-70.5 6q-10 0 -21.5 -1t-21.5 -1h-43h-205h-117q-41 0 -59 -1t-33 -1q-16 0 -36.5 -1 t-67.5 -1q-8 2 -29 2q-33 0 -54.5 -12.5t-34.5 -34t-21.5 -49t-14.5 -58.5q-2 -8 -3 -14t-3 -14l-73 -357l-48 -241l-29 -151l-15 -81q-5 -27 -6 -35t-1 -12v-20zM336 520q0 2 1 3t1 5q0 -4 -1 -6z" />
<glyph unicode="&#xfb02;" horiz-adv-x="1720" d="M889 63q4 -35 10 -55t20 -37v-8q43 -23 71 -30t56 -7l132 18l114 13q55 6 105 12q84 8 163.5 20.5t163.5 33.5l15.5 36t5.5 31q0 41 -27 66.5t-57 25.5q-12 0 -19 -2q-20 -2 -37 -2q-16 0 -30 -2q-90 -10 -143 -15l-92 -9l-77.5 -7.5t-95.5 -5.5l-10 2v2v7l8 30v2 l170 570l6 6q4 14 11 30l12 33l33 94q16 47 16 89q0 47 -25.5 76.5t-97.5 29.5q-31 0 -61 -6h2q-70 -4 -102.5 -24.5t-43.5 -73.5q-16 -23 -17 -47.5t-1 -49.5v4l-32 -126l-24 -100l-22.5 -101.5l-26.5 -128.5q-10 -45 -20 -99l-25 -122l-6 -26q-4 -17 0 -7q-6 -35 -14 -74 t-8 -66zM-45 33q4 -23 14.5 -40.5t46.5 -45.5q16 -12 36 -16.5t63 -4.5q27 8 46 35t33.5 61.5t24.5 75.5l21 82q10 47 21 87t26 61v2l4 4h305q10 0 18.5 -1t18.5 -1h29q41 0 71.5 11t54.5 46l21 74v12q0 2 1 3t1 3q0 45 -55.5 54.5t-194.5 9.5h-221l22 113l24 112 q11 51 20.5 86t11.5 37l12 10q37 8 94.5 13.5t149.5 5.5h155q25 -2 49.5 -3t41.5 -1q53 0 76.5 16t23.5 63l-4 70v14q-23 23 -54.5 29t-70.5 6q-10 0 -21.5 -1t-21.5 -1h-43h-205h-117q-41 0 -59 -1t-33 -1q-16 0 -36.5 -1t-67.5 -1q-8 2 -29 2q-33 0 -54.5 -12.5t-34.5 -34 t-21.5 -49t-14.5 -58.5q-2 -8 -3 -14t-3 -14l-73 -357l-48 -241l-29 -151l-15 -81q-5 -27 -6 -35t-1 -12v-20zM336 520q0 2 1 3t1 5q0 -4 -1 -6z" />
<glyph unicode="&#xfb03;" horiz-adv-x="2260" d="M1794 70q10 -41 30 -62l2 -2l11 -6q-4 0 -8 4q4 -6 14 -10l119 -39h37l11 16l7 11q16 23 22.5 35t10.5 46q0 2 15 70l38 167l48 211l48 204q4 35 13 58l16 46q6 18 11 35.5t7 22.5v-3q8 29 17.5 69t17.5 81q0 27 -11 51.5t-31.5 43t-46.5 29.5t-54 11h-17q-12 10 -30 10 q-37 0 -71 -73.5t-68.5 -214t-73.5 -345t-84 -466.5zM858 33q4 -23 14.5 -40.5t46.5 -45.5q16 -12 36 -16.5t63 -4.5q27 8 46 35t33.5 61.5t24.5 75.5l21 82q10 47 21 87t26 61v2l4 4h305q10 0 18.5 -1t18.5 -1h29q41 0 71.5 11t54.5 46l21 74v12q0 2 1 3t1 3 q0 45 -55.5 54.5t-194.5 9.5h-221l22 113l24 112q11 51 20.5 86t11.5 37l12 10q37 8 94.5 13.5t149.5 5.5h155q25 -2 49.5 -3t41.5 -1q53 0 76.5 16t23.5 63l-4 70v14q-23 23 -54.5 29t-70.5 6q-10 0 -21.5 -1t-21.5 -1h-43h-205h-117q-41 0 -59 -1t-33 -1q-16 0 -36.5 -1 t-67.5 -1q-8 2 -29 2q-33 0 -54.5 -12.5t-34.5 -34t-21.5 -49t-14.5 -58.5q-2 -8 -3 -14t-3 -14l-73 -357l-48 -241l-29 -151l-15 -81q-5 -27 -6 -35t-1 -12v-20zM1239 520q0 2 1 3t1 5q0 -4 -1 -6zM-45 33q4 -23 14.5 -40.5t46.5 -45.5q16 -12 36 -16.5t63 -4.5q27 8 46 35 t33.5 61.5t24.5 75.5l21 82q10 47 21 87t26 61v2l4 4h305q10 0 18.5 -1t18.5 -1h29q41 0 71.5 11t54.5 46l21 74v12q0 2 1 3t1 3q0 45 -55.5 54.5t-194.5 9.5h-221l22 113l24 112q11 51 20.5 86t11.5 37l12 10q37 8 94.5 13.5t149.5 5.5h155q25 -2 49.5 -3t41.5 -1 q53 0 76.5 16t23.5 63l-4 70v14q-23 23 -54.5 29t-70.5 6q-10 0 -21.5 -1t-21.5 -1h-43h-205h-117q-41 0 -59 -1t-33 -1q-16 0 -36.5 -1t-67.5 -1q-8 2 -29 2q-33 0 -54.5 -12.5t-34.5 -34t-21.5 -49t-14.5 -58.5q-2 -8 -3 -14t-3 -14l-73 -357l-48 -241l-29 -151l-15 -81 q-5 -27 -6 -35t-1 -12v-20zM336 520q0 2 1 3t1 5q0 -4 -1 -6z" />
<glyph unicode="&#xfb04;" horiz-adv-x="2623" d="M1792 63q4 -35 10 -55t20 -37v-8q43 -23 71 -30t56 -7l132 18l114 13q55 6 105 12q84 8 163.5 20.5t163.5 33.5l15.5 36t5.5 31q0 41 -27 66.5t-57 25.5q-12 0 -19 -2q-20 -2 -37 -2q-16 0 -30 -2q-90 -10 -143 -15l-92 -9l-77.5 -7.5t-95.5 -5.5l-10 2v2v7l8 30v2 l170 570l6 6q4 14 11 30l12 33l33 94q16 47 16 89q0 47 -25.5 76.5t-97.5 29.5q-31 0 -61 -6h2q-70 -4 -102.5 -24.5t-43.5 -73.5q-16 -23 -17 -47.5t-1 -49.5v4l-32 -126l-24 -100l-22.5 -101.5l-26.5 -128.5q-10 -45 -20 -99l-25 -122l-6 -26q-4 -17 0 -7q-6 -35 -14 -74 t-8 -66zM858 33q4 -23 14.5 -40.5t46.5 -45.5q16 -12 36 -16.5t63 -4.5q27 8 46 35t33.5 61.5t24.5 75.5l21 82q10 47 21 87t26 61v2l4 4h305q10 0 18.5 -1t18.5 -1h29q41 0 71.5 11t54.5 46l21 74v12q0 2 1 3t1 3q0 45 -55.5 54.5t-194.5 9.5h-221l22 113l24 112 q11 51 20.5 86t11.5 37l12 10q37 8 94.5 13.5t149.5 5.5h155q25 -2 49.5 -3t41.5 -1q53 0 76.5 16t23.5 63l-4 70v14q-23 23 -54.5 29t-70.5 6q-10 0 -21.5 -1t-21.5 -1h-43h-205h-117q-41 0 -59 -1t-33 -1q-16 0 -36.5 -1t-67.5 -1q-8 2 -29 2q-33 0 -54.5 -12.5t-34.5 -34 t-21.5 -49t-14.5 -58.5q-2 -8 -3 -14t-3 -14l-73 -357l-48 -241l-29 -151l-15 -81q-5 -27 -6 -35t-1 -12v-20zM1239 520q0 2 1 3t1 5q0 -4 -1 -6zM-45 33q4 -23 14.5 -40.5t46.5 -45.5q16 -12 36 -16.5t63 -4.5q27 8 46 35t33.5 61.5t24.5 75.5l21 82q10 47 21 87t26 61v2 l4 4h305q10 0 18.5 -1t18.5 -1h29q41 0 71.5 11t54.5 46l21 74v12q0 2 1 3t1 3q0 45 -55.5 54.5t-194.5 9.5h-221l22 113l24 112q11 51 20.5 86t11.5 37l12 10q37 8 94.5 13.5t149.5 5.5h155q25 -2 49.5 -3t41.5 -1q53 0 76.5 16t23.5 63l-4 70v14q-23 23 -54.5 29t-70.5 6 q-10 0 -21.5 -1t-21.5 -1h-43h-205h-117q-41 0 -59 -1t-33 -1q-16 0 -36.5 -1t-67.5 -1q-8 2 -29 2q-33 0 -54.5 -12.5t-34.5 -34t-21.5 -49t-14.5 -58.5q-2 -8 -3 -14t-3 -14l-73 -357l-48 -241l-29 -151l-15 -81q-5 -27 -6 -35t-1 -12v-20zM336 520q0 2 1 3t1 5 q0 -4 -1 -6z" />
</font>
</defs>
</svg>
